%FSLAX33Y33*%
%MOMM*%
%ADD10C,0.15*%
%ADD11C,0.2032*%
%ADD12C,0.5*%
%ADD13C,0.5*%
%ADD14C,0.5*%
%ADD15C,0.5*%
D10*
%LNtop silkscreen_traces*%
%LNtop silkscreen component b91ffdef01e00872*%
G01*
X41715Y13644D02*
X41715Y14694D01*
X44335Y14694*
X44335Y13644*
X41715Y13644*
D11*
X40528Y13774D02*
X40528Y13774D01*
X40529Y13774*
X40639Y13774*
X40639Y13774*
X40656Y13774*
X40656Y13774*
X40670Y13774*
X40670Y13774*
X40682Y13772*
X40682Y13772*
X40692Y13771*
X40692Y13771*
X40703Y13768*
X40703Y13768*
X40713Y13763*
X40713Y13763*
X40724Y13758*
X40724Y13758*
X40735Y13752*
X40735Y13752*
X40746Y13744*
X40746Y13744*
X40758Y13733*
X40758Y13733*
X40770Y13720*
X40770Y13720*
X40783Y13704*
X40783Y13704*
X40797Y13685*
X40797Y13685*
X40814Y13662*
X40814Y13662*
X40832Y13636*
X40832Y13636*
X40852Y13605*
X40852Y13605*
X40946Y13457*
X41064Y13457*
X40940Y13651*
X40921Y13678*
X40902Y13703*
X40882Y13725*
X40861Y13746*
X40851Y13754*
X40838Y13763*
X40822Y13772*
X40804Y13781*
X40804Y13782*
X40853Y13792*
X40894Y13806*
X40929Y13825*
X40957Y13848*
X40978Y13876*
X40994Y13907*
X41003Y13940*
X41006Y13977*
X41004Y14005*
X40998Y14033*
X40989Y14059*
X40976Y14084*
X40960Y14107*
X40941Y14125*
X40920Y14141*
X40897Y14152*
X40869Y14160*
X40836Y14167*
X40796Y14170*
X40751Y14171*
X40435Y14171*
X40435Y13457*
X40528Y13457*
X40528Y13774*
X40529Y13856D02*
X40529Y13856D01*
X40732Y13856*
X40763Y13857*
X40790Y13859*
X40814Y13863*
X40834Y13869*
X40851Y13877*
X40866Y13887*
X40879Y13899*
X40890Y13912*
X40898Y13927*
X40904Y13943*
X40908Y13960*
X40909Y13977*
X40906Y14001*
X40899Y14023*
X40888Y14043*
X40872Y14060*
X40851Y14074*
X40824Y14085*
X40793Y14091*
X40755Y14093*
X40529Y14093*
X40529Y13856*
X41405Y13450D02*
X41405Y13450D01*
X41455Y13466*
X41499Y13493*
X41537Y13531*
X41561Y13568*
X41579Y13608*
X41590Y13652*
X41593Y13699*
X41589Y13747*
X41577Y13791*
X41557Y13831*
X41529Y13865*
X41495Y13894*
X41457Y13914*
X41416Y13926*
X41371Y13930*
X41336Y13927*
X41302Y13919*
X41269Y13905*
X41236Y13885*
X41235Y13885*
X41274Y14078*
X41274Y14079*
X41560Y14079*
X41560Y14162*
X41205Y14162*
X41135Y13795*
X41217Y13784*
X41228Y13799*
X41228Y13799*
X41240Y13812*
X41240Y13812*
X41255Y13824*
X41255Y13824*
X41271Y13834*
X41271Y13834*
X41288Y13843*
X41288Y13843*
X41307Y13849*
X41307Y13849*
X41327Y13852*
X41327Y13852*
X41348Y13854*
X41348Y13853*
X41380Y13851*
X41380Y13851*
X41410Y13843*
X41410Y13843*
X41436Y13829*
X41436Y13829*
X41459Y13810*
X41459Y13810*
X41477Y13786*
X41477Y13786*
X41490Y13758*
X41490Y13758*
X41498Y13727*
X41498Y13727*
X41501Y13691*
X41501Y13691*
X41498Y13653*
X41498Y13653*
X41490Y13619*
X41490Y13619*
X41476Y13590*
X41476Y13590*
X41457Y13564*
X41457Y13564*
X41434Y13543*
X41434Y13543*
X41408Y13528*
X41408Y13528*
X41380Y13519*
X41380Y13519*
X41349Y13516*
X41349Y13516*
X41324Y13518*
X41324Y13518*
X41300Y13524*
X41300Y13524*
X41278Y13535*
X41278Y13535*
X41259Y13550*
X41259Y13550*
X41242Y13569*
X41242Y13569*
X41228Y13592*
X41228Y13592*
X41218Y13620*
X41218Y13620*
X41211Y13651*
X41120Y13643*
X41127Y13601*
X41142Y13562*
X41163Y13528*
X41190Y13499*
X41223Y13475*
X41261Y13458*
X41303Y13448*
X41349Y13444*
X41405Y13450*
%LNtop silkscreen component 84cf0bd8b20b0987*%
D10*
X5995Y22773D02*
X7045Y22773D01*
X7045Y20152*
X5995Y20152*
X5995Y22773*
D11*
X6858Y19165D02*
X6858Y19165D01*
X6846Y19215*
X6827Y19260*
X6801Y19301*
X6766Y19336*
X6726Y19366*
X6678Y19390*
X6623Y19407*
X6600Y19314*
X6642Y19302*
X6642Y19302*
X6678Y19285*
X6679Y19285*
X6710Y19264*
X6710Y19264*
X6736Y19239*
X6736Y19239*
X6756Y19210*
X6756Y19210*
X6770Y19178*
X6770Y19178*
X6779Y19142*
X6779Y19142*
X6782Y19104*
X6782Y19104*
X6780Y19072*
X6780Y19072*
X6773Y19041*
X6773Y19041*
X6763Y19011*
X6763Y19011*
X6748Y18982*
X6748Y18982*
X6729Y18956*
X6729Y18956*
X6706Y18933*
X6705Y18933*
X6678Y18914*
X6678Y18914*
X6646Y18899*
X6646Y18899*
X6610Y18887*
X6610Y18887*
X6572Y18879*
X6572Y18879*
X6530Y18874*
X6530Y18874*
X6486Y18872*
X6486Y18872*
X6451Y18874*
X6451Y18874*
X6416Y18878*
X6416Y18878*
X6382Y18885*
X6382Y18885*
X6349Y18895*
X6349Y18895*
X6317Y18908*
X6317Y18908*
X6289Y18926*
X6289Y18926*
X6264Y18947*
X6264Y18947*
X6242Y18973*
X6242Y18973*
X6225Y19002*
X6225Y19002*
X6212Y19035*
X6212Y19035*
X6205Y19072*
X6205Y19072*
X6203Y19111*
X6203Y19111*
X6205Y19146*
X6205Y19146*
X6211Y19177*
X6211Y19177*
X6223Y19205*
X6223Y19205*
X6238Y19231*
X6238Y19231*
X6259Y19253*
X6259Y19253*
X6285Y19273*
X6285Y19273*
X6316Y19289*
X6316Y19289*
X6352Y19303*
X6330Y19395*
X6284Y19378*
X6243Y19356*
X6207Y19327*
X6177Y19294*
X6153Y19255*
X6136Y19212*
X6126Y19165*
X6122Y19113*
X6125Y19067*
X6133Y19023*
X6147Y18980*
X6166Y18940*
X6190Y18903*
X6219Y18870*
X6253Y18842*
X6292Y18818*
X6335Y18800*
X6382Y18786*
X6433Y18778*
X6487Y18776*
X6537Y18778*
X6586Y18785*
X6633Y18797*
X6678Y18814*
X6720Y18835*
X6757Y18860*
X6789Y18890*
X6815Y18924*
X6835Y18963*
X6850Y19007*
X6859Y19057*
X6862Y19112*
X6858Y19165*
X6858Y19774D02*
X6858Y19774D01*
X6846Y19820*
X6827Y19860*
X6799Y19895*
X6766Y19923*
X6730Y19943*
X6689Y19955*
X6645Y19959*
X6613Y19957*
X6584Y19951*
X6556Y19940*
X6531Y19925*
X6509Y19906*
X6490Y19883*
X6475Y19856*
X6462Y19825*
X6461Y19825*
X6450Y19850*
X6437Y19871*
X6422Y19889*
X6405Y19904*
X6385Y19915*
X6365Y19924*
X6342Y19928*
X6318Y19930*
X6281Y19926*
X6246Y19916*
X6215Y19898*
X6186Y19873*
X6162Y19842*
X6145Y19807*
X6135Y19767*
X6132Y19723*
X6135Y19678*
X6145Y19639*
X6162Y19604*
X6185Y19573*
X6213Y19549*
X6244Y19531*
X6278Y19521*
X6316Y19517*
X6341Y19519*
X6364Y19524*
X6385Y19532*
X6404Y19544*
X6422Y19559*
X6437Y19577*
X6450Y19599*
X6461Y19625*
X6462Y19625*
X6473Y19594*
X6487Y19567*
X6505Y19544*
X6526Y19524*
X6551Y19509*
X6579Y19498*
X6610Y19491*
X6643Y19489*
X6688Y19493*
X6729Y19505*
X6766Y19525*
X6799Y19553*
X6826Y19588*
X6846Y19628*
X6858Y19674*
X6862Y19724*
X6858Y19774*
X6313Y19607D02*
X6313Y19607D01*
X6337Y19609*
X6359Y19615*
X6379Y19625*
X6396Y19640*
X6410Y19657*
X6420Y19677*
X6426Y19700*
X6428Y19725*
X6426Y19749*
X6420Y19771*
X6410Y19790*
X6396Y19808*
X6379Y19822*
X6361Y19832*
X6340Y19838*
X6318Y19840*
X6295Y19838*
X6273Y19832*
X6254Y19821*
X6236Y19807*
X6222Y19789*
X6212Y19769*
X6206Y19747*
X6204Y19724*
X6206Y19699*
X6212Y19678*
X6222Y19658*
X6236Y19640*
X6253Y19626*
X6271Y19615*
X6291Y19609*
X6313Y19607*
X6643Y19579D02*
X6643Y19579D01*
X6662Y19580*
X6680Y19583*
X6698Y19589*
X6716Y19596*
X6733Y19606*
X6747Y19618*
X6760Y19633*
X6771Y19649*
X6779Y19667*
X6785Y19686*
X6789Y19705*
X6790Y19725*
X6787Y19755*
X6780Y19782*
X6767Y19807*
X6749Y19829*
X6728Y19847*
X6703Y19860*
X6676Y19867*
X6646Y19870*
X6616Y19867*
X6588Y19859*
X6564Y19846*
X6541Y19828*
X6523Y19805*
X6510Y19780*
X6502Y19752*
X6500Y19722*
X6502Y19692*
X6510Y19665*
X6523Y19641*
X6541Y19619*
X6563Y19601*
X6587Y19589*
X6614Y19581*
X6643Y19579*
%LNtop silkscreen component ec25ffb4a5f22221*%
D10*
X23730Y5173D02*
X23730Y6223D01*
X26351Y6223*
X26351Y5173*
X23730Y5173*
D11*
X25137Y4242D02*
X25137Y4242D01*
X25187Y4254*
X25232Y4273*
X25273Y4299*
X25308Y4334*
X25338Y4374*
X25362Y4422*
X25379Y4477*
X25286Y4500*
X25274Y4458*
X25274Y4458*
X25257Y4422*
X25257Y4421*
X25236Y4390*
X25236Y4390*
X25211Y4364*
X25211Y4364*
X25182Y4344*
X25182Y4344*
X25149Y4330*
X25149Y4330*
X25114Y4321*
X25114Y4321*
X25076Y4318*
X25076Y4318*
X25044Y4320*
X25044Y4320*
X25013Y4327*
X25013Y4327*
X24983Y4337*
X24983Y4337*
X24954Y4352*
X24954Y4352*
X24928Y4371*
X24928Y4371*
X24905Y4394*
X24905Y4395*
X24886Y4422*
X24886Y4422*
X24871Y4454*
X24871Y4454*
X24859Y4490*
X24859Y4490*
X24851Y4528*
X24851Y4528*
X24846Y4570*
X24846Y4570*
X24844Y4614*
X24844Y4614*
X24846Y4649*
X24846Y4649*
X24850Y4684*
X24850Y4684*
X24857Y4718*
X24857Y4718*
X24867Y4751*
X24867Y4751*
X24880Y4783*
X24880Y4783*
X24898Y4811*
X24898Y4811*
X24919Y4836*
X24919Y4836*
X24945Y4858*
X24945Y4858*
X24974Y4875*
X24974Y4875*
X25007Y4888*
X25007Y4888*
X25043Y4895*
X25044Y4895*
X25083Y4897*
X25083Y4897*
X25118Y4895*
X25118Y4895*
X25149Y4889*
X25149Y4889*
X25177Y4877*
X25177Y4877*
X25203Y4862*
X25203Y4862*
X25225Y4841*
X25225Y4841*
X25244Y4815*
X25244Y4815*
X25261Y4784*
X25261Y4784*
X25275Y4748*
X25367Y4770*
X25350Y4816*
X25327Y4857*
X25299Y4893*
X25265Y4923*
X25227Y4947*
X25184Y4964*
X25137Y4974*
X25085Y4978*
X25039Y4975*
X24994Y4967*
X24952Y4953*
X24912Y4934*
X24875Y4910*
X24842Y4881*
X24814Y4847*
X24790Y4808*
X24772Y4765*
X24758Y4718*
X24750Y4667*
X24748Y4613*
X24750Y4563*
X24757Y4514*
X24769Y4467*
X24786Y4422*
X24807Y4380*
X24832Y4343*
X24862Y4311*
X24896Y4285*
X24935Y4265*
X24979Y4250*
X25029Y4241*
X25084Y4238*
X25137Y4242*
X25792Y4968D02*
X25792Y4968D01*
X25736Y4968*
X25722Y4945*
X25722Y4945*
X25705Y4921*
X25705Y4921*
X25683Y4897*
X25683Y4897*
X25658Y4873*
X25658Y4873*
X25629Y4849*
X25629Y4849*
X25598Y4827*
X25598Y4827*
X25564Y4807*
X25564Y4807*
X25529Y4789*
X25529Y4705*
X25549Y4713*
X25572Y4723*
X25596Y4736*
X25621Y4750*
X25645Y4765*
X25667Y4780*
X25687Y4795*
X25704Y4811*
X25705Y4810*
X25705Y4251*
X25792Y4251*
X25792Y4968*
X26479Y4334D02*
X26479Y4334D01*
X26128Y4334*
X26127Y4334*
X26135Y4347*
X26135Y4347*
X26144Y4359*
X26144Y4359*
X26154Y4371*
X26154Y4371*
X26165Y4382*
X26165Y4382*
X26180Y4397*
X26180Y4397*
X26201Y4417*
X26201Y4417*
X26230Y4442*
X26230Y4442*
X26266Y4473*
X26310Y4510*
X26348Y4544*
X26378Y4573*
X26402Y4598*
X26421Y4621*
X26437Y4643*
X26450Y4665*
X26460Y4686*
X26468Y4707*
X26473Y4728*
X26477Y4749*
X26478Y4770*
X26474Y4810*
X26463Y4847*
X26444Y4881*
X26418Y4911*
X26385Y4936*
X26347Y4954*
X26304Y4965*
X26255Y4968*
X26207Y4965*
X26164Y4955*
X26126Y4939*
X26093Y4915*
X26066Y4886*
X26045Y4851*
X26031Y4809*
X26023Y4762*
X26112Y4753*
X26115Y4784*
X26115Y4784*
X26122Y4813*
X26122Y4813*
X26134Y4837*
X26134Y4837*
X26151Y4858*
X26151Y4858*
X26172Y4875*
X26172Y4875*
X26196Y4887*
X26196Y4887*
X26223Y4894*
X26223Y4894*
X26253Y4897*
X26253Y4897*
X26282Y4894*
X26282Y4894*
X26308Y4888*
X26308Y4887*
X26331Y4876*
X26331Y4876*
X26351Y4860*
X26351Y4860*
X26367Y4841*
X26367Y4841*
X26379Y4820*
X26379Y4820*
X26386Y4797*
X26386Y4797*
X26388Y4772*
X26388Y4772*
X26386Y4747*
X26386Y4747*
X26378Y4720*
X26378Y4720*
X26365Y4694*
X26365Y4694*
X26347Y4666*
X26347Y4666*
X26322Y4635*
X26322Y4635*
X26287Y4600*
X26287Y4600*
X26243Y4560*
X26243Y4560*
X26189Y4514*
X26189Y4514*
X26154Y4484*
X26123Y4456*
X26097Y4430*
X26075Y4406*
X26056Y4382*
X26040Y4359*
X26027Y4335*
X26017Y4311*
X26012Y4296*
X26009Y4281*
X26007Y4266*
X26007Y4251*
X26479Y4251*
X26479Y4334*
%LNtop silkscreen component ddd6a926bc8c1dc3*%
D10*
X12110Y6040D02*
X11060Y6040D01*
X11060Y8660*
X12110Y8660*
X12110Y6040*
D11*
X11532Y4798D02*
X11532Y4798D01*
X11532Y4799*
X11532Y4909*
X11532Y4909*
X11532Y4926*
X11532Y4926*
X11532Y4940*
X11532Y4940*
X11534Y4952*
X11534Y4952*
X11535Y4962*
X11535Y4962*
X11538Y4973*
X11538Y4973*
X11543Y4983*
X11543Y4983*
X11548Y4994*
X11548Y4994*
X11554Y5005*
X11554Y5005*
X11562Y5016*
X11562Y5016*
X11573Y5028*
X11573Y5028*
X11586Y5040*
X11586Y5040*
X11602Y5053*
X11602Y5053*
X11621Y5067*
X11621Y5067*
X11644Y5084*
X11644Y5084*
X11670Y5102*
X11670Y5102*
X11701Y5122*
X11701Y5122*
X11849Y5216*
X11849Y5334*
X11655Y5210*
X11628Y5191*
X11603Y5172*
X11581Y5152*
X11560Y5131*
X11552Y5121*
X11543Y5108*
X11534Y5092*
X11525Y5074*
X11524Y5074*
X11514Y5123*
X11500Y5164*
X11481Y5199*
X11458Y5227*
X11430Y5248*
X11399Y5264*
X11366Y5273*
X11329Y5276*
X11301Y5274*
X11273Y5268*
X11247Y5259*
X11222Y5246*
X11199Y5230*
X11181Y5211*
X11165Y5190*
X11154Y5167*
X11146Y5139*
X11140Y5106*
X11136Y5066*
X11135Y5021*
X11135Y4705*
X11849Y4705*
X11849Y4798*
X11532Y4798*
X11450Y4799D02*
X11450Y4799D01*
X11450Y5002*
X11449Y5033*
X11447Y5060*
X11443Y5084*
X11437Y5104*
X11429Y5121*
X11419Y5136*
X11407Y5149*
X11394Y5160*
X11379Y5168*
X11363Y5174*
X11347Y5178*
X11329Y5179*
X11305Y5176*
X11283Y5169*
X11263Y5158*
X11246Y5142*
X11232Y5121*
X11221Y5094*
X11215Y5063*
X11213Y5025*
X11213Y4799*
X11450Y4799*
X11766Y5851D02*
X11766Y5851D01*
X11766Y5500*
X11766Y5499*
X11753Y5507*
X11753Y5507*
X11741Y5516*
X11741Y5516*
X11729Y5526*
X11729Y5526*
X11718Y5537*
X11718Y5537*
X11703Y5552*
X11703Y5552*
X11683Y5573*
X11683Y5573*
X11658Y5602*
X11658Y5602*
X11627Y5638*
X11590Y5682*
X11556Y5720*
X11527Y5750*
X11502Y5774*
X11479Y5793*
X11457Y5809*
X11435Y5822*
X11414Y5832*
X11393Y5840*
X11372Y5845*
X11351Y5848*
X11330Y5850*
X11290Y5846*
X11253Y5835*
X11219Y5816*
X11189Y5790*
X11164Y5757*
X11146Y5719*
X11135Y5676*
X11132Y5627*
X11135Y5579*
X11145Y5535*
X11161Y5497*
X11185Y5465*
X11214Y5438*
X11249Y5417*
X11291Y5403*
X11338Y5395*
X11347Y5484*
X11316Y5487*
X11316Y5487*
X11287Y5494*
X11287Y5494*
X11263Y5506*
X11263Y5506*
X11242Y5523*
X11242Y5523*
X11225Y5544*
X11225Y5544*
X11213Y5568*
X11213Y5568*
X11206Y5595*
X11206Y5595*
X11203Y5625*
X11203Y5625*
X11206Y5654*
X11206Y5654*
X11212Y5680*
X11213Y5680*
X11224Y5703*
X11224Y5703*
X11240Y5723*
X11240Y5723*
X11259Y5739*
X11259Y5739*
X11280Y5751*
X11280Y5751*
X11303Y5758*
X11303Y5758*
X11328Y5760*
X11328Y5760*
X11353Y5758*
X11353Y5758*
X11380Y5750*
X11380Y5750*
X11406Y5737*
X11406Y5737*
X11434Y5719*
X11434Y5719*
X11465Y5694*
X11465Y5694*
X11500Y5659*
X11500Y5659*
X11540Y5615*
X11540Y5615*
X11586Y5561*
X11586Y5561*
X11616Y5526*
X11644Y5495*
X11670Y5469*
X11694Y5446*
X11718Y5428*
X11741Y5412*
X11765Y5399*
X11789Y5389*
X11804Y5384*
X11819Y5381*
X11834Y5379*
X11849Y5378*
X11849Y5851*
X11766Y5851*
%LNtop silkscreen component fce28939f63c5dc8*%
D10*
X10548Y24600D02*
X10548Y23550D01*
X7927Y23550*
X7927Y24600*
X10548Y24600*
D11*
X6598Y23968D02*
X6598Y23968D01*
X6599Y23968*
X6709Y23968*
X6709Y23968*
X6726Y23968*
X6726Y23968*
X6740Y23968*
X6740Y23968*
X6752Y23966*
X6752Y23966*
X6762Y23965*
X6762Y23965*
X6773Y23962*
X6773Y23962*
X6783Y23957*
X6783Y23957*
X6794Y23952*
X6794Y23952*
X6805Y23946*
X6805Y23946*
X6816Y23938*
X6816Y23938*
X6828Y23927*
X6828Y23927*
X6840Y23914*
X6840Y23914*
X6853Y23898*
X6853Y23898*
X6867Y23879*
X6867Y23879*
X6884Y23856*
X6884Y23856*
X6902Y23830*
X6902Y23830*
X6922Y23799*
X6922Y23799*
X7016Y23651*
X7134Y23651*
X7010Y23845*
X6991Y23872*
X6972Y23897*
X6952Y23919*
X6931Y23940*
X6921Y23948*
X6908Y23957*
X6892Y23966*
X6874Y23975*
X6874Y23976*
X6923Y23986*
X6964Y24000*
X6999Y24019*
X7027Y24042*
X7048Y24070*
X7064Y24101*
X7073Y24134*
X7076Y24171*
X7074Y24199*
X7068Y24227*
X7059Y24253*
X7046Y24278*
X7030Y24301*
X7011Y24319*
X6990Y24335*
X6967Y24346*
X6939Y24354*
X6906Y24360*
X6866Y24364*
X6821Y24365*
X6505Y24365*
X6505Y23651*
X6598Y23651*
X6598Y23968*
X6599Y24050D02*
X6599Y24050D01*
X6802Y24050*
X6833Y24051*
X6860Y24053*
X6884Y24057*
X6904Y24063*
X6921Y24071*
X6936Y24081*
X6949Y24093*
X6960Y24106*
X6968Y24121*
X6974Y24137*
X6978Y24153*
X6979Y24171*
X6976Y24195*
X6969Y24217*
X6958Y24237*
X6942Y24254*
X6921Y24268*
X6894Y24279*
X6863Y24285*
X6825Y24287*
X6599Y24287*
X6599Y24050*
X7467Y23642D02*
X7467Y23642D01*
X7512Y23654*
X7553Y23674*
X7590Y23703*
X7620Y23737*
X7641Y23775*
X7654Y23816*
X7658Y23861*
X7656Y23895*
X7649Y23925*
X7638Y23952*
X7623Y23977*
X7604Y23998*
X7581Y24015*
X7554Y24028*
X7524Y24037*
X7524Y24038*
X7547Y24050*
X7567Y24064*
X7584Y24081*
X7598Y24099*
X7609Y24118*
X7617Y24139*
X7621Y24160*
X7623Y24183*
X7621Y24207*
X7616Y24230*
X7608Y24253*
X7597Y24275*
X7582Y24295*
X7565Y24314*
X7545Y24329*
X7521Y24343*
X7496Y24354*
X7470Y24362*
X7442Y24367*
X7414Y24368*
X7373Y24365*
X7336Y24356*
X7302Y24341*
X7272Y24320*
X7246Y24293*
X7225Y24261*
X7210Y24225*
X7199Y24184*
X7286Y24168*
X7292Y24198*
X7292Y24198*
X7302Y24224*
X7302Y24224*
X7314Y24246*
X7314Y24246*
X7330Y24265*
X7330Y24265*
X7348Y24279*
X7348Y24279*
X7369Y24289*
X7369Y24289*
X7391Y24295*
X7391Y24295*
X7416Y24297*
X7416Y24297*
X7440Y24295*
X7441Y24295*
X7463Y24289*
X7463Y24289*
X7483Y24279*
X7483Y24279*
X7501Y24265*
X7501Y24265*
X7515Y24248*
X7515Y24248*
X7525Y24229*
X7525Y24229*
X7531Y24208*
X7531Y24208*
X7533Y24185*
X7533Y24185*
X7531Y24156*
X7531Y24156*
X7522Y24131*
X7522Y24131*
X7508Y24111*
X7508Y24111*
X7488Y24094*
X7488Y24094*
X7465Y24081*
X7465Y24081*
X7440Y24072*
X7440Y24072*
X7414Y24066*
X7414Y24066*
X7387Y24065*
X7387Y24065*
X7384Y24065*
X7384Y24065*
X7381Y24065*
X7381Y24065*
X7377Y24065*
X7377Y24065*
X7373Y24065*
X7364Y23990*
X7381Y23994*
X7381Y23994*
X7397Y23997*
X7397Y23997*
X7412Y23999*
X7412Y23999*
X7425Y23999*
X7425Y23999*
X7454Y23997*
X7454Y23997*
X7481Y23989*
X7481Y23989*
X7505Y23977*
X7505Y23977*
X7526Y23960*
X7526Y23960*
X7543Y23939*
X7543Y23939*
X7556Y23915*
X7556Y23915*
X7563Y23889*
X7563Y23888*
X7566Y23859*
X7566Y23859*
X7563Y23829*
X7563Y23829*
X7555Y23801*
X7555Y23801*
X7542Y23776*
X7542Y23775*
X7523Y23753*
X7523Y23753*
X7500Y23734*
X7500Y23734*
X7475Y23720*
X7475Y23720*
X7448Y23712*
X7448Y23712*
X7418Y23710*
X7418Y23710*
X7392Y23712*
X7392Y23712*
X7369Y23718*
X7369Y23718*
X7348Y23728*
X7348Y23728*
X7329Y23743*
X7329Y23743*
X7312Y23762*
X7312Y23762*
X7298Y23786*
X7298Y23786*
X7286Y23816*
X7286Y23816*
X7277Y23850*
X7190Y23839*
X7198Y23796*
X7212Y23758*
X7233Y23724*
X7261Y23694*
X7294Y23669*
X7331Y23652*
X7372Y23641*
X7417Y23638*
X7467Y23642*
%LNtop silkscreen component 8c92817f578251b9*%
D10*
X14422Y6040D02*
X13372Y6040D01*
X13372Y8660*
X14422Y8660*
X14422Y6040*
D11*
X14275Y5065D02*
X14275Y5065D01*
X14263Y5115*
X14244Y5160*
X14217Y5201*
X14183Y5236*
X14142Y5266*
X14094Y5290*
X14040Y5307*
X14016Y5214*
X14058Y5202*
X14058Y5202*
X14095Y5185*
X14095Y5185*
X14127Y5164*
X14127Y5164*
X14152Y5139*
X14152Y5139*
X14172Y5110*
X14173Y5110*
X14187Y5078*
X14187Y5078*
X14196Y5042*
X14196Y5042*
X14198Y5004*
X14198Y5004*
X14196Y4972*
X14196Y4972*
X14190Y4941*
X14190Y4941*
X14179Y4911*
X14179Y4911*
X14165Y4882*
X14165Y4882*
X14146Y4856*
X14146Y4856*
X14122Y4833*
X14122Y4833*
X14095Y4814*
X14095Y4814*
X14063Y4799*
X14063Y4799*
X14027Y4787*
X14027Y4787*
X13989Y4779*
X13989Y4779*
X13947Y4774*
X13947Y4774*
X13903Y4772*
X13903Y4772*
X13868Y4774*
X13868Y4774*
X13833Y4778*
X13833Y4778*
X13799Y4785*
X13799Y4785*
X13765Y4795*
X13765Y4795*
X13734Y4808*
X13734Y4808*
X13705Y4826*
X13705Y4826*
X13680Y4847*
X13680Y4847*
X13659Y4873*
X13659Y4873*
X13642Y4902*
X13642Y4902*
X13629Y4935*
X13629Y4935*
X13622Y4972*
X13622Y4972*
X13619Y5011*
X13619Y5011*
X13621Y5046*
X13621Y5046*
X13628Y5077*
X13628Y5077*
X13639Y5105*
X13639Y5105*
X13655Y5131*
X13655Y5131*
X13676Y5153*
X13676Y5153*
X13701Y5173*
X13701Y5173*
X13733Y5189*
X13733Y5189*
X13769Y5203*
X13747Y5295*
X13701Y5278*
X13659Y5256*
X13624Y5227*
X13594Y5194*
X13570Y5155*
X13553Y5112*
X13543Y5065*
X13539Y5013*
X13542Y4967*
X13550Y4923*
X13563Y4880*
X13582Y4840*
X13606Y4803*
X13635Y4770*
X13670Y4742*
X13709Y4718*
X13752Y4700*
X13799Y4686*
X13849Y4678*
X13903Y4676*
X13954Y4678*
X14003Y4685*
X14050Y4697*
X14095Y4714*
X14137Y4735*
X14174Y4760*
X14205Y4790*
X14231Y4824*
X14252Y4863*
X14267Y4907*
X14275Y4957*
X14278Y5012*
X14275Y5065*
X14273Y5675D02*
X14273Y5675D01*
X14257Y5725*
X14230Y5769*
X14192Y5807*
X14155Y5831*
X14114Y5849*
X14071Y5860*
X14024Y5863*
X13975Y5859*
X13931Y5847*
X13892Y5827*
X13857Y5799*
X13829Y5765*
X13809Y5727*
X13797Y5686*
X13793Y5641*
X13795Y5606*
X13804Y5572*
X13818Y5539*
X13838Y5506*
X13837Y5505*
X13644Y5544*
X13644Y5544*
X13644Y5830*
X13561Y5830*
X13561Y5475*
X13928Y5405*
X13939Y5487*
X13924Y5498*
X13924Y5498*
X13911Y5510*
X13911Y5510*
X13899Y5525*
X13899Y5525*
X13889Y5541*
X13889Y5541*
X13880Y5558*
X13880Y5558*
X13874Y5577*
X13874Y5577*
X13870Y5597*
X13870Y5597*
X13869Y5618*
X13869Y5618*
X13872Y5650*
X13872Y5650*
X13880Y5680*
X13880Y5680*
X13894Y5706*
X13894Y5706*
X13913Y5729*
X13913Y5729*
X13937Y5747*
X13937Y5747*
X13964Y5760*
X13964Y5760*
X13996Y5768*
X13996Y5768*
X14032Y5771*
X14032Y5771*
X14070Y5768*
X14070Y5768*
X14103Y5760*
X14103Y5760*
X14133Y5746*
X14133Y5746*
X14159Y5727*
X14159Y5727*
X14180Y5704*
X14180Y5704*
X14195Y5678*
X14195Y5678*
X14204Y5650*
X14204Y5650*
X14207Y5619*
X14207Y5619*
X14205Y5594*
X14205Y5594*
X14199Y5570*
X14199Y5570*
X14188Y5548*
X14188Y5548*
X14173Y5529*
X14173Y5529*
X14154Y5512*
X14154Y5512*
X14131Y5498*
X14131Y5498*
X14103Y5488*
X14103Y5488*
X14072Y5481*
X14080Y5390*
X14122Y5397*
X14160Y5412*
X14194Y5433*
X14224Y5460*
X14248Y5493*
X14265Y5531*
X14275Y5573*
X14278Y5619*
X14273Y5675*
%LNtop silkscreen component b727e9ed986f8142*%
D10*
X23445Y16075D02*
X23445Y18625D01*
X26595Y18625*
X26595Y16075*
X23445Y16075*
D11*
X22548Y17928D02*
X22548Y17928D01*
X22548Y17928*
X22833Y18340*
X22724Y18340*
X22586Y18130*
X22563Y18096*
X22543Y18063*
X22524Y18033*
X22507Y18003*
X22507Y18003*
X22489Y18034*
X22472Y18064*
X22453Y18094*
X22434Y18125*
X22293Y18340*
X22179Y18340*
X22454Y17928*
X22454Y17928*
X22454Y17626*
X22548Y17626*
X22548Y17928*
X23214Y18343D02*
X23214Y18343D01*
X23158Y18343*
X23145Y18320*
X23145Y18320*
X23127Y18296*
X23127Y18296*
X23106Y18272*
X23106Y18272*
X23080Y18248*
X23080Y18248*
X23051Y18224*
X23051Y18224*
X23020Y18202*
X23020Y18202*
X22987Y18182*
X22987Y18182*
X22951Y18164*
X22951Y18080*
X22972Y18088*
X22994Y18098*
X23018Y18111*
X23043Y18125*
X23068Y18140*
X23090Y18155*
X23109Y18170*
X23127Y18186*
X23127Y18185*
X23127Y17626*
X23214Y17626*
X23214Y18343*
D12*
X22995Y16650D03*
%LNtop silkscreen component d2a4fe636fd95985*%
D10*
X23730Y6465D02*
X23730Y7515D01*
X26351Y7515*
X26351Y6465*
X23730Y6465*
D11*
X25398Y8068D02*
X25398Y8068D01*
X25399Y8068*
X25509Y8068*
X25509Y8068*
X25526Y8068*
X25526Y8068*
X25540Y8068*
X25540Y8068*
X25552Y8066*
X25552Y8066*
X25562Y8065*
X25562Y8065*
X25573Y8062*
X25573Y8062*
X25583Y8057*
X25583Y8057*
X25594Y8052*
X25594Y8052*
X25605Y8046*
X25605Y8046*
X25616Y8038*
X25616Y8038*
X25628Y8027*
X25628Y8027*
X25640Y8014*
X25640Y8014*
X25653Y7998*
X25653Y7998*
X25667Y7979*
X25667Y7979*
X25684Y7956*
X25684Y7956*
X25702Y7930*
X25702Y7930*
X25722Y7899*
X25722Y7899*
X25816Y7751*
X25934Y7751*
X25810Y7945*
X25791Y7972*
X25772Y7997*
X25752Y8019*
X25731Y8040*
X25721Y8048*
X25708Y8057*
X25692Y8066*
X25674Y8075*
X25674Y8076*
X25723Y8086*
X25764Y8100*
X25799Y8119*
X25827Y8142*
X25848Y8170*
X25864Y8200*
X25873Y8234*
X25876Y8271*
X25874Y8299*
X25868Y8327*
X25859Y8353*
X25846Y8378*
X25830Y8401*
X25811Y8419*
X25790Y8435*
X25767Y8446*
X25739Y8454*
X25706Y8460*
X25666Y8464*
X25621Y8465*
X25305Y8465*
X25305Y7751*
X25398Y7751*
X25398Y8068*
X25399Y8150D02*
X25399Y8150D01*
X25602Y8150*
X25633Y8151*
X25660Y8153*
X25684Y8157*
X25704Y8163*
X25721Y8171*
X25736Y8181*
X25749Y8193*
X25760Y8206*
X25768Y8221*
X25774Y8237*
X25778Y8253*
X25779Y8271*
X25776Y8295*
X25769Y8317*
X25758Y8337*
X25742Y8354*
X25721Y8368*
X25694Y8379*
X25663Y8385*
X25625Y8387*
X25399Y8387*
X25399Y8150*
X26190Y7802D02*
X26190Y7802D01*
X26190Y7802*
X26197Y7853*
X26197Y7853*
X26207Y7901*
X26207Y7901*
X26219Y7947*
X26219Y7947*
X26239Y8010*
X26239Y8010*
X26263Y8073*
X26263Y8073*
X26291Y8134*
X26291Y8134*
X26322Y8195*
X26322Y8195*
X26356Y8252*
X26356Y8252*
X26390Y8304*
X26390Y8304*
X26424Y8349*
X26424Y8349*
X26458Y8388*
X26458Y8456*
X25996Y8456*
X25996Y8373*
X26346Y8373*
X26346Y8372*
X26313Y8331*
X26281Y8287*
X26250Y8238*
X26220Y8185*
X26192Y8129*
X26167Y8071*
X26146Y8013*
X26129Y7954*
X26115Y7896*
X26105Y7843*
X26098Y7794*
X26096Y7751*
X26185Y7751*
X26190Y7802*
%LNtop silkscreen component debbb84a84d15ed6*%
D10*
X19134Y8781D02*
X23066Y8781D01*
X23066Y1799*
X19134Y1799*
X19134Y8781*
D11*
X20196Y1532D02*
X20196Y1532D01*
X20103Y1532*
X20103Y0817*
X20196Y0817*
X20196Y1532*
X20727Y0808D02*
X20727Y0808D01*
X20776Y0820*
X20821Y0839*
X20862Y0866*
X20897Y0900*
X20927Y0941*
X20951Y0989*
X20969Y1043*
X20875Y1067*
X20863Y1025*
X20863Y1025*
X20847Y0988*
X20847Y0988*
X20826Y0956*
X20826Y0956*
X20800Y0931*
X20800Y0931*
X20771Y0910*
X20771Y0910*
X20739Y0896*
X20739Y0896*
X20703Y0887*
X20703Y0887*
X20665Y0885*
X20665Y0885*
X20633Y0887*
X20633Y0887*
X20602Y0893*
X20602Y0893*
X20572Y0904*
X20572Y0904*
X20543Y0918*
X20543Y0918*
X20517Y0937*
X20517Y0937*
X20494Y0961*
X20494Y0961*
X20475Y0988*
X20475Y0988*
X20460Y1020*
X20460Y1020*
X20449Y1056*
X20449Y1056*
X20440Y1094*
X20440Y1094*
X20435Y1136*
X20435Y1136*
X20434Y1180*
X20434Y1180*
X20435Y1215*
X20435Y1215*
X20439Y1250*
X20439Y1250*
X20446Y1284*
X20446Y1284*
X20456Y1318*
X20456Y1318*
X20469Y1349*
X20469Y1349*
X20487Y1378*
X20487Y1378*
X20508Y1402*
X20508Y1403*
X20534Y1424*
X20534Y1424*
X20564Y1441*
X20564Y1441*
X20596Y1454*
X20596Y1454*
X20633Y1461*
X20633Y1461*
X20672Y1464*
X20672Y1464*
X20707Y1461*
X20707Y1461*
X20738Y1455*
X20738Y1455*
X20767Y1444*
X20767Y1444*
X20792Y1428*
X20792Y1428*
X20814Y1407*
X20814Y1407*
X20834Y1382*
X20834Y1382*
X20850Y1350*
X20850Y1350*
X20864Y1314*
X20956Y1336*
X20939Y1382*
X20917Y1423*
X20888Y1459*
X20855Y1489*
X20816Y1513*
X20773Y1530*
X20726Y1540*
X20674Y1544*
X20628Y1541*
X20584Y1533*
X20541Y1519*
X20501Y1501*
X20464Y1476*
X20431Y1447*
X20403Y1413*
X20380Y1374*
X20361Y1331*
X20348Y1284*
X20340Y1234*
X20337Y1179*
X20339Y1129*
X20346Y1080*
X20358Y1033*
X20375Y0988*
X20396Y0946*
X20421Y0909*
X20451Y0878*
X20485Y0852*
X20524Y0831*
X20568Y0816*
X20618Y0807*
X20673Y0805*
X20727Y0808*
X21396Y0806D02*
X21396Y0806D01*
X21432Y0812*
X21465Y0820*
X21497Y0833*
X21525Y0848*
X21551Y0866*
X21572Y0887*
X21590Y0911*
X21605Y0937*
X21615Y0963*
X21621Y0990*
X21623Y1018*
X21621Y1046*
X21616Y1072*
X21606Y1097*
X21593Y1120*
X21576Y1141*
X21555Y1160*
X21530Y1177*
X21501Y1193*
X21475Y1203*
X21440Y1214*
X21396Y1226*
X21343Y1238*
X21343Y1238*
X21291Y1251*
X21291Y1251*
X21249Y1264*
X21249Y1264*
X21219Y1277*
X21219Y1277*
X21200Y1289*
X21200Y1289*
X21188Y1303*
X21188Y1303*
X21179Y1318*
X21179Y1318*
X21174Y1335*
X21174Y1335*
X21172Y1353*
X21172Y1353*
X21174Y1375*
X21174Y1375*
X21182Y1395*
X21182Y1395*
X21194Y1413*
X21194Y1413*
X21211Y1430*
X21211Y1430*
X21234Y1443*
X21234Y1443*
X21262Y1453*
X21263Y1453*
X21297Y1459*
X21297Y1459*
X21337Y1461*
X21337Y1461*
X21376Y1459*
X21376Y1459*
X21409Y1453*
X21410Y1453*
X21438Y1442*
X21438Y1442*
X21462Y1426*
X21462Y1426*
X21481Y1407*
X21481Y1407*
X21496Y1383*
X21496Y1383*
X21506Y1356*
X21506Y1355*
X21512Y1324*
X21602Y1331*
X21598Y1361*
X21592Y1390*
X21581Y1417*
X21566Y1443*
X21548Y1466*
X21527Y1487*
X21502Y1504*
X21473Y1518*
X21442Y1529*
X21408Y1537*
X21372Y1542*
X21333Y1544*
X21298Y1542*
X21264Y1538*
X21232Y1530*
X21202Y1519*
X21174Y1506*
X21150Y1489*
X21129Y1470*
X21112Y1448*
X21099Y1424*
X21089Y1399*
X21083Y1374*
X21082Y1347*
X21083Y1323*
X21088Y1300*
X21096Y1279*
X21107Y1258*
X21121Y1239*
X21138Y1222*
X21159Y1206*
X21183Y1192*
X21206Y1181*
X21237Y1170*
X21275Y1159*
X21321Y1147*
X21366Y1136*
X21366Y1136*
X21402Y1126*
X21402Y1126*
X21430Y1118*
X21430Y1118*
X21448Y1112*
X21448Y1112*
X21469Y1103*
X21469Y1103*
X21487Y1093*
X21487Y1093*
X21502Y1082*
X21502Y1082*
X21513Y1070*
X21513Y1070*
X21522Y1057*
X21522Y1056*
X21528Y1042*
X21528Y1042*
X21532Y1027*
X21532Y1027*
X21533Y1011*
X21533Y1011*
X21531Y0994*
X21531Y0994*
X21528Y0978*
X21528Y0978*
X21521Y0963*
X21521Y0963*
X21512Y0949*
X21512Y0949*
X21501Y0936*
X21501Y0936*
X21487Y0924*
X21487Y0924*
X21470Y0913*
X21470Y0913*
X21450Y0905*
X21450Y0905*
X21429Y0898*
X21429Y0898*
X21406Y0892*
X21406Y0892*
X21381Y0889*
X21381Y0889*
X21355Y0888*
X21354Y0888*
X21325Y0890*
X21325Y0890*
X21296Y0894*
X21296Y0894*
X21270Y0900*
X21270Y0900*
X21244Y0910*
X21244Y0910*
X21222Y0921*
X21222Y0921*
X21202Y0934*
X21202Y0934*
X21185Y0949*
X21185Y0949*
X21172Y0966*
X21172Y0966*
X21162Y0984*
X21162Y0984*
X21153Y1005*
X21153Y1005*
X21147Y1028*
X21147Y1028*
X21143Y1053*
X21054Y1046*
X21057Y1011*
X21065Y0978*
X21077Y0947*
X21093Y0918*
X21114Y0891*
X21138Y0868*
X21165Y0849*
X21196Y0833*
X21231Y0820*
X21270Y0812*
X21312Y0806*
X21359Y0805*
X21396Y0806*
X21847Y1107D02*
X21847Y1107D01*
X21847Y1108*
X22031Y1108*
X22101Y1112*
X22160Y1124*
X22206Y1143*
X22241Y1171*
X22266Y1204*
X22284Y1241*
X22295Y1281*
X22299Y1325*
X22297Y1351*
X22293Y1376*
X22287Y1400*
X22277Y1422*
X22265Y1443*
X22252Y1462*
X22237Y1478*
X22220Y1491*
X22201Y1503*
X22180Y1512*
X22157Y1519*
X22132Y1525*
X22111Y1528*
X22086Y1530*
X22056Y1531*
X22023Y1532*
X21753Y1532*
X21753Y0817*
X21847Y0817*
X21847Y1107*
X21848Y1192D02*
X21848Y1192D01*
X22033Y1192*
X22075Y1194*
X22111Y1200*
X22140Y1211*
X22163Y1226*
X22180Y1245*
X22192Y1267*
X22199Y1293*
X22202Y1322*
X22200Y1344*
X22196Y1364*
X22189Y1382*
X22179Y1399*
X22167Y1414*
X22153Y1426*
X22137Y1435*
X22119Y1441*
X22105Y1444*
X22085Y1446*
X22060Y1447*
X22031Y1448*
X21848Y1448*
X21848Y1192*
D13*
X18640Y6581D03*
%LNtop silkscreen component b94161c78b1874cc*%
D10*
X16335Y3064D02*
X14335Y1264D01*
D11*
X7982Y4919D02*
X7982Y4919D01*
X8010Y4924*
X8037Y4932*
X8062Y4943*
X8083Y4957*
X8102Y4975*
X8118Y4995*
X8130Y5018*
X8140Y5045*
X8146Y5077*
X8150Y5114*
X8152Y5157*
X8152Y5644*
X8058Y5644*
X8058Y5151*
X8058Y5151*
X8058Y5123*
X8058Y5123*
X8056Y5098*
X8056Y5098*
X8053Y5078*
X8053Y5078*
X8048Y5062*
X8048Y5062*
X8042Y5048*
X8042Y5048*
X8034Y5036*
X8034Y5036*
X8025Y5026*
X8024Y5026*
X8013Y5017*
X8012Y5017*
X7999Y5010*
X7999Y5010*
X7984Y5005*
X7984Y5005*
X7968Y5002*
X7968Y5002*
X7951Y5001*
X7951Y5001*
X7928Y5002*
X7928Y5002*
X7907Y5008*
X7907Y5008*
X7890Y5018*
X7890Y5018*
X7875Y5031*
X7875Y5031*
X7862Y5049*
X7862Y5050*
X7853Y5074*
X7853Y5074*
X7847Y5106*
X7847Y5106*
X7844Y5143*
X7759Y5131*
X7762Y5082*
X7770Y5038*
X7786Y5001*
X7807Y4971*
X7835Y4948*
X7868Y4931*
X7907Y4920*
X7951Y4917*
X7982Y4919*
X8602Y5647D02*
X8602Y5647D01*
X8546Y5647*
X8533Y5624*
X8533Y5624*
X8515Y5600*
X8515Y5600*
X8494Y5576*
X8494Y5576*
X8468Y5551*
X8468Y5551*
X8439Y5528*
X8439Y5528*
X8408Y5506*
X8408Y5506*
X8375Y5486*
X8375Y5486*
X8339Y5468*
X8339Y5384*
X8360Y5392*
X8382Y5402*
X8406Y5415*
X8431Y5429*
X8456Y5444*
X8478Y5459*
X8497Y5474*
X8515Y5489*
X8515Y5489*
X8515Y4929*
X8602Y4929*
X8602Y5647*
D10*
X9775Y1304D02*
X7975Y3304D01*
X7934Y1189D02*
X7934Y4689D01*
X16336Y4689*
X16336Y1189*
X7934Y1189*
D12*
X10835Y5114D03*
%LNtop silkscreen component 51ec350bf9d700a2*%
D10*
X23710Y14708D02*
X23710Y15758D01*
X26330Y15758*
X26330Y14708*
X23710Y14708*
D11*
X22790Y14867D02*
X22790Y14867D01*
X22840Y14879*
X22885Y14898*
X22926Y14924*
X22961Y14959*
X22991Y14999*
X23015Y15047*
X23032Y15102*
X22939Y15125*
X22927Y15083*
X22927Y15083*
X22910Y15047*
X22910Y15046*
X22889Y15015*
X22889Y15015*
X22864Y14989*
X22864Y14989*
X22835Y14969*
X22835Y14969*
X22803Y14955*
X22803Y14955*
X22767Y14946*
X22767Y14946*
X22729Y14943*
X22729Y14943*
X22697Y14945*
X22697Y14945*
X22666Y14952*
X22666Y14952*
X22636Y14962*
X22636Y14962*
X22607Y14977*
X22607Y14977*
X22581Y14996*
X22581Y14996*
X22558Y15019*
X22558Y15020*
X22539Y15047*
X22539Y15047*
X22524Y15079*
X22524Y15079*
X22512Y15115*
X22512Y15115*
X22504Y15153*
X22504Y15153*
X22499Y15195*
X22499Y15195*
X22497Y15239*
X22497Y15239*
X22499Y15274*
X22499Y15274*
X22503Y15309*
X22503Y15309*
X22510Y15343*
X22510Y15343*
X22520Y15376*
X22520Y15376*
X22533Y15408*
X22533Y15408*
X22551Y15436*
X22551Y15436*
X22572Y15461*
X22572Y15461*
X22598Y15483*
X22598Y15483*
X22627Y15500*
X22627Y15500*
X22660Y15513*
X22660Y15513*
X22697Y15520*
X22697Y15520*
X22736Y15522*
X22736Y15522*
X22771Y15520*
X22771Y15520*
X22802Y15514*
X22802Y15514*
X22830Y15502*
X22830Y15502*
X22856Y15487*
X22856Y15487*
X22878Y15466*
X22878Y15466*
X22898Y15440*
X22898Y15440*
X22914Y15409*
X22914Y15409*
X22928Y15373*
X23020Y15395*
X23003Y15441*
X22981Y15482*
X22952Y15518*
X22919Y15548*
X22880Y15572*
X22837Y15589*
X22790Y15599*
X22738Y15603*
X22692Y15600*
X22648Y15592*
X22605Y15578*
X22565Y15559*
X22528Y15535*
X22495Y15506*
X22467Y15472*
X22443Y15433*
X22425Y15390*
X22411Y15343*
X22403Y15292*
X22401Y15238*
X22403Y15188*
X22410Y15139*
X22422Y15092*
X22439Y15047*
X22460Y15005*
X22485Y14968*
X22515Y14936*
X22549Y14910*
X22588Y14890*
X22632Y14875*
X22682Y14866*
X22737Y14863*
X22790Y14867*
X23445Y15593D02*
X23445Y15593D01*
X23389Y15593*
X23376Y15570*
X23375Y15570*
X23358Y15546*
X23358Y15546*
X23336Y15522*
X23336Y15522*
X23311Y15498*
X23311Y15498*
X23282Y15474*
X23282Y15474*
X23251Y15452*
X23251Y15452*
X23217Y15432*
X23217Y15432*
X23182Y15414*
X23182Y15330*
X23203Y15338*
X23225Y15348*
X23249Y15361*
X23274Y15375*
X23298Y15390*
X23320Y15405*
X23340Y15420*
X23357Y15436*
X23358Y15435*
X23358Y14876*
X23445Y14876*
X23445Y15593*
%LNtop silkscreen component 1511dc9a44b694e0*%
D10*
X26351Y10438D02*
X26351Y9388D01*
X23730Y9388*
X23730Y10438*
X26351Y10438*
D11*
X22374Y9542D02*
X22374Y9542D01*
X22424Y9554*
X22469Y9573*
X22510Y9599*
X22545Y9634*
X22575Y9674*
X22599Y9722*
X22616Y9777*
X22523Y9800*
X22511Y9758*
X22511Y9758*
X22494Y9722*
X22494Y9721*
X22473Y9690*
X22473Y9690*
X22448Y9664*
X22448Y9664*
X22419Y9644*
X22419Y9644*
X22387Y9630*
X22387Y9630*
X22351Y9621*
X22351Y9621*
X22313Y9618*
X22313Y9618*
X22281Y9620*
X22281Y9620*
X22250Y9627*
X22250Y9627*
X22220Y9637*
X22220Y9637*
X22191Y9652*
X22191Y9652*
X22165Y9671*
X22165Y9671*
X22142Y9694*
X22142Y9695*
X22123Y9722*
X22123Y9722*
X22108Y9754*
X22108Y9754*
X22096Y9790*
X22096Y9790*
X22088Y9828*
X22088Y9828*
X22083Y9870*
X22083Y9870*
X22081Y9914*
X22081Y9914*
X22083Y9949*
X22083Y9949*
X22087Y9984*
X22087Y9984*
X22094Y10018*
X22094Y10018*
X22104Y10051*
X22104Y10051*
X22117Y10083*
X22117Y10083*
X22135Y10111*
X22135Y10111*
X22156Y10136*
X22156Y10136*
X22182Y10158*
X22182Y10158*
X22211Y10175*
X22212Y10175*
X22244Y10188*
X22244Y10188*
X22281Y10195*
X22281Y10195*
X22320Y10197*
X22320Y10197*
X22355Y10195*
X22355Y10195*
X22386Y10189*
X22386Y10189*
X22414Y10177*
X22414Y10177*
X22440Y10162*
X22440Y10162*
X22462Y10141*
X22462Y10141*
X22482Y10115*
X22482Y10115*
X22498Y10084*
X22498Y10084*
X22512Y10048*
X22604Y10070*
X22587Y10116*
X22565Y10157*
X22536Y10193*
X22503Y10223*
X22464Y10247*
X22421Y10264*
X22374Y10274*
X22322Y10278*
X22276Y10275*
X22232Y10267*
X22189Y10253*
X22149Y10234*
X22112Y10210*
X22079Y10181*
X22051Y10147*
X22027Y10108*
X22009Y10065*
X21995Y10018*
X21987Y9967*
X21985Y9913*
X21987Y9863*
X21994Y9814*
X22006Y9767*
X22023Y9722*
X22044Y9680*
X22069Y9643*
X22099Y9611*
X22133Y9585*
X22172Y9565*
X22216Y9550*
X22266Y9541*
X22321Y9538*
X22374Y9542*
X23029Y10268D02*
X23029Y10268D01*
X22973Y10268*
X22960Y10245*
X22960Y10245*
X22942Y10221*
X22942Y10221*
X22920Y10197*
X22920Y10197*
X22895Y10173*
X22895Y10173*
X22866Y10149*
X22866Y10149*
X22835Y10127*
X22835Y10127*
X22802Y10107*
X22802Y10107*
X22766Y10089*
X22766Y10005*
X22787Y10013*
X22809Y10023*
X22833Y10036*
X22858Y10050*
X22882Y10065*
X22904Y10080*
X22924Y10095*
X22941Y10111*
X22942Y10110*
X22942Y9551*
X23029Y9551*
X23029Y10268*
X23511Y10268D02*
X23511Y10268D01*
X23455Y10268*
X23441Y10245*
X23441Y10245*
X23424Y10221*
X23424Y10221*
X23402Y10197*
X23402Y10197*
X23377Y10173*
X23377Y10173*
X23348Y10149*
X23348Y10149*
X23317Y10127*
X23317Y10127*
X23283Y10107*
X23283Y10107*
X23248Y10089*
X23248Y10005*
X23268Y10013*
X23291Y10023*
X23315Y10036*
X23340Y10050*
X23364Y10065*
X23386Y10080*
X23406Y10095*
X23423Y10111*
X23424Y10110*
X23424Y9551*
X23511Y9551*
X23511Y10268*
%LNtop silkscreen component 12e2b8e352b79090*%
D10*
X26330Y19960D02*
X26330Y18910D01*
X23710Y18910*
X23710Y19960*
X26330Y19960*
D11*
X22615Y19092D02*
X22615Y19092D01*
X22665Y19104*
X22710Y19123*
X22751Y19149*
X22786Y19184*
X22816Y19224*
X22840Y19272*
X22857Y19327*
X22764Y19350*
X22752Y19308*
X22752Y19308*
X22735Y19272*
X22735Y19271*
X22714Y19240*
X22714Y19240*
X22689Y19214*
X22689Y19214*
X22660Y19194*
X22660Y19194*
X22628Y19180*
X22628Y19180*
X22592Y19171*
X22592Y19171*
X22554Y19168*
X22554Y19168*
X22522Y19170*
X22522Y19170*
X22491Y19177*
X22491Y19177*
X22461Y19187*
X22461Y19187*
X22432Y19202*
X22432Y19202*
X22406Y19221*
X22406Y19221*
X22383Y19244*
X22383Y19245*
X22364Y19272*
X22364Y19272*
X22349Y19304*
X22349Y19304*
X22337Y19340*
X22337Y19340*
X22329Y19378*
X22329Y19378*
X22324Y19420*
X22324Y19420*
X22322Y19464*
X22322Y19464*
X22324Y19499*
X22324Y19499*
X22328Y19534*
X22328Y19534*
X22335Y19568*
X22335Y19568*
X22345Y19601*
X22345Y19601*
X22358Y19633*
X22358Y19633*
X22376Y19661*
X22376Y19661*
X22397Y19686*
X22397Y19686*
X22423Y19708*
X22423Y19708*
X22452Y19725*
X22452Y19725*
X22485Y19738*
X22485Y19738*
X22522Y19745*
X22522Y19745*
X22561Y19747*
X22561Y19747*
X22596Y19745*
X22596Y19745*
X22627Y19739*
X22627Y19739*
X22655Y19727*
X22655Y19727*
X22681Y19712*
X22681Y19712*
X22703Y19691*
X22703Y19691*
X22723Y19665*
X22723Y19665*
X22739Y19634*
X22739Y19634*
X22753Y19598*
X22845Y19620*
X22828Y19666*
X22806Y19707*
X22777Y19743*
X22744Y19773*
X22705Y19797*
X22662Y19814*
X22615Y19824*
X22563Y19828*
X22517Y19825*
X22473Y19817*
X22430Y19803*
X22390Y19784*
X22353Y19760*
X22320Y19731*
X22292Y19697*
X22268Y19658*
X22250Y19615*
X22236Y19568*
X22228Y19517*
X22226Y19463*
X22228Y19413*
X22235Y19364*
X22247Y19317*
X22264Y19272*
X22285Y19230*
X22310Y19193*
X22340Y19161*
X22374Y19135*
X22413Y19115*
X22457Y19100*
X22507Y19091*
X22562Y19088*
X22615Y19092*
X23401Y19184D02*
X23401Y19184D01*
X23050Y19184*
X23049Y19184*
X23057Y19197*
X23057Y19197*
X23066Y19209*
X23066Y19209*
X23076Y19221*
X23076Y19221*
X23087Y19232*
X23087Y19232*
X23102Y19247*
X23102Y19247*
X23123Y19267*
X23123Y19267*
X23152Y19292*
X23152Y19292*
X23188Y19323*
X23232Y19360*
X23270Y19394*
X23300Y19423*
X23324Y19448*
X23343Y19471*
X23359Y19493*
X23372Y19515*
X23382Y19536*
X23390Y19557*
X23395Y19578*
X23398Y19599*
X23400Y19620*
X23396Y19660*
X23385Y19697*
X23366Y19731*
X23340Y19761*
X23307Y19786*
X23269Y19804*
X23226Y19815*
X23177Y19818*
X23129Y19815*
X23085Y19805*
X23047Y19789*
X23015Y19765*
X22988Y19736*
X22967Y19701*
X22953Y19659*
X22945Y19612*
X23034Y19603*
X23037Y19634*
X23037Y19634*
X23044Y19663*
X23044Y19663*
X23056Y19687*
X23056Y19687*
X23073Y19708*
X23073Y19708*
X23094Y19725*
X23094Y19725*
X23118Y19737*
X23118Y19737*
X23145Y19744*
X23145Y19744*
X23175Y19747*
X23175Y19747*
X23204Y19744*
X23204Y19744*
X23230Y19738*
X23230Y19737*
X23253Y19726*
X23253Y19726*
X23273Y19710*
X23273Y19710*
X23289Y19691*
X23289Y19691*
X23301Y19670*
X23301Y19670*
X23308Y19647*
X23308Y19647*
X23310Y19622*
X23310Y19622*
X23308Y19597*
X23308Y19597*
X23300Y19570*
X23300Y19570*
X23287Y19544*
X23287Y19544*
X23269Y19516*
X23269Y19516*
X23244Y19485*
X23244Y19485*
X23209Y19450*
X23209Y19450*
X23165Y19410*
X23165Y19410*
X23111Y19364*
X23111Y19364*
X23076Y19334*
X23045Y19306*
X23019Y19280*
X22996Y19256*
X22978Y19232*
X22962Y19209*
X22949Y19185*
X22939Y19161*
X22934Y19146*
X22931Y19131*
X22929Y19116*
X22928Y19101*
X23401Y19101*
X23401Y19184*
%LNtop silkscreen component 3ba8622ba2662513*%
D10*
X41715Y18229D02*
X41715Y19279D01*
X44335Y19279*
X44335Y18229*
X41715Y18229*
D11*
X40498Y18968D02*
X40498Y18968D01*
X40499Y18968*
X40609Y18968*
X40609Y18968*
X40626Y18968*
X40626Y18968*
X40640Y18968*
X40640Y18968*
X40652Y18966*
X40652Y18966*
X40662Y18965*
X40662Y18965*
X40673Y18962*
X40673Y18962*
X40683Y18957*
X40683Y18957*
X40694Y18952*
X40694Y18952*
X40705Y18946*
X40705Y18946*
X40716Y18938*
X40716Y18938*
X40728Y18927*
X40728Y18927*
X40740Y18914*
X40740Y18914*
X40753Y18898*
X40753Y18898*
X40767Y18879*
X40767Y18879*
X40784Y18856*
X40784Y18856*
X40802Y18830*
X40802Y18830*
X40822Y18799*
X40822Y18799*
X40916Y18651*
X41034Y18651*
X40910Y18845*
X40891Y18872*
X40872Y18897*
X40852Y18919*
X40831Y18940*
X40821Y18948*
X40808Y18957*
X40792Y18966*
X40774Y18975*
X40774Y18976*
X40823Y18986*
X40864Y19000*
X40899Y19019*
X40927Y19042*
X40948Y19070*
X40964Y19101*
X40973Y19134*
X40976Y19171*
X40974Y19199*
X40968Y19227*
X40959Y19253*
X40946Y19278*
X40930Y19301*
X40911Y19319*
X40890Y19335*
X40867Y19346*
X40839Y19354*
X40806Y19360*
X40766Y19364*
X40721Y19365*
X40405Y19365*
X40405Y18651*
X40498Y18651*
X40498Y18968*
X40499Y19050D02*
X40499Y19050D01*
X40702Y19050*
X40733Y19051*
X40760Y19053*
X40784Y19057*
X40804Y19063*
X40821Y19071*
X40836Y19081*
X40849Y19093*
X40860Y19106*
X40868Y19121*
X40874Y19137*
X40878Y19153*
X40879Y19171*
X40876Y19195*
X40869Y19217*
X40858Y19237*
X40842Y19254*
X40821Y19268*
X40794Y19279*
X40763Y19285*
X40725Y19287*
X40499Y19287*
X40499Y19050*
X41342Y18641D02*
X41342Y18641D01*
X41377Y18649*
X41411Y18662*
X41441Y18681*
X41469Y18704*
X41493Y18733*
X41513Y18766*
X41530Y18804*
X41543Y18848*
X41552Y18899*
X41557Y18957*
X41559Y19023*
X41557Y19085*
X41552Y19139*
X41542Y19185*
X41529Y19224*
X41513Y19257*
X41492Y19285*
X41469Y19310*
X41442Y19331*
X41412Y19347*
X41381Y19359*
X41348Y19366*
X41314Y19368*
X41268Y19364*
X41226Y19352*
X41188Y19331*
X41154Y19302*
X41126Y19266*
X41106Y19225*
X41094Y19179*
X41090Y19127*
X41094Y19077*
X41105Y19032*
X41124Y18992*
X41151Y18957*
X41183Y18929*
X41219Y18909*
X41258Y18897*
X41301Y18893*
X41327Y18895*
X41352Y18900*
X41376Y18908*
X41400Y18919*
X41421Y18933*
X41440Y18949*
X41457Y18967*
X41472Y18988*
X41472Y18987*
X41473Y18981*
X41473Y18981*
X41473Y18977*
X41473Y18977*
X41473Y18973*
X41473Y18973*
X41473Y18969*
X41473Y18969*
X41472Y18942*
X41472Y18942*
X41470Y18915*
X41470Y18915*
X41466Y18888*
X41466Y18888*
X41460Y18862*
X41460Y18862*
X41453Y18837*
X41453Y18837*
X41445Y18814*
X41445Y18814*
X41436Y18795*
X41436Y18795*
X41427Y18778*
X41427Y18778*
X41417Y18763*
X41416Y18763*
X41405Y18750*
X41405Y18750*
X41391Y18738*
X41391Y18738*
X41377Y18728*
X41377Y18728*
X41361Y18720*
X41361Y18720*
X41344Y18714*
X41344Y18714*
X41325Y18711*
X41325Y18711*
X41305Y18710*
X41305Y18710*
X41283Y18711*
X41283Y18711*
X41262Y18716*
X41262Y18716*
X41244Y18725*
X41244Y18725*
X41228Y18737*
X41227Y18737*
X41214Y18752*
X41213Y18752*
X41202Y18772*
X41202Y18772*
X41193Y18795*
X41193Y18795*
X41186Y18823*
X41103Y18815*
X41111Y18776*
X41124Y18741*
X41143Y18710*
X41167Y18685*
X41195Y18664*
X41227Y18650*
X41264Y18641*
X41304Y18638*
X41342Y18641*
X41462Y19131D02*
X41462Y19131D01*
X41460Y19167*
X41452Y19199*
X41440Y19227*
X41422Y19252*
X41401Y19271*
X41378Y19285*
X41352Y19293*
X41325Y19296*
X41297Y19293*
X41270Y19284*
X41246Y19269*
X41223Y19248*
X41204Y19222*
X41190Y19193*
X41182Y19160*
X41179Y19124*
X41182Y19092*
X41190Y19062*
X41203Y19036*
X41221Y19013*
X41243Y18994*
X41267Y18981*
X41293Y18973*
X41323Y18970*
X41352Y18973*
X41378Y18981*
X41402Y18994*
X41423Y19013*
X41440Y19036*
X41452Y19064*
X41460Y19096*
X41462Y19131*
%LNtop silkscreen component e813251b1ef1d0c8*%
D10*
X40860Y24341D02*
X40860Y13639D01*
X29260Y13639*
X29260Y24341*
X40860Y24341*
D11*
X28211Y13692D02*
X28211Y13692D01*
X28255Y13699*
X28295Y13712*
X28329Y13729*
X28358Y13751*
X28383Y13775*
X28402Y13802*
X28417Y13832*
X28427Y13867*
X28435Y13907*
X28440Y13952*
X28441Y14003*
X28441Y14417*
X28347Y14417*
X28347Y14004*
X28347Y14004*
X28345Y13942*
X28345Y13942*
X28336Y13891*
X28336Y13891*
X28322Y13851*
X28322Y13851*
X28303Y13821*
X28303Y13821*
X28277Y13801*
X28277Y13801*
X28243Y13786*
X28243Y13786*
X28202Y13777*
X28202Y13777*
X28154Y13774*
X28154Y13774*
X28124Y13775*
X28124Y13775*
X28097Y13780*
X28097Y13780*
X28072Y13787*
X28072Y13787*
X28050Y13798*
X28050Y13798*
X28030Y13811*
X28030Y13811*
X28014Y13827*
X28014Y13827*
X28000Y13845*
X28000Y13845*
X27990Y13866*
X27990Y13866*
X27983Y13892*
X27983Y13892*
X27977Y13923*
X27977Y13923*
X27974Y13960*
X27974Y13960*
X27973Y14004*
X27973Y14004*
X27973Y14417*
X27879Y14417*
X27879Y14003*
X27881Y13950*
X27886Y13902*
X27894Y13860*
X27906Y13824*
X27922Y13793*
X27943Y13766*
X27968Y13743*
X27998Y13724*
X28032Y13709*
X28070Y13698*
X28114Y13692*
X28162Y13690*
X28211Y13692*
X29025Y13785D02*
X29025Y13785D01*
X28674Y13785*
X28674Y13786*
X28682Y13798*
X28682Y13798*
X28691Y13810*
X28691Y13810*
X28700Y13822*
X28701Y13822*
X28711Y13834*
X28711Y13834*
X28726Y13848*
X28726Y13848*
X28748Y13868*
X28748Y13868*
X28777Y13893*
X28777Y13893*
X28813Y13924*
X28857Y13962*
X28894Y13995*
X28925Y14025*
X28948Y14050*
X28967Y14072*
X28983Y14094*
X28996Y14116*
X29007Y14137*
X29014Y14158*
X29020Y14179*
X29023Y14200*
X29024Y14221*
X29020Y14262*
X29009Y14299*
X28990Y14332*
X28964Y14362*
X28932Y14387*
X28894Y14405*
X28850Y14416*
X28801Y14419*
X28753Y14416*
X28710Y14406*
X28672Y14390*
X28639Y14367*
X28612Y14337*
X28592Y14302*
X28577Y14260*
X28570Y14213*
X28659Y14204*
X28661Y14236*
X28661Y14236*
X28669Y14264*
X28669Y14264*
X28681Y14288*
X28681Y14289*
X28698Y14309*
X28698Y14309*
X28718Y14326*
X28718Y14326*
X28742Y14338*
X28742Y14338*
X28769Y14345*
X28769Y14345*
X28799Y14348*
X28800Y14348*
X28828Y14345*
X28828Y14345*
X28854Y14339*
X28854Y14339*
X28877Y14327*
X28877Y14327*
X28897Y14312*
X28897Y14312*
X28914Y14293*
X28914Y14293*
X28925Y14272*
X28925Y14272*
X28932Y14248*
X28932Y14248*
X28935Y14223*
X28935Y14223*
X28932Y14198*
X28932Y14198*
X28925Y14172*
X28924Y14172*
X28912Y14145*
X28912Y14145*
X28894Y14117*
X28894Y14117*
X28868Y14087*
X28868Y14087*
X28834Y14051*
X28834Y14051*
X28790Y14011*
X28790Y14011*
X28736Y13965*
X28736Y13965*
X28701Y13936*
X28670Y13908*
X28643Y13881*
X28621Y13857*
X28602Y13834*
X28587Y13810*
X28574Y13786*
X28563Y13762*
X28558Y13747*
X28555Y13732*
X28553Y13717*
X28553Y13702*
X29025Y13702*
X29025Y13785*
D14*
X41360Y14545D03*
%LNtop silkscreen component 2d768b8b602cab3a*%
D10*
X15587Y6040D02*
X14537Y6040D01*
X14537Y8660*
X15587Y8660*
X15587Y6040*
D11*
X15387Y5065D02*
X15387Y5065D01*
X15376Y5115*
X15357Y5160*
X15330Y5201*
X15296Y5236*
X15255Y5266*
X15207Y5290*
X15153Y5307*
X15129Y5214*
X15171Y5202*
X15171Y5202*
X15208Y5185*
X15208Y5185*
X15239Y5164*
X15239Y5164*
X15265Y5139*
X15265Y5139*
X15285Y5110*
X15285Y5110*
X15299Y5078*
X15299Y5078*
X15308Y5042*
X15308Y5042*
X15311Y5004*
X15311Y5004*
X15309Y4972*
X15309Y4972*
X15303Y4941*
X15303Y4941*
X15292Y4911*
X15292Y4911*
X15277Y4882*
X15277Y4882*
X15258Y4856*
X15258Y4856*
X15235Y4833*
X15235Y4833*
X15207Y4814*
X15207Y4814*
X15175Y4799*
X15175Y4799*
X15140Y4787*
X15140Y4787*
X15101Y4779*
X15101Y4779*
X15060Y4774*
X15060Y4774*
X15016Y4772*
X15016Y4772*
X14980Y4774*
X14980Y4774*
X14946Y4778*
X14946Y4778*
X14912Y4785*
X14912Y4785*
X14878Y4795*
X14878Y4795*
X14846Y4808*
X14846Y4808*
X14818Y4826*
X14818Y4826*
X14793Y4847*
X14793Y4847*
X14771Y4873*
X14771Y4873*
X14754Y4902*
X14754Y4902*
X14742Y4935*
X14742Y4935*
X14734Y4972*
X14734Y4972*
X14732Y5011*
X14732Y5011*
X14734Y5046*
X14734Y5046*
X14741Y5077*
X14741Y5077*
X14752Y5105*
X14752Y5105*
X14768Y5131*
X14768Y5131*
X14788Y5153*
X14788Y5153*
X14814Y5173*
X14814Y5173*
X14845Y5189*
X14845Y5189*
X14881Y5203*
X14859Y5295*
X14813Y5278*
X14772Y5256*
X14736Y5227*
X14706Y5194*
X14682Y5155*
X14665Y5112*
X14655Y5065*
X14652Y5013*
X14654Y4967*
X14663Y4923*
X14676Y4880*
X14695Y4840*
X14719Y4803*
X14748Y4770*
X14782Y4742*
X14821Y4718*
X14865Y4700*
X14911Y4686*
X14962Y4678*
X15016Y4676*
X15066Y4678*
X15115Y4685*
X15162Y4697*
X15208Y4714*
X15250Y4735*
X15286Y4760*
X15318Y4790*
X15344Y4824*
X15365Y4863*
X15379Y4907*
X15388Y4957*
X15391Y5012*
X15387Y5065*
X15389Y5665D02*
X15389Y5665D01*
X15383Y5695*
X15374Y5723*
X15360Y5749*
X15343Y5773*
X15323Y5794*
X15299Y5813*
X15272Y5828*
X15242Y5841*
X15212Y5850*
X15180Y5856*
X15147Y5857*
X15098Y5854*
X15054Y5842*
X15015Y5823*
X14980Y5796*
X14952Y5763*
X14932Y5728*
X14919Y5689*
X14915Y5646*
X14917Y5622*
X14921Y5597*
X14929Y5574*
X14939Y5551*
X14952Y5529*
X14968Y5508*
X14988Y5490*
X15011Y5473*
X15011Y5472*
X14959Y5474*
X14959Y5474*
X14915Y5479*
X14915Y5479*
X14877Y5487*
X14877Y5487*
X14844Y5497*
X14844Y5497*
X14817Y5510*
X14817Y5510*
X14793Y5525*
X14793Y5525*
X14773Y5543*
X14773Y5543*
X14756Y5563*
X14756Y5563*
X14746Y5579*
X14746Y5579*
X14738Y5597*
X14738Y5597*
X14734Y5616*
X14734Y5616*
X14732Y5637*
X14732Y5637*
X14735Y5662*
X14735Y5662*
X14742Y5685*
X14742Y5685*
X14754Y5706*
X14754Y5706*
X14770Y5725*
X14770Y5725*
X14784Y5735*
X14784Y5735*
X14801Y5744*
X14801Y5744*
X14821Y5752*
X14821Y5752*
X14845Y5758*
X14838Y5845*
X14799Y5837*
X14765Y5823*
X14734Y5804*
X14708Y5780*
X14688Y5751*
X14673Y5719*
X14664Y5682*
X14661Y5642*
X14666Y5588*
X14682Y5541*
X14707Y5499*
X14743Y5462*
X14797Y5429*
X14865Y5405*
X14948Y5391*
X15044Y5386*
X15130Y5390*
X15204Y5403*
X15264Y5425*
X15310Y5455*
X15346Y5492*
X15371Y5534*
X15386Y5581*
X15391Y5634*
X15389Y5665*
X15147Y5486D02*
X15147Y5486D01*
X15170Y5488*
X15192Y5491*
X15213Y5497*
X15234Y5506*
X15254Y5516*
X15271Y5529*
X15285Y5543*
X15298Y5560*
X15307Y5577*
X15314Y5595*
X15318Y5613*
X15319Y5632*
X15316Y5659*
X15308Y5684*
X15294Y5707*
X15274Y5728*
X15250Y5746*
X15221Y5758*
X15189Y5766*
X15152Y5768*
X15117Y5766*
X15086Y5758*
X15059Y5746*
X15035Y5729*
X15017Y5707*
X15003Y5684*
X14995Y5658*
X14993Y5629*
X14995Y5600*
X15003Y5574*
X15017Y5550*
X15035Y5528*
X15058Y5510*
X15085Y5497*
X15114Y5489*
X15147Y5486*
%LNtop silkscreen component 48381ae9b0a13e44*%
D10*
X26351Y12980D02*
X26351Y11930D01*
X23730Y11930*
X23730Y12980*
X26351Y12980*
D11*
X22740Y12017D02*
X22740Y12017D01*
X22790Y12029*
X22835Y12048*
X22876Y12074*
X22911Y12109*
X22941Y12149*
X22965Y12197*
X22982Y12252*
X22889Y12275*
X22877Y12233*
X22877Y12233*
X22860Y12197*
X22860Y12196*
X22839Y12165*
X22839Y12165*
X22814Y12139*
X22814Y12139*
X22785Y12119*
X22785Y12119*
X22753Y12105*
X22753Y12105*
X22717Y12096*
X22717Y12096*
X22679Y12093*
X22679Y12093*
X22647Y12095*
X22647Y12095*
X22616Y12102*
X22616Y12102*
X22586Y12112*
X22586Y12112*
X22557Y12127*
X22557Y12127*
X22531Y12146*
X22531Y12146*
X22508Y12169*
X22508Y12170*
X22489Y12197*
X22489Y12197*
X22474Y12229*
X22474Y12229*
X22462Y12265*
X22462Y12265*
X22454Y12303*
X22454Y12303*
X22449Y12345*
X22449Y12345*
X22447Y12389*
X22447Y12389*
X22449Y12424*
X22449Y12424*
X22453Y12459*
X22453Y12459*
X22460Y12493*
X22460Y12493*
X22470Y12526*
X22470Y12526*
X22483Y12558*
X22483Y12558*
X22501Y12586*
X22501Y12586*
X22522Y12611*
X22522Y12611*
X22548Y12633*
X22548Y12633*
X22577Y12650*
X22577Y12650*
X22610Y12663*
X22610Y12663*
X22647Y12670*
X22647Y12670*
X22686Y12672*
X22686Y12672*
X22721Y12670*
X22721Y12670*
X22752Y12664*
X22752Y12664*
X22780Y12652*
X22780Y12652*
X22806Y12637*
X22806Y12637*
X22828Y12616*
X22828Y12616*
X22848Y12590*
X22848Y12590*
X22864Y12559*
X22864Y12559*
X22878Y12523*
X22970Y12545*
X22953Y12591*
X22931Y12632*
X22902Y12668*
X22869Y12698*
X22830Y12722*
X22787Y12739*
X22740Y12749*
X22688Y12753*
X22642Y12750*
X22598Y12742*
X22555Y12728*
X22515Y12709*
X22478Y12685*
X22445Y12656*
X22417Y12622*
X22393Y12583*
X22375Y12540*
X22361Y12493*
X22353Y12442*
X22351Y12388*
X22353Y12338*
X22360Y12289*
X22372Y12242*
X22389Y12197*
X22410Y12155*
X22435Y12118*
X22465Y12086*
X22499Y12060*
X22538Y12040*
X22582Y12025*
X22632Y12016*
X22687Y12013*
X22740Y12017*
X23265Y12077D02*
X23265Y12077D01*
X23265Y12077*
X23272Y12128*
X23272Y12128*
X23282Y12176*
X23282Y12176*
X23294Y12222*
X23294Y12222*
X23314Y12285*
X23314Y12285*
X23338Y12348*
X23338Y12348*
X23366Y12409*
X23366Y12409*
X23397Y12470*
X23397Y12470*
X23431Y12527*
X23431Y12527*
X23465Y12579*
X23465Y12579*
X23499Y12624*
X23499Y12624*
X23533Y12663*
X23533Y12731*
X23071Y12731*
X23071Y12648*
X23421Y12648*
X23421Y12647*
X23388Y12606*
X23356Y12562*
X23325Y12513*
X23295Y12460*
X23267Y12404*
X23242Y12346*
X23221Y12288*
X23204Y12229*
X23190Y12171*
X23180Y12118*
X23173Y12069*
X23171Y12026*
X23260Y12026*
X23265Y12077*
%LNtop silkscreen component 0f1de3bf73c6ccd1*%
D10*
X26351Y11710D02*
X26351Y10660D01*
X23730Y10660*
X23730Y11710*
X26351Y11710*
D11*
X22448Y11118D02*
X22448Y11118D01*
X22449Y11118*
X22559Y11118*
X22559Y11118*
X22576Y11118*
X22576Y11118*
X22590Y11118*
X22590Y11118*
X22602Y11116*
X22602Y11116*
X22612Y11115*
X22612Y11115*
X22623Y11112*
X22623Y11112*
X22633Y11107*
X22633Y11107*
X22644Y11102*
X22644Y11102*
X22655Y11096*
X22655Y11096*
X22666Y11088*
X22666Y11088*
X22678Y11077*
X22678Y11077*
X22690Y11064*
X22690Y11064*
X22703Y11048*
X22703Y11048*
X22717Y11029*
X22717Y11029*
X22734Y11006*
X22734Y11006*
X22752Y10980*
X22752Y10980*
X22772Y10949*
X22772Y10949*
X22866Y10801*
X22984Y10801*
X22860Y10995*
X22841Y11022*
X22822Y11047*
X22802Y11069*
X22781Y11090*
X22771Y11098*
X22758Y11107*
X22742Y11116*
X22724Y11125*
X22724Y11126*
X22773Y11136*
X22814Y11150*
X22849Y11169*
X22877Y11192*
X22898Y11220*
X22914Y11251*
X22923Y11284*
X22926Y11321*
X22924Y11349*
X22918Y11377*
X22909Y11403*
X22896Y11428*
X22880Y11451*
X22861Y11469*
X22840Y11485*
X22817Y11496*
X22789Y11504*
X22756Y11510*
X22716Y11514*
X22671Y11515*
X22355Y11515*
X22355Y10801*
X22448Y10801*
X22448Y11118*
X22449Y11200D02*
X22449Y11200D01*
X22652Y11200*
X22683Y11201*
X22710Y11203*
X22734Y11207*
X22754Y11213*
X22771Y11221*
X22786Y11231*
X22799Y11243*
X22810Y11256*
X22818Y11271*
X22824Y11287*
X22828Y11303*
X22829Y11321*
X22826Y11345*
X22819Y11367*
X22808Y11387*
X22792Y11404*
X22771Y11418*
X22744Y11429*
X22713Y11435*
X22675Y11437*
X22449Y11437*
X22449Y11200*
X23315Y10790D02*
X23315Y10790D01*
X23345Y10796*
X23373Y10806*
X23399Y10819*
X23423Y10836*
X23444Y10856*
X23463Y10880*
X23478Y10907*
X23491Y10937*
X23500Y10968*
X23506Y10999*
X23507Y11032*
X23504Y11081*
X23492Y11125*
X23473Y11165*
X23446Y11199*
X23413Y11228*
X23378Y11248*
X23339Y11260*
X23296Y11264*
X23272Y11262*
X23247Y11258*
X23224Y11251*
X23201Y11240*
X23179Y11227*
X23158Y11211*
X23140Y11191*
X23123Y11169*
X23122Y11169*
X23124Y11220*
X23124Y11220*
X23129Y11264*
X23129Y11264*
X23137Y11303*
X23137Y11303*
X23147Y11335*
X23147Y11335*
X23160Y11362*
X23160Y11362*
X23175Y11386*
X23175Y11386*
X23193Y11407*
X23193Y11407*
X23213Y11423*
X23213Y11423*
X23229Y11434*
X23229Y11434*
X23247Y11441*
X23247Y11441*
X23266Y11446*
X23266Y11446*
X23287Y11447*
X23287Y11447*
X23312Y11445*
X23312Y11445*
X23335Y11438*
X23335Y11438*
X23356Y11426*
X23356Y11426*
X23375Y11409*
X23375Y11409*
X23385Y11396*
X23385Y11396*
X23394Y11379*
X23394Y11379*
X23402Y11358*
X23402Y11358*
X23408Y11334*
X23495Y11341*
X23487Y11380*
X23473Y11415*
X23454Y11445*
X23430Y11471*
X23401Y11492*
X23369Y11506*
X23332Y11515*
X23292Y11518*
X23238Y11513*
X23191Y11498*
X23149Y11472*
X23112Y11436*
X23079Y11382*
X23055Y11314*
X23041Y11232*
X23036Y11135*
X23040Y11049*
X23053Y10976*
X23075Y10916*
X23105Y10869*
X23142Y10834*
X23184Y10808*
X23231Y10793*
X23284Y10788*
X23315Y10790*
X23136Y11032D02*
X23136Y11032D01*
X23138Y11009*
X23141Y10987*
X23147Y10966*
X23156Y10945*
X23166Y10926*
X23179Y10908*
X23193Y10894*
X23210Y10882*
X23227Y10872*
X23245Y10865*
X23263Y10861*
X23282Y10860*
X23309Y10863*
X23334Y10871*
X23357Y10885*
X23378Y10905*
X23396Y10929*
X23408Y10958*
X23416Y10990*
X23418Y11027*
X23416Y11062*
X23408Y11093*
X23396Y11121*
X23379Y11144*
X23357Y11163*
X23334Y11176*
X23308Y11184*
X23279Y11187*
X23250Y11184*
X23224Y11176*
X23200Y11163*
X23178Y11144*
X23160Y11121*
X23147Y11095*
X23139Y11065*
X23136Y11032*
%LNtop silkscreen component 23b1068e5906a491*%
D10*
X19593Y24575D02*
X19593Y23525D01*
X16972Y23525*
X16972Y24575*
X19593Y24575*
D11*
X15915Y23617D02*
X15915Y23617D01*
X15965Y23629*
X16010Y23648*
X16051Y23674*
X16086Y23709*
X16116Y23749*
X16140Y23797*
X16157Y23852*
X16064Y23875*
X16052Y23833*
X16052Y23833*
X16035Y23797*
X16035Y23796*
X16014Y23765*
X16014Y23765*
X15989Y23739*
X15989Y23739*
X15960Y23719*
X15960Y23719*
X15928Y23705*
X15928Y23705*
X15892Y23696*
X15892Y23696*
X15854Y23693*
X15854Y23693*
X15822Y23695*
X15822Y23695*
X15791Y23702*
X15791Y23702*
X15761Y23712*
X15761Y23712*
X15732Y23727*
X15732Y23727*
X15706Y23746*
X15706Y23746*
X15683Y23769*
X15683Y23770*
X15664Y23797*
X15664Y23797*
X15649Y23829*
X15649Y23829*
X15637Y23865*
X15637Y23865*
X15629Y23903*
X15629Y23903*
X15624Y23945*
X15624Y23945*
X15622Y23989*
X15622Y23989*
X15624Y24024*
X15624Y24024*
X15628Y24059*
X15628Y24059*
X15635Y24093*
X15635Y24093*
X15645Y24126*
X15645Y24126*
X15658Y24158*
X15658Y24158*
X15676Y24186*
X15676Y24186*
X15697Y24211*
X15697Y24211*
X15723Y24233*
X15723Y24233*
X15752Y24250*
X15752Y24250*
X15785Y24263*
X15785Y24263*
X15822Y24270*
X15822Y24270*
X15861Y24272*
X15861Y24272*
X15896Y24270*
X15896Y24270*
X15927Y24264*
X15927Y24264*
X15955Y24252*
X15955Y24252*
X15981Y24237*
X15981Y24237*
X16003Y24216*
X16003Y24216*
X16023Y24190*
X16023Y24190*
X16039Y24159*
X16039Y24159*
X16053Y24123*
X16145Y24145*
X16128Y24191*
X16106Y24232*
X16077Y24268*
X16044Y24298*
X16005Y24322*
X15962Y24339*
X15915Y24349*
X15863Y24353*
X15817Y24350*
X15773Y24342*
X15730Y24328*
X15690Y24309*
X15653Y24285*
X15620Y24256*
X15592Y24222*
X15568Y24183*
X15550Y24140*
X15536Y24093*
X15528Y24042*
X15526Y23988*
X15528Y23938*
X15535Y23889*
X15547Y23842*
X15564Y23797*
X15585Y23755*
X15610Y23718*
X15640Y23686*
X15674Y23660*
X15713Y23640*
X15757Y23625*
X15807Y23616*
X15862Y23613*
X15915Y23617*
X16492Y23616D02*
X16492Y23616D01*
X16527Y23624*
X16561Y23637*
X16591Y23656*
X16619Y23679*
X16643Y23708*
X16663Y23741*
X16680Y23779*
X16693Y23823*
X16702Y23874*
X16707Y23932*
X16709Y23998*
X16707Y24060*
X16702Y24114*
X16692Y24160*
X16679Y24199*
X16663Y24232*
X16642Y24260*
X16619Y24285*
X16592Y24306*
X16562Y24322*
X16531Y24334*
X16498Y24341*
X16464Y24343*
X16418Y24339*
X16376Y24327*
X16338Y24306*
X16304Y24277*
X16276Y24241*
X16256Y24200*
X16244Y24154*
X16240Y24102*
X16244Y24052*
X16255Y24007*
X16274Y23967*
X16301Y23932*
X16333Y23904*
X16369Y23884*
X16408Y23872*
X16451Y23868*
X16477Y23870*
X16502Y23875*
X16526Y23883*
X16550Y23894*
X16571Y23908*
X16590Y23924*
X16607Y23942*
X16622Y23963*
X16622Y23962*
X16623Y23956*
X16623Y23956*
X16623Y23952*
X16623Y23952*
X16623Y23948*
X16623Y23948*
X16623Y23944*
X16623Y23944*
X16622Y23917*
X16622Y23917*
X16620Y23890*
X16620Y23890*
X16616Y23863*
X16616Y23863*
X16610Y23837*
X16610Y23837*
X16603Y23812*
X16603Y23812*
X16595Y23789*
X16595Y23789*
X16586Y23770*
X16586Y23770*
X16577Y23753*
X16577Y23753*
X16567Y23738*
X16566Y23738*
X16555Y23725*
X16555Y23725*
X16541Y23713*
X16541Y23713*
X16527Y23703*
X16527Y23703*
X16511Y23695*
X16511Y23695*
X16494Y23689*
X16494Y23689*
X16475Y23686*
X16475Y23686*
X16455Y23685*
X16455Y23685*
X16433Y23686*
X16433Y23686*
X16412Y23691*
X16412Y23691*
X16394Y23700*
X16394Y23700*
X16378Y23712*
X16377Y23712*
X16364Y23727*
X16363Y23727*
X16352Y23747*
X16352Y23747*
X16343Y23770*
X16343Y23770*
X16336Y23798*
X16253Y23790*
X16261Y23751*
X16274Y23716*
X16293Y23685*
X16317Y23660*
X16345Y23639*
X16377Y23625*
X16414Y23616*
X16454Y23613*
X16492Y23616*
X16612Y24106D02*
X16612Y24106D01*
X16610Y24142*
X16602Y24174*
X16590Y24202*
X16572Y24227*
X16551Y24246*
X16528Y24260*
X16502Y24268*
X16475Y24271*
X16447Y24268*
X16420Y24259*
X16396Y24244*
X16373Y24223*
X16354Y24197*
X16340Y24168*
X16332Y24135*
X16329Y24099*
X16332Y24067*
X16340Y24037*
X16353Y24011*
X16371Y23988*
X16393Y23969*
X16417Y23956*
X16443Y23948*
X16473Y23945*
X16502Y23948*
X16528Y23956*
X16552Y23969*
X16573Y23988*
X16590Y24011*
X16602Y24039*
X16610Y24071*
X16612Y24106*
%LNtop silkscreen component c3a2e014ce3ec141*%
D10*
X27785Y13040D02*
X44485Y13040D01*
X44485Y0940*
X27785Y0940*
X27785Y13040*
D11*
X28437Y11990D02*
X28437Y11990D01*
X28473Y11995*
X28506Y12004*
X28538Y12016*
X28567Y12032*
X28592Y12050*
X28614Y12071*
X28632Y12095*
X28646Y12120*
X28656Y12147*
X28662Y12174*
X28664Y12202*
X28662Y12230*
X28657Y12256*
X28648Y12281*
X28635Y12304*
X28618Y12325*
X28597Y12344*
X28572Y12361*
X28542Y12376*
X28516Y12387*
X28481Y12398*
X28437Y12409*
X28384Y12422*
X28384Y12422*
X28332Y12435*
X28332Y12435*
X28291Y12448*
X28291Y12448*
X28260Y12461*
X28260Y12461*
X28241Y12473*
X28241Y12473*
X28229Y12487*
X28229Y12487*
X28220Y12502*
X28220Y12502*
X28215Y12519*
X28215Y12519*
X28213Y12537*
X28213Y12537*
X28216Y12559*
X28216Y12559*
X28223Y12579*
X28223Y12579*
X28235Y12597*
X28235Y12597*
X28253Y12613*
X28253Y12613*
X28275Y12627*
X28275Y12627*
X28304Y12637*
X28304Y12637*
X28338Y12643*
X28338Y12643*
X28378Y12645*
X28378Y12645*
X28417Y12643*
X28417Y12643*
X28451Y12636*
X28451Y12636*
X28479Y12625*
X28479Y12625*
X28503Y12610*
X28503Y12610*
X28522Y12591*
X28522Y12591*
X28537Y12567*
X28537Y12567*
X28547Y12539*
X28547Y12539*
X28553Y12508*
X28643Y12515*
X28640Y12545*
X28633Y12574*
X28622Y12601*
X28608Y12627*
X28590Y12650*
X28568Y12670*
X28543Y12688*
X28514Y12702*
X28483Y12713*
X28449Y12721*
X28413Y12726*
X28374Y12728*
X28339Y12726*
X28305Y12721*
X28273Y12714*
X28243Y12703*
X28215Y12690*
X28191Y12673*
X28171Y12654*
X28153Y12632*
X28140Y12608*
X28130Y12583*
X28125Y12557*
X28123Y12531*
X28124Y12507*
X28129Y12484*
X28137Y12462*
X28148Y12442*
X28162Y12423*
X28179Y12405*
X28200Y12390*
X28224Y12375*
X28247Y12365*
X28278Y12354*
X28317Y12342*
X28362Y12331*
X28407Y12320*
X28407Y12320*
X28443Y12310*
X28443Y12310*
X28471Y12302*
X28471Y12302*
X28490Y12296*
X28490Y12296*
X28511Y12287*
X28511Y12287*
X28528Y12277*
X28528Y12277*
X28543Y12266*
X28543Y12266*
X28554Y12254*
X28554Y12253*
X28563Y12240*
X28563Y12240*
X28569Y12226*
X28569Y12226*
X28573Y12211*
X28573Y12211*
X28574Y12194*
X28574Y12194*
X28573Y12178*
X28573Y12178*
X28569Y12162*
X28569Y12162*
X28562Y12147*
X28562Y12147*
X28554Y12133*
X28554Y12133*
X28542Y12119*
X28542Y12119*
X28528Y12108*
X28528Y12108*
X28511Y12097*
X28511Y12097*
X28492Y12088*
X28492Y12088*
X28470Y12081*
X28470Y12081*
X28447Y12076*
X28447Y12076*
X28422Y12073*
X28422Y12073*
X28396Y12072*
X28396Y12072*
X28366Y12074*
X28366Y12074*
X28338Y12078*
X28338Y12078*
X28311Y12084*
X28311Y12084*
X28286Y12094*
X28286Y12094*
X28263Y12105*
X28263Y12105*
X28243Y12118*
X28243Y12118*
X28227Y12133*
X28227Y12133*
X28213Y12149*
X28213Y12149*
X28203Y12168*
X28203Y12168*
X28194Y12189*
X28194Y12189*
X28188Y12212*
X28188Y12212*
X28184Y12237*
X28095Y12230*
X28099Y12195*
X28106Y12162*
X28118Y12131*
X28135Y12102*
X28155Y12075*
X28179Y12052*
X28206Y12032*
X28237Y12017*
X28272Y12004*
X28311Y11995*
X28354Y11990*
X28400Y11988*
X28437Y11990*
X29649Y12715D02*
X29649Y12715D01*
X29555Y12715*
X29443Y12256*
X29443Y12256*
X29432Y12213*
X29423Y12173*
X29414Y12135*
X29407Y12100*
X29406Y12100*
X29396Y12160*
X29384Y12223*
X29368Y12287*
X29350Y12353*
X29248Y12715*
X29134Y12715*
X28998Y12232*
X28994Y12217*
X28988Y12190*
X28978Y12151*
X28966Y12100*
X28965Y12100*
X28958Y12136*
X28951Y12173*
X28943Y12210*
X28935Y12246*
X28826Y12715*
X28730Y12715*
X28920Y12001*
X29015Y12001*
X29167Y12546*
X29172Y12564*
X29177Y12584*
X29183Y12606*
X29188Y12630*
X29189Y12630*
X29192Y12618*
X29197Y12601*
X29203Y12576*
X29212Y12546*
X29212Y12546*
X29362Y12001*
X29453Y12001*
X29649Y12715*
X30033Y12718D02*
X30033Y12718D01*
X29977Y12718*
X29964Y12695*
X29964Y12695*
X29946Y12671*
X29946Y12671*
X29925Y12647*
X29925Y12647*
X29899Y12623*
X29899Y12623*
X29870Y12599*
X29870Y12599*
X29839Y12577*
X29839Y12577*
X29806Y12557*
X29806Y12557*
X29770Y12539*
X29770Y12455*
X29791Y12463*
X29813Y12473*
X29837Y12486*
X29862Y12500*
X29887Y12515*
X29909Y12530*
X29928Y12545*
X29945Y12561*
X29946Y12560*
X29946Y12001*
X30033Y12001*
X30033Y12718*
D13*
X27510Y9540D03*
%LNtop silkscreen component 7822d83bbbda28c0*%
D10*
X20670Y10030D02*
X7650Y10030D01*
X7650Y23050*
X20670Y23050*
X20670Y10030*
D11*
X6752Y10016D02*
X6752Y10016D01*
X6796Y10024*
X6835Y10036*
X6869Y10053*
X6899Y10075*
X6923Y10099*
X6943Y10126*
X6957Y10156*
X6968Y10191*
X6975Y10231*
X6980Y10276*
X6982Y10328*
X6982Y10741*
X6888Y10741*
X6888Y10328*
X6888Y10328*
X6885Y10266*
X6885Y10266*
X6877Y10215*
X6877Y10215*
X6863Y10175*
X6863Y10175*
X6843Y10146*
X6843Y10146*
X6817Y10125*
X6817Y10125*
X6784Y10110*
X6784Y10110*
X6743Y10101*
X6743Y10101*
X6694Y10098*
X6694Y10098*
X6665Y10100*
X6665Y10100*
X6638Y10104*
X6638Y10104*
X6613Y10112*
X6613Y10112*
X6590Y10122*
X6590Y10122*
X6571Y10135*
X6571Y10135*
X6554Y10151*
X6554Y10151*
X6541Y10170*
X6541Y10170*
X6531Y10190*
X6531Y10190*
X6523Y10216*
X6523Y10216*
X6518Y10247*
X6518Y10247*
X6514Y10284*
X6514Y10285*
X6513Y10328*
X6513Y10328*
X6513Y10741*
X6420Y10741*
X6420Y10328*
X6421Y10274*
X6426Y10226*
X6435Y10184*
X6447Y10148*
X6463Y10118*
X6483Y10091*
X6508Y10067*
X6538Y10048*
X6572Y10033*
X6611Y10022*
X6654Y10016*
X6702Y10014*
X6752Y10016*
X7435Y10744D02*
X7435Y10744D01*
X7379Y10744*
X7366Y10720*
X7365Y10720*
X7348Y10697*
X7348Y10697*
X7326Y10673*
X7326Y10673*
X7301Y10648*
X7301Y10648*
X7272Y10624*
X7272Y10624*
X7241Y10602*
X7241Y10602*
X7207Y10582*
X7207Y10582*
X7172Y10564*
X7172Y10480*
X7193Y10488*
X7215Y10499*
X7239Y10511*
X7264Y10525*
X7288Y10540*
X7310Y10556*
X7330Y10571*
X7347Y10586*
X7348Y10586*
X7348Y10026*
X7435Y10026*
X7435Y10744*
D15*
X10185Y9449D03*
%LNtop silkscreen component 3c27278c148a2f04*%
D10*
X44335Y17175D02*
X44335Y16125D01*
X41715Y16125*
X41715Y17175*
X44335Y17175*
D11*
X40167Y16117D02*
X40167Y16117D01*
X40217Y16128*
X40262Y16147*
X40303Y16174*
X40338Y16208*
X40368Y16249*
X40392Y16297*
X40409Y16351*
X40316Y16375*
X40304Y16333*
X40304Y16333*
X40287Y16296*
X40287Y16296*
X40266Y16265*
X40266Y16265*
X40241Y16239*
X40241Y16239*
X40212Y16219*
X40212Y16219*
X40179Y16204*
X40179Y16204*
X40144Y16196*
X40144Y16196*
X40106Y16193*
X40106Y16193*
X40074Y16195*
X40074Y16195*
X40043Y16201*
X40043Y16201*
X40013Y16212*
X40013Y16212*
X39984Y16227*
X39984Y16227*
X39958Y16246*
X39958Y16246*
X39935Y16269*
X39935Y16269*
X39916Y16297*
X39916Y16297*
X39901Y16329*
X39901Y16329*
X39889Y16364*
X39889Y16364*
X39881Y16403*
X39881Y16403*
X39876Y16444*
X39876Y16444*
X39874Y16488*
X39874Y16488*
X39876Y16524*
X39876Y16524*
X39880Y16558*
X39880Y16558*
X39887Y16592*
X39887Y16592*
X39897Y16626*
X39897Y16626*
X39910Y16658*
X39910Y16658*
X39928Y16686*
X39928Y16686*
X39949Y16711*
X39949Y16711*
X39975Y16732*
X39975Y16732*
X40004Y16750*
X40004Y16750*
X40037Y16762*
X40037Y16762*
X40073Y16770*
X40074Y16770*
X40113Y16772*
X40113Y16772*
X40148Y16770*
X40148Y16770*
X40179Y16763*
X40179Y16763*
X40207Y16752*
X40207Y16752*
X40233Y16736*
X40233Y16736*
X40255Y16716*
X40255Y16716*
X40274Y16690*
X40274Y16690*
X40291Y16659*
X40291Y16659*
X40305Y16623*
X40397Y16645*
X40380Y16691*
X40357Y16732*
X40329Y16768*
X40295Y16798*
X40257Y16821*
X40214Y16839*
X40167Y16849*
X40115Y16852*
X40069Y16849*
X40024Y16841*
X39982Y16828*
X39942Y16809*
X39905Y16785*
X39872Y16756*
X39844Y16722*
X39820Y16683*
X39802Y16639*
X39788Y16592*
X39780Y16542*
X39778Y16488*
X39780Y16438*
X39787Y16389*
X39799Y16342*
X39816Y16296*
X39837Y16254*
X39862Y16218*
X39892Y16186*
X39926Y16160*
X39965Y16139*
X40009Y16125*
X40059Y16116*
X40114Y16113*
X40167Y16117*
X40822Y16843D02*
X40822Y16843D01*
X40766Y16843*
X40752Y16820*
X40752Y16820*
X40735Y16796*
X40735Y16796*
X40713Y16772*
X40713Y16772*
X40688Y16747*
X40688Y16747*
X40659Y16724*
X40659Y16724*
X40628Y16702*
X40628Y16702*
X40594Y16682*
X40594Y16682*
X40559Y16663*
X40559Y16579*
X40579Y16588*
X40602Y16598*
X40626Y16610*
X40651Y16625*
X40675Y16640*
X40697Y16655*
X40717Y16670*
X40734Y16685*
X40735Y16685*
X40735Y16125*
X40822Y16125*
X40822Y16843*
X41318Y16116D02*
X41318Y16116D01*
X41352Y16123*
X41383Y16137*
X41410Y16155*
X41435Y16178*
X41455Y16206*
X41473Y16238*
X41488Y16274*
X41499Y16316*
X41507Y16364*
X41512Y16418*
X41514Y16478*
X41513Y16528*
X41509Y16573*
X41504Y16613*
X41497Y16647*
X41489Y16677*
X41478Y16705*
X41466Y16730*
X41453Y16753*
X41438Y16774*
X41421Y16792*
X41402Y16807*
X41381Y16820*
X41359Y16830*
X41335Y16837*
X41309Y16841*
X41281Y16843*
X41243Y16840*
X41209Y16832*
X41179Y16819*
X41151Y16801*
X41127Y16778*
X41106Y16750*
X41088Y16718*
X41074Y16682*
X41062Y16640*
X41054Y16592*
X41049Y16538*
X41048Y16478*
X41052Y16384*
X41065Y16304*
X41088Y16239*
X41118Y16187*
X41151Y16155*
X41188Y16131*
X41232Y16118*
X41281Y16113*
X41318Y16116*
X41138Y16478D02*
X41138Y16478D01*
X41140Y16397*
X41148Y16331*
X41161Y16280*
X41179Y16243*
X41201Y16218*
X41225Y16199*
X41252Y16188*
X41281Y16185*
X41310Y16188*
X41336Y16199*
X41361Y16218*
X41382Y16243*
X41400Y16280*
X41413Y16331*
X41421Y16397*
X41424Y16478*
X41421Y16559*
X41413Y16625*
X41400Y16676*
X41382Y16713*
X41361Y16738*
X41336Y16756*
X41309Y16767*
X41280Y16771*
X41251Y16767*
X41225Y16758*
X41203Y16742*
X41183Y16719*
X41163Y16680*
X41149Y16626*
X41140Y16559*
X41138Y16478*
%LNtop silkscreen component 5766e69468e6c804*%
D10*
X41715Y19499D02*
X41715Y20549D01*
X44335Y20549*
X44335Y19499*
X41715Y19499*
D11*
X40498Y20268D02*
X40498Y20268D01*
X40499Y20268*
X40609Y20268*
X40609Y20268*
X40626Y20268*
X40626Y20268*
X40640Y20268*
X40640Y20268*
X40652Y20266*
X40652Y20266*
X40662Y20265*
X40662Y20265*
X40673Y20262*
X40673Y20262*
X40683Y20257*
X40683Y20257*
X40694Y20252*
X40694Y20252*
X40705Y20246*
X40705Y20246*
X40716Y20238*
X40716Y20238*
X40728Y20227*
X40728Y20227*
X40740Y20214*
X40740Y20214*
X40753Y20198*
X40753Y20198*
X40767Y20179*
X40767Y20179*
X40784Y20156*
X40784Y20156*
X40802Y20130*
X40802Y20130*
X40822Y20099*
X40822Y20099*
X40916Y19951*
X41034Y19951*
X40910Y20145*
X40891Y20172*
X40872Y20197*
X40852Y20219*
X40831Y20240*
X40821Y20248*
X40808Y20257*
X40792Y20266*
X40774Y20275*
X40774Y20276*
X40823Y20286*
X40864Y20300*
X40899Y20319*
X40927Y20342*
X40948Y20370*
X40964Y20401*
X40973Y20434*
X40976Y20471*
X40974Y20499*
X40968Y20527*
X40959Y20553*
X40946Y20578*
X40930Y20601*
X40911Y20619*
X40890Y20635*
X40867Y20646*
X40839Y20654*
X40806Y20660*
X40766Y20664*
X40721Y20665*
X40405Y20665*
X40405Y19951*
X40498Y19951*
X40498Y20268*
X40499Y20350D02*
X40499Y20350D01*
X40702Y20350*
X40733Y20351*
X40760Y20353*
X40784Y20357*
X40804Y20363*
X40821Y20371*
X40836Y20381*
X40849Y20393*
X40860Y20406*
X40868Y20421*
X40874Y20437*
X40878Y20453*
X40879Y20471*
X40876Y20495*
X40869Y20517*
X40858Y20537*
X40842Y20554*
X40821Y20568*
X40794Y20579*
X40763Y20585*
X40725Y20587*
X40499Y20587*
X40499Y20350*
X41374Y19942D02*
X41374Y19942D01*
X41420Y19954*
X41460Y19973*
X41495Y20001*
X41523Y20034*
X41543Y20070*
X41555Y20111*
X41559Y20155*
X41557Y20187*
X41551Y20216*
X41540Y20244*
X41525Y20269*
X41506Y20291*
X41483Y20310*
X41456Y20325*
X41425Y20338*
X41425Y20339*
X41450Y20350*
X41471Y20363*
X41489Y20378*
X41504Y20395*
X41515Y20415*
X41524Y20435*
X41528Y20458*
X41530Y20482*
X41526Y20519*
X41516Y20554*
X41498Y20585*
X41473Y20614*
X41442Y20638*
X41407Y20655*
X41367Y20665*
X41323Y20668*
X41278Y20665*
X41239Y20655*
X41204Y20638*
X41173Y20615*
X41149Y20587*
X41131Y20556*
X41121Y20522*
X41117Y20484*
X41119Y20459*
X41124Y20436*
X41132Y20415*
X41144Y20396*
X41159Y20378*
X41177Y20363*
X41199Y20350*
X41225Y20339*
X41225Y20338*
X41194Y20327*
X41167Y20313*
X41144Y20295*
X41124Y20274*
X41109Y20249*
X41098Y20221*
X41091Y20190*
X41089Y20157*
X41093Y20112*
X41105Y20071*
X41125Y20034*
X41153Y20001*
X41188Y19974*
X41228Y19954*
X41274Y19942*
X41324Y19938*
X41374Y19942*
X41207Y20487D02*
X41207Y20487D01*
X41209Y20463*
X41215Y20441*
X41225Y20421*
X41240Y20404*
X41257Y20390*
X41277Y20380*
X41300Y20374*
X41325Y20372*
X41349Y20374*
X41371Y20380*
X41390Y20390*
X41408Y20404*
X41422Y20421*
X41432Y20439*
X41438Y20460*
X41440Y20482*
X41438Y20505*
X41432Y20527*
X41421Y20546*
X41407Y20564*
X41389Y20578*
X41369Y20588*
X41347Y20594*
X41324Y20596*
X41299Y20594*
X41278Y20588*
X41258Y20578*
X41240Y20564*
X41226Y20547*
X41215Y20529*
X41209Y20509*
X41207Y20487*
X41179Y20157D02*
X41179Y20157D01*
X41180Y20138*
X41183Y20120*
X41189Y20102*
X41196Y20084*
X41206Y20067*
X41218Y20053*
X41233Y20040*
X41249Y20029*
X41267Y20021*
X41286Y20015*
X41305Y20011*
X41325Y20010*
X41355Y20013*
X41382Y20020*
X41407Y20033*
X41429Y20051*
X41447Y20072*
X41460Y20097*
X41467Y20124*
X41470Y20154*
X41467Y20184*
X41459Y20212*
X41446Y20236*
X41428Y20259*
X41405Y20277*
X41380Y20290*
X41352Y20298*
X41322Y20300*
X41292Y20298*
X41265Y20290*
X41241Y20277*
X41219Y20259*
X41201Y20237*
X41189Y20213*
X41181Y20186*
X41179Y20157*
%LNtop silkscreen component ec5ddc3e9c6c7b47*%
D10*
X6825Y28070D02*
X6825Y49170D01*
X6825Y28070D02*
X25325Y28070D01*
X25325Y49170*
X6825Y49170*
D11*
X10754Y26951D02*
X10754Y26951D01*
X10784Y26954*
X10812Y26957*
X10838Y26963*
X10862Y26970*
X10884Y26978*
X10904Y26987*
X10923Y26999*
X10940Y27011*
X10957Y27027*
X10973Y27044*
X10988Y27063*
X11002Y27085*
X11015Y27110*
X11027Y27137*
X11037Y27167*
X11045Y27200*
X11051Y27235*
X11055Y27272*
X11056Y27312*
X11054Y27358*
X11049Y27402*
X11040Y27443*
X11028Y27482*
X11012Y27517*
X10993Y27550*
X10970Y27578*
X10943Y27604*
X10920Y27621*
X10895Y27635*
X10868Y27647*
X10838Y27655*
X10814Y27660*
X10785Y27663*
X10750Y27665*
X10711Y27665*
X10465Y27665*
X10465Y26951*
X10723Y26951*
X10754Y26951*
X10559Y27034D02*
X10559Y27034D01*
X10712Y27034*
X10746Y27035*
X10775Y27038*
X10801Y27042*
X10823Y27048*
X10842Y27055*
X10859Y27064*
X10874Y27073*
X10887Y27085*
X10903Y27103*
X10917Y27124*
X10929Y27148*
X10940Y27175*
X10948Y27205*
X10954Y27238*
X10957Y27274*
X10959Y27313*
X10956Y27366*
X10949Y27413*
X10938Y27452*
X10922Y27486*
X10902Y27514*
X10881Y27536*
X10858Y27554*
X10832Y27567*
X10810Y27573*
X10782Y27578*
X10749Y27580*
X10710Y27581*
X10559Y27581*
X10559Y27034*
X11497Y26940D02*
X11497Y26940D01*
X11532Y26945*
X11566Y26954*
X11597Y26966*
X11626Y26982*
X11651Y27000*
X11673Y27021*
X11691Y27045*
X11705Y27070*
X11716Y27097*
X11722Y27124*
X11724Y27152*
X11722Y27180*
X11716Y27206*
X11707Y27231*
X11694Y27254*
X11677Y27275*
X11656Y27294*
X11631Y27311*
X11602Y27326*
X11576Y27337*
X11541Y27348*
X11497Y27359*
X11444Y27372*
X11444Y27372*
X11391Y27385*
X11391Y27385*
X11350Y27398*
X11350Y27398*
X11320Y27411*
X11320Y27411*
X11301Y27423*
X11301Y27423*
X11288Y27437*
X11288Y27437*
X11280Y27452*
X11280Y27452*
X11274Y27469*
X11274Y27469*
X11273Y27487*
X11273Y27487*
X11275Y27509*
X11275Y27509*
X11282Y27529*
X11282Y27529*
X11295Y27547*
X11295Y27547*
X11312Y27563*
X11312Y27563*
X11335Y27577*
X11335Y27577*
X11363Y27587*
X11363Y27587*
X11398Y27593*
X11398Y27593*
X11438Y27595*
X11438Y27595*
X11476Y27593*
X11476Y27593*
X11510Y27586*
X11510Y27586*
X11539Y27575*
X11539Y27575*
X11563Y27560*
X11563Y27560*
X11582Y27541*
X11582Y27541*
X11596Y27517*
X11596Y27517*
X11607Y27489*
X11607Y27489*
X11612Y27458*
X11702Y27465*
X11699Y27495*
X11692Y27524*
X11682Y27551*
X11667Y27577*
X11649Y27600*
X11628Y27620*
X11602Y27638*
X11574Y27652*
X11542Y27663*
X11509Y27671*
X11472Y27676*
X11434Y27678*
X11398Y27676*
X11365Y27671*
X11333Y27664*
X11303Y27653*
X11275Y27640*
X11251Y27623*
X11230Y27604*
X11213Y27582*
X11200Y27558*
X11190Y27533*
X11184Y27507*
X11182Y27481*
X11184Y27457*
X11189Y27434*
X11196Y27412*
X11207Y27392*
X11222Y27373*
X11239Y27355*
X11260Y27340*
X11284Y27325*
X11307Y27315*
X11338Y27304*
X11376Y27292*
X11422Y27281*
X11467Y27270*
X11467Y27270*
X11503Y27260*
X11503Y27260*
X11530Y27252*
X11530Y27252*
X11549Y27246*
X11549Y27246*
X11570Y27237*
X11570Y27237*
X11588Y27227*
X11588Y27227*
X11602Y27216*
X11602Y27216*
X11614Y27204*
X11614Y27203*
X11622Y27190*
X11622Y27190*
X11629Y27176*
X11629Y27176*
X11632Y27161*
X11632Y27161*
X11633Y27144*
X11633Y27144*
X11632Y27128*
X11632Y27128*
X11628Y27112*
X11628Y27112*
X11622Y27097*
X11622Y27097*
X11613Y27083*
X11613Y27083*
X11602Y27069*
X11602Y27069*
X11587Y27058*
X11587Y27058*
X11571Y27047*
X11571Y27047*
X11551Y27038*
X11551Y27038*
X11530Y27031*
X11529Y27031*
X11506Y27026*
X11506Y27026*
X11482Y27023*
X11482Y27023*
X11455Y27022*
X11455Y27022*
X11425Y27024*
X11425Y27024*
X11397Y27028*
X11397Y27028*
X11370Y27034*
X11370Y27034*
X11345Y27044*
X11345Y27044*
X11322Y27055*
X11322Y27055*
X11303Y27068*
X11303Y27068*
X11286Y27083*
X11286Y27083*
X11273Y27099*
X11273Y27099*
X11262Y27118*
X11262Y27118*
X11254Y27139*
X11254Y27139*
X11248Y27162*
X11248Y27162*
X11243Y27187*
X11155Y27180*
X11158Y27145*
X11166Y27112*
X11178Y27081*
X11194Y27052*
X11215Y27025*
X11238Y27002*
X11266Y26982*
X11297Y26967*
X11332Y26954*
X11370Y26945*
X11413Y26940*
X11460Y26938*
X11497Y26940*
X12089Y26941D02*
X12089Y26941D01*
X12123Y26949*
X12154Y26962*
X12181Y26980*
X12205Y27004*
X12226Y27031*
X12244Y27063*
X12258Y27100*
X12270Y27141*
X12278Y27189*
X12283Y27243*
X12284Y27303*
X12283Y27353*
X12280Y27398*
X12275Y27438*
X12268Y27472*
X12259Y27502*
X12249Y27530*
X12237Y27555*
X12224Y27578*
X12209Y27599*
X12192Y27617*
X12173Y27632*
X12152Y27645*
X12130Y27655*
X12105Y27662*
X12079Y27667*
X12051Y27668*
X12014Y27666*
X11980Y27658*
X11949Y27645*
X11922Y27626*
X11898Y27603*
X11877Y27576*
X11859Y27544*
X11845Y27507*
X11833Y27465*
X11825Y27418*
X11820Y27363*
X11819Y27303*
X11823Y27209*
X11836Y27130*
X11858Y27064*
X11889Y27012*
X11921Y26980*
X11959Y26957*
X12003Y26943*
X12051Y26938*
X12089Y26941*
X11908Y27303D02*
X11908Y27303D01*
X11911Y27222*
X11919Y27156*
X11932Y27105*
X11950Y27068*
X11971Y27043*
X11996Y27025*
X12022Y27014*
X12051Y27010*
X12080Y27014*
X12107Y27025*
X12131Y27043*
X12153Y27069*
X12171Y27105*
X12184Y27157*
X12192Y27222*
X12194Y27303*
X12192Y27384*
X12184Y27450*
X12171Y27501*
X12153Y27538*
X12131Y27563*
X12107Y27581*
X12080Y27592*
X12050Y27596*
X12022Y27593*
X11996Y27583*
X11973Y27567*
X11954Y27545*
X11934Y27505*
X11920Y27452*
X11911Y27384*
X11908Y27303*
D15*
X9725Y27820D03*
%LNtop silkscreen component b3b1496daab2cd3d*%
D10*
X41715Y14855D02*
X41715Y15905D01*
X44335Y15905*
X44335Y14855*
X41715Y14855*
D11*
X40498Y15168D02*
X40498Y15168D01*
X40499Y15168*
X40609Y15168*
X40609Y15168*
X40626Y15168*
X40626Y15168*
X40640Y15168*
X40640Y15168*
X40652Y15166*
X40652Y15166*
X40662Y15165*
X40662Y15165*
X40673Y15162*
X40673Y15162*
X40683Y15157*
X40683Y15157*
X40694Y15152*
X40694Y15152*
X40705Y15146*
X40705Y15146*
X40716Y15138*
X40716Y15138*
X40728Y15127*
X40728Y15127*
X40740Y15114*
X40740Y15114*
X40753Y15098*
X40753Y15098*
X40767Y15079*
X40767Y15079*
X40784Y15056*
X40784Y15056*
X40802Y15030*
X40802Y15030*
X40822Y14999*
X40822Y14999*
X40916Y14851*
X41034Y14851*
X40910Y15045*
X40891Y15072*
X40872Y15097*
X40852Y15119*
X40831Y15140*
X40821Y15148*
X40808Y15157*
X40792Y15166*
X40774Y15175*
X40774Y15176*
X40823Y15186*
X40864Y15200*
X40899Y15219*
X40927Y15242*
X40948Y15270*
X40964Y15301*
X40973Y15334*
X40976Y15371*
X40974Y15399*
X40968Y15427*
X40959Y15453*
X40946Y15478*
X40930Y15501*
X40911Y15519*
X40890Y15535*
X40867Y15546*
X40839Y15554*
X40806Y15560*
X40766Y15564*
X40721Y15565*
X40405Y15565*
X40405Y14851*
X40498Y14851*
X40498Y15168*
X40499Y15250D02*
X40499Y15250D01*
X40702Y15250*
X40733Y15251*
X40760Y15253*
X40784Y15257*
X40804Y15263*
X40821Y15271*
X40836Y15281*
X40849Y15293*
X40860Y15306*
X40868Y15321*
X40874Y15337*
X40878Y15353*
X40879Y15371*
X40876Y15395*
X40869Y15417*
X40858Y15437*
X40842Y15454*
X40821Y15468*
X40794Y15479*
X40763Y15485*
X40725Y15487*
X40499Y15487*
X40499Y15250*
X41458Y15022D02*
X41458Y15022D01*
X41459Y15022*
X41555Y15022*
X41555Y15101*
X41459Y15101*
X41458Y15102*
X41458Y15565*
X41387Y15565*
X41061Y15102*
X41061Y15022*
X41371Y15022*
X41371Y15022*
X41371Y14851*
X41458Y14851*
X41458Y15022*
X41370Y15423D02*
X41370Y15423D01*
X41148Y15102*
X41370Y15102*
X41370Y15423*
%LNtop silkscreen component ee30c7fa9c17aba8*%
D10*
X9422Y6040D02*
X8372Y6040D01*
X8372Y8660*
X9422Y8660*
X9422Y6040*
D11*
X8158Y6387D02*
X8158Y6387D01*
X8146Y6437*
X8127Y6482*
X8101Y6523*
X8066Y6558*
X8026Y6588*
X7978Y6612*
X7923Y6629*
X7900Y6536*
X7942Y6524*
X7942Y6524*
X7978Y6507*
X7979Y6507*
X8010Y6486*
X8010Y6486*
X8036Y6461*
X8036Y6461*
X8056Y6432*
X8056Y6432*
X8070Y6399*
X8070Y6399*
X8079Y6364*
X8079Y6364*
X8082Y6326*
X8082Y6326*
X8080Y6294*
X8080Y6294*
X8073Y6263*
X8073Y6263*
X8063Y6233*
X8063Y6233*
X8048Y6204*
X8048Y6204*
X8029Y6178*
X8029Y6178*
X8006Y6155*
X8005Y6155*
X7978Y6136*
X7978Y6136*
X7946Y6121*
X7946Y6121*
X7910Y6109*
X7910Y6109*
X7872Y6101*
X7872Y6101*
X7830Y6096*
X7830Y6096*
X7786Y6094*
X7786Y6094*
X7751Y6096*
X7751Y6096*
X7716Y6100*
X7716Y6100*
X7682Y6107*
X7682Y6107*
X7649Y6117*
X7649Y6117*
X7617Y6130*
X7617Y6130*
X7589Y6148*
X7589Y6148*
X7564Y6169*
X7564Y6169*
X7542Y6195*
X7542Y6195*
X7525Y6224*
X7525Y6224*
X7512Y6257*
X7512Y6257*
X7505Y6293*
X7505Y6294*
X7503Y6333*
X7503Y6333*
X7505Y6368*
X7505Y6368*
X7511Y6399*
X7511Y6399*
X7523Y6427*
X7523Y6427*
X7538Y6453*
X7538Y6453*
X7559Y6475*
X7559Y6475*
X7585Y6494*
X7585Y6494*
X7616Y6511*
X7616Y6511*
X7652Y6525*
X7630Y6617*
X7584Y6600*
X7543Y6577*
X7507Y6549*
X7477Y6515*
X7453Y6477*
X7436Y6434*
X7426Y6387*
X7422Y6335*
X7425Y6289*
X7433Y6244*
X7447Y6202*
X7466Y6162*
X7490Y6125*
X7519Y6092*
X7553Y6064*
X7592Y6040*
X7635Y6022*
X7682Y6008*
X7733Y6000*
X7787Y5998*
X7837Y6000*
X7886Y6007*
X7933Y6019*
X7978Y6036*
X8020Y6057*
X8057Y6082*
X8089Y6112*
X8115Y6146*
X8135Y6185*
X8150Y6229*
X8159Y6279*
X8162Y6334*
X8158Y6387*
X7432Y7042D02*
X7432Y7042D01*
X7432Y6986*
X7455Y6972*
X7455Y6972*
X7479Y6955*
X7479Y6955*
X7503Y6933*
X7503Y6933*
X7527Y6908*
X7527Y6908*
X7551Y6879*
X7551Y6879*
X7573Y6848*
X7573Y6848*
X7593Y6814*
X7593Y6814*
X7611Y6779*
X7695Y6779*
X7687Y6799*
X7677Y6822*
X7664Y6846*
X7650Y6871*
X7635Y6895*
X7620Y6917*
X7605Y6937*
X7589Y6954*
X7590Y6955*
X8149Y6955*
X8149Y7042*
X7432Y7042*
X8158Y7545D02*
X8158Y7545D01*
X8146Y7591*
X8126Y7631*
X8097Y7668*
X8063Y7698*
X8025Y7719*
X7984Y7732*
X7939Y7736*
X7905Y7734*
X7875Y7727*
X7848Y7716*
X7823Y7701*
X7802Y7682*
X7785Y7659*
X7772Y7632*
X7763Y7602*
X7762Y7602*
X7750Y7625*
X7736Y7645*
X7719Y7662*
X7701Y7676*
X7682Y7687*
X7661Y7695*
X7640Y7699*
X7617Y7701*
X7593Y7699*
X7570Y7694*
X7547Y7686*
X7525Y7675*
X7505Y7660*
X7486Y7643*
X7471Y7623*
X7457Y7600*
X7446Y7574*
X7438Y7548*
X7433Y7521*
X7432Y7492*
X7435Y7451*
X7444Y7414*
X7459Y7380*
X7480Y7350*
X7507Y7324*
X7539Y7303*
X7575Y7288*
X7616Y7277*
X7632Y7364*
X7602Y7370*
X7602Y7370*
X7576Y7380*
X7576Y7380*
X7554Y7392*
X7554Y7392*
X7535Y7408*
X7535Y7408*
X7521Y7426*
X7521Y7426*
X7511Y7447*
X7511Y7447*
X7505Y7469*
X7505Y7469*
X7503Y7494*
X7503Y7494*
X7505Y7519*
X7505Y7519*
X7511Y7541*
X7511Y7541*
X7521Y7561*
X7521Y7561*
X7535Y7579*
X7535Y7579*
X7552Y7593*
X7552Y7593*
X7571Y7603*
X7571Y7603*
X7592Y7609*
X7592Y7609*
X7615Y7611*
X7615Y7611*
X7644Y7609*
X7644Y7609*
X7669Y7600*
X7669Y7600*
X7689Y7586*
X7689Y7586*
X7706Y7566*
X7706Y7566*
X7719Y7543*
X7719Y7543*
X7728Y7518*
X7728Y7518*
X7734Y7492*
X7734Y7492*
X7735Y7465*
X7735Y7465*
X7735Y7462*
X7735Y7462*
X7735Y7459*
X7735Y7459*
X7735Y7455*
X7735Y7455*
X7735Y7451*
X7810Y7442*
X7806Y7459*
X7806Y7459*
X7803Y7475*
X7803Y7475*
X7801Y7490*
X7801Y7490*
X7801Y7503*
X7801Y7503*
X7803Y7532*
X7803Y7532*
X7811Y7559*
X7811Y7559*
X7823Y7583*
X7823Y7583*
X7840Y7604*
X7840Y7604*
X7861Y7621*
X7861Y7621*
X7885Y7634*
X7885Y7634*
X7911Y7641*
X7912Y7641*
X7941Y7644*
X7941Y7644*
X7971Y7641*
X7971Y7641*
X7999Y7633*
X7999Y7633*
X8024Y7620*
X8025Y7620*
X8047Y7601*
X8047Y7601*
X8066Y7578*
X8066Y7578*
X8080Y7553*
X8080Y7553*
X8088Y7526*
X8088Y7526*
X8090Y7496*
X8090Y7496*
X8088Y7471*
X8088Y7471*
X8082Y7447*
X8082Y7447*
X8072Y7426*
X8072Y7426*
X8057Y7407*
X8057Y7407*
X8038Y7390*
X8038Y7390*
X8014Y7376*
X8014Y7376*
X7984Y7364*
X7984Y7364*
X7950Y7355*
X7961Y7268*
X8004Y7276*
X8042Y7290*
X8076Y7311*
X8106Y7339*
X8131Y7372*
X8148Y7409*
X8159Y7450*
X8162Y7495*
X8158Y7545*
%LNtop silkscreen component 4bf68f377a3ec8f9*%
D10*
X10784Y6040D02*
X9734Y6040D01*
X9734Y8660*
X10784Y8660*
X10784Y6040*
D11*
X10332Y4898D02*
X10332Y4898D01*
X10332Y4899*
X10332Y5009*
X10332Y5009*
X10332Y5026*
X10332Y5026*
X10332Y5040*
X10332Y5040*
X10334Y5052*
X10334Y5052*
X10335Y5062*
X10335Y5062*
X10338Y5073*
X10338Y5073*
X10343Y5083*
X10343Y5083*
X10348Y5094*
X10348Y5094*
X10354Y5105*
X10354Y5105*
X10362Y5116*
X10362Y5116*
X10373Y5128*
X10373Y5128*
X10386Y5140*
X10386Y5140*
X10402Y5153*
X10402Y5153*
X10421Y5167*
X10421Y5167*
X10444Y5184*
X10444Y5184*
X10470Y5202*
X10470Y5202*
X10501Y5222*
X10501Y5222*
X10649Y5316*
X10649Y5434*
X10455Y5310*
X10428Y5291*
X10403Y5272*
X10381Y5252*
X10360Y5231*
X10352Y5221*
X10343Y5208*
X10334Y5192*
X10325Y5174*
X10324Y5174*
X10314Y5223*
X10300Y5264*
X10281Y5299*
X10258Y5327*
X10230Y5348*
X10199Y5364*
X10166Y5373*
X10129Y5376*
X10101Y5374*
X10073Y5368*
X10047Y5359*
X10022Y5346*
X9999Y5330*
X9981Y5311*
X9965Y5290*
X9954Y5267*
X9946Y5239*
X9940Y5206*
X9936Y5166*
X9935Y5121*
X9935Y4805*
X10649Y4805*
X10649Y4898*
X10332Y4898*
X10250Y4899D02*
X10250Y4899D01*
X10250Y5102*
X10249Y5133*
X10247Y5160*
X10243Y5184*
X10237Y5204*
X10229Y5221*
X10219Y5236*
X10207Y5249*
X10194Y5260*
X10179Y5268*
X10163Y5274*
X10147Y5278*
X10129Y5279*
X10105Y5276*
X10083Y5269*
X10063Y5258*
X10046Y5242*
X10032Y5221*
X10021Y5194*
X10015Y5163*
X10013Y5125*
X10013Y4899*
X10250Y4899*
X9932Y5820D02*
X9932Y5820D01*
X9932Y5764*
X9955Y5751*
X9955Y5750*
X9979Y5733*
X9979Y5733*
X10003Y5711*
X10003Y5711*
X10027Y5686*
X10027Y5686*
X10051Y5657*
X10051Y5657*
X10073Y5626*
X10073Y5626*
X10093Y5592*
X10093Y5592*
X10111Y5557*
X10195Y5557*
X10187Y5578*
X10177Y5600*
X10164Y5624*
X10150Y5649*
X10135Y5673*
X10120Y5695*
X10105Y5715*
X10089Y5732*
X10090Y5733*
X10649Y5733*
X10649Y5820*
X9932Y5820*
%LNtop silkscreen component a433c07c415dc932*%
D10*
X24605Y28070D02*
X24605Y49170D01*
X24605Y28070D02*
X43105Y28070D01*
X43105Y49170*
X24605Y49170*
D11*
X28534Y26951D02*
X28534Y26951D01*
X28564Y26954*
X28592Y26957*
X28618Y26963*
X28642Y26970*
X28664Y26978*
X28684Y26987*
X28703Y26999*
X28720Y27011*
X28737Y27027*
X28753Y27044*
X28768Y27063*
X28782Y27085*
X28795Y27110*
X28807Y27137*
X28817Y27167*
X28825Y27200*
X28831Y27235*
X28835Y27272*
X28836Y27312*
X28834Y27358*
X28829Y27402*
X28820Y27443*
X28808Y27482*
X28792Y27517*
X28773Y27550*
X28750Y27578*
X28723Y27604*
X28700Y27621*
X28675Y27635*
X28648Y27647*
X28618Y27655*
X28594Y27660*
X28565Y27663*
X28530Y27665*
X28491Y27665*
X28245Y27665*
X28245Y26951*
X28503Y26951*
X28534Y26951*
X28339Y27034D02*
X28339Y27034D01*
X28492Y27034*
X28526Y27035*
X28555Y27038*
X28581Y27042*
X28603Y27048*
X28622Y27055*
X28639Y27064*
X28654Y27073*
X28667Y27085*
X28683Y27103*
X28697Y27124*
X28709Y27148*
X28720Y27175*
X28728Y27205*
X28734Y27238*
X28737Y27274*
X28739Y27313*
X28736Y27366*
X28729Y27413*
X28718Y27452*
X28702Y27486*
X28682Y27514*
X28661Y27536*
X28638Y27554*
X28612Y27567*
X28590Y27573*
X28562Y27578*
X28529Y27580*
X28490Y27581*
X28339Y27581*
X28339Y27034*
X29277Y26940D02*
X29277Y26940D01*
X29312Y26945*
X29346Y26954*
X29377Y26966*
X29406Y26982*
X29431Y27000*
X29453Y27021*
X29471Y27045*
X29485Y27070*
X29496Y27097*
X29502Y27124*
X29504Y27152*
X29502Y27180*
X29496Y27206*
X29487Y27231*
X29474Y27254*
X29457Y27275*
X29436Y27294*
X29411Y27311*
X29382Y27326*
X29356Y27337*
X29321Y27348*
X29277Y27359*
X29224Y27372*
X29224Y27372*
X29171Y27385*
X29171Y27385*
X29130Y27398*
X29130Y27398*
X29100Y27411*
X29100Y27411*
X29081Y27423*
X29081Y27423*
X29068Y27437*
X29068Y27437*
X29060Y27452*
X29060Y27452*
X29054Y27469*
X29054Y27469*
X29053Y27487*
X29053Y27487*
X29055Y27509*
X29055Y27509*
X29062Y27529*
X29062Y27529*
X29075Y27547*
X29075Y27547*
X29092Y27563*
X29092Y27563*
X29115Y27577*
X29115Y27577*
X29143Y27587*
X29143Y27587*
X29178Y27593*
X29178Y27593*
X29218Y27595*
X29218Y27595*
X29256Y27593*
X29256Y27593*
X29290Y27586*
X29290Y27586*
X29319Y27575*
X29319Y27575*
X29343Y27560*
X29343Y27560*
X29362Y27541*
X29362Y27541*
X29376Y27517*
X29376Y27517*
X29387Y27489*
X29387Y27489*
X29392Y27458*
X29482Y27465*
X29479Y27495*
X29472Y27524*
X29462Y27551*
X29447Y27577*
X29429Y27600*
X29408Y27620*
X29382Y27638*
X29354Y27652*
X29322Y27663*
X29289Y27671*
X29252Y27676*
X29214Y27678*
X29178Y27676*
X29145Y27671*
X29113Y27664*
X29083Y27653*
X29055Y27640*
X29031Y27623*
X29010Y27604*
X28993Y27582*
X28980Y27558*
X28970Y27533*
X28964Y27507*
X28962Y27481*
X28964Y27457*
X28969Y27434*
X28976Y27412*
X28987Y27392*
X29002Y27373*
X29019Y27355*
X29040Y27340*
X29064Y27325*
X29087Y27315*
X29118Y27304*
X29156Y27292*
X29202Y27281*
X29247Y27270*
X29247Y27270*
X29283Y27260*
X29283Y27260*
X29310Y27252*
X29310Y27252*
X29329Y27246*
X29329Y27246*
X29350Y27237*
X29350Y27237*
X29368Y27227*
X29368Y27227*
X29382Y27216*
X29382Y27216*
X29394Y27204*
X29394Y27203*
X29402Y27190*
X29402Y27190*
X29409Y27176*
X29409Y27176*
X29412Y27161*
X29412Y27161*
X29413Y27144*
X29413Y27144*
X29412Y27128*
X29412Y27128*
X29408Y27112*
X29408Y27112*
X29402Y27097*
X29402Y27097*
X29393Y27083*
X29393Y27083*
X29382Y27069*
X29382Y27069*
X29367Y27058*
X29367Y27058*
X29351Y27047*
X29351Y27047*
X29331Y27038*
X29331Y27038*
X29310Y27031*
X29309Y27031*
X29286Y27026*
X29286Y27026*
X29262Y27023*
X29262Y27023*
X29235Y27022*
X29235Y27022*
X29205Y27024*
X29205Y27024*
X29177Y27028*
X29177Y27028*
X29150Y27034*
X29150Y27034*
X29125Y27044*
X29125Y27044*
X29102Y27055*
X29102Y27055*
X29083Y27068*
X29083Y27068*
X29066Y27083*
X29066Y27083*
X29053Y27099*
X29053Y27099*
X29042Y27118*
X29042Y27118*
X29034Y27139*
X29034Y27139*
X29028Y27162*
X29028Y27162*
X29023Y27187*
X28935Y27180*
X28938Y27145*
X28946Y27112*
X28958Y27081*
X28974Y27052*
X28995Y27025*
X29018Y27002*
X29046Y26982*
X29077Y26967*
X29112Y26954*
X29150Y26945*
X29193Y26940*
X29240Y26938*
X29277Y26940*
X29929Y27668D02*
X29929Y27668D01*
X29873Y27668*
X29859Y27645*
X29859Y27645*
X29842Y27621*
X29842Y27621*
X29820Y27597*
X29820Y27597*
X29795Y27573*
X29795Y27573*
X29766Y27549*
X29766Y27549*
X29735Y27527*
X29735Y27527*
X29701Y27507*
X29701Y27507*
X29666Y27489*
X29666Y27405*
X29686Y27413*
X29709Y27423*
X29733Y27436*
X29758Y27450*
X29782Y27465*
X29804Y27480*
X29824Y27495*
X29841Y27511*
X29842Y27510*
X29842Y26951*
X29929Y26951*
X29929Y27668*
D15*
X27505Y27820D03*
%LNtext*%
D11*
X23066Y23801D02*
X23066Y23801D01*
X23104Y23804*
X23139Y23809*
X23172Y23816*
X23203Y23825*
X23231Y23835*
X23257Y23847*
X23280Y23862*
X23302Y23878*
X23323Y23897*
X23344Y23919*
X23363Y23944*
X23381Y23972*
X23397Y24003*
X23412Y24038*
X23425Y24076*
X23435Y24118*
X23443Y24162*
X23448Y24209*
X23449Y24260*
X23447Y24319*
X23440Y24374*
X23429Y24427*
X23413Y24475*
X23393Y24521*
X23369Y24561*
X23340Y24598*
X23306Y24631*
X23277Y24652*
X23245Y24670*
X23210Y24685*
X23173Y24696*
X23142Y24701*
X23105Y24705*
X23061Y24708*
X23011Y24709*
X22698Y24709*
X22698Y23801*
X23026Y23801*
X23066Y23801*
X22818Y23907D02*
X22818Y23907D01*
X23012Y23907*
X23055Y23908*
X23093Y23911*
X23125Y23917*
X23153Y23924*
X23178Y23933*
X23199Y23944*
X23219Y23957*
X23235Y23971*
X23255Y23994*
X23273Y24021*
X23289Y24052*
X23302Y24086*
X23312Y24124*
X23320Y24166*
X23324Y24212*
X23326Y24261*
X23323Y24329*
X23314Y24387*
X23299Y24438*
X23279Y24481*
X23254Y24516*
X23227Y24545*
X23197Y24567*
X23165Y24583*
X23137Y24591*
X23102Y24597*
X23059Y24601*
X23009Y24602*
X22818Y24602*
X22818Y23907*
X23713Y24709D02*
X23713Y24709D01*
X23602Y24709*
X23602Y24581*
X23713Y24581*
X23713Y24709*
X23713Y24458D02*
X23713Y24458D01*
X23602Y24458*
X23602Y23801*
X23713Y23801*
X23713Y24458*
X24171Y23536D02*
X24171Y23536D01*
X24214Y23543*
X24254Y23554*
X24290Y23570*
X24321Y23591*
X24348Y23614*
X24371Y23641*
X24389Y23672*
X24403Y23709*
X24412Y23758*
X24418Y23818*
X24420Y23889*
X24420Y24458*
X24318Y24458*
X24318Y24379*
X24318Y24379*
X24277Y24420*
X24232Y24449*
X24181Y24467*
X24125Y24473*
X24083Y24470*
X24044Y24462*
X24007Y24449*
X23974Y24430*
X23943Y24406*
X23916Y24377*
X23894Y24344*
X23875Y24307*
X23860Y24266*
X23849Y24224*
X23843Y24179*
X23841Y24133*
X23845Y24067*
X23859Y24006*
X23883Y23950*
X23915Y23898*
X23956Y23856*
X24005Y23825*
X24061Y23807*
X24125Y23801*
X24177Y23806*
X24225Y23822*
X24268Y23849*
X24307Y23887*
X24308Y23887*
X24307Y23836*
X24307Y23836*
X24306Y23796*
X24306Y23796*
X24303Y23765*
X24303Y23765*
X24300Y23743*
X24300Y23743*
X24290Y23716*
X24290Y23716*
X24278Y23693*
X24278Y23693*
X24262Y23673*
X24262Y23673*
X24242Y23656*
X24242Y23656*
X24219Y23642*
X24219Y23642*
X24191Y23632*
X24191Y23632*
X24159Y23627*
X24159Y23627*
X24122Y23625*
X24122Y23625*
X24088Y23627*
X24088Y23627*
X24058Y23632*
X24058Y23632*
X24031Y23642*
X24031Y23642*
X24009Y23656*
X24009Y23656*
X23995Y23669*
X23994Y23669*
X23983Y23686*
X23983Y23686*
X23975Y23706*
X23975Y23706*
X23971Y23729*
X23863Y23745*
X23866Y23696*
X23879Y23652*
X23901Y23616*
X23933Y23586*
X23972Y23563*
X24017Y23546*
X24067Y23537*
X24123Y23533*
X24171Y23536*
X23955Y24141D02*
X23955Y24141D01*
X23958Y24081*
X23968Y24029*
X23984Y23986*
X24006Y23952*
X24034Y23926*
X24064Y23907*
X24098Y23896*
X24135Y23892*
X24172Y23896*
X24206Y23907*
X24237Y23926*
X24264Y23952*
X24287Y23985*
X24303Y24028*
X24313Y24078*
X24316Y24137*
X24313Y24194*
X24303Y24243*
X24286Y24285*
X24263Y24320*
X24235Y24347*
X24204Y24366*
X24170Y24377*
X24134Y24381*
X24098Y24377*
X24065Y24366*
X24034Y24347*
X24007Y24321*
X23984Y24287*
X23968Y24245*
X23958Y24197*
X23955Y24141*
X24701Y24709D02*
X24701Y24709D01*
X24590Y24709*
X24590Y24581*
X24701Y24581*
X24701Y24709*
X24701Y24458D02*
X24701Y24458D01*
X24590Y24458*
X24590Y23801*
X24701Y23801*
X24701Y24458*
X25066Y23792D02*
X25066Y23792D01*
X25087Y23794*
X25108Y23797*
X25131Y23802*
X25115Y23899*
X25101Y23897*
X25101Y23897*
X25088Y23896*
X25088Y23896*
X25076Y23895*
X25076Y23895*
X25066Y23895*
X25066Y23895*
X25054Y23895*
X25054Y23895*
X25044Y23897*
X25044Y23897*
X25035Y23900*
X25035Y23900*
X25028Y23903*
X25028Y23903*
X25022Y23908*
X25021Y23908*
X25016Y23913*
X25016Y23913*
X25012Y23919*
X25012Y23919*
X25008Y23925*
X25008Y23925*
X25006Y23934*
X25006Y23934*
X25004Y23947*
X25004Y23947*
X25003Y23965*
X25003Y23965*
X25002Y23987*
X25002Y23987*
X25002Y24372*
X25003Y24372*
X25115Y24372*
X25115Y24458*
X25003Y24458*
X25002Y24458*
X25002Y24688*
X24892Y24621*
X24892Y24458*
X24892Y24458*
X24811Y24458*
X24811Y24372*
X24892Y24372*
X24892Y24372*
X24892Y23993*
X24893Y23947*
X24896Y23910*
X24900Y23881*
X24906Y23861*
X24914Y23846*
X24925Y23833*
X24937Y23821*
X24953Y23811*
X24971Y23803*
X24993Y23797*
X25018Y23793*
X25047Y23792*
X25066Y23792*
X25444Y23787D02*
X25444Y23787D01*
X25475Y23791*
X25505Y23798*
X25534Y23807*
X25563Y23820*
X25593Y23837*
X25623Y23857*
X25654Y23882*
X25654Y23882*
X25658Y23859*
X25663Y23838*
X25669Y23818*
X25677Y23801*
X25792Y23801*
X25783Y23819*
X25783Y23819*
X25775Y23838*
X25775Y23839*
X25769Y23859*
X25769Y23859*
X25764Y23879*
X25764Y23879*
X25761Y23907*
X25761Y23907*
X25759Y23949*
X25759Y23949*
X25758Y24005*
X25758Y24005*
X25757Y24076*
X25757Y24076*
X25757Y24225*
X25757Y24259*
X25756Y24288*
X25754Y24311*
X25752Y24328*
X25746Y24350*
X25738Y24369*
X25728Y24387*
X25717Y24403*
X25703Y24418*
X25685Y24431*
X25664Y24443*
X25640Y24453*
X25611Y24462*
X25579Y24468*
X25543Y24472*
X25503Y24473*
X25462Y24471*
X25423Y24467*
X25387Y24460*
X25353Y24450*
X25323Y24437*
X25297Y24422*
X25274Y24404*
X25255Y24384*
X25239Y24360*
X25226Y24334*
X25215Y24304*
X25206Y24271*
X25314Y24256*
X25325Y24288*
X25325Y24288*
X25337Y24315*
X25337Y24316*
X25352Y24337*
X25352Y24337*
X25370Y24354*
X25370Y24354*
X25391Y24366*
X25391Y24366*
X25418Y24375*
X25418Y24375*
X25450Y24380*
X25450Y24380*
X25487Y24382*
X25487Y24382*
X25526Y24379*
X25526Y24379*
X25561Y24372*
X25561Y24372*
X25590Y24360*
X25590Y24360*
X25614Y24344*
X25614Y24344*
X25628Y24327*
X25628Y24327*
X25638Y24305*
X25638Y24305*
X25644Y24279*
X25644Y24279*
X25646Y24247*
X25646Y24247*
X25646Y24243*
X25646Y24243*
X25646Y24237*
X25646Y24237*
X25645Y24228*
X25645Y24228*
X25645Y24218*
X25645Y24218*
X25608Y24207*
X25608Y24207*
X25563Y24197*
X25563Y24197*
X25509Y24187*
X25509Y24187*
X25446Y24179*
X25446Y24179*
X25415Y24175*
X25388Y24171*
X25365Y24167*
X25347Y24162*
X25325Y24155*
X25304Y24147*
X25285Y24137*
X25266Y24126*
X25249Y24113*
X25234Y24098*
X25221Y24081*
X25209Y24062*
X25199Y24041*
X25192Y24020*
X25188Y23997*
X25187Y23974*
X25191Y23934*
X25201Y23899*
X25220Y23867*
X25245Y23839*
X25277Y23815*
X25316Y23799*
X25361Y23789*
X25412Y23786*
X25444Y23787*
X25645Y24131D02*
X25645Y24131D01*
X25611Y24119*
X25569Y24108*
X25519Y24098*
X25462Y24088*
X25431Y24083*
X25404Y24078*
X25382Y24072*
X25365Y24066*
X25352Y24059*
X25340Y24051*
X25330Y24041*
X25321Y24030*
X25314Y24017*
X25309Y24005*
X25306Y23991*
X25306Y23977*
X25308Y23955*
X25314Y23936*
X25325Y23918*
X25339Y23902*
X25358Y23889*
X25381Y23880*
X25408Y23874*
X25438Y23873*
X25470Y23874*
X25499Y23880*
X25527Y23888*
X25553Y23901*
X25576Y23916*
X25597Y23934*
X25613Y23955*
X25627Y23978*
X25635Y23999*
X25640Y24025*
X25644Y24055*
X25645Y24090*
X25645Y24131*
X26039Y24709D02*
X26039Y24709D01*
X25929Y24709*
X25929Y23801*
X26039Y23801*
X26039Y24709*
X27041Y23790D02*
X27041Y23790D01*
X27103Y23804*
X27161Y23829*
X27212Y23863*
X27258Y23906*
X27295Y23958*
X27326Y24019*
X27348Y24088*
X27229Y24118*
X27214Y24065*
X27214Y24065*
X27193Y24018*
X27193Y24018*
X27166Y23978*
X27166Y23978*
X27134Y23945*
X27134Y23945*
X27097Y23920*
X27097Y23920*
X27056Y23902*
X27056Y23902*
X27011Y23891*
X27011Y23891*
X26962Y23887*
X26962Y23887*
X26922Y23890*
X26922Y23890*
X26882Y23898*
X26882Y23898*
X26844Y23911*
X26844Y23911*
X26808Y23930*
X26808Y23930*
X26774Y23954*
X26774Y23954*
X26746Y23984*
X26746Y23984*
X26722Y24019*
X26722Y24019*
X26702Y24059*
X26702Y24059*
X26688Y24104*
X26688Y24104*
X26677Y24153*
X26677Y24153*
X26671Y24206*
X26671Y24206*
X26669Y24262*
X26669Y24262*
X26670Y24307*
X26670Y24307*
X26676Y24351*
X26676Y24351*
X26685Y24394*
X26685Y24394*
X26697Y24437*
X26697Y24437*
X26714Y24477*
X26714Y24477*
X26736Y24513*
X26736Y24513*
X26764Y24545*
X26764Y24545*
X26796Y24572*
X26796Y24572*
X26834Y24594*
X26834Y24594*
X26875Y24610*
X26875Y24610*
X26921Y24619*
X26921Y24619*
X26972Y24622*
X26972Y24622*
X27015Y24619*
X27015Y24619*
X27055Y24611*
X27055Y24611*
X27091Y24597*
X27091Y24597*
X27123Y24577*
X27123Y24577*
X27152Y24551*
X27152Y24551*
X27176Y24518*
X27177Y24518*
X27198Y24478*
X27198Y24478*
X27215Y24432*
X27333Y24460*
X27311Y24519*
X27282Y24571*
X27246Y24617*
X27203Y24655*
X27154Y24685*
X27100Y24707*
X27040Y24720*
X26974Y24724*
X26915Y24721*
X26859Y24710*
X26805Y24693*
X26754Y24669*
X26707Y24639*
X26665Y24602*
X26630Y24558*
X26600Y24509*
X26576Y24454*
X26559Y24394*
X26549Y24330*
X26546Y24261*
X26549Y24197*
X26558Y24135*
X26573Y24076*
X26594Y24018*
X26620Y23965*
X26653Y23918*
X26690Y23878*
X26734Y23845*
X26783Y23819*
X26839Y23800*
X26902Y23789*
X26972Y23785*
X27041Y23790*
X27591Y24709D02*
X27591Y24709D01*
X27481Y24709*
X27481Y23801*
X27591Y23801*
X27591Y24709*
X28074Y23788D02*
X28074Y23788D01*
X28115Y23796*
X28154Y23808*
X28191Y23826*
X28225Y23848*
X28255Y23874*
X28281Y23904*
X28302Y23939*
X28318Y23979*
X28330Y24025*
X28337Y24078*
X28340Y24139*
X28334Y24213*
X28318Y24278*
X28291Y24335*
X28254Y24384*
X28208Y24423*
X28155Y24451*
X28097Y24467*
X28032Y24473*
X27973Y24468*
X27919Y24455*
X27870Y24432*
X27825Y24400*
X27781Y24350*
X27749Y24288*
X27730Y24215*
X27724Y24129*
X27729Y24051*
X27745Y23982*
X27772Y23923*
X27809Y23874*
X27855Y23835*
X27907Y23808*
X27966Y23791*
X28032Y23786*
X28074Y23788*
X27838Y24129D02*
X27838Y24129D01*
X27841Y24070*
X27852Y24019*
X27869Y23975*
X27893Y23940*
X27923Y23912*
X27956Y23893*
X27992Y23881*
X28032Y23877*
X28072Y23881*
X28108Y23893*
X28141Y23912*
X28170Y23940*
X28195Y23976*
X28212Y24020*
X28222Y24072*
X28226Y24133*
X28222Y24190*
X28212Y24240*
X28194Y24283*
X28170Y24318*
X28141Y24346*
X28108Y24365*
X28072Y24377*
X28032Y24381*
X27992Y24377*
X27956Y24365*
X27923Y24346*
X27893Y24318*
X27869Y24283*
X27852Y24240*
X27841Y24189*
X27838Y24129*
X28788Y23790D02*
X28788Y23790D01*
X28836Y23802*
X28879Y23822*
X28918Y23850*
X28952Y23885*
X28978Y23926*
X28998Y23973*
X29010Y24027*
X28901Y24041*
X28893Y24002*
X28893Y24002*
X28882Y23968*
X28882Y23968*
X28866Y23940*
X28865Y23940*
X28845Y23917*
X28845Y23917*
X28822Y23899*
X28822Y23899*
X28796Y23887*
X28796Y23886*
X28767Y23879*
X28767Y23879*
X28735Y23876*
X28735Y23876*
X28696Y23880*
X28696Y23880*
X28661Y23891*
X28661Y23891*
X28630Y23910*
X28630Y23910*
X28602Y23937*
X28602Y23937*
X28580Y23971*
X28580Y23971*
X28564Y24015*
X28564Y24015*
X28554Y24068*
X28554Y24068*
X28551Y24130*
X28551Y24130*
X28555Y24191*
X28555Y24191*
X28564Y24243*
X28564Y24243*
X28581Y24287*
X28581Y24287*
X28604Y24322*
X28604Y24322*
X28633Y24348*
X28633Y24348*
X28665Y24367*
X28665Y24367*
X28701Y24378*
X28701Y24378*
X28742Y24382*
X28742Y24382*
X28768Y24380*
X28769Y24380*
X28793Y24374*
X28793Y24374*
X28816Y24363*
X28816Y24363*
X28837Y24349*
X28837Y24349*
X28855Y24330*
X28855Y24330*
X28871Y24307*
X28871Y24307*
X28883Y24280*
X28883Y24280*
X28892Y24249*
X28999Y24266*
X28987Y24312*
X28968Y24353*
X28943Y24389*
X28912Y24419*
X28876Y24442*
X28835Y24459*
X28788Y24470*
X28737Y24473*
X28696Y24470*
X28656Y24463*
X28617Y24450*
X28580Y24433*
X28547Y24411*
X28517Y24383*
X28493Y24351*
X28473Y24313*
X28457Y24272*
X28446Y24227*
X28440Y24178*
X28438Y24127*
X28443Y24049*
X28458Y23981*
X28484Y23923*
X28520Y23874*
X28564Y23835*
X28615Y23808*
X28672Y23791*
X28737Y23786*
X28788Y23790*
X29375Y24214D02*
X29375Y24214D01*
X29375Y24214*
X29626Y24458*
X29483Y24458*
X29219Y24190*
X29218Y24190*
X29218Y24709*
X29107Y24709*
X29107Y23801*
X29218Y23801*
X29218Y24061*
X29218Y24061*
X29297Y24137*
X29298Y24137*
X29515Y23801*
X29652Y23801*
X29375Y24214*
X30476Y23801D02*
X30476Y23801D01*
X30514Y23804*
X30549Y23809*
X30582Y23816*
X30613Y23825*
X30641Y23835*
X30667Y23847*
X30691Y23862*
X30713Y23878*
X30734Y23897*
X30754Y23919*
X30773Y23944*
X30791Y23972*
X30808Y24003*
X30822Y24038*
X30835Y24076*
X30846Y24118*
X30853Y24162*
X30858Y24209*
X30859Y24260*
X30857Y24319*
X30851Y24374*
X30839Y24427*
X30824Y24475*
X30804Y24521*
X30779Y24561*
X30750Y24598*
X30716Y24631*
X30687Y24652*
X30656Y24670*
X30621Y24685*
X30583Y24696*
X30552Y24701*
X30515Y24705*
X30471Y24708*
X30422Y24709*
X30109Y24709*
X30109Y23801*
X30436Y23801*
X30476Y23801*
X30229Y23907D02*
X30229Y23907D01*
X30423Y23907*
X30465Y23908*
X30503Y23911*
X30536Y23917*
X30564Y23924*
X30588Y23933*
X30610Y23944*
X30629Y23957*
X30645Y23971*
X30666Y23994*
X30683Y24021*
X30699Y24052*
X30712Y24086*
X30722Y24124*
X30730Y24166*
X30734Y24212*
X30736Y24261*
X30733Y24329*
X30724Y24387*
X30710Y24438*
X30689Y24481*
X30664Y24516*
X30637Y24545*
X30608Y24567*
X30575Y24583*
X30547Y24591*
X30512Y24597*
X30470Y24601*
X30420Y24602*
X30229Y24602*
X30229Y23907*
X31486Y23790D02*
X31486Y23790D01*
X31549Y23804*
X31606Y23829*
X31658Y23863*
X31703Y23906*
X31741Y23958*
X31771Y24019*
X31794Y24088*
X31675Y24118*
X31659Y24065*
X31659Y24065*
X31638Y24018*
X31638Y24018*
X31612Y23978*
X31612Y23978*
X31580Y23945*
X31580Y23945*
X31543Y23920*
X31543Y23920*
X31502Y23902*
X31502Y23902*
X31457Y23891*
X31457Y23891*
X31408Y23887*
X31408Y23887*
X31367Y23890*
X31367Y23890*
X31328Y23898*
X31328Y23898*
X31290Y23911*
X31290Y23911*
X31253Y23930*
X31253Y23930*
X31220Y23954*
X31220Y23954*
X31191Y23984*
X31191Y23984*
X31167Y24019*
X31167Y24019*
X31148Y24059*
X31148Y24059*
X31133Y24104*
X31133Y24104*
X31123Y24153*
X31123Y24153*
X31116Y24206*
X31116Y24206*
X31114Y24262*
X31114Y24262*
X31116Y24307*
X31116Y24307*
X31121Y24351*
X31121Y24351*
X31130Y24394*
X31130Y24394*
X31143Y24437*
X31143Y24437*
X31160Y24477*
X31160Y24477*
X31182Y24513*
X31182Y24513*
X31209Y24545*
X31209Y24545*
X31242Y24572*
X31242Y24572*
X31279Y24594*
X31279Y24594*
X31321Y24610*
X31321Y24610*
X31367Y24619*
X31367Y24619*
X31417Y24622*
X31417Y24622*
X31461Y24619*
X31461Y24619*
X31501Y24611*
X31501Y24611*
X31537Y24597*
X31537Y24597*
X31569Y24577*
X31569Y24577*
X31597Y24551*
X31597Y24551*
X31622Y24518*
X31622Y24518*
X31643Y24478*
X31643Y24478*
X31661Y24432*
X31778Y24460*
X31757Y24519*
X31728Y24571*
X31692Y24617*
X31649Y24655*
X31600Y24685*
X31545Y24707*
X31485Y24720*
X31420Y24724*
X31361Y24721*
X31305Y24710*
X31251Y24693*
X31200Y24669*
X31153Y24639*
X31111Y24602*
X31075Y24558*
X31045Y24509*
X31022Y24454*
X31005Y24394*
X30995Y24330*
X30991Y24261*
X30994Y24197*
X31003Y24135*
X31018Y24076*
X31039Y24018*
X31066Y23965*
X31098Y23918*
X31136Y23878*
X31179Y23845*
X31229Y23819*
X31285Y23800*
X31348Y23789*
X31418Y23785*
X31486Y23790*
X32227Y24185D02*
X32227Y24185D01*
X31886Y24185*
X31886Y24073*
X32227Y24073*
X32227Y24185*
X32664Y23788D02*
X32664Y23788D01*
X32708Y23798*
X32747Y23815*
X32782Y23839*
X32812Y23868*
X32839Y23903*
X32861Y23944*
X32880Y23990*
X32894Y24043*
X32904Y24104*
X32911Y24172*
X32913Y24248*
X32911Y24312*
X32908Y24370*
X32901Y24420*
X32892Y24463*
X32881Y24501*
X32868Y24537*
X32853Y24569*
X32836Y24598*
X32817Y24624*
X32795Y24647*
X32771Y24667*
X32745Y24683*
X32716Y24696*
X32685Y24705*
X32652Y24710*
X32617Y24712*
X32569Y24709*
X32526Y24699*
X32487Y24682*
X32452Y24659*
X32422Y24630*
X32395Y24595*
X32373Y24554*
X32354Y24508*
X32339Y24455*
X32329Y24394*
X32323Y24325*
X32321Y24248*
X32326Y24129*
X32343Y24028*
X32371Y23945*
X32411Y23879*
X32452Y23838*
X32500Y23809*
X32555Y23791*
X32617Y23785*
X32664Y23788*
X32435Y24248D02*
X32435Y24248D01*
X32438Y24146*
X32448Y24062*
X32465Y23997*
X32487Y23950*
X32515Y23918*
X32546Y23895*
X32580Y23881*
X32617Y23876*
X32654Y23881*
X32687Y23895*
X32718Y23918*
X32746Y23951*
X32769Y23997*
X32785Y24062*
X32795Y24146*
X32798Y24248*
X32795Y24351*
X32785Y24435*
X32769Y24500*
X32746Y24547*
X32718Y24579*
X32687Y24602*
X32653Y24616*
X32615Y24620*
X32579Y24616*
X32546Y24604*
X32518Y24584*
X32493Y24555*
X32467Y24505*
X32449Y24437*
X32439Y24351*
X32435Y24248*
X33371Y23788D02*
X33371Y23788D01*
X33414Y23798*
X33453Y23815*
X33488Y23839*
X33519Y23868*
X33545Y23903*
X33568Y23944*
X33586Y23990*
X33600Y24043*
X33611Y24104*
X33617Y24172*
X33619Y24248*
X33618Y24312*
X33614Y24370*
X33607Y24420*
X33599Y24463*
X33587Y24501*
X33574Y24537*
X33559Y24569*
X33542Y24598*
X33523Y24624*
X33501Y24647*
X33478Y24667*
X33451Y24683*
X33423Y24696*
X33392Y24705*
X33358Y24710*
X33323Y24712*
X33276Y24709*
X33232Y24699*
X33193Y24682*
X33159Y24659*
X33128Y24630*
X33101Y24595*
X33079Y24554*
X33060Y24508*
X33046Y24455*
X33035Y24394*
X33029Y24325*
X33027Y24248*
X33033Y24129*
X33050Y24028*
X33078Y23945*
X33117Y23879*
X33158Y23838*
X33206Y23809*
X33261Y23791*
X33323Y23785*
X33371Y23788*
X33141Y24248D02*
X33141Y24248D01*
X33145Y24146*
X33154Y24062*
X33171Y23997*
X33194Y23950*
X33221Y23918*
X33252Y23895*
X33286Y23881*
X33323Y23876*
X33360Y23881*
X33394Y23895*
X33425Y23918*
X33452Y23951*
X33475Y23997*
X33492Y24062*
X33501Y24146*
X33505Y24248*
X33501Y24351*
X33492Y24435*
X33475Y24500*
X33452Y24547*
X33425Y24579*
X33394Y24602*
X33359Y24616*
X33322Y24620*
X33285Y24616*
X33253Y24604*
X33224Y24584*
X33199Y24555*
X33174Y24505*
X33156Y24437*
X33145Y24351*
X33141Y24248*
X34319Y23907D02*
X34319Y23907D01*
X33873Y23907*
X33873Y23907*
X33883Y23923*
X33883Y23923*
X33894Y23938*
X33894Y23938*
X33907Y23953*
X33907Y23953*
X33920Y23968*
X33920Y23968*
X33939Y23987*
X33939Y23987*
X33967Y24012*
X33967Y24012*
X34004Y24044*
X34004Y24044*
X34050Y24083*
X34105Y24131*
X34153Y24173*
X34191Y24211*
X34222Y24242*
X34246Y24271*
X34266Y24299*
X34283Y24327*
X34296Y24353*
X34305Y24380*
X34312Y24406*
X34316Y24433*
X34318Y24460*
X34313Y24512*
X34299Y24559*
X34275Y24602*
X34242Y24640*
X34200Y24672*
X34152Y24694*
X34097Y24708*
X34035Y24712*
X33974Y24708*
X33919Y24696*
X33870Y24675*
X33829Y24645*
X33794Y24608*
X33768Y24563*
X33750Y24510*
X33740Y24450*
X33854Y24439*
X33857Y24479*
X33857Y24479*
X33867Y24515*
X33867Y24515*
X33882Y24546*
X33882Y24546*
X33903Y24572*
X33903Y24572*
X33929Y24594*
X33929Y24594*
X33960Y24609*
X33960Y24609*
X33994Y24618*
X33994Y24618*
X34032Y24621*
X34032Y24621*
X34069Y24618*
X34069Y24618*
X34102Y24610*
X34102Y24609*
X34131Y24595*
X34131Y24595*
X34157Y24575*
X34157Y24575*
X34177Y24551*
X34177Y24551*
X34192Y24524*
X34192Y24524*
X34201Y24495*
X34201Y24495*
X34204Y24463*
X34204Y24463*
X34201Y24431*
X34201Y24431*
X34191Y24398*
X34191Y24398*
X34175Y24363*
X34175Y24363*
X34152Y24328*
X34152Y24328*
X34120Y24290*
X34120Y24290*
X34076Y24245*
X34076Y24245*
X34020Y24193*
X34020Y24193*
X33952Y24136*
X33952Y24136*
X33907Y24098*
X33867Y24062*
X33834Y24029*
X33806Y23998*
X33782Y23968*
X33762Y23938*
X33745Y23908*
X33732Y23877*
X33726Y23859*
X33722Y23839*
X33720Y23820*
X33719Y23801*
X34319Y23801*
X34319Y23907*
X35166Y24602D02*
X35166Y24602D01*
X35166Y24602*
X35466Y24602*
X35466Y24709*
X34747Y24709*
X34747Y24602*
X35046Y24602*
X35046Y24602*
X35046Y23801*
X35166Y23801*
X35166Y24602*
X35641Y24709D02*
X35641Y24709D01*
X35530Y24709*
X35530Y24581*
X35641Y24581*
X35641Y24709*
X35641Y24458D02*
X35641Y24458D01*
X35530Y24458*
X35530Y23801*
X35641Y23801*
X35641Y24458*
X35811Y23800D02*
X35811Y23800D01*
X35811Y24459*
X35911Y24459*
X35911Y24366*
X35928Y24389*
X35947Y24410*
X35969Y24428*
X35993Y24444*
X36020Y24457*
X36048Y24466*
X36078Y24472*
X36110Y24473*
X36145Y24472*
X36177Y24466*
X36205Y24456*
X36230Y24443*
X36252Y24426*
X36270Y24407*
X36285Y24384*
X36296Y24358*
X36338Y24409*
X36386Y24445*
X36440Y24466*
X36500Y24473*
X36546Y24470*
X36587Y24460*
X36621Y24443*
X36651Y24419*
X36674Y24388*
X36690Y24350*
X36700Y24305*
X36703Y24252*
X36703Y23800*
X36592Y23800*
X36592Y24215*
X36592Y24246*
X36590Y24272*
X36586Y24294*
X36581Y24311*
X36575Y24325*
X36566Y24338*
X36555Y24349*
X36542Y24359*
X36527Y24367*
X36511Y24372*
X36494Y24376*
X36475Y24377*
X36442Y24374*
X36411Y24365*
X36384Y24351*
X36360Y24331*
X36340Y24304*
X36325Y24270*
X36317Y24230*
X36314Y24183*
X36314Y23800*
X36202Y23800*
X36202Y24228*
X36200Y24263*
X36195Y24293*
X36187Y24319*
X36175Y24340*
X36159Y24356*
X36139Y24367*
X36114Y24374*
X36086Y24377*
X36063Y24375*
X36040Y24371*
X36019Y24363*
X35998Y24352*
X35980Y24338*
X35964Y24321*
X35951Y24302*
X35941Y24279*
X35933Y24253*
X35927Y24221*
X35924Y24184*
X35923Y24142*
X35923Y23800*
X35811Y23800*
X37200Y23789D02*
X37200Y23789D01*
X37250Y23800*
X37294Y23817*
X37334Y23841*
X37368Y23872*
X37396Y23908*
X37418Y23950*
X37434Y23997*
X37320Y24012*
X37306Y23979*
X37306Y23979*
X37290Y23951*
X37290Y23951*
X37272Y23927*
X37272Y23927*
X37251Y23909*
X37251Y23909*
X37228Y23895*
X37228Y23895*
X37203Y23884*
X37203Y23884*
X37176Y23878*
X37176Y23878*
X37146Y23876*
X37146Y23876*
X37106Y23880*
X37106Y23880*
X37070Y23891*
X37070Y23891*
X37037Y23909*
X37037Y23909*
X37008Y23934*
X37008Y23934*
X36983Y23966*
X36983Y23966*
X36965Y24005*
X36965Y24005*
X36953Y24050*
X36953Y24050*
X36946Y24101*
X36947Y24101*
X37438Y24101*
X37438Y24110*
X37438Y24118*
X37438Y24125*
X37438Y24131*
X37433Y24207*
X37417Y24275*
X37391Y24334*
X37355Y24383*
X37310Y24422*
X37259Y24450*
X37202Y24467*
X37139Y24473*
X37074Y24467*
X37016Y24450*
X36963Y24421*
X36918Y24381*
X36880Y24331*
X36854Y24271*
X36837Y24202*
X36832Y24124*
X36837Y24048*
X36853Y23981*
X36880Y23923*
X36917Y23874*
X36963Y23836*
X37016Y23808*
X37077Y23791*
X37145Y23786*
X37200Y23789*
X36953Y24193D02*
X36953Y24193D01*
X37321Y24193*
X37315Y24231*
X37307Y24265*
X37294Y24294*
X37279Y24317*
X37250Y24345*
X37218Y24366*
X37181Y24378*
X37140Y24382*
X37104Y24378*
X37070Y24369*
X37039Y24353*
X37011Y24330*
X36988Y24302*
X36970Y24270*
X36959Y24233*
X36953Y24193*
X37844Y24214D02*
X37844Y24214D01*
X37844Y24214*
X38095Y24458*
X37952Y24458*
X37688Y24190*
X37687Y24190*
X37687Y24709*
X37576Y24709*
X37576Y23801*
X37687Y23801*
X37687Y24061*
X37687Y24061*
X37766Y24137*
X37766Y24137*
X37984Y23801*
X38121Y23801*
X37844Y24214*
X38542Y23789D02*
X38542Y23789D01*
X38591Y23800*
X38636Y23817*
X38675Y23841*
X38709Y23872*
X38737Y23908*
X38759Y23950*
X38776Y23997*
X38661Y24012*
X38648Y23979*
X38648Y23979*
X38632Y23951*
X38632Y23951*
X38613Y23927*
X38613Y23927*
X38593Y23909*
X38592Y23909*
X38570Y23895*
X38570Y23895*
X38544Y23884*
X38544Y23884*
X38517Y23878*
X38517Y23878*
X38487Y23876*
X38487Y23876*
X38448Y23880*
X38448Y23880*
X38412Y23891*
X38412Y23891*
X38379Y23909*
X38379Y23909*
X38349Y23934*
X38349Y23934*
X38325Y23966*
X38325Y23966*
X38306Y24005*
X38306Y24005*
X38294Y24050*
X38294Y24050*
X38288Y24101*
X38288Y24101*
X38779Y24101*
X38779Y24110*
X38779Y24118*
X38780Y24125*
X38780Y24131*
X38774Y24207*
X38759Y24275*
X38733Y24334*
X38696Y24383*
X38651Y24422*
X38600Y24450*
X38544Y24467*
X38481Y24473*
X38416Y24467*
X38357Y24450*
X38305Y24421*
X38259Y24381*
X38222Y24331*
X38195Y24271*
X38179Y24202*
X38174Y24124*
X38179Y24048*
X38195Y23981*
X38221Y23923*
X38258Y23874*
X38304Y23836*
X38357Y23808*
X38418Y23791*
X38487Y23786*
X38542Y23789*
X38295Y24193D02*
X38295Y24193D01*
X38662Y24193*
X38657Y24231*
X38648Y24265*
X38636Y24294*
X38620Y24317*
X38591Y24345*
X38559Y24366*
X38522Y24378*
X38482Y24382*
X38445Y24378*
X38411Y24369*
X38380Y24353*
X38353Y24330*
X38329Y24302*
X38312Y24270*
X38300Y24233*
X38295Y24193*
X39248Y23789D02*
X39248Y23789D01*
X39297Y23800*
X39342Y23817*
X39381Y23841*
X39415Y23872*
X39443Y23908*
X39466Y23950*
X39482Y23997*
X39368Y24012*
X39354Y23979*
X39354Y23979*
X39338Y23951*
X39338Y23951*
X39319Y23927*
X39319Y23927*
X39299Y23909*
X39299Y23909*
X39276Y23895*
X39276Y23895*
X39251Y23884*
X39251Y23884*
X39223Y23878*
X39223Y23878*
X39194Y23876*
X39194Y23876*
X39154Y23880*
X39154Y23880*
X39118Y23891*
X39118Y23891*
X39085Y23909*
X39085Y23909*
X39056Y23934*
X39056Y23934*
X39031Y23966*
X39031Y23966*
X39013Y24005*
X39013Y24005*
X39000Y24050*
X39000Y24050*
X38994Y24101*
X38994Y24101*
X39485Y24101*
X39486Y24110*
X39486Y24118*
X39486Y24125*
X39486Y24131*
X39481Y24207*
X39465Y24275*
X39439Y24334*
X39402Y24383*
X39358Y24422*
X39307Y24450*
X39250Y24467*
X39187Y24473*
X39122Y24467*
X39063Y24450*
X39011Y24421*
X38965Y24381*
X38928Y24331*
X38901Y24271*
X38885Y24202*
X38880Y24124*
X38885Y24048*
X38901Y23981*
X38927Y23923*
X38964Y23874*
X39010Y23836*
X39064Y23808*
X39125Y23791*
X39193Y23786*
X39248Y23789*
X39001Y24193D02*
X39001Y24193D01*
X39369Y24193*
X39363Y24231*
X39354Y24265*
X39342Y24294*
X39326Y24317*
X39298Y24345*
X39265Y24366*
X39229Y24378*
X39188Y24382*
X39151Y24378*
X39117Y24369*
X39087Y24353*
X39059Y24330*
X39036Y24302*
X39018Y24270*
X39007Y24233*
X39001Y24193*
X39734Y23869D02*
X39734Y23869D01*
X39735Y23869*
X39750Y23851*
X39767Y23836*
X39786Y23822*
X39808Y23809*
X39830Y23799*
X39855Y23792*
X39880Y23787*
X39907Y23786*
X39945Y23788*
X39982Y23796*
X40018Y23810*
X40053Y23829*
X40085Y23853*
X40113Y23881*
X40138Y23914*
X40158Y23952*
X40174Y23994*
X40185Y24038*
X40192Y24085*
X40194Y24134*
X40192Y24180*
X40186Y24225*
X40176Y24267*
X40161Y24307*
X40143Y24345*
X40121Y24377*
X40094Y24406*
X40064Y24430*
X40031Y24449*
X39995Y24462*
X39956Y24470*
X39916Y24473*
X39885Y24471*
X39856Y24467*
X39830Y24459*
X39806Y24448*
X39784Y24434*
X39763Y24417*
X39744Y24396*
X39725Y24372*
X39724Y24373*
X39724Y24458*
X39623Y24458*
X39623Y23548*
X39734Y23548*
X39734Y23869*
X39724Y24126D02*
X39724Y24126D01*
X39727Y24066*
X39737Y24015*
X39753Y23972*
X39775Y23938*
X39803Y23911*
X39832Y23892*
X39865Y23881*
X39900Y23877*
X39936Y23881*
X39969Y23893*
X40000Y23912*
X40027Y23940*
X40051Y23976*
X40067Y24020*
X40077Y24073*
X40081Y24135*
X40077Y24194*
X40068Y24245*
X40051Y24288*
X40029Y24323*
X40002Y24351*
X39972Y24370*
X39940Y24382*
X39905Y24386*
X39870Y24382*
X39838Y24369*
X39807Y24349*
X39779Y24319*
X39755Y24282*
X39738Y24238*
X39727Y24185*
X39724Y24126*
X40441Y24709D02*
X40441Y24709D01*
X40330Y24709*
X40330Y24581*
X40441Y24581*
X40441Y24709*
X40441Y24458D02*
X40441Y24458D01*
X40330Y24458*
X40330Y23801*
X40441Y23801*
X40441Y24458*
X40722Y24160D02*
X40722Y24160D01*
X40722Y24160*
X40726Y24218*
X40726Y24218*
X40735Y24266*
X40735Y24266*
X40752Y24304*
X40752Y24304*
X40774Y24332*
X40774Y24332*
X40802Y24352*
X40802Y24352*
X40831Y24366*
X40831Y24366*
X40863Y24374*
X40863Y24374*
X40898Y24377*
X40898Y24377*
X40919Y24376*
X40919Y24376*
X40940Y24372*
X40940Y24372*
X40958Y24366*
X40959Y24366*
X40976Y24357*
X40976Y24357*
X40991Y24346*
X40991Y24346*
X41004Y24333*
X41004Y24333*
X41014Y24319*
X41015Y24319*
X41022Y24303*
X41022Y24303*
X41028Y24284*
X41028Y24284*
X41032Y24260*
X41032Y24260*
X41035Y24233*
X41035Y24233*
X41035Y24201*
X41035Y24201*
X41035Y23801*
X41146Y23801*
X41146Y24205*
X41146Y24241*
X41144Y24271*
X41142Y24295*
X41140Y24313*
X41134Y24336*
X41126Y24358*
X41117Y24378*
X41105Y24396*
X41091Y24412*
X41074Y24427*
X41054Y24440*
X41031Y24452*
X41005Y24461*
X40978Y24468*
X40950Y24472*
X40921Y24473*
X40857Y24466*
X40801Y24446*
X40752Y24412*
X40712Y24364*
X40711Y24365*
X40711Y24458*
X40612Y24458*
X40612Y23801*
X40722Y23801*
X40722Y24160*
X41605Y23536D02*
X41605Y23536D01*
X41649Y23543*
X41689Y23554*
X41724Y23570*
X41756Y23591*
X41783Y23614*
X41806Y23641*
X41823Y23672*
X41837Y23709*
X41847Y23758*
X41853Y23818*
X41855Y23889*
X41855Y24458*
X41753Y24458*
X41753Y24379*
X41752Y24379*
X41712Y24420*
X41666Y24449*
X41616Y24467*
X41560Y24473*
X41518Y24470*
X41478Y24462*
X41442Y24449*
X41408Y24430*
X41378Y24406*
X41351Y24377*
X41328Y24344*
X41309Y24307*
X41295Y24266*
X41284Y24224*
X41277Y24179*
X41275Y24133*
X41280Y24067*
X41294Y24006*
X41317Y23950*
X41350Y23898*
X41391Y23856*
X41439Y23825*
X41496Y23807*
X41559Y23801*
X41612Y23806*
X41659Y23822*
X41703Y23849*
X41742Y23887*
X41742Y23887*
X41742Y23836*
X41742Y23836*
X41741Y23796*
X41741Y23796*
X41738Y23765*
X41738Y23765*
X41734Y23743*
X41734Y23743*
X41725Y23716*
X41725Y23716*
X41712Y23693*
X41712Y23693*
X41696Y23673*
X41696Y23673*
X41677Y23656*
X41677Y23656*
X41654Y23642*
X41654Y23642*
X41626Y23632*
X41626Y23632*
X41594Y23627*
X41594Y23627*
X41557Y23625*
X41557Y23625*
X41523Y23627*
X41523Y23627*
X41493Y23632*
X41493Y23632*
X41466Y23642*
X41466Y23642*
X41443Y23656*
X41443Y23656*
X41429Y23669*
X41429Y23669*
X41418Y23686*
X41418Y23686*
X41410Y23706*
X41410Y23706*
X41405Y23729*
X41298Y23745*
X41301Y23696*
X41314Y23652*
X41336Y23616*
X41368Y23586*
X41407Y23563*
X41451Y23546*
X41502Y23537*
X41558Y23533*
X41605Y23536*
X41390Y24141D02*
X41390Y24141D01*
X41393Y24081*
X41402Y24029*
X41419Y23986*
X41441Y23952*
X41468Y23926*
X41499Y23907*
X41533Y23896*
X41570Y23892*
X41607Y23896*
X41641Y23907*
X41671Y23926*
X41699Y23952*
X41722Y23985*
X41738Y24028*
X41748Y24078*
X41751Y24137*
X41748Y24194*
X41738Y24243*
X41721Y24285*
X41697Y24320*
X41669Y24347*
X41638Y24366*
X41605Y24377*
X41568Y24381*
X41532Y24377*
X41499Y24366*
X41469Y24347*
X41442Y24321*
X41419Y24287*
X41403Y24245*
X41393Y24197*
X41390Y24141*
X43254Y24709D02*
X43254Y24709D01*
X43093Y24709*
X42876Y24076*
X42860Y24031*
X42847Y23992*
X42836Y23958*
X42827Y23930*
X42827Y23930*
X42819Y23956*
X42809Y23987*
X42797Y24023*
X42783Y24065*
X42568Y24709*
X42388Y24709*
X42388Y23801*
X42503Y23801*
X42503Y24574*
X42504Y24574*
X42767Y23801*
X42874Y23801*
X43139Y24561*
X43139Y24561*
X43139Y23801*
X43254Y23801*
X43254Y24709*
X43744Y23788D02*
X43744Y23788D01*
X43785Y23796*
X43824Y23808*
X43861Y23826*
X43895Y23848*
X43925Y23874*
X43950Y23904*
X43972Y23939*
X43988Y23979*
X44000Y24025*
X44007Y24078*
X44010Y24139*
X44004Y24213*
X43988Y24278*
X43961Y24335*
X43924Y24384*
X43878Y24423*
X43825Y24451*
X43767Y24467*
X43702Y24473*
X43643Y24468*
X43589Y24455*
X43540Y24432*
X43495Y24400*
X43451Y24350*
X43419Y24288*
X43400Y24215*
X43394Y24129*
X43399Y24051*
X43415Y23982*
X43442Y23923*
X43479Y23874*
X43525Y23835*
X43577Y23808*
X43636Y23791*
X43702Y23786*
X43744Y23788*
X43508Y24129D02*
X43508Y24129D01*
X43511Y24070*
X43522Y24019*
X43539Y23975*
X43563Y23940*
X43592Y23912*
X43625Y23893*
X43662Y23881*
X43702Y23877*
X43742Y23881*
X43778Y23893*
X43811Y23912*
X43840Y23940*
X43864Y23976*
X43882Y24020*
X43892Y24072*
X43895Y24133*
X43892Y24190*
X43882Y24240*
X43864Y24283*
X43840Y24318*
X43811Y24346*
X43778Y24365*
X43742Y24377*
X43702Y24381*
X43662Y24377*
X43625Y24365*
X43592Y24346*
X43563Y24318*
X43539Y24283*
X43522Y24240*
X43511Y24189*
X43508Y24129*
X44441Y23792D02*
X44441Y23792D01*
X44491Y23810*
X44533Y23841*
X44568Y23884*
X44569Y23883*
X44569Y23801*
X44671Y23801*
X44671Y24709*
X44561Y24709*
X44561Y24383*
X44561Y24382*
X44545Y24402*
X44527Y24419*
X44507Y24434*
X44485Y24448*
X44461Y24459*
X44435Y24467*
X44408Y24471*
X44379Y24473*
X44340Y24470*
X44302Y24462*
X44266Y24449*
X44232Y24430*
X44202Y24407*
X44175Y24378*
X44153Y24345*
X44134Y24307*
X44120Y24266*
X44109Y24223*
X44103Y24177*
X44101Y24129*
X44104Y24080*
X44110Y24033*
X44122Y23990*
X44137Y23950*
X44157Y23913*
X44181Y23881*
X44209Y23853*
X44240Y23829*
X44273Y23810*
X44309Y23796*
X44346Y23788*
X44384Y23786*
X44441Y23792*
X44215Y24129D02*
X44215Y24129D01*
X44219Y24069*
X44229Y24018*
X44245Y23975*
X44269Y23940*
X44297Y23912*
X44327Y23893*
X44360Y23881*
X44395Y23877*
X44430Y23881*
X44462Y23892*
X44492Y23911*
X44519Y23937*
X44541Y23971*
X44557Y24012*
X44567Y24062*
X44570Y24119*
X44567Y24182*
X44557Y24237*
X44541Y24282*
X44518Y24318*
X44491Y24345*
X44460Y24365*
X44426Y24377*
X44390Y24381*
X44354Y24377*
X44321Y24366*
X44292Y24347*
X44265Y24320*
X44244Y24286*
X44228Y24242*
X44219Y24190*
X44215Y24129*
X45132Y23793D02*
X45132Y23793D01*
X45188Y23813*
X45237Y23848*
X45279Y23897*
X45279Y23897*
X45279Y23801*
X45378Y23801*
X45378Y24458*
X45268Y24458*
X45268Y24106*
X45268Y24106*
X45267Y24066*
X45267Y24066*
X45263Y24031*
X45263Y24031*
X45257Y24002*
X45257Y24002*
X45249Y23977*
X45249Y23977*
X45239Y23956*
X45239Y23956*
X45225Y23937*
X45225Y23937*
X45207Y23921*
X45207Y23921*
X45187Y23907*
X45187Y23907*
X45164Y23895*
X45164Y23895*
X45141Y23887*
X45141Y23887*
X45117Y23882*
X45117Y23882*
X45092Y23881*
X45092Y23881*
X45068Y23882*
X45068Y23882*
X45046Y23887*
X45046Y23887*
X45026Y23895*
X45026Y23895*
X45008Y23906*
X45008Y23906*
X44992Y23920*
X44992Y23920*
X44979Y23936*
X44979Y23936*
X44970Y23954*
X44970Y23954*
X44963Y23975*
X44963Y23975*
X44960Y23994*
X44960Y23994*
X44958Y24020*
X44958Y24020*
X44956Y24053*
X44956Y24053*
X44956Y24093*
X44956Y24093*
X44956Y24458*
X44845Y24458*
X44845Y24051*
X44846Y24017*
X44847Y23989*
X44849Y23965*
X44852Y23946*
X44858Y23923*
X44866Y23901*
X44875Y23882*
X44887Y23864*
X44900Y23848*
X44917Y23833*
X44938Y23820*
X44961Y23808*
X44987Y23798*
X45014Y23791*
X45041Y23787*
X45070Y23786*
X45132Y23793*
X45662Y24709D02*
X45662Y24709D01*
X45552Y24709*
X45552Y23801*
X45662Y23801*
X45662Y24709*
X46167Y23789D02*
X46167Y23789D01*
X46217Y23800*
X46261Y23817*
X46301Y23841*
X46335Y23872*
X46363Y23908*
X46385Y23950*
X46401Y23997*
X46287Y24012*
X46273Y23979*
X46273Y23979*
X46257Y23951*
X46257Y23951*
X46239Y23927*
X46239Y23927*
X46218Y23909*
X46218Y23909*
X46195Y23895*
X46195Y23895*
X46170Y23884*
X46170Y23884*
X46143Y23878*
X46143Y23878*
X46113Y23876*
X46113Y23876*
X46073Y23880*
X46073Y23880*
X46037Y23891*
X46037Y23891*
X46004Y23909*
X46004Y23909*
X45975Y23934*
X45975Y23934*
X45950Y23966*
X45950Y23966*
X45932Y24005*
X45932Y24005*
X45920Y24050*
X45920Y24050*
X45913Y24101*
X45914Y24101*
X46405Y24101*
X46405Y24110*
X46405Y24118*
X46405Y24125*
X46405Y24131*
X46400Y24207*
X46384Y24275*
X46358Y24334*
X46322Y24383*
X46277Y24422*
X46226Y24450*
X46169Y24467*
X46106Y24473*
X46041Y24467*
X45983Y24450*
X45930Y24421*
X45885Y24381*
X45847Y24331*
X45820Y24271*
X45804Y24202*
X45799Y24124*
X45804Y24048*
X45820Y23981*
X45847Y23923*
X45884Y23874*
X45930Y23836*
X45983Y23808*
X46044Y23791*
X46112Y23786*
X46167Y23789*
X45920Y24193D02*
X45920Y24193D01*
X46288Y24193*
X46282Y24231*
X46274Y24265*
X46261Y24294*
X46246Y24317*
X46217Y24345*
X46184Y24366*
X46148Y24378*
X46107Y24382*
X46071Y24378*
X46037Y24369*
X46006Y24353*
X45978Y24330*
X45955Y24302*
X45937Y24270*
X45926Y24233*
X45920Y24193*
X47431Y24458D02*
X47431Y24458D01*
X47317Y24458*
X47171Y24057*
X47158Y24021*
X47147Y23989*
X47137Y23959*
X47129Y23931*
X47128Y23931*
X47118Y23965*
X47108Y23999*
X47097Y24032*
X47086Y24064*
X46945Y24458*
X46828Y24458*
X47078Y23801*
X47182Y23801*
X47431Y24458*
X47919Y24712D02*
X47919Y24712D01*
X47848Y24712*
X47831Y24683*
X47831Y24683*
X47809Y24653*
X47809Y24653*
X47781Y24622*
X47781Y24622*
X47749Y24591*
X47749Y24591*
X47712Y24561*
X47712Y24561*
X47673Y24533*
X47673Y24533*
X47630Y24507*
X47630Y24507*
X47585Y24484*
X47585Y24377*
X47611Y24388*
X47640Y24401*
X47670Y24417*
X47702Y24435*
X47733Y24454*
X47761Y24473*
X47786Y24492*
X47808Y24512*
X47808Y24512*
X47808Y23801*
X47919Y23801*
X47919Y24712*
X48395Y23927D02*
X48395Y23927D01*
X48268Y23927*
X48268Y23801*
X48395Y23801*
X48395Y23927*
X49144Y23907D02*
X49144Y23907D01*
X48699Y23907*
X48698Y23907*
X48708Y23923*
X48708Y23923*
X48720Y23938*
X48720Y23938*
X48732Y23953*
X48732Y23953*
X48746Y23968*
X48746Y23968*
X48764Y23987*
X48764Y23987*
X48792Y24012*
X48792Y24012*
X48829Y24044*
X48829Y24044*
X48875Y24083*
X48931Y24131*
X48978Y24173*
X49017Y24211*
X49047Y24242*
X49071Y24271*
X49091Y24299*
X49108Y24327*
X49121Y24353*
X49131Y24380*
X49137Y24406*
X49142Y24433*
X49143Y24460*
X49138Y24512*
X49124Y24559*
X49100Y24602*
X49067Y24640*
X49025Y24672*
X48977Y24694*
X48922Y24708*
X48860Y24712*
X48799Y24708*
X48744Y24696*
X48696Y24675*
X48654Y24645*
X48620Y24608*
X48594Y24563*
X48575Y24510*
X48566Y24450*
X48679Y24439*
X48683Y24479*
X48683Y24479*
X48692Y24515*
X48692Y24515*
X48707Y24546*
X48707Y24546*
X48728Y24572*
X48728Y24572*
X48755Y24594*
X48755Y24594*
X48785Y24609*
X48785Y24609*
X48819Y24618*
X48819Y24618*
X48858Y24621*
X48858Y24621*
X48894Y24618*
X48894Y24618*
X48927Y24610*
X48927Y24609*
X48956Y24595*
X48956Y24595*
X48982Y24575*
X48982Y24575*
X49003Y24551*
X49003Y24551*
X49017Y24524*
X49017Y24524*
X49026Y24495*
X49026Y24495*
X49029Y24463*
X49029Y24463*
X49026Y24431*
X49026Y24431*
X49016Y24398*
X49016Y24398*
X49000Y24363*
X49000Y24363*
X48977Y24328*
X48977Y24328*
X48945Y24290*
X48945Y24290*
X48901Y24245*
X48901Y24245*
X48845Y24193*
X48845Y24193*
X48777Y24136*
X48777Y24136*
X48732Y24098*
X48693Y24062*
X48659Y24029*
X48631Y23998*
X48607Y23968*
X48587Y23938*
X48571Y23908*
X48557Y23877*
X48551Y23859*
X48547Y23839*
X48545Y23820*
X48544Y23801*
X49144Y23801*
X49144Y23907*
X7123Y49571D02*
X7123Y49571D01*
X7160Y49574*
X7196Y49579*
X7229Y49586*
X7259Y49595*
X7287Y49605*
X7313Y49617*
X7337Y49632*
X7359Y49648*
X7380Y49667*
X7400Y49689*
X7420Y49714*
X7438Y49742*
X7454Y49773*
X7469Y49808*
X7482Y49846*
X7492Y49888*
X7500Y49932*
X7504Y49979*
X7506Y50030*
X7503Y50089*
X7497Y50144*
X7486Y50197*
X7470Y50245*
X7450Y50291*
X7425Y50331*
X7396Y50368*
X7363Y50401*
X7334Y50422*
X7302Y50440*
X7267Y50455*
X7230Y50466*
X7199Y50471*
X7161Y50475*
X7118Y50478*
X7068Y50479*
X6755Y50479*
X6755Y49571*
X7083Y49571*
X7123Y49571*
X6875Y49677D02*
X6875Y49677D01*
X7069Y49677*
X7112Y49678*
X7149Y49681*
X7182Y49687*
X7210Y49694*
X7234Y49703*
X7256Y49714*
X7275Y49727*
X7292Y49741*
X7312Y49764*
X7330Y49791*
X7345Y49822*
X7358Y49856*
X7369Y49894*
X7376Y49936*
X7381Y49982*
X7382Y50031*
X7379Y50099*
X7370Y50157*
X7356Y50208*
X7335Y50251*
X7311Y50286*
X7284Y50315*
X7254Y50337*
X7222Y50353*
X7194Y50361*
X7158Y50367*
X7116Y50371*
X7066Y50372*
X6875Y50372*
X6875Y49677*
X7769Y50479D02*
X7769Y50479D01*
X7659Y50479*
X7659Y50351*
X7769Y50351*
X7769Y50479*
X7769Y50228D02*
X7769Y50228D01*
X7659Y50228*
X7659Y49571*
X7769Y49571*
X7769Y50228*
X8227Y49306D02*
X8227Y49306D01*
X8271Y49313*
X8311Y49324*
X8347Y49340*
X8378Y49361*
X8405Y49384*
X8428Y49411*
X8446Y49442*
X8459Y49479*
X8469Y49528*
X8475Y49588*
X8477Y49659*
X8477Y50228*
X8375Y50228*
X8375Y50149*
X8374Y50149*
X8334Y50190*
X8288Y50219*
X8238Y50237*
X8182Y50243*
X8140Y50240*
X8100Y50232*
X8064Y50219*
X8030Y50200*
X8000Y50176*
X7973Y50147*
X7950Y50114*
X7931Y50077*
X7917Y50036*
X7906Y49994*
X7900Y49949*
X7897Y49903*
X7902Y49837*
X7916Y49776*
X7939Y49720*
X7972Y49668*
X8013Y49626*
X8061Y49595*
X8118Y49577*
X8182Y49571*
X8234Y49576*
X8281Y49592*
X8325Y49619*
X8364Y49657*
X8364Y49657*
X8364Y49606*
X8364Y49606*
X8363Y49566*
X8363Y49566*
X8360Y49535*
X8360Y49535*
X8356Y49513*
X8356Y49513*
X8347Y49486*
X8347Y49486*
X8334Y49463*
X8334Y49463*
X8318Y49443*
X8318Y49443*
X8299Y49426*
X8299Y49426*
X8276Y49412*
X8276Y49412*
X8248Y49402*
X8248Y49402*
X8216Y49397*
X8216Y49397*
X8179Y49395*
X8179Y49395*
X8145Y49397*
X8145Y49397*
X8115Y49402*
X8115Y49402*
X8088Y49412*
X8088Y49412*
X8065Y49426*
X8065Y49426*
X8051Y49439*
X8051Y49439*
X8040Y49456*
X8040Y49456*
X8032Y49476*
X8032Y49476*
X8027Y49499*
X7920Y49515*
X7923Y49466*
X7936Y49422*
X7958Y49386*
X7990Y49356*
X8029Y49333*
X8073Y49316*
X8124Y49307*
X8180Y49303*
X8227Y49306*
X8012Y49911D02*
X8012Y49911D01*
X8015Y49851*
X8024Y49799*
X8041Y49756*
X8063Y49722*
X8090Y49696*
X8121Y49677*
X8155Y49666*
X8192Y49662*
X8229Y49666*
X8263Y49677*
X8293Y49696*
X8321Y49722*
X8344Y49755*
X8360Y49798*
X8370Y49848*
X8373Y49907*
X8370Y49964*
X8360Y50013*
X8343Y50055*
X8319Y50090*
X8291Y50117*
X8260Y50136*
X8227Y50147*
X8190Y50151*
X8154Y50147*
X8121Y50136*
X8091Y50117*
X8064Y50091*
X8041Y50057*
X8025Y50015*
X8015Y49967*
X8012Y49911*
X8758Y50479D02*
X8758Y50479D01*
X8647Y50479*
X8647Y50351*
X8758Y50351*
X8758Y50479*
X8758Y50228D02*
X8758Y50228D01*
X8647Y50228*
X8647Y49571*
X8758Y49571*
X8758Y50228*
X9123Y49562D02*
X9123Y49562D01*
X9143Y49564*
X9165Y49567*
X9187Y49572*
X9171Y49669*
X9157Y49667*
X9157Y49667*
X9144Y49666*
X9144Y49666*
X9133Y49665*
X9133Y49665*
X9123Y49665*
X9123Y49665*
X9111Y49665*
X9111Y49665*
X9101Y49667*
X9101Y49667*
X9092Y49670*
X9092Y49670*
X9084Y49673*
X9084Y49673*
X9078Y49678*
X9078Y49678*
X9073Y49683*
X9073Y49683*
X9068Y49689*
X9068Y49689*
X9065Y49695*
X9065Y49695*
X9062Y49704*
X9062Y49704*
X9061Y49717*
X9061Y49717*
X9059Y49735*
X9059Y49735*
X9059Y49757*
X9059Y49757*
X9059Y50142*
X9059Y50142*
X9171Y50142*
X9171Y50228*
X9059Y50228*
X9059Y50228*
X9059Y50458*
X8949Y50391*
X8949Y50228*
X8949Y50228*
X8867Y50228*
X8867Y50142*
X8949Y50142*
X8949Y50142*
X8949Y49763*
X8950Y49717*
X8952Y49680*
X8957Y49651*
X8963Y49631*
X8971Y49616*
X8981Y49603*
X8994Y49591*
X9010Y49581*
X9028Y49573*
X9050Y49567*
X9075Y49563*
X9104Y49562*
X9123Y49562*
X9501Y49557D02*
X9501Y49557D01*
X9532Y49561*
X9562Y49568*
X9591Y49577*
X9620Y49590*
X9650Y49607*
X9680Y49627*
X9711Y49652*
X9711Y49652*
X9714Y49629*
X9719Y49608*
X9726Y49588*
X9733Y49571*
X9849Y49571*
X9839Y49589*
X9839Y49589*
X9832Y49608*
X9832Y49609*
X9825Y49629*
X9825Y49629*
X9821Y49649*
X9821Y49649*
X9818Y49677*
X9818Y49677*
X9816Y49719*
X9816Y49719*
X9814Y49775*
X9814Y49775*
X9814Y49846*
X9814Y49846*
X9814Y49995*
X9813Y50029*
X9812Y50058*
X9811Y50081*
X9808Y50098*
X9802Y50120*
X9795Y50139*
X9785Y50157*
X9774Y50173*
X9759Y50188*
X9742Y50201*
X9721Y50213*
X9696Y50223*
X9668Y50232*
X9636Y50238*
X9600Y50242*
X9559Y50243*
X9518Y50241*
X9480Y50237*
X9444Y50230*
X9410Y50220*
X9380Y50207*
X9353Y50192*
X9331Y50174*
X9312Y50154*
X9296Y50130*
X9282Y50104*
X9271Y50074*
X9263Y50041*
X9371Y50026*
X9381Y50058*
X9381Y50058*
X9394Y50085*
X9394Y50086*
X9409Y50107*
X9409Y50107*
X9427Y50124*
X9427Y50124*
X9448Y50136*
X9448Y50136*
X9475Y50145*
X9475Y50145*
X9506Y50150*
X9506Y50150*
X9543Y50152*
X9543Y50152*
X9583Y50149*
X9583Y50149*
X9617Y50142*
X9617Y50142*
X9647Y50130*
X9647Y50130*
X9671Y50114*
X9671Y50114*
X9685Y50097*
X9685Y50097*
X9695Y50075*
X9695Y50075*
X9701Y50049*
X9701Y50049*
X9703Y50017*
X9703Y50017*
X9702Y50013*
X9702Y50013*
X9702Y50007*
X9702Y50007*
X9702Y49998*
X9702Y49998*
X9702Y49988*
X9702Y49988*
X9665Y49977*
X9665Y49977*
X9620Y49967*
X9620Y49967*
X9566Y49957*
X9566Y49957*
X9502Y49949*
X9502Y49949*
X9471Y49945*
X9444Y49941*
X9422Y49937*
X9403Y49932*
X9382Y49925*
X9361Y49917*
X9341Y49907*
X9323Y49896*
X9306Y49883*
X9291Y49868*
X9277Y49851*
X9266Y49832*
X9256Y49811*
X9249Y49790*
X9245Y49767*
X9244Y49744*
X9247Y49704*
X9258Y49669*
X9276Y49637*
X9302Y49609*
X9334Y49585*
X9372Y49569*
X9417Y49559*
X9468Y49556*
X9501Y49557*
X9701Y49901D02*
X9701Y49901D01*
X9667Y49889*
X9625Y49878*
X9576Y49868*
X9519Y49858*
X9487Y49853*
X9460Y49848*
X9438Y49842*
X9422Y49836*
X9408Y49829*
X9396Y49821*
X9386Y49811*
X9378Y49800*
X9371Y49787*
X9366Y49775*
X9363Y49761*
X9362Y49747*
X9364Y49725*
X9371Y49706*
X9381Y49688*
X9396Y49672*
X9415Y49659*
X9438Y49650*
X9464Y49644*
X9495Y49643*
X9526Y49644*
X9556Y49650*
X9584Y49658*
X9610Y49671*
X9633Y49686*
X9653Y49704*
X9670Y49725*
X9683Y49748*
X9691Y49769*
X9697Y49795*
X9700Y49825*
X9701Y49860*
X9701Y49901*
X10096Y50479D02*
X10096Y50479D01*
X9985Y50479*
X9985Y49571*
X10096Y49571*
X10096Y50479*
X11097Y49560D02*
X11097Y49560D01*
X11160Y49574*
X11217Y49599*
X11269Y49633*
X11314Y49676*
X11352Y49728*
X11382Y49789*
X11405Y49858*
X11285Y49888*
X11270Y49835*
X11270Y49835*
X11249Y49788*
X11249Y49788*
X11223Y49748*
X11223Y49748*
X11191Y49715*
X11191Y49715*
X11154Y49690*
X11154Y49690*
X11113Y49672*
X11113Y49672*
X11068Y49661*
X11068Y49661*
X11019Y49657*
X11019Y49657*
X10978Y49660*
X10978Y49660*
X10939Y49668*
X10939Y49668*
X10901Y49681*
X10901Y49681*
X10864Y49700*
X10864Y49700*
X10831Y49724*
X10831Y49724*
X10802Y49754*
X10802Y49754*
X10778Y49789*
X10778Y49789*
X10759Y49829*
X10759Y49829*
X10744Y49874*
X10744Y49874*
X10734Y49923*
X10734Y49923*
X10727Y49976*
X10727Y49976*
X10725Y50032*
X10725Y50032*
X10727Y50077*
X10727Y50077*
X10732Y50121*
X10732Y50121*
X10741Y50164*
X10741Y50164*
X10754Y50207*
X10754Y50207*
X10771Y50247*
X10771Y50247*
X10793Y50283*
X10793Y50283*
X10820Y50315*
X10820Y50315*
X10853Y50342*
X10853Y50342*
X10890Y50364*
X10890Y50364*
X10932Y50380*
X10932Y50380*
X10978Y50389*
X10978Y50389*
X11028Y50392*
X11028Y50392*
X11072Y50389*
X11072Y50389*
X11112Y50381*
X11112Y50381*
X11148Y50367*
X11148Y50367*
X11180Y50347*
X11180Y50347*
X11208Y50321*
X11208Y50321*
X11233Y50288*
X11233Y50288*
X11254Y50248*
X11254Y50248*
X11272Y50202*
X11389Y50230*
X11368Y50289*
X11339Y50341*
X11303Y50387*
X11260Y50425*
X11211Y50455*
X11156Y50477*
X11096Y50490*
X11031Y50494*
X10972Y50491*
X10916Y50480*
X10862Y50463*
X10811Y50439*
X10764Y50409*
X10722Y50372*
X10686Y50328*
X10656Y50279*
X10633Y50224*
X10616Y50164*
X10606Y50100*
X10602Y50031*
X10605Y49967*
X10614Y49905*
X10629Y49846*
X10650Y49788*
X10677Y49735*
X10709Y49688*
X10747Y49648*
X10790Y49615*
X10840Y49589*
X10896Y49570*
X10959Y49559*
X11029Y49555*
X11097Y49560*
X11648Y50479D02*
X11648Y50479D01*
X11537Y50479*
X11537Y49571*
X11648Y49571*
X11648Y50479*
X12131Y49558D02*
X12131Y49558D01*
X12172Y49566*
X12210Y49578*
X12248Y49596*
X12282Y49618*
X12312Y49644*
X12337Y49674*
X12358Y49709*
X12375Y49749*
X12387Y49795*
X12394Y49848*
X12396Y49909*
X12391Y49983*
X12375Y50048*
X12348Y50105*
X12310Y50154*
X12264Y50193*
X12212Y50221*
X12153Y50237*
X12089Y50243*
X12030Y50238*
X11976Y50225*
X11927Y50202*
X11882Y50170*
X11838Y50120*
X11806Y50058*
X11787Y49985*
X11780Y49899*
X11786Y49821*
X11802Y49752*
X11828Y49693*
X11866Y49644*
X11911Y49605*
X11964Y49578*
X12023Y49561*
X12089Y49556*
X12131Y49558*
X11895Y49899D02*
X11895Y49899D01*
X11898Y49840*
X11908Y49789*
X11926Y49745*
X11950Y49710*
X11979Y49682*
X12012Y49663*
X12049Y49651*
X12089Y49647*
X12129Y49651*
X12165Y49663*
X12198Y49682*
X12227Y49710*
X12251Y49746*
X12268Y49790*
X12279Y49842*
X12282Y49903*
X12279Y49960*
X12268Y50010*
X12251Y50053*
X12227Y50088*
X12197Y50116*
X12165Y50135*
X12128Y50147*
X12089Y50151*
X12049Y50147*
X12012Y50135*
X11979Y50116*
X11950Y50088*
X11926Y50053*
X11908Y50010*
X11898Y49959*
X11895Y49899*
X12845Y49560D02*
X12845Y49560D01*
X12893Y49572*
X12936Y49592*
X12975Y49620*
X13008Y49655*
X13035Y49696*
X13054Y49743*
X13067Y49797*
X12958Y49811*
X12950Y49772*
X12950Y49772*
X12938Y49738*
X12938Y49738*
X12922Y49710*
X12922Y49710*
X12902Y49687*
X12902Y49687*
X12879Y49669*
X12879Y49669*
X12853Y49657*
X12852Y49656*
X12824Y49649*
X12824Y49649*
X12792Y49646*
X12792Y49646*
X12753Y49650*
X12753Y49650*
X12718Y49661*
X12718Y49661*
X12686Y49680*
X12686Y49680*
X12659Y49707*
X12659Y49707*
X12637Y49741*
X12637Y49741*
X12621Y49785*
X12621Y49785*
X12611Y49838*
X12611Y49838*
X12608Y49900*
X12608Y49900*
X12611Y49961*
X12611Y49961*
X12621Y50013*
X12621Y50013*
X12638Y50057*
X12638Y50057*
X12661Y50092*
X12661Y50092*
X12689Y50118*
X12689Y50118*
X12722Y50137*
X12722Y50137*
X12758Y50148*
X12758Y50148*
X12798Y50152*
X12798Y50152*
X12825Y50150*
X12825Y50150*
X12850Y50144*
X12850Y50144*
X12873Y50133*
X12873Y50133*
X12894Y50119*
X12894Y50119*
X12912Y50100*
X12912Y50100*
X12927Y50077*
X12927Y50077*
X12940Y50050*
X12940Y50050*
X12949Y50019*
X13056Y50036*
X13044Y50082*
X13025Y50123*
X13000Y50159*
X12969Y50189*
X12933Y50212*
X12891Y50229*
X12845Y50240*
X12794Y50243*
X12752Y50240*
X12712Y50233*
X12674Y50220*
X12637Y50203*
X12603Y50181*
X12574Y50153*
X12549Y50121*
X12530Y50083*
X12514Y50042*
X12503Y49997*
X12496Y49948*
X12494Y49897*
X12499Y49819*
X12515Y49751*
X12540Y49693*
X12576Y49644*
X12621Y49605*
X12672Y49578*
X12729Y49561*
X12793Y49556*
X12845Y49560*
X13431Y49984D02*
X13431Y49984D01*
X13432Y49984*
X13683Y50228*
X13540Y50228*
X13275Y49960*
X13275Y49960*
X13275Y50479*
X13164Y50479*
X13164Y49571*
X13275Y49571*
X13275Y49831*
X13275Y49831*
X13354Y49907*
X13354Y49907*
X13572Y49571*
X13708Y49571*
X13431Y49984*
X14533Y49571D02*
X14533Y49571D01*
X14571Y49574*
X14606Y49579*
X14639Y49586*
X14670Y49595*
X14698Y49605*
X14724Y49617*
X14747Y49632*
X14769Y49648*
X14790Y49667*
X14811Y49689*
X14830Y49714*
X14848Y49742*
X14864Y49773*
X14879Y49808*
X14892Y49846*
X14902Y49888*
X14910Y49932*
X14915Y49979*
X14916Y50030*
X14914Y50089*
X14907Y50144*
X14896Y50197*
X14880Y50245*
X14860Y50291*
X14836Y50331*
X14807Y50368*
X14773Y50401*
X14744Y50422*
X14712Y50440*
X14677Y50455*
X14640Y50466*
X14609Y50471*
X14572Y50475*
X14528Y50478*
X14478Y50479*
X14166Y50479*
X14166Y49571*
X14493Y49571*
X14533Y49571*
X14285Y49677D02*
X14285Y49677D01*
X14479Y49677*
X14522Y49678*
X14560Y49681*
X14592Y49687*
X14620Y49694*
X14645Y49703*
X14666Y49714*
X14686Y49727*
X14702Y49741*
X14722Y49764*
X14740Y49791*
X14756Y49822*
X14769Y49856*
X14779Y49894*
X14787Y49936*
X14791Y49982*
X14793Y50031*
X14790Y50099*
X14781Y50157*
X14766Y50208*
X14746Y50251*
X14721Y50286*
X14694Y50315*
X14664Y50337*
X14632Y50353*
X14604Y50361*
X14569Y50367*
X14526Y50371*
X14476Y50372*
X14285Y50372*
X14285Y49677*
X15543Y49560D02*
X15543Y49560D01*
X15606Y49574*
X15663Y49599*
X15715Y49633*
X15760Y49676*
X15798Y49728*
X15828Y49789*
X15850Y49858*
X15731Y49888*
X15716Y49835*
X15716Y49835*
X15695Y49788*
X15695Y49788*
X15669Y49748*
X15669Y49748*
X15636Y49715*
X15636Y49715*
X15599Y49690*
X15599Y49690*
X15558Y49672*
X15558Y49672*
X15513Y49661*
X15513Y49661*
X15465Y49657*
X15465Y49657*
X15424Y49660*
X15424Y49660*
X15385Y49668*
X15384Y49668*
X15347Y49681*
X15347Y49681*
X15310Y49700*
X15310Y49700*
X15277Y49724*
X15277Y49724*
X15248Y49754*
X15248Y49754*
X15224Y49789*
X15224Y49789*
X15205Y49829*
X15205Y49829*
X15190Y49874*
X15190Y49874*
X15179Y49923*
X15179Y49923*
X15173Y49976*
X15173Y49976*
X15171Y50032*
X15171Y50032*
X15173Y50077*
X15173Y50077*
X15178Y50121*
X15178Y50121*
X15187Y50164*
X15187Y50164*
X15200Y50207*
X15200Y50207*
X15216Y50247*
X15216Y50247*
X15239Y50283*
X15239Y50283*
X15266Y50315*
X15266Y50315*
X15299Y50342*
X15299Y50342*
X15336Y50364*
X15336Y50364*
X15378Y50380*
X15378Y50380*
X15424Y50389*
X15424Y50389*
X15474Y50392*
X15474Y50392*
X15518Y50389*
X15518Y50389*
X15558Y50381*
X15558Y50381*
X15594Y50367*
X15594Y50367*
X15626Y50347*
X15626Y50347*
X15654Y50321*
X15654Y50321*
X15679Y50288*
X15679Y50288*
X15700Y50248*
X15700Y50248*
X15717Y50202*
X15835Y50230*
X15813Y50289*
X15785Y50341*
X15749Y50387*
X15706Y50425*
X15657Y50455*
X15602Y50477*
X15542Y50490*
X15477Y50494*
X15418Y50491*
X15361Y50480*
X15308Y50463*
X15256Y50439*
X15209Y50409*
X15168Y50372*
X15132Y50328*
X15102Y50279*
X15078Y50224*
X15062Y50164*
X15051Y50100*
X15048Y50031*
X15051Y49967*
X15060Y49905*
X15075Y49846*
X15096Y49788*
X15123Y49735*
X15155Y49688*
X15193Y49648*
X15236Y49615*
X15285Y49589*
X15342Y49570*
X15405Y49559*
X15475Y49555*
X15543Y49560*
X16284Y49955D02*
X16284Y49955D01*
X15942Y49955*
X15942Y49843*
X16284Y49843*
X16284Y49955*
X16721Y49558D02*
X16721Y49558D01*
X16764Y49568*
X16804Y49585*
X16838Y49609*
X16869Y49638*
X16896Y49673*
X16918Y49714*
X16936Y49760*
X16951Y49813*
X16961Y49874*
X16967Y49942*
X16969Y50018*
X16968Y50082*
X16964Y50140*
X16958Y50190*
X16949Y50233*
X16938Y50271*
X16925Y50307*
X16909Y50339*
X16892Y50368*
X16873Y50394*
X16852Y50417*
X16828Y50437*
X16802Y50453*
X16773Y50466*
X16742Y50475*
X16709Y50480*
X16673Y50482*
X16626Y50479*
X16583Y50469*
X16544Y50452*
X16509Y50429*
X16478Y50400*
X16452Y50365*
X16429Y50324*
X16411Y50278*
X16396Y50225*
X16386Y50164*
X16380Y50095*
X16377Y50018*
X16383Y49899*
X16400Y49798*
X16428Y49715*
X16467Y49649*
X16508Y49608*
X16556Y49579*
X16611Y49561*
X16673Y49555*
X16721Y49558*
X16492Y50018D02*
X16492Y50018D01*
X16495Y49916*
X16505Y49832*
X16521Y49767*
X16544Y49720*
X16572Y49688*
X16603Y49665*
X16636Y49651*
X16673Y49646*
X16710Y49651*
X16744Y49665*
X16775Y49688*
X16803Y49721*
X16826Y49767*
X16842Y49832*
X16852Y49916*
X16855Y50018*
X16852Y50121*
X16842Y50205*
X16826Y50270*
X16803Y50317*
X16775Y50349*
X16744Y50372*
X16710Y50386*
X16672Y50390*
X16636Y50386*
X16603Y50374*
X16574Y50354*
X16549Y50325*
X16524Y50275*
X16506Y50207*
X16495Y50121*
X16492Y50018*
X17427Y49558D02*
X17427Y49558D01*
X17471Y49568*
X17510Y49585*
X17545Y49609*
X17575Y49638*
X17602Y49673*
X17624Y49714*
X17643Y49760*
X17657Y49813*
X17667Y49874*
X17674Y49942*
X17676Y50018*
X17674Y50082*
X17671Y50140*
X17664Y50190*
X17655Y50233*
X17644Y50271*
X17631Y50307*
X17616Y50339*
X17599Y50368*
X17580Y50394*
X17558Y50417*
X17534Y50437*
X17508Y50453*
X17479Y50466*
X17448Y50475*
X17415Y50480*
X17380Y50482*
X17332Y50479*
X17289Y50469*
X17250Y50452*
X17215Y50429*
X17185Y50400*
X17158Y50365*
X17136Y50324*
X17117Y50278*
X17102Y50225*
X17092Y50164*
X17086Y50095*
X17084Y50018*
X17089Y49899*
X17106Y49798*
X17134Y49715*
X17174Y49649*
X17215Y49608*
X17263Y49579*
X17318Y49561*
X17380Y49555*
X17427Y49558*
X17198Y50018D02*
X17198Y50018D01*
X17201Y49916*
X17211Y49832*
X17227Y49767*
X17250Y49720*
X17278Y49688*
X17309Y49665*
X17343Y49651*
X17380Y49646*
X17417Y49651*
X17450Y49665*
X17481Y49688*
X17509Y49721*
X17532Y49767*
X17548Y49832*
X17558Y49916*
X17561Y50018*
X17558Y50121*
X17548Y50205*
X17532Y50270*
X17509Y50317*
X17481Y50349*
X17450Y50372*
X17416Y50386*
X17378Y50390*
X17342Y50386*
X17309Y50374*
X17281Y50354*
X17256Y50325*
X17230Y50275*
X17212Y50207*
X17202Y50121*
X17198Y50018*
X18376Y49677D02*
X18376Y49677D01*
X17930Y49677*
X17930Y49677*
X17940Y49693*
X17940Y49693*
X17951Y49708*
X17951Y49708*
X17963Y49723*
X17963Y49723*
X17977Y49738*
X17977Y49738*
X17996Y49757*
X17996Y49757*
X18024Y49782*
X18024Y49782*
X18060Y49814*
X18060Y49814*
X18106Y49853*
X18162Y49901*
X18209Y49943*
X18248Y49981*
X18278Y50012*
X18302Y50041*
X18323Y50069*
X18339Y50097*
X18352Y50123*
X18362Y50150*
X18369Y50176*
X18373Y50203*
X18374Y50230*
X18370Y50282*
X18355Y50329*
X18332Y50372*
X18298Y50410*
X18257Y50442*
X18209Y50464*
X18154Y50478*
X18092Y50482*
X18030Y50478*
X17975Y50466*
X17927Y50445*
X17885Y50415*
X17851Y50378*
X17825Y50333*
X17807Y50280*
X17797Y50220*
X17911Y50209*
X17914Y50249*
X17914Y50249*
X17923Y50285*
X17923Y50285*
X17939Y50316*
X17939Y50316*
X17960Y50342*
X17960Y50342*
X17986Y50364*
X17986Y50364*
X18016Y50379*
X18016Y50379*
X18051Y50388*
X18051Y50388*
X18089Y50391*
X18089Y50391*
X18126Y50388*
X18126Y50388*
X18158Y50380*
X18158Y50379*
X18188Y50365*
X18188Y50365*
X18213Y50345*
X18213Y50345*
X18234Y50321*
X18234Y50321*
X18249Y50294*
X18249Y50294*
X18258Y50265*
X18258Y50265*
X18261Y50233*
X18261Y50233*
X18258Y50201*
X18258Y50201*
X18248Y50168*
X18248Y50168*
X18231Y50133*
X18231Y50133*
X18209Y50098*
X18209Y50098*
X18177Y50060*
X18177Y50060*
X18132Y50015*
X18132Y50015*
X18076Y49963*
X18076Y49963*
X18008Y49906*
X18008Y49906*
X17963Y49868*
X17924Y49832*
X17890Y49799*
X17862Y49768*
X17839Y49738*
X17819Y49708*
X17802Y49678*
X17789Y49647*
X17783Y49629*
X17778Y49609*
X17776Y49590*
X17776Y49571*
X18376Y49571*
X18376Y49677*
X19262Y49571D02*
X19262Y49571D01*
X19300Y49574*
X19335Y49579*
X19368Y49586*
X19399Y49595*
X19427Y49605*
X19453Y49617*
X19476Y49632*
X19498Y49648*
X19519Y49667*
X19540Y49689*
X19559Y49714*
X19577Y49742*
X19593Y49773*
X19608Y49808*
X19621Y49846*
X19632Y49888*
X19639Y49932*
X19644Y49979*
X19645Y50030*
X19643Y50089*
X19636Y50144*
X19625Y50197*
X19609Y50245*
X19589Y50291*
X19565Y50331*
X19536Y50368*
X19502Y50401*
X19473Y50422*
X19441Y50440*
X19407Y50455*
X19369Y50466*
X19338Y50471*
X19301Y50475*
X19257Y50478*
X19207Y50479*
X18895Y50479*
X18895Y49571*
X19222Y49571*
X19262Y49571*
X19014Y49677D02*
X19014Y49677D01*
X19208Y49677*
X19251Y49678*
X19289Y49681*
X19322Y49687*
X19350Y49694*
X19374Y49703*
X19395Y49714*
X19415Y49727*
X19431Y49741*
X19451Y49764*
X19469Y49791*
X19485Y49822*
X19498Y49856*
X19508Y49894*
X19516Y49936*
X19520Y49982*
X19522Y50031*
X19519Y50099*
X19510Y50157*
X19495Y50208*
X19475Y50251*
X19450Y50286*
X19423Y50315*
X19393Y50337*
X19361Y50353*
X19333Y50361*
X19298Y50367*
X19255Y50371*
X19205Y50372*
X19014Y50372*
X19014Y49677*
X19909Y50479D02*
X19909Y50479D01*
X19798Y50479*
X19798Y50351*
X19909Y50351*
X19909Y50479*
X19909Y50228D02*
X19909Y50228D01*
X19798Y50228*
X19798Y49571*
X19909Y49571*
X19909Y50228*
X20279Y49979D02*
X20279Y49979D01*
X20250Y49987*
X20250Y49987*
X20230Y49993*
X20230Y49993*
X20217Y49997*
X20217Y49997*
X20204Y50004*
X20203Y50004*
X20192Y50011*
X20192Y50011*
X20182Y50019*
X20182Y50019*
X20174Y50027*
X20174Y50027*
X20168Y50036*
X20168Y50036*
X20164Y50046*
X20164Y50046*
X20161Y50056*
X20161Y50056*
X20160Y50067*
X20160Y50067*
X20162Y50083*
X20162Y50083*
X20169Y50099*
X20169Y50099*
X20179Y50113*
X20179Y50113*
X20193Y50127*
X20194Y50127*
X20213Y50138*
X20213Y50138*
X20238Y50146*
X20238Y50146*
X20268Y50151*
X20268Y50151*
X20304Y50152*
X20304Y50152*
X20334Y50150*
X20334Y50150*
X20361Y50145*
X20361Y50145*
X20385Y50136*
X20385Y50136*
X20405Y50124*
X20405Y50124*
X20421Y50108*
X20421Y50108*
X20433Y50089*
X20433Y50089*
X20442Y50068*
X20442Y50068*
X20448Y50044*
X20556Y50059*
X20550Y50089*
X20541Y50116*
X20531Y50140*
X20518Y50160*
X20502Y50178*
X20482Y50194*
X20459Y50209*
X20431Y50221*
X20401Y50230*
X20368Y50237*
X20333Y50242*
X20295Y50243*
X20270Y50242*
X20246Y50240*
X20222Y50235*
X20199Y50230*
X20178Y50223*
X20159Y50215*
X20143Y50206*
X20128Y50197*
X20112Y50184*
X20097Y50169*
X20085Y50153*
X20074Y50135*
X20065Y50116*
X20059Y50096*
X20055Y50075*
X20054Y50054*
X20055Y50030*
X20060Y50008*
X20067Y49986*
X20078Y49966*
X20092Y49947*
X20108Y49930*
X20127Y49916*
X20150Y49903*
X20178Y49891*
X20216Y49878*
X20263Y49865*
X20320Y49850*
X20320Y49850*
X20361Y49839*
X20361Y49839*
X20394Y49829*
X20394Y49829*
X20418Y49820*
X20418Y49820*
X20434Y49812*
X20434Y49812*
X20449Y49800*
X20449Y49800*
X20459Y49786*
X20459Y49786*
X20465Y49770*
X20465Y49770*
X20467Y49752*
X20467Y49752*
X20465Y49731*
X20465Y49731*
X20458Y49712*
X20458Y49712*
X20446Y49694*
X20446Y49694*
X20430Y49678*
X20430Y49678*
X20409Y49664*
X20409Y49664*
X20382Y49654*
X20382Y49654*
X20351Y49648*
X20351Y49648*
X20315Y49646*
X20315Y49646*
X20279Y49649*
X20279Y49649*
X20247Y49655*
X20247Y49655*
X20220Y49666*
X20220Y49666*
X20196Y49682*
X20196Y49682*
X20177Y49702*
X20177Y49702*
X20162Y49725*
X20162Y49725*
X20151Y49753*
X20151Y49753*
X20144Y49783*
X20035Y49766*
X20047Y49718*
X20066Y49675*
X20090Y49639*
X20121Y49609*
X20158Y49586*
X20203Y49569*
X20256Y49559*
X20316Y49556*
X20354Y49557*
X20389Y49562*
X20423Y49571*
X20455Y49583*
X20483Y49597*
X20509Y49615*
X20530Y49635*
X20548Y49659*
X20563Y49684*
X20573Y49709*
X20579Y49736*
X20581Y49763*
X20579Y49791*
X20574Y49816*
X20566Y49838*
X20554Y49859*
X20540Y49877*
X20523Y49892*
X20503Y49906*
X20481Y49917*
X20453Y49928*
X20416Y49940*
X20371Y49954*
X20316Y49969*
X20279Y49979*
X20279Y49979*
X20825Y49639D02*
X20825Y49639D01*
X20826Y49639*
X20841Y49621*
X20859Y49606*
X20878Y49592*
X20899Y49579*
X20922Y49569*
X20946Y49562*
X20972Y49557*
X20999Y49556*
X21036Y49558*
X21073Y49566*
X21109Y49580*
X21144Y49599*
X21176Y49623*
X21205Y49651*
X21229Y49684*
X21249Y49722*
X21265Y49764*
X21276Y49808*
X21283Y49855*
X21285Y49904*
X21283Y49950*
X21277Y49995*
X21267Y50037*
X21253Y50077*
X21234Y50115*
X21212Y50147*
X21186Y50176*
X21155Y50200*
X21122Y50219*
X21086Y50232*
X21048Y50240*
X21007Y50243*
X20976Y50241*
X20947Y50237*
X20921Y50229*
X20897Y50218*
X20875Y50204*
X20854Y50187*
X20835Y50166*
X20816Y50142*
X20815Y50143*
X20815Y50228*
X20715Y50228*
X20715Y49318*
X20825Y49318*
X20825Y49639*
X20815Y49896D02*
X20815Y49896D01*
X20818Y49836*
X20828Y49785*
X20844Y49742*
X20867Y49708*
X20894Y49681*
X20924Y49662*
X20956Y49651*
X20991Y49647*
X21027Y49651*
X21060Y49663*
X21091Y49682*
X21119Y49710*
X21142Y49746*
X21158Y49790*
X21168Y49843*
X21172Y49905*
X21169Y49964*
X21159Y50015*
X21143Y50058*
X21120Y50093*
X21093Y50121*
X21063Y50140*
X21031Y50152*
X20996Y50156*
X20962Y50152*
X20929Y50139*
X20899Y50119*
X20870Y50089*
X20846Y50052*
X20829Y50008*
X20819Y49955*
X20815Y49896*
X21529Y50479D02*
X21529Y50479D01*
X21418Y50479*
X21418Y49571*
X21529Y49571*
X21529Y50479*
X21922Y49557D02*
X21922Y49557D01*
X21953Y49561*
X21984Y49568*
X22013Y49577*
X22042Y49590*
X22071Y49607*
X22101Y49627*
X22132Y49652*
X22133Y49652*
X22136Y49629*
X22141Y49608*
X22147Y49588*
X22155Y49571*
X22270Y49571*
X22261Y49589*
X22261Y49589*
X22253Y49608*
X22253Y49609*
X22247Y49629*
X22247Y49629*
X22242Y49649*
X22242Y49649*
X22239Y49677*
X22239Y49677*
X22237Y49719*
X22237Y49719*
X22236Y49775*
X22236Y49775*
X22235Y49846*
X22235Y49846*
X22235Y49995*
X22235Y50029*
X22234Y50058*
X22232Y50081*
X22230Y50098*
X22224Y50120*
X22216Y50139*
X22207Y50157*
X22195Y50173*
X22181Y50188*
X22163Y50201*
X22142Y50213*
X22118Y50223*
X22090Y50232*
X22057Y50238*
X22021Y50242*
X21981Y50243*
X21940Y50241*
X21901Y50237*
X21865Y50230*
X21832Y50220*
X21801Y50207*
X21775Y50192*
X21752Y50174*
X21733Y50154*
X21718Y50130*
X21704Y50104*
X21693Y50074*
X21685Y50041*
X21793Y50026*
X21803Y50058*
X21803Y50058*
X21816Y50085*
X21816Y50086*
X21831Y50107*
X21831Y50107*
X21848Y50124*
X21848Y50124*
X21870Y50136*
X21870Y50136*
X21896Y50145*
X21896Y50145*
X21928Y50150*
X21928Y50150*
X21965Y50152*
X21965Y50152*
X22004Y50149*
X22005Y50149*
X22039Y50142*
X22039Y50142*
X22068Y50130*
X22068Y50130*
X22092Y50114*
X22092Y50114*
X22106Y50097*
X22106Y50097*
X22116Y50075*
X22116Y50075*
X22122Y50049*
X22122Y50049*
X22124Y50017*
X22124Y50017*
X22124Y50013*
X22124Y50013*
X22124Y50007*
X22124Y50007*
X22124Y49998*
X22124Y49998*
X22123Y49988*
X22123Y49988*
X22087Y49977*
X22087Y49977*
X22041Y49967*
X22041Y49967*
X21987Y49957*
X21987Y49957*
X21924Y49949*
X21924Y49949*
X21893Y49945*
X21866Y49941*
X21843Y49937*
X21825Y49932*
X21803Y49925*
X21783Y49917*
X21763Y49907*
X21745Y49896*
X21728Y49883*
X21713Y49868*
X21699Y49851*
X21687Y49832*
X21678Y49811*
X21671Y49790*
X21667Y49767*
X21665Y49744*
X21669Y49704*
X21680Y49669*
X21698Y49637*
X21723Y49609*
X21756Y49585*
X21794Y49569*
X21839Y49559*
X21890Y49556*
X21922Y49557*
X22123Y49901D02*
X22123Y49901D01*
X22089Y49889*
X22047Y49878*
X21998Y49868*
X21941Y49858*
X21909Y49853*
X21882Y49848*
X21860Y49842*
X21843Y49836*
X21830Y49829*
X21818Y49821*
X21808Y49811*
X21799Y49800*
X21793Y49787*
X21788Y49775*
X21785Y49761*
X21784Y49747*
X21786Y49725*
X21792Y49706*
X21803Y49688*
X21818Y49672*
X21836Y49659*
X21859Y49650*
X21886Y49644*
X21916Y49643*
X21948Y49644*
X21977Y49650*
X22005Y49658*
X22031Y49671*
X22055Y49686*
X22075Y49704*
X22092Y49725*
X22105Y49748*
X22113Y49769*
X22118Y49795*
X22122Y49825*
X22123Y49860*
X22123Y49901*
X22502Y49305D02*
X22502Y49305D01*
X22525Y49310*
X22547Y49318*
X22567Y49329*
X22586Y49344*
X22604Y49362*
X22620Y49384*
X22635Y49410*
X22648Y49434*
X22662Y49467*
X22679Y49509*
X22698Y49559*
X22948Y50228*
X22838Y50228*
X22697Y49845*
X22684Y49808*
X22672Y49770*
X22661Y49733*
X22651Y49694*
X22650Y49694*
X22639Y49734*
X22628Y49773*
X22615Y49810*
X22602Y49847*
X22466Y50228*
X22346Y50228*
X22596Y49569*
X22596Y49569*
X22593Y49560*
X22590Y49553*
X22588Y49546*
X22586Y49541*
X22586Y49541*
X22575Y49511*
X22575Y49511*
X22566Y49487*
X22566Y49487*
X22558Y49470*
X22558Y49470*
X22552Y49458*
X22552Y49458*
X22544Y49448*
X22544Y49448*
X22536Y49438*
X22536Y49438*
X22526Y49430*
X22526Y49430*
X22515Y49423*
X22515Y49423*
X22503Y49418*
X22503Y49418*
X22489Y49414*
X22489Y49414*
X22473Y49412*
X22473Y49412*
X22455Y49411*
X22455Y49411*
X22441Y49411*
X22441Y49411*
X22426Y49413*
X22426Y49413*
X22409Y49416*
X22409Y49416*
X22392Y49421*
X22404Y49317*
X22423Y49311*
X22442Y49307*
X22459Y49304*
X22476Y49303*
X22502Y49305*
X24274Y50479D02*
X24274Y50479D01*
X24113Y50479*
X23896Y49846*
X23880Y49801*
X23867Y49762*
X23856Y49728*
X23847Y49700*
X23847Y49700*
X23839Y49726*
X23829Y49757*
X23817Y49793*
X23803Y49835*
X23588Y50479*
X23408Y50479*
X23408Y49571*
X23523Y49571*
X23523Y50344*
X23524Y50344*
X23787Y49571*
X23894Y49571*
X24159Y50331*
X24159Y50331*
X24159Y49571*
X24274Y49571*
X24274Y50479*
X24764Y49558D02*
X24764Y49558D01*
X24805Y49566*
X24844Y49578*
X24881Y49596*
X24915Y49618*
X24945Y49644*
X24970Y49674*
X24992Y49709*
X25008Y49749*
X25020Y49795*
X25027Y49848*
X25030Y49909*
X25024Y49983*
X25008Y50048*
X24981Y50105*
X24944Y50154*
X24897Y50193*
X24845Y50221*
X24787Y50237*
X24722Y50243*
X24663Y50238*
X24609Y50225*
X24560Y50202*
X24515Y50170*
X24471Y50120*
X24439Y50058*
X24420Y49985*
X24414Y49899*
X24419Y49821*
X24435Y49752*
X24462Y49693*
X24499Y49644*
X24545Y49605*
X24597Y49578*
X24656Y49561*
X24722Y49556*
X24764Y49558*
X24528Y49899D02*
X24528Y49899D01*
X24531Y49840*
X24542Y49789*
X24559Y49745*
X24583Y49710*
X24612Y49682*
X24645Y49663*
X24682Y49651*
X24722Y49647*
X24762Y49651*
X24798Y49663*
X24831Y49682*
X24860Y49710*
X24884Y49746*
X24902Y49790*
X24912Y49842*
X24915Y49903*
X24912Y49960*
X24902Y50010*
X24884Y50053*
X24860Y50088*
X24831Y50116*
X24798Y50135*
X24762Y50147*
X24722Y50151*
X24682Y50147*
X24645Y50135*
X24612Y50116*
X24583Y50088*
X24559Y50053*
X24542Y50010*
X24531Y49959*
X24528Y49899*
X25461Y49562D02*
X25461Y49562D01*
X25511Y49580*
X25553Y49611*
X25588Y49654*
X25589Y49653*
X25589Y49571*
X25691Y49571*
X25691Y50479*
X25581Y50479*
X25581Y50153*
X25581Y50152*
X25565Y50172*
X25547Y50189*
X25527Y50204*
X25505Y50218*
X25481Y50229*
X25455Y50237*
X25428Y50241*
X25399Y50243*
X25360Y50240*
X25322Y50232*
X25286Y50219*
X25252Y50200*
X25222Y50177*
X25195Y50148*
X25173Y50115*
X25154Y50077*
X25140Y50036*
X25129Y49993*
X25123Y49947*
X25121Y49899*
X25123Y49850*
X25130Y49803*
X25142Y49760*
X25157Y49720*
X25177Y49683*
X25201Y49651*
X25228Y49623*
X25260Y49599*
X25293Y49580*
X25329Y49566*
X25366Y49558*
X25404Y49556*
X25461Y49562*
X25235Y49899D02*
X25235Y49899D01*
X25239Y49839*
X25249Y49788*
X25265Y49745*
X25289Y49710*
X25317Y49682*
X25347Y49663*
X25380Y49651*
X25415Y49647*
X25450Y49651*
X25482Y49662*
X25512Y49681*
X25539Y49707*
X25561Y49741*
X25577Y49782*
X25587Y49832*
X25590Y49889*
X25587Y49952*
X25577Y50007*
X25561Y50052*
X25538Y50088*
X25510Y50115*
X25480Y50135*
X25446Y50147*
X25410Y50151*
X25374Y50147*
X25341Y50136*
X25312Y50117*
X25285Y50090*
X25264Y50056*
X25248Y50012*
X25239Y49960*
X25235Y49899*
X26152Y49563D02*
X26152Y49563D01*
X26208Y49583*
X26257Y49618*
X26299Y49667*
X26299Y49667*
X26299Y49571*
X26398Y49571*
X26398Y50228*
X26288Y50228*
X26288Y49876*
X26288Y49876*
X26287Y49836*
X26287Y49836*
X26283Y49801*
X26283Y49801*
X26277Y49772*
X26277Y49772*
X26269Y49747*
X26269Y49747*
X26259Y49726*
X26259Y49726*
X26245Y49707*
X26245Y49707*
X26227Y49691*
X26227Y49691*
X26207Y49677*
X26207Y49677*
X26184Y49665*
X26184Y49665*
X26161Y49657*
X26161Y49657*
X26137Y49652*
X26137Y49652*
X26112Y49651*
X26112Y49651*
X26088Y49652*
X26088Y49652*
X26066Y49657*
X26066Y49657*
X26046Y49665*
X26046Y49665*
X26028Y49676*
X26028Y49676*
X26012Y49690*
X26012Y49690*
X25999Y49706*
X25999Y49706*
X25990Y49724*
X25990Y49724*
X25983Y49745*
X25983Y49745*
X25980Y49764*
X25980Y49764*
X25978Y49790*
X25978Y49790*
X25976Y49823*
X25976Y49823*
X25976Y49863*
X25976Y49863*
X25976Y50228*
X25865Y50228*
X25865Y49821*
X25866Y49787*
X25867Y49759*
X25869Y49735*
X25872Y49716*
X25878Y49693*
X25886Y49671*
X25895Y49652*
X25907Y49634*
X25920Y49618*
X25937Y49603*
X25958Y49590*
X25981Y49578*
X26007Y49568*
X26034Y49561*
X26061Y49557*
X26090Y49556*
X26152Y49563*
X26682Y50479D02*
X26682Y50479D01*
X26572Y50479*
X26572Y49571*
X26682Y49571*
X26682Y50479*
X27187Y49559D02*
X27187Y49559D01*
X27237Y49570*
X27281Y49587*
X27321Y49611*
X27354Y49642*
X27383Y49678*
X27405Y49720*
X27421Y49767*
X27307Y49782*
X27293Y49749*
X27293Y49749*
X27277Y49721*
X27277Y49721*
X27259Y49697*
X27259Y49697*
X27238Y49679*
X27238Y49679*
X27215Y49665*
X27215Y49665*
X27190Y49654*
X27190Y49654*
X27163Y49648*
X27163Y49648*
X27133Y49646*
X27133Y49646*
X27093Y49650*
X27093Y49650*
X27057Y49661*
X27057Y49661*
X27024Y49679*
X27024Y49679*
X26995Y49704*
X26995Y49704*
X26970Y49736*
X26970Y49736*
X26952Y49775*
X26952Y49775*
X26940Y49820*
X26940Y49820*
X26933Y49871*
X26934Y49871*
X27425Y49871*
X27425Y49880*
X27425Y49888*
X27425Y49895*
X27425Y49901*
X27420Y49977*
X27404Y50045*
X27378Y50104*
X27342Y50153*
X27297Y50192*
X27246Y50220*
X27189Y50237*
X27126Y50243*
X27061Y50237*
X27003Y50220*
X26950Y50191*
X26905Y50151*
X26867Y50101*
X26840Y50041*
X26824Y49972*
X26819Y49894*
X26824Y49818*
X26840Y49751*
X26867Y49693*
X26904Y49644*
X26950Y49606*
X27003Y49578*
X27064Y49561*
X27132Y49556*
X27187Y49559*
X26940Y49963D02*
X26940Y49963D01*
X27308Y49963*
X27302Y50001*
X27294Y50035*
X27281Y50064*
X27266Y50087*
X27237Y50115*
X27204Y50136*
X27168Y50148*
X27127Y50152*
X27090Y50148*
X27057Y50139*
X27026Y50123*
X26998Y50100*
X26975Y50072*
X26957Y50040*
X26946Y50003*
X26940Y49963*
X28451Y50228D02*
X28451Y50228D01*
X28337Y50228*
X28191Y49827*
X28178Y49791*
X28167Y49759*
X28157Y49729*
X28149Y49701*
X28148Y49701*
X28138Y49735*
X28128Y49769*
X28117Y49802*
X28106Y49834*
X27965Y50228*
X27848Y50228*
X28098Y49571*
X28202Y49571*
X28451Y50228*
X28939Y50482D02*
X28939Y50482D01*
X28868Y50482*
X28851Y50453*
X28851Y50453*
X28829Y50423*
X28828Y50423*
X28801Y50392*
X28801Y50392*
X28769Y50361*
X28769Y50361*
X28732Y50331*
X28732Y50331*
X28693Y50303*
X28693Y50303*
X28650Y50277*
X28650Y50277*
X28605Y50254*
X28605Y50147*
X28631Y50158*
X28660Y50171*
X28690Y50187*
X28722Y50205*
X28753Y50224*
X28781Y50243*
X28806Y50262*
X28828Y50282*
X28828Y50282*
X28828Y49571*
X28939Y49571*
X28939Y50482*
X29415Y49697D02*
X29415Y49697D01*
X29288Y49697*
X29288Y49571*
X29415Y49571*
X29415Y49697*
X30164Y49677D02*
X30164Y49677D01*
X29719Y49677*
X29718Y49677*
X29728Y49693*
X29728Y49693*
X29740Y49708*
X29740Y49708*
X29752Y49723*
X29752Y49723*
X29766Y49738*
X29766Y49738*
X29784Y49757*
X29784Y49757*
X29812Y49782*
X29812Y49782*
X29849Y49814*
X29849Y49814*
X29895Y49853*
X29951Y49901*
X29998Y49943*
X30037Y49981*
X30067Y50012*
X30091Y50041*
X30111Y50069*
X30128Y50097*
X30141Y50123*
X30150Y50150*
X30157Y50176*
X30162Y50203*
X30163Y50230*
X30158Y50282*
X30144Y50329*
X30120Y50372*
X30087Y50410*
X30045Y50442*
X29997Y50464*
X29942Y50478*
X29880Y50482*
X29819Y50478*
X29764Y50466*
X29716Y50445*
X29674Y50415*
X29640Y50378*
X29613Y50333*
X29595Y50280*
X29586Y50220*
X29699Y50209*
X29702Y50249*
X29702Y50249*
X29712Y50285*
X29712Y50285*
X29727Y50316*
X29727Y50316*
X29748Y50342*
X29748Y50342*
X29775Y50364*
X29775Y50364*
X29805Y50379*
X29805Y50379*
X29839Y50388*
X29839Y50388*
X29878Y50391*
X29878Y50391*
X29914Y50388*
X29914Y50388*
X29947Y50380*
X29947Y50379*
X29976Y50365*
X29976Y50365*
X30002Y50345*
X30002Y50345*
X30023Y50321*
X30023Y50321*
X30037Y50294*
X30037Y50294*
X30046Y50265*
X30046Y50265*
X30049Y50233*
X30049Y50233*
X30046Y50201*
X30046Y50201*
X30036Y50168*
X30036Y50168*
X30020Y50133*
X30020Y50133*
X29997Y50098*
X29997Y50098*
X29965Y50060*
X29965Y50060*
X29921Y50015*
X29921Y50015*
X29865Y49963*
X29865Y49963*
X29797Y49906*
X29797Y49906*
X29752Y49868*
X29713Y49832*
X29679Y49799*
X29651Y49768*
X29627Y49738*
X29607Y49708*
X29591Y49678*
X29577Y49647*
X29571Y49629*
X29567Y49609*
X29565Y49590*
X29564Y49571*
X30164Y49571*
X30164Y49677*
M02*