%FSLAX33Y33*%
%MOMM*%
%AMRect-W670710-H870710-RO0.500*
21,1,0.67071,0.87071,0.,0.,270*%
%AMRect-W670710-H870710-RO1.500*
21,1,0.67071,0.87071,0.,0.,90*%
%AMRect-W670710-H870710-RO1.000*
21,1,0.67071,0.87071,0.,0.,180*%
%AMRect-W1980000-H530000-RO1.000*
21,1,1.98,0.53,0.,0.,180*%
%AMRR-H530000-W1980000-R265000-RO1.000*
21,1,1.45,0.53,0.,0.,180*
1,1,0.53,0.725,-0.*
1,1,0.53,-0.725,-0.*
1,1,0.53,-0.725,0.*
1,1,0.53,0.725,0.*%
%AMRect-W1488281-H525831-RO1.500*
21,1,1.488281,0.525831,0.,0.,90*%
%AMRR-H525831-W1488281-R262915-RO1.500*
21,1,0.962451,0.525831,0.,0.,90*
21,1,1.488281,0.000001,0.,0.,90*
1,1,0.52583,-0.0000005,-0.4812255*
1,1,0.52583,-0.0000005,0.4812255*
1,1,0.52583,0.0000005,0.4812255*
1,1,0.52583,0.0000005,-0.4812255*%
%AMRR-H1488281-W525831-R262915-RO1.500*
21,1,0.000001,1.488281,0.,0.,90*
21,1,0.525831,0.962451,0.,0.,90*
1,1,0.52583,-0.4812255,-0.0000005*
1,1,0.52583,-0.4812255,0.0000005*
1,1,0.52583,0.4812255,0.0000005*
1,1,0.52583,0.4812255,-0.0000005*%
%ADD10R,0.67071X0.87071*%
%ADD11Rect-W670710-H870710-RO0.500*%
%ADD12Rect-W670710-H870710-RO1.500*%
%ADD13Rect-W670710-H870710-RO1.000*%
%ADD14R,1.2X1.*%
%ADD15R,0.45X1.5*%
%ADD16Rect-W1980000-H530000-RO1.000*%
%ADD17RR-H530000-W1980000-R265000-RO1.000*%
%ADD18Rect-W1488281-H525831-RO1.500*%
%ADD19RR-H525831-W1488281-R262915-RO1.500*%
%ADD20RR-H1488281-W525831-R262915-RO1.500*%
D10*
%LNtop paste_traces*%
%LNtop paste component b91ffdef01e00872*%
G01*
X42175Y14169D03*
X43875Y14169D03*
%LNtop paste component 84cf0bd8b20b0987*%
D11*
X6520Y22312D03*
X6520Y20612D03*
%LNtop paste component ec25ffb4a5f22221*%
D10*
X24191Y5698D03*
X25891Y5698D03*
%LNtop paste component ddd6a926bc8c1dc3*%
D12*
X11585Y6500D03*
X11585Y8200D03*
%LNtop paste component fce28939f63c5dc8*%
D13*
X10088Y24075D03*
X8388Y24075D03*
%LNtop paste component 8c92817f578251b9*%
D12*
X13897Y6500D03*
X13897Y8200D03*
%LNtop paste component b727e9ed986f8142*%
D14*
X24170Y16700D03*
X25870Y16700D03*
X25870Y18000D03*
X24170Y18000D03*
%LNtop paste component d2a4fe636fd95985*%
D10*
X24191Y6990D03*
X25891Y6990D03*
%LNtop paste component b94161c78b1874cc*%
D15*
X10835Y3764D03*
X11485Y3764D03*
X13435Y3764D03*
X12135Y3764D03*
X12785Y3764D03*
%LNtop paste component 51ec350bf9d700a2*%
D10*
X24170Y15233D03*
X25870Y15233D03*
%LNtop paste component 1511dc9a44b694e0*%
D13*
X25891Y9913D03*
X24191Y9913D03*
%LNtop paste component 12e2b8e352b79090*%
X25870Y19435D03*
X24170Y19435D03*
%LNtop paste component 3ba8622ba2662513*%
D10*
X42175Y18754D03*
X43875Y18754D03*
%LNtop paste component e813251b1ef1d0c8*%
D16*
X39745Y14545D03*
D17*
X39745Y15815D03*
X39745Y17085D03*
X39745Y18355D03*
X39745Y19625D03*
X39745Y20895D03*
X39745Y22165D03*
X39745Y23435D03*
X30375Y23435D03*
X30375Y22165D03*
X30375Y20895D03*
X30375Y19625D03*
X30375Y18355D03*
X30375Y17085D03*
X30375Y15815D03*
X30375Y14545D03*
%LNtop paste component 2d768b8b602cab3a*%
D12*
X15062Y6500D03*
X15062Y8200D03*
%LNtop paste component 48381ae9b0a13e44*%
D13*
X25891Y12455D03*
X24191Y12455D03*
%LNtop paste component 0f1de3bf73c6ccd1*%
X25891Y11185D03*
X24191Y11185D03*
%LNtop paste component 23b1068e5906a491*%
X19132Y24050D03*
X17432Y24050D03*
%LNtop paste component 7822d83bbbda28c0*%
D18*
X10160Y10899D03*
D19*
X10960Y10899D03*
X11760Y10899D03*
X12560Y10899D03*
X13360Y10899D03*
X14160Y10899D03*
X14960Y10899D03*
X15760Y10899D03*
X16560Y10899D03*
X17360Y10899D03*
X18160Y10899D03*
X18160Y22181D03*
X17360Y22181D03*
X16560Y22181D03*
X15760Y22181D03*
X14960Y22181D03*
X14160Y22181D03*
X13360Y22181D03*
X12560Y22181D03*
X11760Y22181D03*
X10960Y22181D03*
X10160Y22181D03*
D20*
X19801Y12540D03*
X19801Y13340D03*
X19801Y14140D03*
X19801Y14940D03*
X19801Y15740D03*
X19801Y16540D03*
X19801Y17340D03*
X19801Y18140D03*
X19801Y18940D03*
X19801Y19740D03*
X19801Y20540D03*
X8519Y20540D03*
X8519Y19740D03*
X8519Y18940D03*
X8519Y18140D03*
X8519Y17340D03*
X8519Y16540D03*
X8519Y15740D03*
X8519Y14940D03*
X8519Y14140D03*
X8519Y13340D03*
X8519Y12540D03*
%LNtop paste component 3c27278c148a2f04*%
D13*
X43875Y16650D03*
X42175Y16650D03*
%LNtop paste component 5766e69468e6c804*%
D10*
X42175Y20024D03*
X43875Y20024D03*
%LNtop paste component b3b1496daab2cd3d*%
X42175Y15380D03*
X43875Y15380D03*
%LNtop paste component ee30c7fa9c17aba8*%
D12*
X8897Y6500D03*
X8897Y8200D03*
%LNtop paste component 4bf68f377a3ec8f9*%
X10259Y6500D03*
X10259Y8200D03*
M02*