%FSLAX33Y33*%
%MOMM*%
%AMRect-W670710-H870710-RO0.500*
21,1,0.67071,0.87071,0.,0.,270*%
%AMRect-W670710-H870710-RO1.500*
21,1,0.67071,0.87071,0.,0.,90*%
%AMRect-W670710-H870710-RO1.000*
21,1,0.67071,0.87071,0.,0.,180*%
%AMRect-W1980000-H530000-RO1.000*
21,1,1.98,0.53,0.,0.,180*%
%AMRR-H530000-W1980000-R265000-RO1.000*
21,1,1.45,0.53,0.,0.,180*
1,1,0.53,0.725,-0.*
1,1,0.53,-0.725,-0.*
1,1,0.53,-0.725,0.*
1,1,0.53,0.725,0.*%
%AMRect-W1488281-H525831-RO1.500*
21,1,1.488281,0.525831,0.,0.,90*%
%AMRR-H525831-W1488281-R262915-RO1.500*
21,1,0.962451,0.525831,0.,0.,90*
21,1,1.488281,0.000001,0.,0.,90*
1,1,0.52583,-0.0000005,-0.4812255*
1,1,0.52583,-0.0000005,0.4812255*
1,1,0.52583,0.0000005,0.4812255*
1,1,0.52583,0.0000005,-0.4812255*%
%AMRR-H1488281-W525831-R262915-RO1.500*
21,1,0.000001,1.488281,0.,0.,90*
21,1,0.525831,0.962451,0.,0.,90*
1,1,0.52583,-0.4812255,-0.0000005*
1,1,0.52583,-0.4812255,0.0000005*
1,1,0.52583,0.4812255,0.0000005*
1,1,0.52583,0.4812255,-0.0000005*%
%AMRect-W1750000-H1750000-RO1.000*
21,1,1.75,1.75,0.,0.,180*%
%AMRect-W1450000-H1450000-RO1.500*
21,1,1.45,1.45,0.,0.,90*%
%ADD10C,0.5588*%
%ADD11R,0.67071X0.87071*%
%ADD12Rect-W670710-H870710-RO0.500*%
%ADD13Rect-W670710-H870710-RO1.500*%
%ADD14R,1.75X1.75*%
%ADD15C,1.75*%
%ADD16Rect-W670710-H870710-RO1.000*%
%ADD17R,1.2X1.*%
%ADD18C,0.787*%
%ADD19C,1.6*%
%ADD20R,0.45X1.5*%
%ADD21C,2.*%
%ADD22Rect-W1980000-H530000-RO1.000*%
%ADD23RR-H530000-W1980000-R265000-RO1.000*%
%ADD24C,1.949999*%
%ADD25C,3.2*%
%ADD26Rect-W1488281-H525831-RO1.500*%
%ADD27RR-H525831-W1488281-R262915-RO1.500*%
%ADD28RR-H1488281-W525831-R262915-RO1.500*%
%ADD29C,1.75*%
%ADD30Rect-W1750000-H1750000-RO1.000*%
%ADD31C,1.45*%
%ADD32Rect-W1450000-H1450000-RO1.500*%
D10*
%LNtop solder mask_traces*%
G01*
X6520Y14940D03*
X31883Y34960D03*
X36925Y45105D03*
X18500Y4165D03*
X26565Y40075D03*
X26829Y4050D03*
X26765Y42455D03*
X13360Y23750D03*
X44750Y21390D03*
X17573Y3014D03*
X34575Y44505D03*
X34800Y17085D03*
X44844Y12078D03*
X5237Y20540D03*
X6520Y16540D03*
X41300Y16100D03*
X17573Y5581D03*
X35135Y37250D03*
X6520Y17340D03*
X22850Y6560D03*
X31675Y38950D03*
X7200Y1864D03*
X17983Y33590D03*
X16023Y24050D03*
X5874Y9108D03*
X12773Y32975D03*
X16773Y5581D03*
X37675Y35975D03*
X13650Y41000D03*
X9499Y1864D03*
X21440Y14677D03*
X29443Y39302D03*
X12560Y23750D03*
X29385Y11400D03*
X33150Y38350D03*
X8750Y1864D03*
X14192Y23750D03*
X20508Y34240D03*
X29443Y33035D03*
X31765Y43850D03*
X21100Y2750D03*
X29295Y43205D03*
X22668Y14677D03*
X26829Y6990D03*
X7950Y1864D03*
X15995Y5581D03*
X26829Y8900D03*
X6520Y15740D03*
X18359Y5581D03*
X26505Y32380D03*
%LNtop solder mask component b91ffdef01e00872*%
D11*
X42175Y14169D03*
X43875Y14169D03*
%LNtop solder mask component 84cf0bd8b20b0987*%
D12*
X6520Y22312D03*
X6520Y20612D03*
%LNtop solder mask component ec25ffb4a5f22221*%
D11*
X24191Y5698D03*
X25891Y5698D03*
%LNtop solder mask component ddd6a926bc8c1dc3*%
D13*
X11585Y6500D03*
X11585Y8200D03*
%LNtop solder mask component bca8d065b4743895*%
D14*
X3500Y3610D03*
D15*
X3500Y6150D03*
X3500Y8690D03*
X3500Y11230D03*
X3500Y13770D03*
X3500Y16310D03*
X3500Y18850D03*
X3500Y21390D03*
%LNtop solder mask component fce28939f63c5dc8*%
D16*
X10088Y24075D03*
X8388Y24075D03*
%LNtop solder mask component 8c92817f578251b9*%
D13*
X13897Y6500D03*
X13897Y8200D03*
%LNtop solder mask component b727e9ed986f8142*%
D17*
X24170Y16700D03*
X25870Y16700D03*
X25870Y18000D03*
X24170Y18000D03*
%LNtop solder mask component d2a4fe636fd95985*%
D11*
X24191Y6990D03*
X25891Y6990D03*
%LNtop solder mask component debbb84a84d15ed6*%
D18*
X21735Y5290D03*
X20465Y6560D03*
X21735Y6560D03*
X20465Y5290D03*
X20465Y4020D03*
X21735Y4020D03*
%LNtop solder mask component abbcac8aa2df2ad2*%
D14*
X46460Y29770D03*
D15*
X46460Y32310D03*
X46460Y34850D03*
X46460Y37390D03*
X46460Y39930D03*
X46460Y42470D03*
X46460Y45010D03*
X46460Y47550D03*
%LNtop solder mask component b94161c78b1874cc*%
D19*
X9335Y4014D03*
D20*
X10835Y3764D03*
D21*
X12135Y1864D03*
D20*
X11485Y3764D03*
X13435Y3764D03*
D19*
X14935Y4014D03*
D20*
X12135Y3764D03*
X12785Y3764D03*
%LNtop solder mask component 51ec350bf9d700a2*%
D11*
X24170Y15233D03*
X25870Y15233D03*
%LNtop solder mask component 1511dc9a44b694e0*%
D16*
X25891Y9913D03*
X24191Y9913D03*
%LNtop solder mask component 12e2b8e352b79090*%
X25870Y19435D03*
X24170Y19435D03*
%LNtop solder mask component 3ba8622ba2662513*%
D11*
X42175Y18754D03*
X43875Y18754D03*
%LNtop solder mask component e813251b1ef1d0c8*%
D22*
X39745Y14545D03*
D23*
X39745Y15815D03*
X39745Y17085D03*
X39745Y18355D03*
X39745Y19625D03*
X39745Y20895D03*
X39745Y22165D03*
X39745Y23435D03*
X30375Y23435D03*
X30375Y22165D03*
X30375Y20895D03*
X30375Y19625D03*
X30375Y18355D03*
X30375Y17085D03*
X30375Y15815D03*
X30375Y14545D03*
%LNtop solder mask component 2d768b8b602cab3a*%
D13*
X15062Y6500D03*
X15062Y8200D03*
%LNtop solder mask component 48381ae9b0a13e44*%
D16*
X25891Y12455D03*
X24191Y12455D03*
%LNtop solder mask component 0f1de3bf73c6ccd1*%
X25891Y11185D03*
X24191Y11185D03*
%LNtop solder mask component 23b1068e5906a491*%
X19132Y24050D03*
X17432Y24050D03*
%LNtop solder mask component c3a2e014ce3ec141*%
D24*
X28885Y9490D03*
X28885Y6990D03*
X28885Y4490D03*
X43385Y9490D03*
X43385Y4490D03*
D25*
X36385Y11640D03*
X36385Y2340D03*
%LNtop solder mask component 7822d83bbbda28c0*%
D26*
X10160Y10899D03*
D27*
X10960Y10899D03*
X11760Y10899D03*
X12560Y10899D03*
X13360Y10899D03*
X14160Y10899D03*
X14960Y10899D03*
X15760Y10899D03*
X16560Y10899D03*
X17360Y10899D03*
X18160Y10899D03*
X18160Y22181D03*
X17360Y22181D03*
X16560Y22181D03*
X15760Y22181D03*
X14960Y22181D03*
X14160Y22181D03*
X13360Y22181D03*
X12560Y22181D03*
X11760Y22181D03*
X10960Y22181D03*
X10160Y22181D03*
D28*
X19801Y12540D03*
X19801Y13340D03*
X19801Y14140D03*
X19801Y14940D03*
X19801Y15740D03*
X19801Y16540D03*
X19801Y17340D03*
X19801Y18140D03*
X19801Y18940D03*
X19801Y19740D03*
X19801Y20540D03*
X8519Y20540D03*
X8519Y19740D03*
X8519Y18940D03*
X8519Y18140D03*
X8519Y17340D03*
X8519Y16540D03*
X8519Y15740D03*
X8519Y14940D03*
X8519Y14140D03*
X8519Y13340D03*
X8519Y12540D03*
%LNtop solder mask component 3c27278c148a2f04*%
D16*
X43875Y16650D03*
X42175Y16650D03*
%LNtop solder mask component c71e0ad25ac2378d*%
D29*
X3460Y44910D03*
X3460Y42370D03*
X3460Y39830D03*
X3460Y37290D03*
X3460Y34750D03*
X3460Y32210D03*
X3460Y29670D03*
D30*
X3460Y47450D03*
%LNtop solder mask component 5766e69468e6c804*%
D11*
X42175Y20024D03*
X43875Y20024D03*
%LNtop solder mask component ec5ddc3e9c6c7b47*%
D31*
X14805Y30970D03*
X19885Y30970D03*
X22425Y46270D03*
X17345Y46270D03*
X12265Y46270D03*
X12265Y30970D03*
X17345Y30970D03*
X22425Y30970D03*
X19885Y46270D03*
X14805Y46270D03*
X9725Y46270D03*
D32*
X9725Y30970D03*
%LNtop solder mask component b3b1496daab2cd3d*%
D11*
X42175Y15380D03*
X43875Y15380D03*
%LNtop solder mask component 12bee7e14ac3c08e*%
D29*
X46500Y18850D03*
X46500Y16310D03*
X46500Y13770D03*
X46500Y11230D03*
X46500Y8690D03*
X46500Y6150D03*
X46500Y3610D03*
D30*
X46500Y21390D03*
%LNtop solder mask component ee30c7fa9c17aba8*%
D13*
X8897Y6500D03*
X8897Y8200D03*
%LNtop solder mask component 4bf68f377a3ec8f9*%
X10259Y6500D03*
X10259Y8200D03*
%LNtop solder mask component a433c07c415dc932*%
D31*
X32585Y30970D03*
X37665Y30970D03*
X40205Y46270D03*
X35125Y46270D03*
X30045Y46270D03*
X30045Y30970D03*
X35125Y30970D03*
X40205Y30970D03*
X37665Y46270D03*
X32585Y46270D03*
X27505Y46270D03*
D32*
X27505Y30970D03*
M02*