  0
SECTION
  2
HEADER
  9
$ACADVER
  1
AC1003
  9
$EXTMIN
 10
0.919677
 20
0.252715
  9
$EXTMAX
 10
7.749674
 20
3.752715
  0
ENDSEC
  0
TABLE
  2
LAYER
 70
	256
  0
LAYER
  2
1
 70
	0
  6
CONTINUOUS
 62
1
  0
ENDTAB
  0
SECTION
  2
ENTITIES
  0
LINE
  8
1
  6
CONTINUOUS
 10
3.0797
 11
0.9197
 20
1.2252
 21
1.2252
 30
0.0000
 31
0.0000
 62
2
  0
LINE
  8
1
  6
CONTINUOUS
 10
0.9197
 11
0.9197
 20
1.2252
 21
2.0027
 30
0.0000
 31
0.0000
 62
2
  0
LINE
  8
1
  6
CONTINUOUS
 10
0.9197
 11
3.0797
 20
2.7802
 21
2.7802
 30
0.0000
 31
0.0000
 62
2
  0
LINE
  8
1
  6
CONTINUOUS
 10
3.0797
 11
3.0797
 20
2.7802
 21
1.2252
 30
0.0000
 31
0.0000
 62
2
  0
LINE
  8
1
  6
CONTINUOUS
 10
6.5147
 11
5.4847
 20
1.0977
 21
1.0977
 30
0.0000
 31
0.0000
 62
2
  0
LINE
  8
1
  6
CONTINUOUS
 10
5.0947
 11
5.0947
 20
1.4877
 21
2.0027
 30
0.0000
 31
0.0000
 62
2
  0
LINE
  8
1
  6
CONTINUOUS
 10
5.4847
 11
6.5147
 20
2.9077
 21
2.9077
 30
0.0000
 31
0.0000
 62
2
  0
LINE
  8
1
  6
CONTINUOUS
 10
6.9047
 11
6.9047
 20
2.5177
 21
1.4877
 30
0.0000
 31
0.0000
 62
2
  0
LINE
  8
1
  6
CONTINUOUS
 10
6.5147
 11
5.4847
 20
0.8377
 21
0.8377
 30
0.0000
 31
0.0000
 62
2
  0
LINE
  8
1
  6
CONTINUOUS
 10
4.8347
 11
4.8347
 20
1.4877
 21
2.0027
 30
0.0000
 31
0.0000
 62
2
  0
LINE
  8
1
  6
CONTINUOUS
 10
5.4847
 11
6.5147
 20
3.1677
 21
3.1677
 30
0.0000
 31
0.0000
 62
2
  0
LINE
  8
1
  6
CONTINUOUS
 10
7.1647
 11
7.1647
 20
2.5177
 21
1.4877
 30
0.0000
 31
0.0000
 62
2
  0
LINE
  8
1
  6
CONTINUOUS
 10
6.5432
 11
6.5147
 20
0.2530
 21
0.2527
 30
0.0000
 31
0.0000
 62
2
  0
LINE
  8
1
  6
CONTINUOUS
 10
6.5147
 11
5.4847
 20
0.2527
 21
0.2527
 30
0.0000
 31
0.0000
 62
2
  0
LINE
  8
1
  6
CONTINUOUS
 10
4.2500
 11
4.2497
 20
1.4591
 21
1.4877
 30
0.0000
 31
0.0000
 62
2
  0
LINE
  8
1
  6
CONTINUOUS
 10
4.2497
 11
4.2497
 20
1.4877
 21
2.0027
 30
0.0000
 31
0.0000
 62
2
  0
LINE
  8
1
  6
CONTINUOUS
 10
5.4561
 11
5.4847
 20
3.7524
 21
3.7527
 30
0.0000
 31
0.0000
 62
2
  0
LINE
  8
1
  6
CONTINUOUS
 10
5.4847
 11
6.5147
 20
3.7527
 21
3.7527
 30
0.0000
 31
0.0000
 62
2
  0
LINE
  8
1
  6
CONTINUOUS
 10
7.7494
 11
7.7497
 20
2.5463
 21
2.5177
 30
0.0000
 31
0.0000
 62
2
  0
LINE
  8
1
  6
CONTINUOUS
 10
7.7497
 11
7.7497
 20
2.5177
 21
1.4877
 30
0.0000
 31
0.0000
 62
2
  0
LINE
  8
1
  6
CONTINUOUS
 10
0.9197
 11
0.9197
 20
2.0027
 21
2.7802
 30
0.0000
 31
0.0000
 62
2
  0
LINE
  8
1
  6
CONTINUOUS
 10
5.0947
 11
5.0947
 20
2.0027
 21
2.5177
 30
0.0000
 31
0.0000
 62
2
  0
LINE
  8
1
  6
CONTINUOUS
 10
4.8347
 11
4.8347
 20
2.0027
 21
2.5177
 30
0.0000
 31
0.0000
 62
2
  0
LINE
  8
1
  6
CONTINUOUS
 10
4.2497
 11
4.2497
 20
2.0027
 21
2.5177
 30
0.0000
 31
0.0000
 62
2
  0
LINE
  8
1
  6
CONTINUOUS
 10
0.9497
 11
5.1247
 20
2.0327
 21
1.9727
 30
0.0000
 31
0.0000
 62
3
  0
LINE
  8
1
  6
CONTINUOUS
 10
5.1247
 11
4.8047
 20
2.0327
 21
2.0327
 30
0.0000
 31
0.0000
 62
3
  0
LINE
  8
1
  6
CONTINUOUS
 10
4.8047
 11
4.2797
 20
1.9727
 21
1.9727
 30
0.0000
 31
0.0000
 62
3
  0
ARC
  8
1
  6
CONTINUOUS
 10
6.5111
 20
1.4877
 30
0.0000
 40
0.3935
 50
346.9397
 51
360.0000
 62
2
  0
ARC
  8
1
  6
CONTINUOUS
 10
6.5168
 20
1.4869
 30
0.0000
 40
0.3878
 50
333.6739
 51
346.8633
 62
2
  0
ARC
  8
1
  6
CONTINUOUS
 10
6.5158
 20
1.4874
 30
0.0000
 40
0.3889
 50
320.5645
 51
333.6846
 62
2
  0
ARC
  8
1
  6
CONTINUOUS
 10
6.5130
 20
1.4894
 30
0.0000
 40
0.3923
 50
307.4752
 51
320.5989
 62
2
  0
ARC
  8
1
  6
CONTINUOUS
 10
6.5134
 20
1.4893
 30
0.0000
 40
0.3920
 50
294.4105
 51
307.4455
 62
2
  0
ARC
  8
1
  6
CONTINUOUS
 10
6.5152
 20
1.4865
 30
0.0000
 40
0.3888
 50
281.3159
 51
294.3374
 62
2
  0
ARC
  8
1
  6
CONTINUOUS
 10
6.5147
 20
1.4916
 30
0.0000
 40
0.3939
 50
270.0004
 51
281.2388
 62
2
  0
ARC
  8
1
  6
CONTINUOUS
 10
5.4847
 20
1.4910
 30
0.0000
 40
0.3933
 50
256.9362
 51
269.9999
 62
2
  0
ARC
  8
1
  6
CONTINUOUS
 10
5.4837
 20
1.4850
 30
0.0000
 40
0.3873
 50
243.6647
 51
256.8726
 62
2
  0
ARC
  8
1
  6
CONTINUOUS
 10
5.4848
 20
1.4873
 30
0.0000
 40
0.3898
 50
230.5791
 51
243.6693
 62
2
  0
ARC
  8
1
  6
CONTINUOUS
 10
5.4863
 20
1.4893
 30
0.0000
 40
0.3923
 50
217.4736
 51
230.5992
 62
2
  0
ARC
  8
1
  6
CONTINUOUS
 10
5.4843
 20
1.4879
 30
0.0000
 40
0.3898
 50
204.3736
 51
217.4828
 62
2
  0
ARC
  8
1
  6
CONTINUOUS
 10
5.4810
 20
1.4864
 30
0.0000
 40
0.3862
 50
191.2724
 51
204.3808
 62
2
  0
ARC
  8
1
  6
CONTINUOUS
 10
5.4881
 20
1.4877
 30
0.0000
 40
0.3934
 50
180.0000
 51
191.2466
 62
2
  0
ARC
  8
1
  6
CONTINUOUS
 10
5.4876
 20
2.5178
 30
0.0000
 40
0.3929
 50
166.9295
 51
180.0000
 62
2
  0
ARC
  8
1
  6
CONTINUOUS
 10
5.4814
 20
2.5189
 30
0.0000
 40
0.3866
 50
153.6539
 51
166.8837
 62
2
  0
ARC
  8
1
  6
CONTINUOUS
 10
5.4848
 20
2.5172
 30
0.0000
 40
0.3905
 50
140.5903
 51
153.6580
 62
2
  0
ARC
  8
1
  6
CONTINUOUS
 10
5.4863
 20
2.5161
 30
0.0000
 40
0.3923
 50
127.4733
 51
140.5993
 62
2
  0
ARC
  8
1
  6
CONTINUOUS
 10
5.4846
 20
2.5184
 30
0.0000
 40
0.3894
 50
114.3667
 51
127.4899
 62
2
  0
ARC
  8
1
  6
CONTINUOUS
 10
5.4834
 20
2.5213
 30
0.0000
 40
0.3863
 50
101.2744
 51
114.3788
 62
2
  0
ARC
  8
1
  6
CONTINUOUS
 10
5.4847
 20
2.5141
 30
0.0000
 40
0.3936
 50
89.9968
 51
101.2428
 62
2
  0
ARC
  8
1
  6
CONTINUOUS
 10
6.5147
 20
2.5146
 30
0.0000
 40
0.3931
 50
76.9328
 51
90.0033
 62
2
  0
ARC
  8
1
  6
CONTINUOUS
 10
6.5157
 20
2.5205
 30
0.0000
 40
0.3872
 50
63.6630
 51
76.8744
 62
2
  0
ARC
  8
1
  6
CONTINUOUS
 10
6.5147
 20
2.5183
 30
0.0000
 40
0.3896
 50
50.5755
 51
63.6732
 62
2
  0
ARC
  8
1
  6
CONTINUOUS
 10
6.5130
 20
2.5161
 30
0.0000
 40
0.3923
 50
37.4746
 51
50.5990
 62
2
  0
ARC
  8
1
  6
CONTINUOUS
 10
6.5135
 20
2.5166
 30
0.0000
 40
0.3916
 50
24.4034
 51
37.4523
 62
2
  0
ARC
  8
1
  6
CONTINUOUS
 10
6.5158
 20
2.5182
 30
0.0000
 40
0.3889
 50
11.3179
 51
24.3355
 62
2
  0
ARC
  8
1
  6
CONTINUOUS
 10
6.5105
 20
2.5177
 30
0.0000
 40
0.3942
 50
0.0000
 51
11.2351
 62
2
  0
ARC
  8
1
  6
CONTINUOUS
 10
6.5074
 20
1.4877
 30
0.0000
 40
0.6572
 50
349.8591
 51
360.0000
 62
2
  0
ARC
  8
1
  6
CONTINUOUS
 10
6.5190
 20
1.4861
 30
0.0000
 40
0.6455
 50
339.5998
 51
349.8170
 62
2
  0
ARC
  8
1
  6
CONTINUOUS
 10
6.5178
 20
1.4867
 30
0.0000
 40
0.6469
 50
329.3940
 51
339.5923
 62
2
  0
ARC
  8
1
  6
CONTINUOUS
 10
6.5160
 20
1.4874
 30
0.0000
 40
0.6487
 50
319.3443
 51
329.4216
 62
2
  0
ARC
  8
1
  6
CONTINUOUS
 10
6.5118
 20
1.4906
 30
0.0000
 40
0.6541
 50
309.2271
 51
319.3720
 62
2
  0
ARC
  8
1
  6
CONTINUOUS
 10
6.5139
 20
1.4879
 30
0.0000
 40
0.6506
 50
299.0026
 51
309.2359
 62
2
  0
ARC
  8
1
  6
CONTINUOUS
 10
6.5159
 20
1.4842
 30
0.0000
 40
0.6465
 50
288.7806
 51
299.0067
 62
2
  0
ARC
  8
1
  6
CONTINUOUS
 10
6.5164
 20
1.4828
 30
0.0000
 40
0.6449
 50
278.5127
 51
288.7780
 62
2
  0
ARC
  8
1
  6
CONTINUOUS
 10
6.5147
 20
1.4957
 30
0.0000
 40
0.6580
 50
269.9999
 51
278.4932
 62
2
  0
ARC
  8
1
  6
CONTINUOUS
 10
5.4847
 20
1.4947
 30
0.0000
 40
0.6570
 50
259.8574
 51
270.0004
 62
2
  0
ARC
  8
1
  6
CONTINUOUS
 10
5.4831
 20
1.4835
 30
0.0000
 40
0.6457
 50
249.6007
 51
259.8157
 62
2
  0
ARC
  8
1
  6
CONTINUOUS
 10
5.4835
 20
1.4843
 30
0.0000
 40
0.6465
 50
239.3915
 51
249.5953
 62
2
  0
ARC
  8
1
  6
CONTINUOUS
 10
5.4858
 20
1.4884
 30
0.0000
 40
0.6513
 50
229.1880
 51
239.4020
 62
2
  0
ARC
  8
1
  6
CONTINUOUS
 10
5.4877
 20
1.4907
 30
0.0000
 40
0.6543
 50
219.0540
 51
229.1952
 62
2
  0
ARC
  8
1
  6
CONTINUOUS
 10
5.4858
 20
1.4891
 30
0.0000
 40
0.6517
 50
208.8342
 51
219.0514
 62
2
  0
ARC
  8
1
  6
CONTINUOUS
 10
5.4817
 20
1.4867
 30
0.0000
 40
0.6470
 50
198.6038
 51
208.8241
 62
2
  0
ARC
  8
1
  6
CONTINUOUS
 10
5.4798
 20
1.4860
 30
0.0000
 40
0.6451
 50
188.3282
 51
198.5960
 62
2
  0
ARC
  8
1
  6
CONTINUOUS
 10
5.4921
 20
1.4877
 30
0.0000
 40
0.6574
 50
180.0000
 51
188.3141
 62
2
  0
ARC
  8
1
  6
CONTINUOUS
 10
5.4912
 20
2.5178
 30
0.0000
 40
0.6565
 50
169.8538
 51
180.0000
 62
2
  0
ARC
  8
1
  6
CONTINUOUS
 10
5.4806
 20
2.5192
 30
0.0000
 40
0.6459
 50
159.6020
 51
169.8140
 62
2
  0
ARC
  8
1
  6
CONTINUOUS
 10
5.4809
 20
2.5190
 30
0.0000
 40
0.6462
 50
149.3890
 51
159.5980
 62
2
  0
ARC
  8
1
  6
CONTINUOUS
 10
5.4867
 20
2.5157
 30
0.0000
 40
0.6529
 50
139.2007
 51
149.3896
 62
2
  0
ARC
  8
1
  6
CONTINUOUS
 10
5.4885
 20
2.5138
 30
0.0000
 40
0.6555
 50
129.0629
 51
139.1858
 62
2
  0
ARC
  8
1
  6
CONTINUOUS
 10
5.4860
 20
2.5167
 30
0.0000
 40
0.6516
 50
118.8333
 51
129.0522
 62
2
  0
ARC
  8
1
  6
CONTINUOUS
 10
5.4837
 20
2.5207
 30
0.0000
 40
0.6470
 50
108.6038
 51
118.8241
 62
2
  0
ARC
  8
1
  6
CONTINUOUS
 10
5.4830
 20
2.5224
 30
0.0000
 40
0.6452
 50
98.3291
 51
108.5952
 62
2
  0
ARC
  8
1
  6
CONTINUOUS
 10
5.4846
 20
2.5100
 30
0.0000
 40
0.6578
 50
89.9978
 51
98.3118
 62
2
  0
ARC
  8
1
  6
CONTINUOUS
 10
6.5147
 20
2.5110
 30
0.0000
 40
0.6567
 50
79.8555
 51
90.0024
 62
2
  0
ARC
  8
1
  6
CONTINUOUS
 10
6.5162
 20
2.5219
 30
0.0000
 40
0.6457
 50
69.6011
 51
79.8153
 62
2
  0
ARC
  8
1
  6
CONTINUOUS
 10
6.5158
 20
2.5211
 30
0.0000
 40
0.6466
 50
59.3916
 51
69.5950
 62
2
  0
ARC
  8
1
  6
CONTINUOUS
 10
6.5141
 20
2.5178
 30
0.0000
 40
0.6503
 50
49.1808
 51
59.4092
 62
2
  0
ARC
  8
1
  6
CONTINUOUS
 10
6.5128
 20
2.5158
 30
0.0000
 40
0.6526
 50
39.0416
 51
49.2088
 62
2
  0
ARC
  8
1
  6
CONTINUOUS
 10
6.5133
 20
2.5161
 30
0.0000
 40
0.6521
 50
28.8372
 51
39.0483
 62
2
  0
ARC
  8
1
  6
CONTINUOUS
 10
6.5176
 20
2.5187
 30
0.0000
 40
0.6471
 50
18.6038
 51
28.8233
 62
2
  0
ARC
  8
1
  6
CONTINUOUS
 10
6.5187
 20
2.5192
 30
0.0000
 40
0.6459
 50
8.3347
 51
18.5900
 62
2
  0
ARC
  8
1
  6
CONTINUOUS
 10
6.5062
 20
2.5177
 30
0.0000
 40
0.6585
 50
0.0000
 51
8.3070
 62
2
  0
ARC
  8
1
  6
CONTINUOUS
 10
6.4979
 20
1.4877
 30
0.0000
 40
1.2517
 50
352.6094
 51
360.0000
 62
2
  0
ARC
  8
1
  6
CONTINUOUS
 10
6.5189
 20
1.4856
 30
0.0000
 40
1.2307
 50
345.2371
 51
352.5832
 62
2
  0
ARC
  8
1
  6
CONTINUOUS
 10
6.5272
 20
1.4833
 30
0.0000
 40
1.2221
 50
337.7820
 51
345.2395
 62
2
  0
ARC
  8
1
  6
CONTINUOUS
 10
6.5206
 20
1.4858
 30
0.0000
 40
1.2291
 50
330.4609
 51
337.7917
 62
2
  0
ARC
  8
1
  6
CONTINUOUS
 10
6.5152
 20
1.4887
 30
0.0000
 40
1.2353
 50
323.0479
 51
330.4675
 62
2
  0
ARC
  8
1
  6
CONTINUOUS
 10
6.5104
 20
1.4921
 30
0.0000
 40
1.2412
 50
315.6968
 51
323.0552
 62
2
  0
ARC
  8
1
  6
CONTINUOUS
 10
6.5090
 20
1.4935
 30
0.0000
 40
1.2431
 50
308.3523
 51
315.6971
 62
2
  0
ARC
  8
1
  6
CONTINUOUS
 10
6.5115
 20
1.4904
 30
0.0000
 40
1.2391
 50
300.9589
 51
308.3484
 62
2
  0
ARC
  8
1
  6
CONTINUOUS
 10
6.5139
 20
1.4871
 30
0.0000
 40
1.2351
 50
293.4811
 51
300.9426
 62
2
  0
ARC
  8
1
  6
CONTINUOUS
 10
6.5180
 20
1.4784
 30
0.0000
 40
1.2254
 50
286.0479
 51
293.4679
 62
2
  0
ARC
  8
1
  6
CONTINUOUS
 10
6.5180
 20
1.4780
 30
0.0000
 40
1.2251
 50
278.6985
 51
286.0537
 62
2
  0
ARC
  8
1
  6
CONTINUOUS
 10
6.5156
 20
1.4915
 30
0.0000
 40
1.2388
 50
271.2770
 51
278.7108
 62
2
  0
ARC
  8
1
  6
CONTINUOUS
 10
5.4847
 20
1.5041
 30
0.0000
 40
1.2514
 50
262.6083
 51
270.0005
 62
2
  0
ARC
  8
1
  6
CONTINUOUS
 10
5.4826
 20
1.4836
 30
0.0000
 40
1.2308
 50
255.2375
 51
262.5831
 62
2
  0
ARC
  8
1
  6
CONTINUOUS
 10
5.4811
 20
1.4775
 30
0.0000
 40
1.2245
 50
247.7890
 51
255.2318
 62
2
  0
ARC
  8
1
  6
CONTINUOUS
 10
5.4827
 20
1.4816
 30
0.0000
 40
1.2289
 50
240.4605
 51
247.7925
 62
2
  0
ARC
  8
1
  6
CONTINUOUS
 10
5.4859
 20
1.4875
 30
0.0000
 40
1.2356
 50
233.0489
 51
240.4662
 62
2
  0
ARC
  8
1
  6
CONTINUOUS
 10
5.4891
 20
1.4920
 30
0.0000
 40
1.2412
 50
225.6967
 51
233.0551
 62
2
  0
ARC
  8
1
  6
CONTINUOUS
 10
5.4899
 20
1.4929
 30
0.0000
 40
1.2424
 50
218.3506
 51
225.6998
 62
2
  0
ARC
  8
1
  6
CONTINUOUS
 10
5.4870
 20
1.4906
 30
0.0000
 40
1.2387
 50
210.9570
 51
218.3491
 62
2
  0
ARC
  8
1
  6
CONTINUOUS
 10
5.4805
 20
1.4867
 30
0.0000
 40
1.2311
 50
203.4691
 51
210.9549
 62
2
  0
ARC
  8
1
  6
CONTINUOUS
 10
5.4766
 20
1.4848
 30
0.0000
 40
1.2267
 50
196.0523
 51
203.4646
 62
2
  0
ARC
  8
1
  6
CONTINUOUS
 10
5.4777
 20
1.4850
 30
0.0000
 40
1.2279
 50
188.7064
 51
196.0449
 62
2
  0
ARC
  8
1
  6
CONTINUOUS
 10
5.4892
 20
1.4868
 30
0.0000
 40
1.2396
 50
181.2793
 51
188.7084
 62
2
  0
ARC
  8
1
  6
CONTINUOUS
 10
5.5003
 20
2.5178
 30
0.0000
 40
1.2506
 50
172.6059
 51
180.0000
 62
2
  0
ARC
  8
1
  6
CONTINUOUS
 10
5.4807
 20
2.5198
 30
0.0000
 40
1.2309
 50
165.2381
 51
172.5831
 62
2
  0
ARC
  8
1
  6
CONTINUOUS
 10
5.4771
 20
2.5204
 30
0.0000
 40
1.2272
 50
157.7970
 51
165.2231
 62
2
  0
ARC
  8
1
  6
CONTINUOUS
 10
5.4784
 20
2.5198
 30
0.0000
 40
1.2287
 50
150.4602
 51
157.7932
 62
2
  0
ARC
  8
1
  6
CONTINUOUS
 10
5.4847
 20
2.5164
 30
0.0000
 40
1.2359
 50
143.0496
 51
150.4655
 62
2
  0
ARC
  8
1
  6
CONTINUOUS
 10
5.4890
 20
2.5133
 30
0.0000
 40
1.2412
 50
135.6966
 51
143.0550
 62
2
  0
ARC
  8
1
  6
CONTINUOUS
 10
5.4897
 20
2.5127
 30
0.0000
 40
1.2421
 50
128.3499
 51
135.7006
 62
2
  0
ARC
  8
1
  6
CONTINUOUS
 10
5.4875
 20
2.5154
 30
0.0000
 40
1.2386
 50
120.9567
 51
128.3492
 62
2
  0
ARC
  8
1
  6
CONTINUOUS
 10
5.4835
 20
2.5221
 30
0.0000
 40
1.2308
 50
113.4683
 51
120.9558
 62
2
  0
ARC
  8
1
  6
CONTINUOUS
 10
5.4818
 20
2.5259
 30
0.0000
 40
1.2266
 50
106.0520
 51
113.4648
 62
2
  0
ARC
  8
1
  6
CONTINUOUS
 10
5.4819
 20
2.5252
 30
0.0000
 40
1.2274
 50
98.7049
 51
106.0466
 62
2
  0
ARC
  8
1
  6
CONTINUOUS
 10
5.4838
 20
2.5134
 30
0.0000
 40
1.2393
 50
91.2786
 51
98.7092
 62
2
  0
ARC
  8
1
  6
CONTINUOUS
 10
6.5147
 20
2.5017
 30
0.0000
 40
1.2510
 50
82.6071
 51
90.0016
 62
2
  0
ARC
  8
1
  6
CONTINUOUS
 10
6.5168
 20
2.5218
 30
0.0000
 40
1.2308
 50
75.2377
 51
82.5831
 62
2
  0
ARC
  8
1
  6
CONTINUOUS
 10
6.5182
 20
2.5276
 30
0.0000
 40
1.2248
 50
67.7899
 51
75.2309
 62
2
  0
ARC
  8
1
  6
CONTINUOUS
 10
6.5167
 20
2.5238
 30
0.0000
 40
1.2289
 50
60.4605
 51
67.7924
 62
2
  0
ARC
  8
1
  6
CONTINUOUS
 10
6.5135
 20
2.5180
 30
0.0000
 40
1.2355
 50
53.0486
 51
60.4667
 62
2
  0
ARC
  8
1
  6
CONTINUOUS
 10
6.5102
 20
2.5134
 30
0.0000
 40
1.2412
 50
45.6967
 51
53.0551
 62
2
  0
ARC
  8
1
  6
CONTINUOUS
 10
6.5091
 20
2.5122
 30
0.0000
 40
1.2428
 50
38.3517
 51
45.6980
 62
2
  0
ARC
  8
1
  6
CONTINUOUS
 10
6.5120
 20
2.5146
 30
0.0000
 40
1.2391
 50
30.9586
 51
38.3486
 62
2
  0
ARC
  8
1
  6
CONTINUOUS
 10
6.5155
 20
2.5171
 30
0.0000
 40
1.2348
 50
23.4802
 51
30.9434
 62
2
  0
ARC
  8
1
  6
CONTINUOUS
 10
6.5241
 20
2.5211
 30
0.0000
 40
1.2253
 50
16.0475
 51
23.4681
 62
2
  0
ARC
  8
1
  6
CONTINUOUS
 10
6.5249
 20
2.5211
 30
0.0000
 40
1.2246
 50
8.6970
 51
16.0554
 62
2
  0
ARC
  8
1
  6
CONTINUOUS
 10
6.5112
 20
2.5187
 30
0.0000
 40
1.2385
 50
1.2761
 51
8.7115
 62
2
  0
ARC
  8
1
  6
CONTINUOUS
 10
0.9497
 20
2.0027
 30
0.0000
 40
0.0300
 50
180.0000
 51
270.0000
 62
2
  0
ARC
  8
1
  6
CONTINUOUS
 10
0.9497
 20
2.0027
 30
0.0000
 40
0.0300
 50
90.0000
 51
180.0000
 62
2
  0
ARC
  8
1
  6
CONTINUOUS
 10
5.1247
 20
2.0027
 30
0.0000
 40
0.0300
 50
180.0000
 51
270.0000
 62
2
  0
ARC
  8
1
  6
CONTINUOUS
 10
5.1247
 20
2.0027
 30
0.0000
 40
0.0300
 50
90.0000
 51
180.0000
 62
2
  0
ARC
  8
1
  6
CONTINUOUS
 10
4.8047
 20
2.0027
 30
0.0000
 40
0.0300
 50
0.0000
 51
90.0000
 62
2
  0
ARC
  8
1
  6
CONTINUOUS
 10
4.8047
 20
2.0027
 30
0.0000
 40
0.0300
 50
270.0000
 51
0.0000
 62
2
  0
ARC
  8
1
  6
CONTINUOUS
 10
4.2797
 20
2.0027
 30
0.0000
 40
0.0300
 50
180.0000
 51
270.0000
 62
2
  0
ARC
  8
1
  6
CONTINUOUS
 10
4.2797
 20
2.0027
 30
0.0000
 40
0.0300
 50
90.0000
 51
180.0000
 62
2
  0
ENDSEC
  0
EOF
