  0
SECTION
  2
HEADER
  9
$ACADVER
  1
AC1003
  9
$EXTMIN
 10
1.390200
 20
1.969500
  9
$EXTMAX
 10
25.705299
 20
2.284600
  0
ENDSEC
  0
TABLE
  2
LAYER
 70
	256
  0
LAYER
  2
1
 70
	0
  6
CONTINUOUS
 62
1
  0
ENDTAB
  0
SECTION
  2
ENTITIES
  0
LINE
  8
1
  6
CONTINUOUS
 10
1.7039
 11
1.7053
 20
2.1481
 21
2.1271
 30
0.0000
 31
0.0000
 62
2
  0
LINE
  8
1
  6
CONTINUOUS
 10
1.5267
 11
1.5478
 20
2.2832
 21
2.2846
 30
0.0000
 31
0.0000
 62
2
  0
LINE
  8
1
  6
CONTINUOUS
 10
1.5683
 11
1.5478
 20
1.9709
 21
1.9696
 30
0.0000
 31
0.0000
 62
2
  0
LINE
  8
1
  6
CONTINUOUS
 10
1.3916
 11
1.3909
 20
2.1065
 21
2.1168
 30
0.0000
 31
0.0000
 62
2
  0
LINE
  8
1
  6
CONTINUOUS
 10
1.3909
 11
1.3903
 20
2.1168
 21
2.1271
 30
0.0000
 31
0.0000
 62
2
  0
LINE
  8
1
  6
CONTINUOUS
 10
5.7039
 11
5.7053
 20
2.1481
 21
2.1271
 30
0.0000
 31
0.0000
 62
2
  0
LINE
  8
1
  6
CONTINUOUS
 10
9.7039
 11
9.7053
 20
2.1481
 21
2.1271
 30
0.0000
 31
0.0000
 62
2
  0
LINE
  8
1
  6
CONTINUOUS
 10
13.7039
 11
13.7053
 20
2.1481
 21
2.1271
 30
0.0000
 31
0.0000
 62
2
  0
LINE
  8
1
  6
CONTINUOUS
 10
17.7039
 11
17.7053
 20
2.1481
 21
2.1271
 30
0.0000
 31
0.0000
 62
2
  0
LINE
  8
1
  6
CONTINUOUS
 10
21.7039
 11
21.7053
 20
2.1481
 21
2.1271
 30
0.0000
 31
0.0000
 62
2
  0
LINE
  8
1
  6
CONTINUOUS
 10
25.7039
 11
25.7053
 20
2.1481
 21
2.1271
 30
0.0000
 31
0.0000
 62
2
  0
LINE
  8
1
  6
CONTINUOUS
 10
5.5267
 11
5.5478
 20
2.2832
 21
2.2846
 30
0.0000
 31
0.0000
 62
2
  0
LINE
  8
1
  6
CONTINUOUS
 10
9.5267
 11
9.5478
 20
2.2832
 21
2.2846
 30
0.0000
 31
0.0000
 62
2
  0
LINE
  8
1
  6
CONTINUOUS
 10
13.5267
 11
13.5478
 20
2.2832
 21
2.2846
 30
0.0000
 31
0.0000
 62
2
  0
LINE
  8
1
  6
CONTINUOUS
 10
17.5267
 11
17.5478
 20
2.2832
 21
2.2846
 30
0.0000
 31
0.0000
 62
2
  0
LINE
  8
1
  6
CONTINUOUS
 10
21.5267
 11
21.5478
 20
2.2832
 21
2.2846
 30
0.0000
 31
0.0000
 62
2
  0
LINE
  8
1
  6
CONTINUOUS
 10
25.5267
 11
25.5478
 20
2.2832
 21
2.2846
 30
0.0000
 31
0.0000
 62
2
  0
LINE
  8
1
  6
CONTINUOUS
 10
5.5683
 11
5.5478
 20
1.9709
 21
1.9696
 30
0.0000
 31
0.0000
 62
2
  0
LINE
  8
1
  6
CONTINUOUS
 10
9.5683
 11
9.5478
 20
1.9709
 21
1.9696
 30
0.0000
 31
0.0000
 62
2
  0
LINE
  8
1
  6
CONTINUOUS
 10
13.5683
 11
13.5478
 20
1.9709
 21
1.9696
 30
0.0000
 31
0.0000
 62
2
  0
LINE
  8
1
  6
CONTINUOUS
 10
17.5683
 11
17.5478
 20
1.9709
 21
1.9696
 30
0.0000
 31
0.0000
 62
2
  0
LINE
  8
1
  6
CONTINUOUS
 10
21.5683
 11
21.5478
 20
1.9709
 21
1.9696
 30
0.0000
 31
0.0000
 62
2
  0
LINE
  8
1
  6
CONTINUOUS
 10
25.5683
 11
25.5478
 20
1.9709
 21
1.9696
 30
0.0000
 31
0.0000
 62
2
  0
LINE
  8
1
  6
CONTINUOUS
 10
5.3909
 11
5.3903
 20
2.1168
 21
2.1271
 30
0.0000
 31
0.0000
 62
2
  0
LINE
  8
1
  6
CONTINUOUS
 10
9.3909
 11
9.3903
 20
2.1168
 21
2.1271
 30
0.0000
 31
0.0000
 62
2
  0
LINE
  8
1
  6
CONTINUOUS
 10
13.3909
 11
13.3903
 20
2.1168
 21
2.1271
 30
0.0000
 31
0.0000
 62
2
  0
LINE
  8
1
  6
CONTINUOUS
 10
17.3909
 11
17.3903
 20
2.1168
 21
2.1271
 30
0.0000
 31
0.0000
 62
2
  0
LINE
  8
1
  6
CONTINUOUS
 10
21.3909
 11
21.3903
 20
2.1168
 21
2.1271
 30
0.0000
 31
0.0000
 62
2
  0
LINE
  8
1
  6
CONTINUOUS
 10
25.3909
 11
25.3903
 20
2.1168
 21
2.1271
 30
0.0000
 31
0.0000
 62
2
  0
LINE
  8
1
  6
CONTINUOUS
 10
5.3916
 11
5.3909
 20
2.1065
 21
2.1168
 30
0.0000
 31
0.0000
 62
2
  0
LINE
  8
1
  6
CONTINUOUS
 10
9.3916
 11
9.3909
 20
2.1065
 21
2.1168
 30
0.0000
 31
0.0000
 62
2
  0
LINE
  8
1
  6
CONTINUOUS
 10
13.3916
 11
13.3909
 20
2.1065
 21
2.1168
 30
0.0000
 31
0.0000
 62
2
  0
LINE
  8
1
  6
CONTINUOUS
 10
17.3916
 11
17.3909
 20
2.1065
 21
2.1168
 30
0.0000
 31
0.0000
 62
2
  0
LINE
  8
1
  6
CONTINUOUS
 10
21.3916
 11
21.3909
 20
2.1065
 21
2.1168
 30
0.0000
 31
0.0000
 62
2
  0
LINE
  8
1
  6
CONTINUOUS
 10
25.3916
 11
25.3909
 20
2.1065
 21
2.1168
 30
0.0000
 31
0.0000
 62
2
  0
LINE
  8
1
  6
CONTINUOUS
 10
1.4190
 11
5.4228
 20
2.1486
 21
2.0888
 30
0.0000
 31
0.0000
 62
3
  0
LINE
  8
1
  6
CONTINUOUS
 10
5.4190
 11
9.4228
 20
2.1486
 21
2.0888
 30
0.0000
 31
0.0000
 62
3
  0
LINE
  8
1
  6
CONTINUOUS
 10
9.4190
 11
13.4228
 20
2.1486
 21
2.0888
 30
0.0000
 31
0.0000
 62
3
  0
LINE
  8
1
  6
CONTINUOUS
 10
13.4190
 11
17.4228
 20
2.1486
 21
2.0888
 30
0.0000
 31
0.0000
 62
3
  0
LINE
  8
1
  6
CONTINUOUS
 10
17.4190
 11
21.4228
 20
2.1486
 21
2.0888
 30
0.0000
 31
0.0000
 62
3
  0
LINE
  8
1
  6
CONTINUOUS
 10
21.4190
 11
25.4228
 20
2.1486
 21
2.0888
 30
0.0000
 31
0.0000
 62
3
  0
ARC
  8
1
  6
CONTINUOUS
 10
1.5471
 20
2.1271
 30
0.0000
 40
0.1582
 50
339.3324
 51
0.0000
 62
2
  0
ARC
  8
1
  6
CONTINUOUS
 10
1.5483
 20
2.1269
 30
0.0000
 40
0.1570
 50
318.6228
 51
339.2411
 62
2
  0
ARC
  8
1
  6
CONTINUOUS
 10
1.5483
 20
2.1276
 30
0.0000
 40
0.1583
 50
208.1421
 51
228.6742
 62
2
  0
ARC
  8
1
  6
CONTINUOUS
 10
1.5469
 20
2.1267
 30
0.0000
 40
0.1566
 50
187.4139
 51
208.1123
 62
2
  0
ARC
  8
1
  6
CONTINUOUS
 10
1.5483
 20
2.1271
 30
0.0000
 40
0.1581
 50
159.5031
 51
180.0000
 62
2
  0
ARC
  8
1
  6
CONTINUOUS
 10
1.5474
 20
2.1272
 30
0.0000
 40
0.1571
 50
138.8055
 51
159.4090
 62
2
  0
ARC
  8
1
  6
CONTINUOUS
 10
1.5479
 20
2.1275
 30
0.0000
 40
0.1571
 50
48.8021
 51
69.4119
 62
2
  0
ARC
  8
1
  6
CONTINUOUS
 10
1.5472
 20
2.1265
 30
0.0000
 40
0.1583
 50
28.3170
 51
48.8469
 62
2
  0
ARC
  8
1
  6
CONTINUOUS
 10
1.5487
 20
2.1274
 30
0.0000
 40
0.1566
 50
7.5974
 51
28.2885
 62
2
  0
ARC
  8
1
  6
CONTINUOUS
 10
1.5483
 20
2.1265
 30
0.0000
 40
0.1583
 50
118.3202
 51
138.8494
 62
2
  0
ARC
  8
1
  6
CONTINUOUS
 10
1.5474
 20
2.1280
 30
0.0000
 40
0.1566
 50
97.6014
 51
118.2898
 62
2
  0
ARC
  8
1
  6
CONTINUOUS
 10
1.5478
 20
2.1265
 30
0.0000
 40
0.1581
 50
69.5038
 51
90.0072
 62
2
  0
ARC
  8
1
  6
CONTINUOUS
 10
1.4209
 20
2.1187
 30
0.0000
 40
0.0300
 50
183.6954
 51
273.6954
 62
2
  0
ARC
  8
1
  6
CONTINUOUS
 10
1.4209
 20
2.1187
 30
0.0000
 40
0.0300
 50
93.6954
 51
183.6954
 62
3
  0
ARC
  8
1
  6
CONTINUOUS
 10
1.5473
 20
2.1276
 30
0.0000
 40
0.1582
 50
298.1381
 51
318.6790
 62
2
  0
ARC
  8
1
  6
CONTINUOUS
 10
1.5476
 20
2.1266
 30
0.0000
 40
0.1570
 50
228.6220
 51
249.2369
 62
2
  0
ARC
  8
1
  6
CONTINUOUS
 10
1.5478
 20
2.1277
 30
0.0000
 40
0.1582
 50
249.3304
 51
269.9986
 62
2
  0
ARC
  8
1
  6
CONTINUOUS
 10
1.5481
 20
2.1260
 30
0.0000
 40
0.1565
 50
277.4047
 51
298.1200
 62
2
  0
ARC
  8
1
  6
CONTINUOUS
 10
5.4209
 20
2.1187
 30
0.0000
 40
0.0300
 50
93.6954
 51
183.6954
 62
3
  0
ARC
  8
1
  6
CONTINUOUS
 10
9.4209
 20
2.1187
 30
0.0000
 40
0.0300
 50
93.6963
 51
183.6963
 62
3
  0
ARC
  8
1
  6
CONTINUOUS
 10
13.4209
 20
2.1187
 30
0.0000
 40
0.0300
 50
93.6963
 51
183.6963
 62
3
  0
ARC
  8
1
  6
CONTINUOUS
 10
17.4209
 20
2.1187
 30
0.0000
 40
0.0300
 50
93.6963
 51
183.6963
 62
3
  0
ARC
  8
1
  6
CONTINUOUS
 10
21.4209
 20
2.1187
 30
0.0000
 40
0.0300
 50
93.6963
 51
183.6963
 62
3
  0
ARC
  8
1
  6
CONTINUOUS
 10
25.4209
 20
2.1187
 30
0.0000
 40
0.0300
 50
93.6963
 51
183.6963
 62
2
  0
ARC
  8
1
  6
CONTINUOUS
 10
5.5473
 20
2.1276
 30
0.0000
 40
0.1582
 50
298.1381
 51
318.6790
 62
2
  0
ARC
  8
1
  6
CONTINUOUS
 10
9.5473
 20
2.1276
 30
0.0000
 40
0.1582
 50
298.1381
 51
318.6790
 62
2
  0
ARC
  8
1
  6
CONTINUOUS
 10
13.5473
 20
2.1276
 30
0.0000
 40
0.1582
 50
298.1381
 51
318.6790
 62
2
  0
ARC
  8
1
  6
CONTINUOUS
 10
17.5473
 20
2.1276
 30
0.0000
 40
0.1582
 50
298.1378
 51
318.6786
 62
2
  0
ARC
  8
1
  6
CONTINUOUS
 10
21.5473
 20
2.1276
 30
0.0000
 40
0.1582
 50
298.1378
 51
318.6786
 62
2
  0
ARC
  8
1
  6
CONTINUOUS
 10
25.5473
 20
2.1276
 30
0.0000
 40
0.1582
 50
298.1378
 51
318.6786
 62
2
  0
ARC
  8
1
  6
CONTINUOUS
 10
5.5476
 20
2.1266
 30
0.0000
 40
0.1570
 50
228.6220
 51
249.2369
 62
2
  0
ARC
  8
1
  6
CONTINUOUS
 10
9.5476
 20
2.1266
 30
0.0000
 40
0.1570
 50
228.6220
 51
249.2369
 62
2
  0
ARC
  8
1
  6
CONTINUOUS
 10
13.5476
 20
2.1266
 30
0.0000
 40
0.1570
 50
228.6220
 51
249.2369
 62
2
  0
ARC
  8
1
  6
CONTINUOUS
 10
17.5476
 20
2.1266
 30
0.0000
 40
0.1570
 50
228.6220
 51
249.2372
 62
2
  0
ARC
  8
1
  6
CONTINUOUS
 10
21.5476
 20
2.1266
 30
0.0000
 40
0.1570
 50
228.6220
 51
249.2372
 62
2
  0
ARC
  8
1
  6
CONTINUOUS
 10
25.5476
 20
2.1266
 30
0.0000
 40
0.1570
 50
228.6220
 51
249.2372
 62
2
  0
ARC
  8
1
  6
CONTINUOUS
 10
5.5478
 20
2.1277
 30
0.0000
 40
0.1582
 50
249.3303
 51
269.9986
 62
2
  0
ARC
  8
1
  6
CONTINUOUS
 10
9.5478
 20
2.1277
 30
0.0000
 40
0.1582
 50
249.3303
 51
269.9986
 62
2
  0
ARC
  8
1
  6
CONTINUOUS
 10
13.5478
 20
2.1277
 30
0.0000
 40
0.1582
 50
249.3303
 51
269.9986
 62
2
  0
ARC
  8
1
  6
CONTINUOUS
 10
17.5478
 20
2.1277
 30
0.0000
 40
0.1582
 50
249.3303
 51
269.9986
 62
2
  0
ARC
  8
1
  6
CONTINUOUS
 10
21.5478
 20
2.1277
 30
0.0000
 40
0.1582
 50
249.3303
 51
269.9986
 62
2
  0
ARC
  8
1
  6
CONTINUOUS
 10
25.5478
 20
2.1277
 30
0.0000
 40
0.1582
 50
249.3303
 51
269.9986
 62
2
  0
ARC
  8
1
  6
CONTINUOUS
 10
5.5481
 20
2.1260
 30
0.0000
 40
0.1565
 50
277.4047
 51
298.1200
 62
2
  0
ARC
  8
1
  6
CONTINUOUS
 10
9.5481
 20
2.1260
 30
0.0000
 40
0.1565
 50
277.4051
 51
298.1205
 62
2
  0
ARC
  8
1
  6
CONTINUOUS
 10
13.5481
 20
2.1260
 30
0.0000
 40
0.1565
 50
277.4051
 51
298.1205
 62
2
  0
ARC
  8
1
  6
CONTINUOUS
 10
17.5481
 20
2.1260
 30
0.0000
 40
0.1565
 50
277.4051
 51
298.1205
 62
2
  0
ARC
  8
1
  6
CONTINUOUS
 10
21.5481
 20
2.1260
 30
0.0000
 40
0.1565
 50
277.4051
 51
298.1205
 62
2
  0
ARC
  8
1
  6
CONTINUOUS
 10
25.5481
 20
2.1260
 30
0.0000
 40
0.1565
 50
277.4051
 51
298.1205
 62
2
  0
ARC
  8
1
  6
CONTINUOUS
 10
5.5471
 20
2.1271
 30
0.0000
 40
0.1582
 50
339.3324
 51
0.0000
 62
2
  0
ARC
  8
1
  6
CONTINUOUS
 10
9.5471
 20
2.1271
 30
0.0000
 40
0.1582
 50
339.3324
 51
0.0000
 62
2
  0
ARC
  8
1
  6
CONTINUOUS
 10
13.5471
 20
2.1271
 30
0.0000
 40
0.1582
 50
339.3324
 51
0.0000
 62
2
  0
ARC
  8
1
  6
CONTINUOUS
 10
17.5471
 20
2.1271
 30
0.0000
 40
0.1582
 50
339.3323
 51
360.0000
 62
2
  0
ARC
  8
1
  6
CONTINUOUS
 10
21.5471
 20
2.1271
 30
0.0000
 40
0.1582
 50
339.3323
 51
360.0000
 62
2
  0
ARC
  8
1
  6
CONTINUOUS
 10
25.5471
 20
2.1271
 30
0.0000
 40
0.1582
 50
339.3323
 51
360.0000
 62
2
  0
ARC
  8
1
  6
CONTINUOUS
 10
5.5483
 20
2.1269
 30
0.0000
 40
0.1570
 50
318.6229
 51
339.2413
 62
2
  0
ARC
  8
1
  6
CONTINUOUS
 10
9.5483
 20
2.1269
 30
0.0000
 40
0.1570
 50
318.6229
 51
339.2412
 62
2
  0
ARC
  8
1
  6
CONTINUOUS
 10
13.5483
 20
2.1269
 30
0.0000
 40
0.1570
 50
318.6229
 51
339.2412
 62
2
  0
ARC
  8
1
  6
CONTINUOUS
 10
17.5483
 20
2.1269
 30
0.0000
 40
0.1570
 50
318.6229
 51
339.2413
 62
2
  0
ARC
  8
1
  6
CONTINUOUS
 10
21.5483
 20
2.1269
 30
0.0000
 40
0.1570
 50
318.6229
 51
339.2413
 62
2
  0
ARC
  8
1
  6
CONTINUOUS
 10
25.5483
 20
2.1269
 30
0.0000
 40
0.1570
 50
318.6229
 51
339.2413
 62
2
  0
ARC
  8
1
  6
CONTINUOUS
 10
5.5483
 20
2.1276
 30
0.0000
 40
0.1583
 50
208.1422
 51
228.6743
 62
2
  0
ARC
  8
1
  6
CONTINUOUS
 10
9.5483
 20
2.1276
 30
0.0000
 40
0.1583
 50
208.1422
 51
228.6743
 62
2
  0
ARC
  8
1
  6
CONTINUOUS
 10
13.5483
 20
2.1276
 30
0.0000
 40
0.1583
 50
208.1422
 51
228.6743
 62
2
  0
ARC
  8
1
  6
CONTINUOUS
 10
17.5483
 20
2.1276
 30
0.0000
 40
0.1583
 50
208.1422
 51
228.6741
 62
2
  0
ARC
  8
1
  6
CONTINUOUS
 10
21.5483
 20
2.1276
 30
0.0000
 40
0.1583
 50
208.1422
 51
228.6741
 62
2
  0
ARC
  8
1
  6
CONTINUOUS
 10
25.5483
 20
2.1276
 30
0.0000
 40
0.1583
 50
208.1422
 51
228.6741
 62
2
  0
ARC
  8
1
  6
CONTINUOUS
 10
5.5469
 20
2.1267
 30
0.0000
 40
0.1566
 50
187.4139
 51
208.1123
 62
2
  0
ARC
  8
1
  6
CONTINUOUS
 10
9.5469
 20
2.1267
 30
0.0000
 40
0.1566
 50
187.4139
 51
208.1122
 62
2
  0
ARC
  8
1
  6
CONTINUOUS
 10
13.5469
 20
2.1267
 30
0.0000
 40
0.1566
 50
187.4139
 51
208.1122
 62
2
  0
ARC
  8
1
  6
CONTINUOUS
 10
17.5469
 20
2.1267
 30
0.0000
 40
0.1566
 50
187.4139
 51
208.1124
 62
2
  0
ARC
  8
1
  6
CONTINUOUS
 10
21.5469
 20
2.1267
 30
0.0000
 40
0.1566
 50
187.4139
 51
208.1124
 62
2
  0
ARC
  8
1
  6
CONTINUOUS
 10
25.5469
 20
2.1267
 30
0.0000
 40
0.1566
 50
187.4139
 51
208.1124
 62
2
  0
ARC
  8
1
  6
CONTINUOUS
 10
5.5483
 20
2.1271
 30
0.0000
 40
0.1581
 50
159.5030
 51
180.0000
 62
2
  0
ARC
  8
1
  6
CONTINUOUS
 10
9.5483
 20
2.1271
 30
0.0000
 40
0.1581
 50
159.5030
 51
180.0000
 62
2
  0
ARC
  8
1
  6
CONTINUOUS
 10
13.5483
 20
2.1271
 30
0.0000
 40
0.1581
 50
159.5030
 51
180.0000
 62
2
  0
ARC
  8
1
  6
CONTINUOUS
 10
17.5483
 20
2.1271
 30
0.0000
 40
0.1581
 50
159.5030
 51
180.0000
 62
2
  0
ARC
  8
1
  6
CONTINUOUS
 10
21.5483
 20
2.1271
 30
0.0000
 40
0.1581
 50
159.5030
 51
180.0000
 62
2
  0
ARC
  8
1
  6
CONTINUOUS
 10
25.5483
 20
2.1271
 30
0.0000
 40
0.1581
 50
159.5030
 51
180.0000
 62
2
  0
ARC
  8
1
  6
CONTINUOUS
 10
5.5474
 20
2.1272
 30
0.0000
 40
0.1571
 50
138.8054
 51
159.4090
 62
2
  0
ARC
  8
1
  6
CONTINUOUS
 10
9.5474
 20
2.1272
 30
0.0000
 40
0.1571
 50
138.8053
 51
159.4089
 62
2
  0
ARC
  8
1
  6
CONTINUOUS
 10
13.5474
 20
2.1272
 30
0.0000
 40
0.1571
 50
138.8053
 51
159.4089
 62
2
  0
ARC
  8
1
  6
CONTINUOUS
 10
17.5474
 20
2.1272
 30
0.0000
 40
0.1571
 50
138.8053
 51
159.4088
 62
2
  0
ARC
  8
1
  6
CONTINUOUS
 10
21.5474
 20
2.1272
 30
0.0000
 40
0.1571
 50
138.8053
 51
159.4088
 62
2
  0
ARC
  8
1
  6
CONTINUOUS
 10
25.5474
 20
2.1272
 30
0.0000
 40
0.1571
 50
138.8053
 51
159.4088
 62
2
  0
ARC
  8
1
  6
CONTINUOUS
 10
5.5479
 20
2.1275
 30
0.0000
 40
0.1571
 50
48.8022
 51
69.4120
 62
2
  0
ARC
  8
1
  6
CONTINUOUS
 10
9.5479
 20
2.1275
 30
0.0000
 40
0.1571
 50
48.8022
 51
69.4120
 62
2
  0
ARC
  8
1
  6
CONTINUOUS
 10
13.5479
 20
2.1275
 30
0.0000
 40
0.1571
 50
48.8022
 51
69.4120
 62
2
  0
ARC
  8
1
  6
CONTINUOUS
 10
17.5479
 20
2.1275
 30
0.0000
 40
0.1571
 50
48.8022
 51
69.4117
 62
2
  0
ARC
  8
1
  6
CONTINUOUS
 10
21.5479
 20
2.1275
 30
0.0000
 40
0.1571
 50
48.8022
 51
69.4117
 62
2
  0
ARC
  8
1
  6
CONTINUOUS
 10
25.5479
 20
2.1275
 30
0.0000
 40
0.1571
 50
48.8022
 51
69.4117
 62
2
  0
ARC
  8
1
  6
CONTINUOUS
 10
5.5472
 20
2.1265
 30
0.0000
 40
0.1583
 50
28.3170
 51
48.8470
 62
2
  0
ARC
  8
1
  6
CONTINUOUS
 10
9.5472
 20
2.1265
 30
0.0000
 40
0.1583
 50
28.3169
 51
48.8467
 62
2
  0
ARC
  8
1
  6
CONTINUOUS
 10
13.5472
 20
2.1265
 30
0.0000
 40
0.1583
 50
28.3169
 51
48.8467
 62
2
  0
ARC
  8
1
  6
CONTINUOUS
 10
17.5472
 20
2.1265
 30
0.0000
 40
0.1583
 50
28.3168
 51
48.8468
 62
2
  0
ARC
  8
1
  6
CONTINUOUS
 10
21.5472
 20
2.1265
 30
0.0000
 40
0.1583
 50
28.3168
 51
48.8468
 62
2
  0
ARC
  8
1
  6
CONTINUOUS
 10
25.5472
 20
2.1265
 30
0.0000
 40
0.1583
 50
28.3168
 51
48.8468
 62
2
  0
ARC
  8
1
  6
CONTINUOUS
 10
5.5487
 20
2.1274
 30
0.0000
 40
0.1566
 50
7.5974
 51
28.2885
 62
2
  0
ARC
  8
1
  6
CONTINUOUS
 10
9.5487
 20
2.1274
 30
0.0000
 40
0.1566
 50
7.5974
 51
28.2884
 62
2
  0
ARC
  8
1
  6
CONTINUOUS
 10
13.5487
 20
2.1274
 30
0.0000
 40
0.1566
 50
7.5974
 51
28.2884
 62
2
  0
ARC
  8
1
  6
CONTINUOUS
 10
17.5487
 20
2.1274
 30
0.0000
 40
0.1566
 50
7.5973
 51
28.2886
 62
2
  0
ARC
  8
1
  6
CONTINUOUS
 10
21.5487
 20
2.1274
 30
0.0000
 40
0.1566
 50
7.5973
 51
28.2886
 62
2
  0
ARC
  8
1
  6
CONTINUOUS
 10
25.5487
 20
2.1274
 30
0.0000
 40
0.1566
 50
7.5973
 51
28.2886
 62
2
  0
ARC
  8
1
  6
CONTINUOUS
 10
5.5483
 20
2.1265
 30
0.0000
 40
0.1583
 50
118.3201
 51
138.8494
 62
2
  0
ARC
  8
1
  6
CONTINUOUS
 10
9.5483
 20
2.1265
 30
0.0000
 40
0.1583
 50
118.3201
 51
138.8494
 62
2
  0
ARC
  8
1
  6
CONTINUOUS
 10
13.5483
 20
2.1265
 30
0.0000
 40
0.1583
 50
118.3201
 51
138.8494
 62
2
  0
ARC
  8
1
  6
CONTINUOUS
 10
17.5483
 20
2.1265
 30
0.0000
 40
0.1583
 50
118.3204
 51
138.8497
 62
2
  0
ARC
  8
1
  6
CONTINUOUS
 10
21.5483
 20
2.1265
 30
0.0000
 40
0.1583
 50
118.3204
 51
138.8497
 62
2
  0
ARC
  8
1
  6
CONTINUOUS
 10
25.5483
 20
2.1265
 30
0.0000
 40
0.1583
 50
118.3204
 51
138.8497
 62
2
  0
ARC
  8
1
  6
CONTINUOUS
 10
5.5474
 20
2.1280
 30
0.0000
 40
0.1566
 50
97.6014
 51
118.2899
 62
2
  0
ARC
  8
1
  6
CONTINUOUS
 10
9.5474
 20
2.1280
 30
0.0000
 40
0.1566
 50
97.6013
 51
118.2895
 62
2
  0
ARC
  8
1
  6
CONTINUOUS
 10
13.5474
 20
2.1280
 30
0.0000
 40
0.1566
 50
97.6013
 51
118.2895
 62
2
  0
ARC
  8
1
  6
CONTINUOUS
 10
17.5474
 20
2.1280
 30
0.0000
 40
0.1566
 50
97.6009
 51
118.2894
 62
2
  0
ARC
  8
1
  6
CONTINUOUS
 10
21.5474
 20
2.1280
 30
0.0000
 40
0.1566
 50
97.6009
 51
118.2894
 62
2
  0
ARC
  8
1
  6
CONTINUOUS
 10
25.5474
 20
2.1280
 30
0.0000
 40
0.1566
 50
97.6009
 51
118.2894
 62
2
  0
ARC
  8
1
  6
CONTINUOUS
 10
5.5478
 20
2.1265
 30
0.0000
 40
0.1581
 50
69.5038
 51
90.0073
 62
2
  0
ARC
  8
1
  6
CONTINUOUS
 10
9.5478
 20
2.1265
 30
0.0000
 40
0.1581
 50
69.5038
 51
90.0073
 62
2
  0
ARC
  8
1
  6
CONTINUOUS
 10
13.5478
 20
2.1265
 30
0.0000
 40
0.1581
 50
69.5038
 51
90.0073
 62
2
  0
ARC
  8
1
  6
CONTINUOUS
 10
17.5478
 20
2.1265
 30
0.0000
 40
0.1581
 50
69.5041
 51
90.0076
 62
2
  0
ARC
  8
1
  6
CONTINUOUS
 10
21.5478
 20
2.1265
 30
0.0000
 40
0.1581
 50
69.5041
 51
90.0076
 62
2
  0
ARC
  8
1
  6
CONTINUOUS
 10
25.5478
 20
2.1265
 30
0.0000
 40
0.1581
 50
69.5041
 51
90.0076
 62
2
  0
ARC
  8
1
  6
CONTINUOUS
 10
5.4209
 20
2.1187
 30
0.0000
 40
0.0300
 50
183.6955
 51
273.6955
 62
3
  0
ARC
  8
1
  6
CONTINUOUS
 10
9.4209
 20
2.1187
 30
0.0000
 40
0.0300
 50
183.6954
 51
273.6963
 62
3
  0
ARC
  8
1
  6
CONTINUOUS
 10
13.4209
 20
2.1187
 30
0.0000
 40
0.0300
 50
183.6954
 51
273.6963
 62
3
  0
ARC
  8
1
  6
CONTINUOUS
 10
17.4209
 20
2.1187
 30
0.0000
 40
0.0300
 50
183.6954
 51
273.6963
 62
3
  0
ARC
  8
1
  6
CONTINUOUS
 10
21.4209
 20
2.1187
 30
0.0000
 40
0.0300
 50
183.6954
 51
273.6963
 62
3
  0
ARC
  8
1
  6
CONTINUOUS
 10
25.4209
 20
2.1187
 30
0.0000
 40
0.0300
 50
183.6954
 51
273.6963
 62
3
  0
ENDSEC
  0
EOF
