  0
SECTION
  2
HEADER
  9
$ACADVER
  1
AC1003
  9
$EXTMIN
 10
0.250000
 20
0.250000
  9
$EXTMAX
 10
27.750000
 20
3.750000
  0
ENDSEC
  0
TABLE
  2
LAYER
 70
	256
  0
LAYER
  2
1
 70
	0
  6
CONTINUOUS
 62
1
  0
ENDTAB
  0
SECTION
  2
ENTITIES
  0
LINE
  8
1
  6
CONTINUOUS
 10
2.5150
 11
1.4850
 20
1.0950
 21
1.0950
 30
0.0000
 31
0.0000
 62
2
  0
LINE
  8
1
  6
CONTINUOUS
 10
1.0950
 11
1.0950
 20
1.4850
 21
2.0000
 30
0.0000
 31
0.0000
 62
2
  0
LINE
  8
1
  6
CONTINUOUS
 10
1.4850
 11
2.5150
 20
2.9050
 21
2.9050
 30
0.0000
 31
0.0000
 62
2
  0
LINE
  8
1
  6
CONTINUOUS
 10
2.9050
 11
2.9050
 20
2.5150
 21
2.0000
 30
0.0000
 31
0.0000
 62
2
  0
LINE
  8
1
  6
CONTINUOUS
 10
2.5150
 11
1.4850
 20
0.8350
 21
0.8350
 30
0.0000
 31
0.0000
 62
2
  0
LINE
  8
1
  6
CONTINUOUS
 10
0.8350
 11
0.8350
 20
1.4850
 21
2.0000
 30
0.0000
 31
0.0000
 62
2
  0
LINE
  8
1
  6
CONTINUOUS
 10
1.4850
 11
2.5150
 20
3.1650
 21
3.1650
 30
0.0000
 31
0.0000
 62
2
  0
LINE
  8
1
  6
CONTINUOUS
 10
3.1650
 11
3.1650
 20
2.5150
 21
2.0000
 30
0.0000
 31
0.0000
 62
2
  0
LINE
  8
1
  6
CONTINUOUS
 10
2.5436
 11
2.5150
 20
0.2503
 21
0.2500
 30
0.0000
 31
0.0000
 62
2
  0
LINE
  8
1
  6
CONTINUOUS
 10
2.5150
 11
1.4850
 20
0.2500
 21
0.2500
 30
0.0000
 31
0.0000
 62
2
  0
LINE
  8
1
  6
CONTINUOUS
 10
0.2503
 11
0.2500
 20
1.4564
 21
1.4850
 30
0.0000
 31
0.0000
 62
2
  0
LINE
  8
1
  6
CONTINUOUS
 10
0.2500
 11
0.2500
 20
1.4850
 21
2.0000
 30
0.0000
 31
0.0000
 62
2
  0
LINE
  8
1
  6
CONTINUOUS
 10
1.4564
 11
1.4850
 20
3.7497
 21
3.7500
 30
0.0000
 31
0.0000
 62
2
  0
LINE
  8
1
  6
CONTINUOUS
 10
1.4850
 11
2.5150
 20
3.7500
 21
3.7500
 30
0.0000
 31
0.0000
 62
2
  0
LINE
  8
1
  6
CONTINUOUS
 10
3.7497
 11
3.7500
 20
2.5436
 21
2.5150
 30
0.0000
 31
0.0000
 62
2
  0
LINE
  8
1
  6
CONTINUOUS
 10
3.7500
 11
3.7500
 20
2.5150
 21
2.0000
 30
0.0000
 31
0.0000
 62
2
  0
LINE
  8
1
  6
CONTINUOUS
 10
1.0950
 11
1.0950
 20
2.0000
 21
2.5150
 30
0.0000
 31
0.0000
 62
2
  0
LINE
  8
1
  6
CONTINUOUS
 10
0.8350
 11
0.8350
 20
2.0000
 21
2.5150
 30
0.0000
 31
0.0000
 62
2
  0
LINE
  8
1
  6
CONTINUOUS
 10
0.2500
 11
0.2500
 20
2.0000
 21
2.5150
 30
0.0000
 31
0.0000
 62
2
  0
LINE
  8
1
  6
CONTINUOUS
 10
2.9050
 11
2.9050
 20
2.0000
 21
1.4850
 30
0.0000
 31
0.0000
 62
2
  0
LINE
  8
1
  6
CONTINUOUS
 10
3.1650
 11
3.1650
 20
2.0000
 21
1.4850
 30
0.0000
 31
0.0000
 62
2
  0
LINE
  8
1
  6
CONTINUOUS
 10
3.7500
 11
3.7500
 20
2.0000
 21
1.4850
 30
0.0000
 31
0.0000
 62
2
  0
LINE
  8
1
  6
CONTINUOUS
 10
2.8750
 11
3.1950
 20
1.9700
 21
1.9700
 30
0.0000
 31
0.0000
 62
3
  0
LINE
  8
1
  6
CONTINUOUS
 10
3.1950
 11
3.7200
 20
2.0300
 21
2.0300
 30
0.0000
 31
0.0000
 62
3
  0
LINE
  8
1
  6
CONTINUOUS
 10
6.8750
 11
7.1950
 20
1.9700
 21
1.9700
 30
0.0000
 31
0.0000
 62
3
  0
LINE
  8
1
  6
CONTINUOUS
 10
10.8750
 11
11.1950
 20
1.9700
 21
1.9700
 30
0.0000
 31
0.0000
 62
3
  0
LINE
  8
1
  6
CONTINUOUS
 10
14.8750
 11
15.1950
 20
1.9700
 21
1.9700
 30
0.0000
 31
0.0000
 62
3
  0
LINE
  8
1
  6
CONTINUOUS
 10
18.8750
 11
19.1950
 20
1.9700
 21
1.9700
 30
0.0000
 31
0.0000
 62
3
  0
LINE
  8
1
  6
CONTINUOUS
 10
22.8750
 11
23.1950
 20
1.9700
 21
1.9700
 30
0.0000
 31
0.0000
 62
3
  0
LINE
  8
1
  6
CONTINUOUS
 10
26.8750
 11
27.1950
 20
1.9700
 21
1.9700
 30
0.0000
 31
0.0000
 62
3
  0
LINE
  8
1
  6
CONTINUOUS
 10
7.1950
 11
7.7200
 20
2.0300
 21
2.0300
 30
0.0000
 31
0.0000
 62
3
  0
LINE
  8
1
  6
CONTINUOUS
 10
11.1950
 11
11.7200
 20
2.0300
 21
2.0300
 30
0.0000
 31
0.0000
 62
3
  0
LINE
  8
1
  6
CONTINUOUS
 10
15.1950
 11
15.7200
 20
2.0300
 21
2.0300
 30
0.0000
 31
0.0000
 62
3
  0
LINE
  8
1
  6
CONTINUOUS
 10
19.1950
 11
19.7200
 20
2.0300
 21
2.0300
 30
0.0000
 31
0.0000
 62
3
  0
LINE
  8
1
  6
CONTINUOUS
 10
23.1950
 11
23.7200
 20
2.0300
 21
2.0300
 30
0.0000
 31
0.0000
 62
3
  0
LINE
  8
1
  6
CONTINUOUS
 10
27.1950
 11
27.7200
 20
2.0300
 21
2.0300
 30
0.0000
 31
0.0000
 62
3
  0
LINE
  8
1
  6
CONTINUOUS
 10
6.9050
 11
6.9050
 20
2.0000
 21
1.4850
 30
0.0000
 31
0.0000
 62
2
  0
LINE
  8
1
  6
CONTINUOUS
 10
10.9050
 11
10.9050
 20
2.0000
 21
1.4850
 30
0.0000
 31
0.0000
 62
2
  0
LINE
  8
1
  6
CONTINUOUS
 10
14.9050
 11
14.9050
 20
2.0000
 21
1.4850
 30
0.0000
 31
0.0000
 62
2
  0
LINE
  8
1
  6
CONTINUOUS
 10
18.9050
 11
18.9050
 20
2.0000
 21
1.4850
 30
0.0000
 31
0.0000
 62
2
  0
LINE
  8
1
  6
CONTINUOUS
 10
22.9050
 11
22.9050
 20
2.0000
 21
1.4850
 30
0.0000
 31
0.0000
 62
2
  0
LINE
  8
1
  6
CONTINUOUS
 10
26.9050
 11
26.9050
 20
2.0000
 21
1.4850
 30
0.0000
 31
0.0000
 62
2
  0
LINE
  8
1
  6
CONTINUOUS
 10
7.7500
 11
7.7500
 20
2.0000
 21
1.4850
 30
0.0000
 31
0.0000
 62
2
  0
LINE
  8
1
  6
CONTINUOUS
 10
11.7500
 11
11.7500
 20
2.0000
 21
1.4850
 30
0.0000
 31
0.0000
 62
2
  0
LINE
  8
1
  6
CONTINUOUS
 10
15.7500
 11
15.7500
 20
2.0000
 21
1.4850
 30
0.0000
 31
0.0000
 62
2
  0
LINE
  8
1
  6
CONTINUOUS
 10
19.7500
 11
19.7500
 20
2.0000
 21
1.4850
 30
0.0000
 31
0.0000
 62
2
  0
LINE
  8
1
  6
CONTINUOUS
 10
23.7500
 11
23.7500
 20
2.0000
 21
1.4850
 30
0.0000
 31
0.0000
 62
2
  0
LINE
  8
1
  6
CONTINUOUS
 10
27.7500
 11
27.7500
 20
2.0000
 21
1.4850
 30
0.0000
 31
0.0000
 62
2
  0
LINE
  8
1
  6
CONTINUOUS
 10
7.7497
 11
7.7500
 20
2.5436
 21
2.5150
 30
0.0000
 31
0.0000
 62
2
  0
LINE
  8
1
  6
CONTINUOUS
 10
11.7497
 11
11.7500
 20
2.5436
 21
2.5150
 30
0.0000
 31
0.0000
 62
2
  0
LINE
  8
1
  6
CONTINUOUS
 10
15.7497
 11
15.7500
 20
2.5436
 21
2.5150
 30
0.0000
 31
0.0000
 62
2
  0
LINE
  8
1
  6
CONTINUOUS
 10
19.7497
 11
19.7500
 20
2.5436
 21
2.5150
 30
0.0000
 31
0.0000
 62
2
  0
LINE
  8
1
  6
CONTINUOUS
 10
23.7497
 11
23.7500
 20
2.5436
 21
2.5150
 30
0.0000
 31
0.0000
 62
2
  0
LINE
  8
1
  6
CONTINUOUS
 10
27.7497
 11
27.7500
 20
2.5436
 21
2.5150
 30
0.0000
 31
0.0000
 62
2
  0
LINE
  8
1
  6
CONTINUOUS
 10
7.1650
 11
7.1650
 20
2.0000
 21
1.4850
 30
0.0000
 31
0.0000
 62
2
  0
LINE
  8
1
  6
CONTINUOUS
 10
11.1650
 11
11.1650
 20
2.0000
 21
1.4850
 30
0.0000
 31
0.0000
 62
2
  0
LINE
  8
1
  6
CONTINUOUS
 10
15.1650
 11
15.1650
 20
2.0000
 21
1.4850
 30
0.0000
 31
0.0000
 62
2
  0
LINE
  8
1
  6
CONTINUOUS
 10
19.1650
 11
19.1650
 20
2.0000
 21
1.4850
 30
0.0000
 31
0.0000
 62
2
  0
LINE
  8
1
  6
CONTINUOUS
 10
23.1650
 11
23.1650
 20
2.0000
 21
1.4850
 30
0.0000
 31
0.0000
 62
2
  0
LINE
  8
1
  6
CONTINUOUS
 10
27.1650
 11
27.1650
 20
2.0000
 21
1.4850
 30
0.0000
 31
0.0000
 62
2
  0
LINE
  8
1
  6
CONTINUOUS
 10
5.0950
 11
5.0950
 20
1.4850
 21
2.0000
 30
0.0000
 31
0.0000
 62
2
  0
LINE
  8
1
  6
CONTINUOUS
 10
9.0950
 11
9.0950
 20
1.4850
 21
2.0000
 30
0.0000
 31
0.0000
 62
2
  0
LINE
  8
1
  6
CONTINUOUS
 10
13.0950
 11
13.0950
 20
1.4850
 21
2.0000
 30
0.0000
 31
0.0000
 62
2
  0
LINE
  8
1
  6
CONTINUOUS
 10
17.0950
 11
17.0950
 20
1.4850
 21
2.0000
 30
0.0000
 31
0.0000
 62
2
  0
LINE
  8
1
  6
CONTINUOUS
 10
21.0950
 11
21.0950
 20
1.4850
 21
2.0000
 30
0.0000
 31
0.0000
 62
2
  0
LINE
  8
1
  6
CONTINUOUS
 10
25.0950
 11
25.0950
 20
1.4850
 21
2.0000
 30
0.0000
 31
0.0000
 62
2
  0
LINE
  8
1
  6
CONTINUOUS
 10
6.9050
 11
6.9050
 20
2.5150
 21
2.0000
 30
0.0000
 31
0.0000
 62
2
  0
LINE
  8
1
  6
CONTINUOUS
 10
10.9050
 11
10.9050
 20
2.5150
 21
2.0000
 30
0.0000
 31
0.0000
 62
2
  0
LINE
  8
1
  6
CONTINUOUS
 10
14.9050
 11
14.9050
 20
2.5150
 21
2.0000
 30
0.0000
 31
0.0000
 62
2
  0
LINE
  8
1
  6
CONTINUOUS
 10
18.9050
 11
18.9050
 20
2.5150
 21
2.0000
 30
0.0000
 31
0.0000
 62
2
  0
LINE
  8
1
  6
CONTINUOUS
 10
22.9050
 11
22.9050
 20
2.5150
 21
2.0000
 30
0.0000
 31
0.0000
 62
2
  0
LINE
  8
1
  6
CONTINUOUS
 10
26.9050
 11
26.9050
 20
2.5150
 21
2.0000
 30
0.0000
 31
0.0000
 62
2
  0
LINE
  8
1
  6
CONTINUOUS
 10
5.4850
 11
6.5150
 20
2.9050
 21
2.9050
 30
0.0000
 31
0.0000
 62
2
  0
LINE
  8
1
  6
CONTINUOUS
 10
9.4850
 11
10.5150
 20
2.9050
 21
2.9050
 30
0.0000
 31
0.0000
 62
2
  0
LINE
  8
1
  6
CONTINUOUS
 10
13.4850
 11
14.5150
 20
2.9050
 21
2.9050
 30
0.0000
 31
0.0000
 62
2
  0
LINE
  8
1
  6
CONTINUOUS
 10
17.4850
 11
18.5150
 20
2.9050
 21
2.9050
 30
0.0000
 31
0.0000
 62
2
  0
LINE
  8
1
  6
CONTINUOUS
 10
21.4850
 11
22.5150
 20
2.9050
 21
2.9050
 30
0.0000
 31
0.0000
 62
2
  0
LINE
  8
1
  6
CONTINUOUS
 10
25.4850
 11
26.5150
 20
2.9050
 21
2.9050
 30
0.0000
 31
0.0000
 62
2
  0
LINE
  8
1
  6
CONTINUOUS
 10
6.5436
 11
6.5150
 20
0.2503
 21
0.2500
 30
0.0000
 31
0.0000
 62
2
  0
LINE
  8
1
  6
CONTINUOUS
 10
10.5436
 11
10.5150
 20
0.2503
 21
0.2500
 30
0.0000
 31
0.0000
 62
2
  0
LINE
  8
1
  6
CONTINUOUS
 10
14.5436
 11
14.5150
 20
0.2503
 21
0.2500
 30
0.0000
 31
0.0000
 62
2
  0
LINE
  8
1
  6
CONTINUOUS
 10
18.5436
 11
18.5150
 20
0.2503
 21
0.2500
 30
0.0000
 31
0.0000
 62
2
  0
LINE
  8
1
  6
CONTINUOUS
 10
22.5436
 11
22.5150
 20
0.2503
 21
0.2500
 30
0.0000
 31
0.0000
 62
2
  0
LINE
  8
1
  6
CONTINUOUS
 10
26.5436
 11
26.5150
 20
0.2503
 21
0.2500
 30
0.0000
 31
0.0000
 62
2
  0
LINE
  8
1
  6
CONTINUOUS
 10
4.8350
 11
4.8350
 20
1.4850
 21
2.0000
 30
0.0000
 31
0.0000
 62
2
  0
LINE
  8
1
  6
CONTINUOUS
 10
8.8350
 11
8.8350
 20
1.4850
 21
2.0000
 30
0.0000
 31
0.0000
 62
2
  0
LINE
  8
1
  6
CONTINUOUS
 10
12.8350
 11
12.8350
 20
1.4850
 21
2.0000
 30
0.0000
 31
0.0000
 62
2
  0
LINE
  8
1
  6
CONTINUOUS
 10
16.8350
 11
16.8350
 20
1.4850
 21
2.0000
 30
0.0000
 31
0.0000
 62
2
  0
LINE
  8
1
  6
CONTINUOUS
 10
20.8350
 11
20.8350
 20
1.4850
 21
2.0000
 30
0.0000
 31
0.0000
 62
2
  0
LINE
  8
1
  6
CONTINUOUS
 10
24.8350
 11
24.8350
 20
1.4850
 21
2.0000
 30
0.0000
 31
0.0000
 62
2
  0
LINE
  8
1
  6
CONTINUOUS
 10
6.5150
 11
5.4850
 20
0.8350
 21
0.8350
 30
0.0000
 31
0.0000
 62
2
  0
LINE
  8
1
  6
CONTINUOUS
 10
10.5150
 11
9.4850
 20
0.8350
 21
0.8350
 30
0.0000
 31
0.0000
 62
2
  0
LINE
  8
1
  6
CONTINUOUS
 10
14.5150
 11
13.4850
 20
0.8350
 21
0.8350
 30
0.0000
 31
0.0000
 62
2
  0
LINE
  8
1
  6
CONTINUOUS
 10
18.5150
 11
17.4850
 20
0.8350
 21
0.8350
 30
0.0000
 31
0.0000
 62
2
  0
LINE
  8
1
  6
CONTINUOUS
 10
22.5150
 11
21.4850
 20
0.8350
 21
0.8350
 30
0.0000
 31
0.0000
 62
2
  0
LINE
  8
1
  6
CONTINUOUS
 10
26.5150
 11
25.4850
 20
0.8350
 21
0.8350
 30
0.0000
 31
0.0000
 62
2
  0
LINE
  8
1
  6
CONTINUOUS
 10
6.5150
 11
5.4850
 20
0.2500
 21
0.2500
 30
0.0000
 31
0.0000
 62
2
  0
LINE
  8
1
  6
CONTINUOUS
 10
10.5150
 11
9.4850
 20
0.2500
 21
0.2500
 30
0.0000
 31
0.0000
 62
2
  0
LINE
  8
1
  6
CONTINUOUS
 10
14.5150
 11
13.4850
 20
0.2500
 21
0.2500
 30
0.0000
 31
0.0000
 62
2
  0
LINE
  8
1
  6
CONTINUOUS
 10
18.5150
 11
17.4850
 20
0.2500
 21
0.2500
 30
0.0000
 31
0.0000
 62
2
  0
LINE
  8
1
  6
CONTINUOUS
 10
22.5150
 11
21.4850
 20
0.2500
 21
0.2500
 30
0.0000
 31
0.0000
 62
2
  0
LINE
  8
1
  6
CONTINUOUS
 10
26.5150
 11
25.4850
 20
0.2500
 21
0.2500
 30
0.0000
 31
0.0000
 62
2
  0
LINE
  8
1
  6
CONTINUOUS
 10
5.4564
 11
5.4850
 20
3.7497
 21
3.7500
 30
0.0000
 31
0.0000
 62
2
  0
LINE
  8
1
  6
CONTINUOUS
 10
9.4564
 11
9.4850
 20
3.7497
 21
3.7500
 30
0.0000
 31
0.0000
 62
2
  0
LINE
  8
1
  6
CONTINUOUS
 10
13.4564
 11
13.4850
 20
3.7497
 21
3.7500
 30
0.0000
 31
0.0000
 62
2
  0
LINE
  8
1
  6
CONTINUOUS
 10
17.4564
 11
17.4850
 20
3.7497
 21
3.7500
 30
0.0000
 31
0.0000
 62
2
  0
LINE
  8
1
  6
CONTINUOUS
 10
21.4564
 11
21.4850
 20
3.7497
 21
3.7500
 30
0.0000
 31
0.0000
 62
2
  0
LINE
  8
1
  6
CONTINUOUS
 10
25.4564
 11
25.4850
 20
3.7497
 21
3.7500
 30
0.0000
 31
0.0000
 62
2
  0
LINE
  8
1
  6
CONTINUOUS
 10
5.4850
 11
6.5150
 20
3.7500
 21
3.7500
 30
0.0000
 31
0.0000
 62
2
  0
LINE
  8
1
  6
CONTINUOUS
 10
9.4850
 11
10.5150
 20
3.7500
 21
3.7500
 30
0.0000
 31
0.0000
 62
2
  0
LINE
  8
1
  6
CONTINUOUS
 10
13.4850
 11
14.5150
 20
3.7500
 21
3.7500
 30
0.0000
 31
0.0000
 62
2
  0
LINE
  8
1
  6
CONTINUOUS
 10
17.4850
 11
18.5150
 20
3.7500
 21
3.7500
 30
0.0000
 31
0.0000
 62
2
  0
LINE
  8
1
  6
CONTINUOUS
 10
21.4850
 11
22.5150
 20
3.7500
 21
3.7500
 30
0.0000
 31
0.0000
 62
2
  0
LINE
  8
1
  6
CONTINUOUS
 10
25.4850
 11
26.5150
 20
3.7500
 21
3.7500
 30
0.0000
 31
0.0000
 62
2
  0
LINE
  8
1
  6
CONTINUOUS
 10
6.5150
 11
5.4850
 20
1.0950
 21
1.0950
 30
0.0000
 31
0.0000
 62
2
  0
LINE
  8
1
  6
CONTINUOUS
 10
10.5150
 11
9.4850
 20
1.0950
 21
1.0950
 30
0.0000
 31
0.0000
 62
2
  0
LINE
  8
1
  6
CONTINUOUS
 10
14.5150
 11
13.4850
 20
1.0950
 21
1.0950
 30
0.0000
 31
0.0000
 62
2
  0
LINE
  8
1
  6
CONTINUOUS
 10
18.5150
 11
17.4850
 20
1.0950
 21
1.0950
 30
0.0000
 31
0.0000
 62
2
  0
LINE
  8
1
  6
CONTINUOUS
 10
22.5150
 11
21.4850
 20
1.0950
 21
1.0950
 30
0.0000
 31
0.0000
 62
2
  0
LINE
  8
1
  6
CONTINUOUS
 10
26.5150
 11
25.4850
 20
1.0950
 21
1.0950
 30
0.0000
 31
0.0000
 62
2
  0
LINE
  8
1
  6
CONTINUOUS
 10
7.1650
 11
7.1650
 20
2.5150
 21
2.0000
 30
0.0000
 31
0.0000
 62
2
  0
LINE
  8
1
  6
CONTINUOUS
 10
11.1650
 11
11.1650
 20
2.5150
 21
2.0000
 30
0.0000
 31
0.0000
 62
2
  0
LINE
  8
1
  6
CONTINUOUS
 10
15.1650
 11
15.1650
 20
2.5150
 21
2.0000
 30
0.0000
 31
0.0000
 62
2
  0
LINE
  8
1
  6
CONTINUOUS
 10
19.1650
 11
19.1650
 20
2.5150
 21
2.0000
 30
0.0000
 31
0.0000
 62
2
  0
LINE
  8
1
  6
CONTINUOUS
 10
23.1650
 11
23.1650
 20
2.5150
 21
2.0000
 30
0.0000
 31
0.0000
 62
2
  0
LINE
  8
1
  6
CONTINUOUS
 10
27.1650
 11
27.1650
 20
2.5150
 21
2.0000
 30
0.0000
 31
0.0000
 62
2
  0
LINE
  8
1
  6
CONTINUOUS
 10
5.4850
 11
6.5150
 20
3.1650
 21
3.1650
 30
0.0000
 31
0.0000
 62
2
  0
LINE
  8
1
  6
CONTINUOUS
 10
9.4850
 11
10.5150
 20
3.1650
 21
3.1650
 30
0.0000
 31
0.0000
 62
2
  0
LINE
  8
1
  6
CONTINUOUS
 10
13.4850
 11
14.5150
 20
3.1650
 21
3.1650
 30
0.0000
 31
0.0000
 62
2
  0
LINE
  8
1
  6
CONTINUOUS
 10
17.4850
 11
18.5150
 20
3.1650
 21
3.1650
 30
0.0000
 31
0.0000
 62
2
  0
LINE
  8
1
  6
CONTINUOUS
 10
21.4850
 11
22.5150
 20
3.1650
 21
3.1650
 30
0.0000
 31
0.0000
 62
2
  0
LINE
  8
1
  6
CONTINUOUS
 10
25.4850
 11
26.5150
 20
3.1650
 21
3.1650
 30
0.0000
 31
0.0000
 62
2
  0
LINE
  8
1
  6
CONTINUOUS
 10
4.2500
 11
4.2500
 20
2.0000
 21
2.5150
 30
0.0000
 31
0.0000
 62
2
  0
LINE
  8
1
  6
CONTINUOUS
 10
8.2500
 11
8.2500
 20
2.0000
 21
2.5150
 30
0.0000
 31
0.0000
 62
2
  0
LINE
  8
1
  6
CONTINUOUS
 10
12.2500
 11
12.2500
 20
2.0000
 21
2.5150
 30
0.0000
 31
0.0000
 62
2
  0
LINE
  8
1
  6
CONTINUOUS
 10
16.2500
 11
16.2500
 20
2.0000
 21
2.5150
 30
0.0000
 31
0.0000
 62
2
  0
LINE
  8
1
  6
CONTINUOUS
 10
20.2500
 11
20.2500
 20
2.0000
 21
2.5150
 30
0.0000
 31
0.0000
 62
2
  0
LINE
  8
1
  6
CONTINUOUS
 10
24.2500
 11
24.2500
 20
2.0000
 21
2.5150
 30
0.0000
 31
0.0000
 62
2
  0
LINE
  8
1
  6
CONTINUOUS
 10
4.8350
 11
4.8350
 20
2.0000
 21
2.5150
 30
0.0000
 31
0.0000
 62
2
  0
LINE
  8
1
  6
CONTINUOUS
 10
8.8350
 11
8.8350
 20
2.0000
 21
2.5150
 30
0.0000
 31
0.0000
 62
2
  0
LINE
  8
1
  6
CONTINUOUS
 10
12.8350
 11
12.8350
 20
2.0000
 21
2.5150
 30
0.0000
 31
0.0000
 62
2
  0
LINE
  8
1
  6
CONTINUOUS
 10
16.8350
 11
16.8350
 20
2.0000
 21
2.5150
 30
0.0000
 31
0.0000
 62
2
  0
LINE
  8
1
  6
CONTINUOUS
 10
20.8350
 11
20.8350
 20
2.0000
 21
2.5150
 30
0.0000
 31
0.0000
 62
2
  0
LINE
  8
1
  6
CONTINUOUS
 10
24.8350
 11
24.8350
 20
2.0000
 21
2.5150
 30
0.0000
 31
0.0000
 62
2
  0
LINE
  8
1
  6
CONTINUOUS
 10
4.2503
 11
4.2500
 20
1.4564
 21
1.4850
 30
0.0000
 31
0.0000
 62
2
  0
LINE
  8
1
  6
CONTINUOUS
 10
8.2503
 11
8.2500
 20
1.4564
 21
1.4850
 30
0.0000
 31
0.0000
 62
2
  0
LINE
  8
1
  6
CONTINUOUS
 10
12.2503
 11
12.2500
 20
1.4564
 21
1.4850
 30
0.0000
 31
0.0000
 62
2
  0
LINE
  8
1
  6
CONTINUOUS
 10
16.2503
 11
16.2500
 20
1.4564
 21
1.4850
 30
0.0000
 31
0.0000
 62
2
  0
LINE
  8
1
  6
CONTINUOUS
 10
20.2503
 11
20.2500
 20
1.4564
 21
1.4850
 30
0.0000
 31
0.0000
 62
2
  0
LINE
  8
1
  6
CONTINUOUS
 10
24.2503
 11
24.2500
 20
1.4564
 21
1.4850
 30
0.0000
 31
0.0000
 62
2
  0
LINE
  8
1
  6
CONTINUOUS
 10
4.2500
 11
4.2500
 20
1.4850
 21
2.0000
 30
0.0000
 31
0.0000
 62
2
  0
LINE
  8
1
  6
CONTINUOUS
 10
8.2500
 11
8.2500
 20
1.4850
 21
2.0000
 30
0.0000
 31
0.0000
 62
2
  0
LINE
  8
1
  6
CONTINUOUS
 10
12.2500
 11
12.2500
 20
1.4850
 21
2.0000
 30
0.0000
 31
0.0000
 62
2
  0
LINE
  8
1
  6
CONTINUOUS
 10
16.2500
 11
16.2500
 20
1.4850
 21
2.0000
 30
0.0000
 31
0.0000
 62
2
  0
LINE
  8
1
  6
CONTINUOUS
 10
20.2500
 11
20.2500
 20
1.4850
 21
2.0000
 30
0.0000
 31
0.0000
 62
2
  0
LINE
  8
1
  6
CONTINUOUS
 10
24.2500
 11
24.2500
 20
1.4850
 21
2.0000
 30
0.0000
 31
0.0000
 62
2
  0
LINE
  8
1
  6
CONTINUOUS
 10
7.7500
 11
7.7500
 20
2.5150
 21
2.0000
 30
0.0000
 31
0.0000
 62
2
  0
LINE
  8
1
  6
CONTINUOUS
 10
11.7500
 11
11.7500
 20
2.5150
 21
2.0000
 30
0.0000
 31
0.0000
 62
2
  0
LINE
  8
1
  6
CONTINUOUS
 10
15.7500
 11
15.7500
 20
2.5150
 21
2.0000
 30
0.0000
 31
0.0000
 62
2
  0
LINE
  8
1
  6
CONTINUOUS
 10
19.7500
 11
19.7500
 20
2.5150
 21
2.0000
 30
0.0000
 31
0.0000
 62
2
  0
LINE
  8
1
  6
CONTINUOUS
 10
23.7500
 11
23.7500
 20
2.5150
 21
2.0000
 30
0.0000
 31
0.0000
 62
2
  0
LINE
  8
1
  6
CONTINUOUS
 10
27.7500
 11
27.7500
 20
2.5150
 21
2.0000
 30
0.0000
 31
0.0000
 62
2
  0
LINE
  8
1
  6
CONTINUOUS
 10
5.0950
 11
5.0950
 20
2.0000
 21
2.5150
 30
0.0000
 31
0.0000
 62
2
  0
LINE
  8
1
  6
CONTINUOUS
 10
9.0950
 11
9.0950
 20
2.0000
 21
2.5150
 30
0.0000
 31
0.0000
 62
2
  0
LINE
  8
1
  6
CONTINUOUS
 10
13.0950
 11
13.0950
 20
2.0000
 21
2.5150
 30
0.0000
 31
0.0000
 62
2
  0
LINE
  8
1
  6
CONTINUOUS
 10
17.0950
 11
17.0950
 20
2.0000
 21
2.5150
 30
0.0000
 31
0.0000
 62
2
  0
LINE
  8
1
  6
CONTINUOUS
 10
21.0950
 11
21.0950
 20
2.0000
 21
2.5150
 30
0.0000
 31
0.0000
 62
2
  0
LINE
  8
1
  6
CONTINUOUS
 10
25.0950
 11
25.0950
 20
2.0000
 21
2.5150
 30
0.0000
 31
0.0000
 62
2
  0
LINE
  8
1
  6
CONTINUOUS
 10
3.7200
 11
6.8750
 20
1.9700
 21
2.0300
 30
0.0000
 31
0.0000
 62
3
  0
LINE
  8
1
  6
CONTINUOUS
 10
7.7200
 11
10.8750
 20
1.9700
 21
2.0300
 30
0.0000
 31
0.0000
 62
3
  0
LINE
  8
1
  6
CONTINUOUS
 10
11.7200
 11
14.8750
 20
1.9700
 21
2.0300
 30
0.0000
 31
0.0000
 62
3
  0
LINE
  8
1
  6
CONTINUOUS
 10
15.7200
 11
18.8750
 20
1.9700
 21
2.0300
 30
0.0000
 31
0.0000
 62
3
  0
LINE
  8
1
  6
CONTINUOUS
 10
19.7200
 11
22.8750
 20
1.9700
 21
2.0300
 30
0.0000
 31
0.0000
 62
3
  0
LINE
  8
1
  6
CONTINUOUS
 10
23.7200
 11
26.8750
 20
1.9700
 21
2.0300
 30
0.0000
 31
0.0000
 62
3
  0
ARC
  8
1
  6
CONTINUOUS
 10
2.5117
 20
1.4850
 30
0.0000
 40
0.3933
 50
346.9362
 51
360.0000
 62
2
  0
ARC
  8
1
  6
CONTINUOUS
 10
2.5175
 20
1.4841
 30
0.0000
 40
0.3874
 50
333.6677
 51
346.8696
 62
2
  0
ARC
  8
1
  6
CONTINUOUS
 10
2.5158
 20
1.4849
 30
0.0000
 40
0.3893
 50
320.5718
 51
333.6770
 62
2
  0
ARC
  8
1
  6
CONTINUOUS
 10
2.5134
 20
1.4866
 30
0.0000
 40
0.3923
 50
307.4747
 51
320.5990
 62
2
  0
ARC
  8
1
  6
CONTINUOUS
 10
2.5140
 20
1.4860
 30
0.0000
 40
0.3914
 50
294.4003
 51
307.4556
 62
2
  0
ARC
  8
1
  6
CONTINUOUS
 10
2.5156
 20
1.4833
 30
0.0000
 40
0.3883
 50
281.3081
 51
294.3453
 62
2
  0
ARC
  8
1
  6
CONTINUOUS
 10
2.5150
 20
1.4889
 30
0.0000
 40
0.3939
 50
270.0004
 51
281.2389
 62
2
  0
ARC
  8
1
  6
CONTINUOUS
 10
1.4850
 20
1.4883
 30
0.0000
 40
0.3933
 50
256.9362
 51
269.9999
 62
2
  0
ARC
  8
1
  6
CONTINUOUS
 10
1.4841
 20
1.4824
 30
0.0000
 40
0.3874
 50
243.6662
 51
256.8711
 62
2
  0
ARC
  8
1
  6
CONTINUOUS
 10
1.4850
 20
1.4844
 30
0.0000
 40
0.3896
 50
230.5755
 51
243.6732
 62
2
  0
ARC
  8
1
  6
CONTINUOUS
 10
1.4866
 20
1.4866
 30
0.0000
 40
0.3923
 50
217.4742
 51
230.5991
 62
2
  0
ARC
  8
1
  6
CONTINUOUS
 10
1.4853
 20
1.4856
 30
0.0000
 40
0.3906
 50
204.3869
 51
217.4692
 62
2
  0
ARC
  8
1
  6
CONTINUOUS
 10
1.4823
 20
1.4841
 30
0.0000
 40
0.3873
 50
191.2902
 51
204.3631
 62
2
  0
ARC
  8
1
  6
CONTINUOUS
 10
1.4886
 20
1.4850
 30
0.0000
 40
0.3936
 50
180.0000
 51
191.2427
 62
2
  0
ARC
  8
1
  6
CONTINUOUS
 10
1.4881
 20
2.5150
 30
0.0000
 40
0.3931
 50
166.9328
 51
180.0000
 62
2
  0
ARC
  8
1
  6
CONTINUOUS
 10
1.4821
 20
2.5160
 30
0.0000
 40
0.3870
 50
153.6601
 51
166.8774
 62
2
  0
ARC
  8
1
  6
CONTINUOUS
 10
1.4848
 20
2.5147
 30
0.0000
 40
0.3900
 50
140.5829
 51
153.6655
 62
2
  0
ARC
  8
1
  6
CONTINUOUS
 10
1.4866
 20
2.5134
 30
0.0000
 40
0.3923
 50
127.4737
 51
140.5992
 62
2
  0
ARC
  8
1
  6
CONTINUOUS
 10
1.4853
 20
2.5152
 30
0.0000
 40
0.3900
 50
114.3768
 51
127.4795
 62
2
  0
ARC
  8
1
  6
CONTINUOUS
 10
1.4839
 20
2.5181
 30
0.0000
 40
0.3868
 50
101.2823
 51
114.3709
 62
2
  0
ARC
  8
1
  6
CONTINUOUS
 10
1.4850
 20
2.5114
 30
0.0000
 40
0.3936
 50
89.9969
 51
101.2428
 62
2
  0
ARC
  8
1
  6
CONTINUOUS
 10
2.5150
 20
2.5119
 30
0.0000
 40
0.3931
 50
76.9328
 51
90.0034
 62
2
  0
ARC
  8
1
  6
CONTINUOUS
 10
2.5160
 20
2.5179
 30
0.0000
 40
0.3871
 50
63.6616
 51
76.8758
 62
2
  0
ARC
  8
1
  6
CONTINUOUS
 10
2.5149
 20
2.5154
 30
0.0000
 40
0.3898
 50
50.5792
 51
63.6694
 62
2
  0
ARC
  8
1
  6
CONTINUOUS
 10
2.5134
 20
2.5134
 30
0.0000
 40
0.3923
 50
37.4742
 51
50.5991
 62
2
  0
ARC
  8
1
  6
CONTINUOUS
 10
2.5145
 20
2.5143
 30
0.0000
 40
0.3908
 50
24.3902
 51
37.4660
 62
2
  0
ARC
  8
1
  6
CONTINUOUS
 10
2.5171
 20
2.5158
 30
0.0000
 40
0.3879
 50
11.3002
 51
24.3532
 62
2
  0
ARC
  8
1
  6
CONTINUOUS
 10
2.5111
 20
2.5150
 30
0.0000
 40
0.3939
 50
0.0000
 51
11.2389
 62
2
  0
ARC
  8
1
  6
CONTINUOUS
 10
2.5080
 20
1.4850
 30
0.0000
 40
0.6570
 50
349.8574
 51
0.0000
 62
2
  0
ARC
  8
1
  6
CONTINUOUS
 10
2.5193
 20
1.4835
 30
0.0000
 40
0.6456
 50
339.6005
 51
349.8161
 62
2
  0
ARC
  8
1
  6
CONTINUOUS
 10
2.5183
 20
1.4839
 30
0.0000
 40
0.6467
 50
329.3926
 51
339.5940
 62
2
  0
ARC
  8
1
  6
CONTINUOUS
 10
2.5154
 20
1.4853
 30
0.0000
 40
0.6499
 50
319.1772
 51
329.4127
 62
2
  0
ARC
  8
1
  6
CONTINUOUS
 10
2.5132
 20
1.4867
 30
0.0000
 40
0.6525
 50
309.0405
 51
319.2099
 62
2
  0
ARC
  8
1
  6
CONTINUOUS
 10
2.5134
 20
1.4864
 30
0.0000
 40
0.6521
 50
298.8370
 51
309.0485
 62
2
  0
ARC
  8
1
  6
CONTINUOUS
 10
2.5160
 20
1.4821
 30
0.0000
 40
0.6471
 50
288.6038
 51
298.8235
 62
2
  0
ARC
  8
1
  6
CONTINUOUS
 10
2.5165
 20
1.4807
 30
0.0000
 40
0.6457
 50
278.3331
 51
288.5915
 62
2
  0
ARC
  8
1
  6
CONTINUOUS
 10
2.5150
 20
1.4931
 30
0.0000
 40
0.6581
 50
270.0000
 51
278.3094
 62
2
  0
ARC
  8
1
  6
CONTINUOUS
 10
1.4850
 20
1.4920
 30
0.0000
 40
0.6570
 50
259.8573
 51
270.0004
 62
2
  0
ARC
  8
1
  6
CONTINUOUS
 10
1.4835
 20
1.4808
 30
0.0000
 40
0.6457
 50
249.6006
 51
259.8159
 62
2
  0
ARC
  8
1
  6
CONTINUOUS
 10
1.4839
 20
1.4816
 30
0.0000
 40
0.6466
 50
239.3920
 51
249.5946
 62
2
  0
ARC
  8
1
  6
CONTINUOUS
 10
1.4857
 20
1.4851
 30
0.0000
 40
0.6506
 50
229.1826
 51
239.4074
 62
2
  0
ARC
  8
1
  6
CONTINUOUS
 10
1.4874
 20
1.4874
 30
0.0000
 40
0.6534
 50
219.0472
 51
229.2026
 62
2
  0
ARC
  8
1
  6
CONTINUOUS
 10
1.4862
 20
1.4865
 30
0.0000
 40
0.6519
 50
208.8356
 51
219.0499
 62
2
  0
ARC
  8
1
  6
CONTINUOUS
 10
1.4820
 20
1.4840
 30
0.0000
 40
0.6471
 50
198.6038
 51
208.8238
 62
2
  0
ARC
  8
1
  6
CONTINUOUS
 10
1.4805
 20
1.4834
 30
0.0000
 40
0.6454
 50
188.3307
 51
198.5938
 62
2
  0
ARC
  8
1
  6
CONTINUOUS
 10
1.4928
 20
1.4850
 30
0.0000
 40
0.6578
 50
180.0000
 51
188.3118
 62
2
  0
ARC
  8
1
  6
CONTINUOUS
 10
1.4917
 20
2.5150
 30
0.0000
 40
0.6567
 50
169.8556
 51
180.0000
 62
2
  0
ARC
  8
1
  6
CONTINUOUS
 10
1.4809
 20
2.5165
 30
0.0000
 40
0.6458
 50
159.6013
 51
169.8150
 62
2
  0
ARC
  8
1
  6
CONTINUOUS
 10
1.4814
 20
2.5162
 30
0.0000
 40
0.6464
 50
149.3905
 51
159.5963
 62
2
  0
ARC
  8
1
  6
CONTINUOUS
 10
1.4861
 20
2.5136
 30
0.0000
 40
0.6517
 50
139.1916
 51
149.3985
 62
2
  0
ARC
  8
1
  6
CONTINUOUS
 10
1.4881
 20
2.5119
 30
0.0000
 40
0.6544
 50
129.0551
 51
139.1942
 62
2
  0
ARC
  8
1
  6
CONTINUOUS
 10
1.4864
 20
2.5139
 30
0.0000
 40
0.6518
 50
118.8344
 51
129.0511
 62
2
  0
ARC
  8
1
  6
CONTINUOUS
 10
1.4840
 20
2.5180
 30
0.0000
 40
0.6470
 50
108.6038
 51
118.8239
 62
2
  0
ARC
  8
1
  6
CONTINUOUS
 10
1.4834
 20
2.5196
 30
0.0000
 40
0.6453
 50
98.3299
 51
108.5945
 62
2
  0
ARC
  8
1
  6
CONTINUOUS
 10
1.4850
 20
2.5072
 30
0.0000
 40
0.6578
 50
89.9978
 51
98.3118
 62
2
  0
ARC
  8
1
  6
CONTINUOUS
 10
2.5150
 20
2.5083
 30
0.0000
 40
0.6567
 50
79.8556
 51
90.0024
 62
2
  0
ARC
  8
1
  6
CONTINUOUS
 10
2.5165
 20
2.5192
 30
0.0000
 40
0.6457
 50
69.6012
 51
79.8151
 62
2
  0
ARC
  8
1
  6
CONTINUOUS
 10
2.5162
 20
2.5185
 30
0.0000
 40
0.6465
 50
59.3911
 51
69.5957
 62
2
  0
ARC
  8
1
  6
CONTINUOUS
 10
2.5140
 20
2.5145
 30
0.0000
 40
0.6510
 50
49.1862
 51
59.4038
 62
2
  0
ARC
  8
1
  6
CONTINUOUS
 10
2.5125
 20
2.5125
 30
0.0000
 40
0.6535
 50
39.0483
 51
49.2015
 62
2
  0
ARC
  8
1
  6
CONTINUOUS
 10
2.5137
 20
2.5135
 30
0.0000
 40
0.6520
 50
28.8358
 51
39.0497
 62
2
  0
ARC
  8
1
  6
CONTINUOUS
 10
2.5180
 20
2.5160
 30
0.0000
 40
0.6471
 50
18.6038
 51
28.8236
 62
2
  0
ARC
  8
1
  6
CONTINUOUS
 10
2.5193
 20
2.5166
 30
0.0000
 40
0.6456
 50
8.3323
 51
18.5922
 62
2
  0
ARC
  8
1
  6
CONTINUOUS
 10
2.5069
 20
2.5150
 30
0.0000
 40
0.6581
 50
360.0000
 51
8.3094
 62
2
  0
ARC
  8
1
  6
CONTINUOUS
 10
2.4986
 20
1.4850
 30
0.0000
 40
1.2514
 50
352.6083
 51
0.0000
 62
2
  0
ARC
  8
1
  6
CONTINUOUS
 10
2.5191
 20
1.4829
 30
0.0000
 40
1.2308
 50
345.2374
 51
352.5831
 62
2
  0
ARC
  8
1
  6
CONTINUOUS
 10
2.5260
 20
1.4811
 30
0.0000
 40
1.2237
 50
337.7866
 51
345.2345
 62
2
  0
ARC
  8
1
  6
CONTINUOUS
 10
2.5210
 20
1.4830
 30
0.0000
 40
1.2290
 50
330.4607
 51
337.7922
 62
2
  0
ARC
  8
1
  6
CONTINUOUS
 10
2.5154
 20
1.4861
 30
0.0000
 40
1.2354
 50
323.0484
 51
330.4669
 62
2
  0
ARC
  8
1
  6
CONTINUOUS
 10
2.5107
 20
1.4894
 30
0.0000
 40
1.2412
 50
315.6967
 51
323.0551
 62
2
  0
ARC
  8
1
  6
CONTINUOUS
 10
2.5095
 20
1.4906
 30
0.0000
 40
1.2429
 50
308.3517
 51
315.6980
 62
2
  0
ARC
  8
1
  6
CONTINUOUS
 10
2.5119
 20
1.4876
 30
0.0000
 40
1.2390
 50
300.9584
 51
308.3486
 62
2
  0
ARC
  8
1
  6
CONTINUOUS
 10
2.5146
 20
1.4836
 30
0.0000
 40
1.2342
 50
293.4783
 51
300.9454
 62
2
  0
ARC
  8
1
  6
CONTINUOUS
 10
2.5182
 20
1.4759
 30
0.0000
 40
1.2257
 50
286.0486
 51
293.4673
 62
2
  0
ARC
  8
1
  6
CONTINUOUS
 10
2.5182
 20
1.4757
 30
0.0000
 40
1.2254
 50
278.6995
 51
286.0526
 62
2
  0
ARC
  8
1
  6
CONTINUOUS
 10
2.5160
 20
1.4888
 30
0.0000
 40
1.2388
 50
271.2772
 51
278.7106
 62
2
  0
ARC
  8
1
  6
CONTINUOUS
 10
1.4850
 20
1.5013
 30
0.0000
 40
1.2513
 50
262.6082
 51
270.0005
 62
2
  0
ARC
  8
1
  6
CONTINUOUS
 10
1.4829
 20
1.4809
 30
0.0000
 40
1.2308
 50
255.2374
 51
262.5830
 62
2
  0
ARC
  8
1
  6
CONTINUOUS
 10
1.4813
 20
1.4744
 30
0.0000
 40
1.2241
 50
247.7877
 51
255.2331
 62
2
  0
ARC
  8
1
  6
CONTINUOUS
 10
1.4830
 20
1.4789
 30
0.0000
 40
1.2290
 50
240.4606
 51
247.7923
 62
2
  0
ARC
  8
1
  6
CONTINUOUS
 10
1.4861
 20
1.4847
 30
0.0000
 40
1.2355
 50
233.0487
 51
240.4666
 62
2
  0
ARC
  8
1
  6
CONTINUOUS
 10
1.4894
 20
1.4893
 30
0.0000
 40
1.2412
 50
225.6968
 51
233.0551
 62
2
  0
ARC
  8
1
  6
CONTINUOUS
 10
1.4904
 20
1.4904
 30
0.0000
 40
1.2426
 50
218.3513
 51
225.6990
 62
2
  0
ARC
  8
1
  6
CONTINUOUS
 10
1.4875
 20
1.4880
 30
0.0000
 40
1.2389
 50
210.9579
 51
218.3490
 62
2
  0
ARC
  8
1
  6
CONTINUOUS
 10
1.4822
 20
1.4847
 30
0.0000
 40
1.2326
 50
203.4739
 51
210.9503
 62
2
  0
ARC
  8
1
  6
CONTINUOUS
 10
1.4764
 20
1.4819
 30
0.0000
 40
1.2262
 50
196.0506
 51
203.4661
 62
2
  0
ARC
  8
1
  6
CONTINUOUS
 10
1.4768
 20
1.4820
 30
0.0000
 40
1.2267
 50
188.7030
 51
196.0489
 62
2
  0
ARC
  8
1
  6
CONTINUOUS
 10
1.4892
 20
1.4841
 30
0.0000
 40
1.2392
 50
181.2782
 51
188.7096
 62
2
  0
ARC
  8
1
  6
CONTINUOUS
 10
1.5010
 20
2.5150
 30
0.0000
 40
1.2510
 50
172.6070
 51
180.0000
 62
2
  0
ARC
  8
1
  6
CONTINUOUS
 10
1.4809
 20
2.5171
 30
0.0000
 40
1.2308
 50
165.2377
 51
172.5830
 62
2
  0
ARC
  8
1
  6
CONTINUOUS
 10
1.4759
 20
2.5182
 30
0.0000
 40
1.2257
 50
157.7922
 51
165.2280
 62
2
  0
ARC
  8
1
  6
CONTINUOUS
 10
1.4788
 20
2.5170
 30
0.0000
 40
1.2288
 50
150.4602
 51
157.7926
 62
2
  0
ARC
  8
1
  6
CONTINUOUS
 10
1.4849
 20
2.5138
 30
0.0000
 40
1.2357
 50
143.0490
 51
150.4659
 62
2
  0
ARC
  8
1
  6
CONTINUOUS
 10
1.4893
 20
2.5106
 30
0.0000
 40
1.2412
 50
135.6966
 51
143.0549
 62
2
  0
ARC
  8
1
  6
CONTINUOUS
 10
1.4902
 20
2.5098
 30
0.0000
 40
1.2424
 50
128.3505
 51
135.6996
 62
2
  0
ARC
  8
1
  6
CONTINUOUS
 10
1.4879
 20
2.5126
 30
0.0000
 40
1.2388
 50
120.9572
 51
128.3490
 62
2
  0
ARC
  8
1
  6
CONTINUOUS
 10
1.4842
 20
2.5186
 30
0.0000
 40
1.2317
 50
113.4711
 51
120.9529
 62
2
  0
ARC
  8
1
  6
CONTINUOUS
 10
1.4820
 20
2.5234
 30
0.0000
 40
1.2264
 50
106.0513
 51
113.4654
 62
2
  0
ARC
  8
1
  6
CONTINUOUS
 10
1.4821
 20
2.5228
 30
0.0000
 40
1.2270
 50
98.7040
 51
106.0478
 62
2
  0
ARC
  8
1
  6
CONTINUOUS
 10
1.4841
 20
2.5108
 30
0.0000
 40
1.2392
 50
91.2785
 51
98.7094
 62
2
  0
ARC
  8
1
  6
CONTINUOUS
 10
2.5150
 20
2.4990
 30
0.0000
 40
1.2510
 50
82.6071
 51
90.0016
 62
2
  0
ARC
  8
1
  6
CONTINUOUS
 10
2.5171
 20
2.5191
 30
0.0000
 40
1.2308
 50
75.2377
 51
82.5831
 62
2
  0
ARC
  8
1
  6
CONTINUOUS
 10
2.5184
 20
2.5245
 30
0.0000
 40
1.2252
 50
67.7911
 51
75.2295
 62
2
  0
ARC
  8
1
  6
CONTINUOUS
 10
2.5170
 20
2.5211
 30
0.0000
 40
1.2289
 50
60.4605
 51
67.7926
 62
2
  0
ARC
  8
1
  6
CONTINUOUS
 10
2.5138
 20
2.5152
 30
0.0000
 40
1.2356
 50
53.0488
 51
60.4663
 62
2
  0
ARC
  8
1
  6
CONTINUOUS
 10
2.5106
 20
2.5107
 30
0.0000
 40
1.2412
 50
45.6967
 51
53.0551
 62
2
  0
ARC
  8
1
  6
CONTINUOUS
 10
2.5096
 20
2.5096
 30
0.0000
 40
1.2426
 50
38.3511
 51
45.6989
 62
2
  0
ARC
  8
1
  6
CONTINUOUS
 10
2.5125
 20
2.5120
 30
0.0000
 40
1.2389
 50
30.9579
 51
38.3488
 62
2
  0
ARC
  8
1
  6
CONTINUOUS
 10
2.5172
 20
2.5151
 30
0.0000
 40
1.2333
 50
23.4756
 51
30.9482
 62
2
  0
ARC
  8
1
  6
CONTINUOUS
 10
2.5239
 20
2.5182
 30
0.0000
 40
1.2259
 50
16.0494
 51
23.4667
 62
2
  0
ARC
  8
1
  6
CONTINUOUS
 10
2.5240
 20
2.5181
 30
0.0000
 40
1.2258
 50
8.7005
 51
16.0515
 62
2
  0
ARC
  8
1
  6
CONTINUOUS
 10
2.5111
 20
2.5160
 30
0.0000
 40
1.2389
 50
1.2775
 51
8.7104
 62
2
  0
ARC
  8
1
  6
CONTINUOUS
 10
2.8750
 20
2.0000
 30
0.0000
 40
0.0300
 50
0.0000
 51
90.0000
 62
2
  0
ARC
  8
1
  6
CONTINUOUS
 10
2.8750
 20
2.0000
 30
0.0000
 40
0.0300
 50
270.0000
 51
0.0000
 62
2
  0
ARC
  8
1
  6
CONTINUOUS
 10
3.1950
 20
2.0000
 30
0.0000
 40
0.0300
 50
180.0000
 51
270.0000
 62
2
  0
ARC
  8
1
  6
CONTINUOUS
 10
3.1950
 20
2.0000
 30
0.0000
 40
0.0300
 50
90.0000
 51
180.0000
 62
2
  0
ARC
  8
1
  6
CONTINUOUS
 10
3.7200
 20
2.0000
 30
0.0000
 40
0.0300
 50
0.0000
 51
90.0000
 62
2
  0
ARC
  8
1
  6
CONTINUOUS
 10
3.7200
 20
2.0000
 30
0.0000
 40
0.0300
 50
270.0000
 51
0.0000
 62
2
  0
ARC
  8
1
  6
CONTINUOUS
 10
7.1950
 20
2.0000
 30
0.0000
 40
0.0300
 50
90.0000
 51
180.0000
 62
2
  0
ARC
  8
1
  6
CONTINUOUS
 10
11.1950
 20
2.0000
 30
0.0000
 40
0.0300
 50
90.0000
 51
180.0000
 62
2
  0
ARC
  8
1
  6
CONTINUOUS
 10
15.1950
 20
2.0000
 30
0.0000
 40
0.0300
 50
90.0000
 51
180.0000
 62
2
  0
ARC
  8
1
  6
CONTINUOUS
 10
19.1950
 20
2.0000
 30
0.0000
 40
0.0300
 50
90.0000
 51
180.0000
 62
2
  0
ARC
  8
1
  6
CONTINUOUS
 10
23.1950
 20
2.0000
 30
0.0000
 40
0.0300
 50
90.0000
 51
180.0000
 62
2
  0
ARC
  8
1
  6
CONTINUOUS
 10
27.1950
 20
2.0000
 30
0.0000
 40
0.0300
 50
90.0000
 51
180.0000
 62
2
  0
ARC
  8
1
  6
CONTINUOUS
 10
6.5240
 20
2.5181
 30
0.0000
 40
1.2258
 50
8.7005
 51
16.0515
 62
2
  0
ARC
  8
1
  6
CONTINUOUS
 10
10.5240
 20
2.5181
 30
0.0000
 40
1.2258
 50
8.7005
 51
16.0515
 62
2
  0
ARC
  8
1
  6
CONTINUOUS
 10
14.5240
 20
2.5181
 30
0.0000
 40
1.2258
 50
8.7005
 51
16.0515
 62
2
  0
ARC
  8
1
  6
CONTINUOUS
 10
18.5240
 20
2.5181
 30
0.0000
 40
1.2258
 50
8.7005
 51
16.0515
 62
2
  0
ARC
  8
1
  6
CONTINUOUS
 10
22.5240
 20
2.5181
 30
0.0000
 40
1.2258
 50
8.7005
 51
16.0515
 62
2
  0
ARC
  8
1
  6
CONTINUOUS
 10
26.5240
 20
2.5181
 30
0.0000
 40
1.2258
 50
8.7005
 51
16.0515
 62
2
  0
ARC
  8
1
  6
CONTINUOUS
 10
7.7200
 20
2.0000
 30
0.0000
 40
0.0300
 50
270.0000
 51
0.0000
 62
2
  0
ARC
  8
1
  6
CONTINUOUS
 10
11.7200
 20
2.0000
 30
0.0000
 40
0.0300
 50
270.0000
 51
0.0000
 62
2
  0
ARC
  8
1
  6
CONTINUOUS
 10
15.7200
 20
2.0000
 30
0.0000
 40
0.0300
 50
270.0000
 51
0.0000
 62
2
  0
ARC
  8
1
  6
CONTINUOUS
 10
19.7200
 20
2.0000
 30
0.0000
 40
0.0300
 50
270.0000
 51
0.0000
 62
2
  0
ARC
  8
1
  6
CONTINUOUS
 10
23.7200
 20
2.0000
 30
0.0000
 40
0.0300
 50
270.0000
 51
0.0000
 62
2
  0
ARC
  8
1
  6
CONTINUOUS
 10
27.7200
 20
2.0000
 30
0.0000
 40
0.0300
 50
270.0000
 51
0.0000
 62
2
  0
ARC
  8
1
  6
CONTINUOUS
 10
7.7200
 20
2.0000
 30
0.0000
 40
0.0300
 50
0.0000
 51
90.0000
 62
2
  0
ARC
  8
1
  6
CONTINUOUS
 10
11.7200
 20
2.0000
 30
0.0000
 40
0.0300
 50
0.0000
 51
90.0000
 62
2
  0
ARC
  8
1
  6
CONTINUOUS
 10
15.7200
 20
2.0000
 30
0.0000
 40
0.0300
 50
0.0000
 51
90.0000
 62
2
  0
ARC
  8
1
  6
CONTINUOUS
 10
19.7200
 20
2.0000
 30
0.0000
 40
0.0300
 50
0.0000
 51
90.0000
 62
2
  0
ARC
  8
1
  6
CONTINUOUS
 10
23.7200
 20
2.0000
 30
0.0000
 40
0.0300
 50
0.0000
 51
90.0000
 62
2
  0
ARC
  8
1
  6
CONTINUOUS
 10
27.7200
 20
2.0000
 30
0.0000
 40
0.0300
 50
0.0000
 51
90.0000
 62
2
  0
ARC
  8
1
  6
CONTINUOUS
 10
6.8750
 20
2.0000
 30
0.0000
 40
0.0300
 50
270.0000
 51
0.0000
 62
2
  0
ARC
  8
1
  6
CONTINUOUS
 10
10.8750
 20
2.0000
 30
0.0000
 40
0.0300
 50
270.0000
 51
0.0000
 62
2
  0
ARC
  8
1
  6
CONTINUOUS
 10
14.8750
 20
2.0000
 30
0.0000
 40
0.0300
 50
270.0000
 51
0.0000
 62
2
  0
ARC
  8
1
  6
CONTINUOUS
 10
18.8750
 20
2.0000
 30
0.0000
 40
0.0300
 50
270.0000
 51
0.0000
 62
2
  0
ARC
  8
1
  6
CONTINUOUS
 10
22.8750
 20
2.0000
 30
0.0000
 40
0.0300
 50
270.0000
 51
0.0000
 62
2
  0
ARC
  8
1
  6
CONTINUOUS
 10
26.8750
 20
2.0000
 30
0.0000
 40
0.0300
 50
270.0000
 51
0.0000
 62
2
  0
ARC
  8
1
  6
CONTINUOUS
 10
6.8750
 20
2.0000
 30
0.0000
 40
0.0300
 50
0.0000
 51
90.0000
 62
2
  0
ARC
  8
1
  6
CONTINUOUS
 10
10.8750
 20
2.0000
 30
0.0000
 40
0.0300
 50
0.0000
 51
90.0000
 62
2
  0
ARC
  8
1
  6
CONTINUOUS
 10
14.8750
 20
2.0000
 30
0.0000
 40
0.0300
 50
0.0000
 51
90.0000
 62
2
  0
ARC
  8
1
  6
CONTINUOUS
 10
18.8750
 20
2.0000
 30
0.0000
 40
0.0300
 50
0.0000
 51
90.0000
 62
2
  0
ARC
  8
1
  6
CONTINUOUS
 10
22.8750
 20
2.0000
 30
0.0000
 40
0.0300
 50
0.0000
 51
90.0000
 62
2
  0
ARC
  8
1
  6
CONTINUOUS
 10
26.8750
 20
2.0000
 30
0.0000
 40
0.0300
 50
0.0000
 51
90.0000
 62
2
  0
ARC
  8
1
  6
CONTINUOUS
 10
7.1950
 20
2.0000
 30
0.0000
 40
0.0300
 50
180.0000
 51
270.0000
 62
2
  0
ARC
  8
1
  6
CONTINUOUS
 10
11.1950
 20
2.0000
 30
0.0000
 40
0.0300
 50
180.0000
 51
270.0000
 62
2
  0
ARC
  8
1
  6
CONTINUOUS
 10
15.1950
 20
2.0000
 30
0.0000
 40
0.0300
 50
180.0000
 51
270.0000
 62
2
  0
ARC
  8
1
  6
CONTINUOUS
 10
19.1950
 20
2.0000
 30
0.0000
 40
0.0300
 50
180.0000
 51
270.0000
 62
2
  0
ARC
  8
1
  6
CONTINUOUS
 10
23.1950
 20
2.0000
 30
0.0000
 40
0.0300
 50
180.0000
 51
270.0000
 62
2
  0
ARC
  8
1
  6
CONTINUOUS
 10
27.1950
 20
2.0000
 30
0.0000
 40
0.0300
 50
180.0000
 51
270.0000
 62
2
  0
ARC
  8
1
  6
CONTINUOUS
 10
6.5096
 20
2.5096
 30
0.0000
 40
1.2426
 50
38.3511
 51
45.6989
 62
2
  0
ARC
  8
1
  6
CONTINUOUS
 10
10.5096
 20
2.5096
 30
0.0000
 40
1.2426
 50
38.3511
 51
45.6989
 62
2
  0
ARC
  8
1
  6
CONTINUOUS
 10
14.5096
 20
2.5096
 30
0.0000
 40
1.2426
 50
38.3511
 51
45.6989
 62
2
  0
ARC
  8
1
  6
CONTINUOUS
 10
18.5096
 20
2.5096
 30
0.0000
 40
1.2426
 50
38.3511
 51
45.6989
 62
2
  0
ARC
  8
1
  6
CONTINUOUS
 10
22.5096
 20
2.5096
 30
0.0000
 40
1.2426
 50
38.3511
 51
45.6989
 62
2
  0
ARC
  8
1
  6
CONTINUOUS
 10
26.5096
 20
2.5096
 30
0.0000
 40
1.2426
 50
38.3511
 51
45.6989
 62
2
  0
ARC
  8
1
  6
CONTINUOUS
 10
6.5106
 20
2.5107
 30
0.0000
 40
1.2412
 50
45.6967
 51
53.0551
 62
2
  0
ARC
  8
1
  6
CONTINUOUS
 10
10.5106
 20
2.5107
 30
0.0000
 40
1.2412
 50
45.6967
 51
53.0551
 62
2
  0
ARC
  8
1
  6
CONTINUOUS
 10
14.5106
 20
2.5107
 30
0.0000
 40
1.2412
 50
45.6967
 51
53.0551
 62
2
  0
ARC
  8
1
  6
CONTINUOUS
 10
18.5106
 20
2.5107
 30
0.0000
 40
1.2412
 50
45.6967
 51
53.0550
 62
2
  0
ARC
  8
1
  6
CONTINUOUS
 10
22.5106
 20
2.5107
 30
0.0000
 40
1.2412
 50
45.6967
 51
53.0550
 62
2
  0
ARC
  8
1
  6
CONTINUOUS
 10
26.5106
 20
2.5107
 30
0.0000
 40
1.2412
 50
45.6967
 51
53.0550
 62
2
  0
ARC
  8
1
  6
CONTINUOUS
 10
5.5010
 20
2.5150
 30
0.0000
 40
1.2510
 50
172.6070
 51
180.0000
 62
2
  0
ARC
  8
1
  6
CONTINUOUS
 10
9.5010
 20
2.5150
 30
0.0000
 40
1.2510
 50
172.6070
 51
180.0000
 62
2
  0
ARC
  8
1
  6
CONTINUOUS
 10
13.5010
 20
2.5150
 30
0.0000
 40
1.2510
 50
172.6070
 51
180.0000
 62
2
  0
ARC
  8
1
  6
CONTINUOUS
 10
17.5010
 20
2.5150
 30
0.0000
 40
1.2510
 50
172.6070
 51
180.0000
 62
2
  0
ARC
  8
1
  6
CONTINUOUS
 10
21.5010
 20
2.5150
 30
0.0000
 40
1.2510
 50
172.6070
 51
180.0000
 62
2
  0
ARC
  8
1
  6
CONTINUOUS
 10
25.5010
 20
2.5150
 30
0.0000
 40
1.2510
 50
172.6070
 51
180.0000
 62
2
  0
ARC
  8
1
  6
CONTINUOUS
 10
6.5125
 20
2.5120
 30
0.0000
 40
1.2389
 50
30.9579
 51
38.3488
 62
2
  0
ARC
  8
1
  6
CONTINUOUS
 10
10.5125
 20
2.5120
 30
0.0000
 40
1.2389
 50
30.9579
 51
38.3488
 62
2
  0
ARC
  8
1
  6
CONTINUOUS
 10
14.5125
 20
2.5120
 30
0.0000
 40
1.2389
 50
30.9579
 51
38.3488
 62
2
  0
ARC
  8
1
  6
CONTINUOUS
 10
18.5125
 20
2.5120
 30
0.0000
 40
1.2389
 50
30.9579
 51
38.3488
 62
2
  0
ARC
  8
1
  6
CONTINUOUS
 10
22.5125
 20
2.5120
 30
0.0000
 40
1.2389
 50
30.9579
 51
38.3488
 62
2
  0
ARC
  8
1
  6
CONTINUOUS
 10
26.5125
 20
2.5120
 30
0.0000
 40
1.2389
 50
30.9579
 51
38.3488
 62
2
  0
ARC
  8
1
  6
CONTINUOUS
 10
6.5111
 20
2.5160
 30
0.0000
 40
1.2389
 50
1.2772
 51
8.7104
 62
2
  0
ARC
  8
1
  6
CONTINUOUS
 10
10.5111
 20
2.5160
 30
0.0000
 40
1.2389
 50
1.2775
 51
8.7104
 62
2
  0
ARC
  8
1
  6
CONTINUOUS
 10
14.5111
 20
2.5160
 30
0.0000
 40
1.2389
 50
1.2775
 51
8.7104
 62
2
  0
ARC
  8
1
  6
CONTINUOUS
 10
18.5111
 20
2.5160
 30
0.0000
 40
1.2389
 50
1.2775
 51
8.7104
 62
2
  0
ARC
  8
1
  6
CONTINUOUS
 10
22.5111
 20
2.5160
 30
0.0000
 40
1.2389
 50
1.2775
 51
8.7104
 62
2
  0
ARC
  8
1
  6
CONTINUOUS
 10
26.5111
 20
2.5160
 30
0.0000
 40
1.2389
 50
1.2775
 51
8.7104
 62
2
  0
ARC
  8
1
  6
CONTINUOUS
 10
6.5170
 20
2.5211
 30
0.0000
 40
1.2289
 50
60.4605
 51
67.7926
 62
2
  0
ARC
  8
1
  6
CONTINUOUS
 10
10.5170
 20
2.5211
 30
0.0000
 40
1.2289
 50
60.4605
 51
67.7926
 62
2
  0
ARC
  8
1
  6
CONTINUOUS
 10
14.5170
 20
2.5211
 30
0.0000
 40
1.2289
 50
60.4605
 51
67.7926
 62
2
  0
ARC
  8
1
  6
CONTINUOUS
 10
18.5170
 20
2.5211
 30
0.0000
 40
1.2289
 50
60.4605
 51
67.7927
 62
2
  0
ARC
  8
1
  6
CONTINUOUS
 10
22.5170
 20
2.5211
 30
0.0000
 40
1.2289
 50
60.4605
 51
67.7927
 62
2
  0
ARC
  8
1
  6
CONTINUOUS
 10
26.5170
 20
2.5211
 30
0.0000
 40
1.2289
 50
60.4605
 51
67.7927
 62
2
  0
ARC
  8
1
  6
CONTINUOUS
 10
5.4893
 20
2.5106
 30
0.0000
 40
1.2412
 50
135.6966
 51
143.0549
 62
2
  0
ARC
  8
1
  6
CONTINUOUS
 10
9.4893
 20
2.5106
 30
0.0000
 40
1.2412
 50
135.6966
 51
143.0549
 62
2
  0
ARC
  8
1
  6
CONTINUOUS
 10
13.4893
 20
2.5106
 30
0.0000
 40
1.2412
 50
135.6966
 51
143.0549
 62
2
  0
ARC
  8
1
  6
CONTINUOUS
 10
17.4893
 20
2.5106
 30
0.0000
 40
1.2412
 50
135.6965
 51
143.0549
 62
2
  0
ARC
  8
1
  6
CONTINUOUS
 10
21.4893
 20
2.5106
 30
0.0000
 40
1.2412
 50
135.6965
 51
143.0549
 62
2
  0
ARC
  8
1
  6
CONTINUOUS
 10
25.4893
 20
2.5106
 30
0.0000
 40
1.2412
 50
135.6965
 51
143.0549
 62
2
  0
ARC
  8
1
  6
CONTINUOUS
 10
5.4849
 20
2.5138
 30
0.0000
 40
1.2357
 50
143.0490
 51
150.4659
 62
2
  0
ARC
  8
1
  6
CONTINUOUS
 10
9.4849
 20
2.5138
 30
0.0000
 40
1.2357
 50
143.0490
 51
150.4659
 62
2
  0
ARC
  8
1
  6
CONTINUOUS
 10
13.4849
 20
2.5138
 30
0.0000
 40
1.2357
 50
143.0490
 51
150.4659
 62
2
  0
ARC
  8
1
  6
CONTINUOUS
 10
17.4849
 20
2.5138
 30
0.0000
 40
1.2357
 50
143.0490
 51
150.4659
 62
2
  0
ARC
  8
1
  6
CONTINUOUS
 10
21.4849
 20
2.5138
 30
0.0000
 40
1.2357
 50
143.0490
 51
150.4659
 62
2
  0
ARC
  8
1
  6
CONTINUOUS
 10
25.4849
 20
2.5138
 30
0.0000
 40
1.2357
 50
143.0490
 51
150.4659
 62
2
  0
ARC
  8
1
  6
CONTINUOUS
 10
6.5172
 20
2.5151
 30
0.0000
 40
1.2333
 50
23.4756
 51
30.9482
 62
2
  0
ARC
  8
1
  6
CONTINUOUS
 10
10.5172
 20
2.5151
 30
0.0000
 40
1.2333
 50
23.4756
 51
30.9482
 62
2
  0
ARC
  8
1
  6
CONTINUOUS
 10
14.5172
 20
2.5151
 30
0.0000
 40
1.2333
 50
23.4756
 51
30.9482
 62
2
  0
ARC
  8
1
  6
CONTINUOUS
 10
18.5172
 20
2.5151
 30
0.0000
 40
1.2333
 50
23.4756
 51
30.9482
 62
2
  0
ARC
  8
1
  6
CONTINUOUS
 10
22.5172
 20
2.5151
 30
0.0000
 40
1.2333
 50
23.4756
 51
30.9482
 62
2
  0
ARC
  8
1
  6
CONTINUOUS
 10
26.5172
 20
2.5151
 30
0.0000
 40
1.2333
 50
23.4756
 51
30.9482
 62
2
  0
ARC
  8
1
  6
CONTINUOUS
 10
5.4788
 20
2.5170
 30
0.0000
 40
1.2288
 50
150.4602
 51
157.7926
 62
2
  0
ARC
  8
1
  6
CONTINUOUS
 10
9.4788
 20
2.5170
 30
0.0000
 40
1.2288
 50
150.4602
 51
157.7926
 62
2
  0
ARC
  8
1
  6
CONTINUOUS
 10
13.4788
 20
2.5170
 30
0.0000
 40
1.2288
 50
150.4602
 51
157.7926
 62
2
  0
ARC
  8
1
  6
CONTINUOUS
 10
17.4788
 20
2.5170
 30
0.0000
 40
1.2289
 50
150.4602
 51
157.7926
 62
2
  0
ARC
  8
1
  6
CONTINUOUS
 10
21.4788
 20
2.5170
 30
0.0000
 40
1.2289
 50
150.4602
 51
157.7926
 62
2
  0
ARC
  8
1
  6
CONTINUOUS
 10
25.4788
 20
2.5170
 30
0.0000
 40
1.2289
 50
150.4602
 51
157.7926
 62
2
  0
ARC
  8
1
  6
CONTINUOUS
 10
6.5138
 20
2.5152
 30
0.0000
 40
1.2356
 50
53.0489
 51
60.4663
 62
2
  0
ARC
  8
1
  6
CONTINUOUS
 10
10.5138
 20
2.5152
 30
0.0000
 40
1.2356
 50
53.0489
 51
60.4663
 62
2
  0
ARC
  8
1
  6
CONTINUOUS
 10
14.5138
 20
2.5152
 30
0.0000
 40
1.2356
 50
53.0489
 51
60.4663
 62
2
  0
ARC
  8
1
  6
CONTINUOUS
 10
18.5138
 20
2.5152
 30
0.0000
 40
1.2356
 50
53.0489
 51
60.4664
 62
2
  0
ARC
  8
1
  6
CONTINUOUS
 10
22.5138
 20
2.5152
 30
0.0000
 40
1.2356
 50
53.0489
 51
60.4664
 62
2
  0
ARC
  8
1
  6
CONTINUOUS
 10
26.5138
 20
2.5152
 30
0.0000
 40
1.2356
 50
53.0489
 51
60.4664
 62
2
  0
ARC
  8
1
  6
CONTINUOUS
 10
6.5171
 20
2.5191
 30
0.0000
 40
1.2308
 50
75.2377
 51
82.5830
 62
2
  0
ARC
  8
1
  6
CONTINUOUS
 10
10.5171
 20
2.5191
 30
0.0000
 40
1.2308
 50
75.2378
 51
82.5831
 62
2
  0
ARC
  8
1
  6
CONTINUOUS
 10
14.5171
 20
2.5191
 30
0.0000
 40
1.2308
 50
75.2378
 51
82.5831
 62
2
  0
ARC
  8
1
  6
CONTINUOUS
 10
18.5171
 20
2.5191
 30
0.0000
 40
1.2308
 50
75.2378
 51
82.5831
 62
2
  0
ARC
  8
1
  6
CONTINUOUS
 10
22.5171
 20
2.5191
 30
0.0000
 40
1.2308
 50
75.2378
 51
82.5831
 62
2
  0
ARC
  8
1
  6
CONTINUOUS
 10
26.5171
 20
2.5191
 30
0.0000
 40
1.2308
 50
75.2378
 51
82.5831
 62
2
  0
ARC
  8
1
  6
CONTINUOUS
 10
5.4820
 20
2.5234
 30
0.0000
 40
1.2264
 50
106.0513
 51
113.4654
 62
2
  0
ARC
  8
1
  6
CONTINUOUS
 10
9.4820
 20
2.5234
 30
0.0000
 40
1.2264
 50
106.0513
 51
113.4654
 62
2
  0
ARC
  8
1
  6
CONTINUOUS
 10
13.4820
 20
2.5234
 30
0.0000
 40
1.2264
 50
106.0513
 51
113.4654
 62
2
  0
ARC
  8
1
  6
CONTINUOUS
 10
17.4820
 20
2.5234
 30
0.0000
 40
1.2264
 50
106.0512
 51
113.4653
 62
2
  0
ARC
  8
1
  6
CONTINUOUS
 10
21.4820
 20
2.5234
 30
0.0000
 40
1.2264
 50
106.0512
 51
113.4653
 62
2
  0
ARC
  8
1
  6
CONTINUOUS
 10
25.4820
 20
2.5234
 30
0.0000
 40
1.2264
 50
106.0512
 51
113.4653
 62
2
  0
ARC
  8
1
  6
CONTINUOUS
 10
6.5184
 20
2.5245
 30
0.0000
 40
1.2252
 50
67.7911
 51
75.2295
 62
2
  0
ARC
  8
1
  6
CONTINUOUS
 10
10.5184
 20
2.5245
 30
0.0000
 40
1.2252
 50
67.7911
 51
75.2295
 62
2
  0
ARC
  8
1
  6
CONTINUOUS
 10
14.5184
 20
2.5245
 30
0.0000
 40
1.2252
 50
67.7911
 51
75.2295
 62
2
  0
ARC
  8
1
  6
CONTINUOUS
 10
18.5184
 20
2.5245
 30
0.0000
 40
1.2252
 50
67.7912
 51
75.2295
 62
2
  0
ARC
  8
1
  6
CONTINUOUS
 10
22.5184
 20
2.5245
 30
0.0000
 40
1.2252
 50
67.7912
 51
75.2295
 62
2
  0
ARC
  8
1
  6
CONTINUOUS
 10
26.5184
 20
2.5245
 30
0.0000
 40
1.2252
 50
67.7912
 51
75.2295
 62
2
  0
ARC
  8
1
  6
CONTINUOUS
 10
5.4841
 20
2.5108
 30
0.0000
 40
1.2392
 50
91.2785
 51
98.7094
 62
2
  0
ARC
  8
1
  6
CONTINUOUS
 10
9.4841
 20
2.5108
 30
0.0000
 40
1.2392
 50
91.2785
 51
98.7094
 62
2
  0
ARC
  8
1
  6
CONTINUOUS
 10
13.4841
 20
2.5108
 30
0.0000
 40
1.2392
 50
91.2785
 51
98.7094
 62
2
  0
ARC
  8
1
  6
CONTINUOUS
 10
17.4841
 20
2.5108
 30
0.0000
 40
1.2392
 50
91.2785
 51
98.7094
 62
2
  0
ARC
  8
1
  6
CONTINUOUS
 10
21.4841
 20
2.5108
 30
0.0000
 40
1.2392
 50
91.2785
 51
98.7094
 62
2
  0
ARC
  8
1
  6
CONTINUOUS
 10
25.4841
 20
2.5108
 30
0.0000
 40
1.2392
 50
91.2785
 51
98.7094
 62
2
  0
ARC
  8
1
  6
CONTINUOUS
 10
5.4821
 20
2.5228
 30
0.0000
 40
1.2270
 50
98.7040
 51
106.0477
 62
2
  0
ARC
  8
1
  6
CONTINUOUS
 10
9.4821
 20
2.5228
 30
0.0000
 40
1.2270
 50
98.7040
 51
106.0478
 62
2
  0
ARC
  8
1
  6
CONTINUOUS
 10
13.4821
 20
2.5228
 30
0.0000
 40
1.2270
 50
98.7040
 51
106.0478
 62
2
  0
ARC
  8
1
  6
CONTINUOUS
 10
17.4821
 20
2.5228
 30
0.0000
 40
1.2270
 50
98.7039
 51
106.0477
 62
2
  0
ARC
  8
1
  6
CONTINUOUS
 10
21.4821
 20
2.5228
 30
0.0000
 40
1.2270
 50
98.7039
 51
106.0477
 62
2
  0
ARC
  8
1
  6
CONTINUOUS
 10
25.4821
 20
2.5228
 30
0.0000
 40
1.2270
 50
98.7039
 51
106.0477
 62
2
  0
ARC
  8
1
  6
CONTINUOUS
 10
6.5150
 20
2.4990
 30
0.0000
 40
1.2510
 50
82.6071
 51
90.0016
 62
2
  0
ARC
  8
1
  6
CONTINUOUS
 10
10.5150
 20
2.4990
 30
0.0000
 40
1.2510
 50
82.6071
 51
90.0016
 62
2
  0
ARC
  8
1
  6
CONTINUOUS
 10
14.5150
 20
2.4990
 30
0.0000
 40
1.2510
 50
82.6071
 51
90.0016
 62
2
  0
ARC
  8
1
  6
CONTINUOUS
 10
18.5150
 20
2.4990
 30
0.0000
 40
1.2510
 50
82.6072
 51
90.0017
 62
2
  0
ARC
  8
1
  6
CONTINUOUS
 10
22.5150
 20
2.4990
 30
0.0000
 40
1.2510
 50
82.6072
 51
90.0017
 62
2
  0
ARC
  8
1
  6
CONTINUOUS
 10
26.5150
 20
2.4990
 30
0.0000
 40
1.2510
 50
82.6072
 51
90.0017
 62
2
  0
ARC
  8
1
  6
CONTINUOUS
 10
5.4842
 20
2.5186
 30
0.0000
 40
1.2317
 50
113.4711
 51
120.9530
 62
2
  0
ARC
  8
1
  6
CONTINUOUS
 10
9.4842
 20
2.5186
 30
0.0000
 40
1.2317
 50
113.4711
 51
120.9530
 62
2
  0
ARC
  8
1
  6
CONTINUOUS
 10
13.4842
 20
2.5186
 30
0.0000
 40
1.2317
 50
113.4711
 51
120.9530
 62
2
  0
ARC
  8
1
  6
CONTINUOUS
 10
17.4842
 20
2.5186
 30
0.0000
 40
1.2317
 50
113.4711
 51
120.9530
 62
2
  0
ARC
  8
1
  6
CONTINUOUS
 10
21.4842
 20
2.5186
 30
0.0000
 40
1.2317
 50
113.4711
 51
120.9530
 62
2
  0
ARC
  8
1
  6
CONTINUOUS
 10
25.4842
 20
2.5186
 30
0.0000
 40
1.2317
 50
113.4711
 51
120.9530
 62
2
  0
ARC
  8
1
  6
CONTINUOUS
 10
5.4879
 20
2.5126
 30
0.0000
 40
1.2388
 50
120.9572
 51
128.3490
 62
2
  0
ARC
  8
1
  6
CONTINUOUS
 10
9.4879
 20
2.5126
 30
0.0000
 40
1.2388
 50
120.9572
 51
128.3489
 62
2
  0
ARC
  8
1
  6
CONTINUOUS
 10
13.4879
 20
2.5126
 30
0.0000
 40
1.2388
 50
120.9572
 51
128.3489
 62
2
  0
ARC
  8
1
  6
CONTINUOUS
 10
17.4879
 20
2.5126
 30
0.0000
 40
1.2388
 50
120.9572
 51
128.3490
 62
2
  0
ARC
  8
1
  6
CONTINUOUS
 10
21.4879
 20
2.5126
 30
0.0000
 40
1.2388
 50
120.9572
 51
128.3490
 62
2
  0
ARC
  8
1
  6
CONTINUOUS
 10
25.4879
 20
2.5126
 30
0.0000
 40
1.2388
 50
120.9572
 51
128.3490
 62
2
  0
ARC
  8
1
  6
CONTINUOUS
 10
5.4902
 20
2.5098
 30
0.0000
 40
1.2424
 50
128.3505
 51
135.6996
 62
2
  0
ARC
  8
1
  6
CONTINUOUS
 10
9.4902
 20
2.5098
 30
0.0000
 40
1.2424
 50
128.3505
 51
135.6996
 62
2
  0
ARC
  8
1
  6
CONTINUOUS
 10
13.4902
 20
2.5098
 30
0.0000
 40
1.2424
 50
128.3505
 51
135.6996
 62
2
  0
ARC
  8
1
  6
CONTINUOUS
 10
17.4902
 20
2.5098
 30
0.0000
 40
1.2424
 50
128.3505
 51
135.6997
 62
2
  0
ARC
  8
1
  6
CONTINUOUS
 10
21.4902
 20
2.5098
 30
0.0000
 40
1.2424
 50
128.3505
 51
135.6997
 62
2
  0
ARC
  8
1
  6
CONTINUOUS
 10
25.4902
 20
2.5098
 30
0.0000
 40
1.2424
 50
128.3505
 51
135.6997
 62
2
  0
ARC
  8
1
  6
CONTINUOUS
 10
5.4759
 20
2.5182
 30
0.0000
 40
1.2257
 50
157.7922
 51
165.2280
 62
2
  0
ARC
  8
1
  6
CONTINUOUS
 10
9.4759
 20
2.5182
 30
0.0000
 40
1.2257
 50
157.7922
 51
165.2280
 62
2
  0
ARC
  8
1
  6
CONTINUOUS
 10
13.4759
 20
2.5182
 30
0.0000
 40
1.2257
 50
157.7922
 51
165.2280
 62
2
  0
ARC
  8
1
  6
CONTINUOUS
 10
17.4759
 20
2.5182
 30
0.0000
 40
1.2257
 50
157.7922
 51
165.2280
 62
2
  0
ARC
  8
1
  6
CONTINUOUS
 10
21.4759
 20
2.5182
 30
0.0000
 40
1.2257
 50
157.7922
 51
165.2280
 62
2
  0
ARC
  8
1
  6
CONTINUOUS
 10
25.4759
 20
2.5182
 30
0.0000
 40
1.2257
 50
157.7922
 51
165.2280
 62
2
  0
ARC
  8
1
  6
CONTINUOUS
 10
5.4809
 20
2.5171
 30
0.0000
 40
1.2308
 50
165.2377
 51
172.5830
 62
2
  0
ARC
  8
1
  6
CONTINUOUS
 10
9.4809
 20
2.5171
 30
0.0000
 40
1.2308
 50
165.2377
 51
172.5830
 62
2
  0
ARC
  8
1
  6
CONTINUOUS
 10
13.4809
 20
2.5171
 30
0.0000
 40
1.2308
 50
165.2377
 51
172.5830
 62
2
  0
ARC
  8
1
  6
CONTINUOUS
 10
17.4809
 20
2.5171
 30
0.0000
 40
1.2308
 50
165.2377
 51
172.5830
 62
2
  0
ARC
  8
1
  6
CONTINUOUS
 10
21.4809
 20
2.5171
 30
0.0000
 40
1.2308
 50
165.2377
 51
172.5830
 62
2
  0
ARC
  8
1
  6
CONTINUOUS
 10
25.4809
 20
2.5171
 30
0.0000
 40
1.2308
 50
165.2377
 51
172.5830
 62
2
  0
ARC
  8
1
  6
CONTINUOUS
 10
6.5239
 20
2.5182
 30
0.0000
 40
1.2259
 50
16.0494
 51
23.4667
 62
2
  0
ARC
  8
1
  6
CONTINUOUS
 10
10.5239
 20
2.5182
 30
0.0000
 40
1.2259
 50
16.0494
 51
23.4667
 62
2
  0
ARC
  8
1
  6
CONTINUOUS
 10
14.5239
 20
2.5182
 30
0.0000
 40
1.2259
 50
16.0494
 51
23.4667
 62
2
  0
ARC
  8
1
  6
CONTINUOUS
 10
18.5239
 20
2.5182
 30
0.0000
 40
1.2259
 50
16.0494
 51
23.4667
 62
2
  0
ARC
  8
1
  6
CONTINUOUS
 10
22.5239
 20
2.5182
 30
0.0000
 40
1.2259
 50
16.0494
 51
23.4667
 62
2
  0
ARC
  8
1
  6
CONTINUOUS
 10
26.5239
 20
2.5182
 30
0.0000
 40
1.2259
 50
16.0494
 51
23.4667
 62
2
  0
ARC
  8
1
  6
CONTINUOUS
 10
5.4861
 20
2.5136
 30
0.0000
 40
0.6517
 50
139.1917
 51
149.3985
 62
2
  0
ARC
  8
1
  6
CONTINUOUS
 10
9.4861
 20
2.5136
 30
0.0000
 40
0.6517
 50
139.1917
 51
149.3985
 62
2
  0
ARC
  8
1
  6
CONTINUOUS
 10
13.4861
 20
2.5136
 30
0.0000
 40
0.6517
 50
139.1917
 51
149.3985
 62
2
  0
ARC
  8
1
  6
CONTINUOUS
 10
17.4861
 20
2.5136
 30
0.0000
 40
0.6517
 50
139.1916
 51
149.3985
 62
2
  0
ARC
  8
1
  6
CONTINUOUS
 10
21.4861
 20
2.5136
 30
0.0000
 40
0.6517
 50
139.1916
 51
149.3985
 62
2
  0
ARC
  8
1
  6
CONTINUOUS
 10
25.4861
 20
2.5136
 30
0.0000
 40
0.6517
 50
139.1916
 51
149.3985
 62
2
  0
ARC
  8
1
  6
CONTINUOUS
 10
5.4928
 20
1.4850
 30
0.0000
 40
0.6578
 50
180.0000
 51
188.3118
 62
2
  0
ARC
  8
1
  6
CONTINUOUS
 10
9.4928
 20
1.4850
 30
0.0000
 40
0.6578
 50
180.0000
 51
188.3118
 62
2
  0
ARC
  8
1
  6
CONTINUOUS
 10
13.4928
 20
1.4850
 30
0.0000
 40
0.6578
 50
180.0000
 51
188.3118
 62
2
  0
ARC
  8
1
  6
CONTINUOUS
 10
17.4928
 20
1.4850
 30
0.0000
 40
0.6578
 50
180.0000
 51
188.3118
 62
2
  0
ARC
  8
1
  6
CONTINUOUS
 10
21.4928
 20
1.4850
 30
0.0000
 40
0.6578
 50
180.0000
 51
188.3118
 62
2
  0
ARC
  8
1
  6
CONTINUOUS
 10
25.4928
 20
1.4850
 30
0.0000
 40
0.6578
 50
180.0000
 51
188.3118
 62
2
  0
ARC
  8
1
  6
CONTINUOUS
 10
5.4861
 20
1.4847
 30
0.0000
 40
1.2355
 50
233.0487
 51
240.4665
 62
2
  0
ARC
  8
1
  6
CONTINUOUS
 10
9.4861
 20
1.4847
 30
0.0000
 40
1.2355
 50
233.0487
 51
240.4666
 62
2
  0
ARC
  8
1
  6
CONTINUOUS
 10
13.4861
 20
1.4847
 30
0.0000
 40
1.2355
 50
233.0487
 51
240.4666
 62
2
  0
ARC
  8
1
  6
CONTINUOUS
 10
17.4861
 20
1.4847
 30
0.0000
 40
1.2355
 50
233.0487
 51
240.4666
 62
2
  0
ARC
  8
1
  6
CONTINUOUS
 10
21.4861
 20
1.4847
 30
0.0000
 40
1.2355
 50
233.0487
 51
240.4666
 62
2
  0
ARC
  8
1
  6
CONTINUOUS
 10
25.4861
 20
1.4847
 30
0.0000
 40
1.2355
 50
233.0487
 51
240.4666
 62
2
  0
ARC
  8
1
  6
CONTINUOUS
 10
5.4917
 20
2.5150
 30
0.0000
 40
0.6567
 50
169.8556
 51
180.0000
 62
2
  0
ARC
  8
1
  6
CONTINUOUS
 10
9.4917
 20
2.5150
 30
0.0000
 40
0.6567
 50
169.8555
 51
180.0000
 62
2
  0
ARC
  8
1
  6
CONTINUOUS
 10
13.4917
 20
2.5150
 30
0.0000
 40
0.6567
 50
169.8555
 51
180.0000
 62
2
  0
ARC
  8
1
  6
CONTINUOUS
 10
17.4917
 20
2.5150
 30
0.0000
 40
0.6567
 50
169.8555
 51
180.0000
 62
2
  0
ARC
  8
1
  6
CONTINUOUS
 10
21.4917
 20
2.5150
 30
0.0000
 40
0.6567
 50
169.8555
 51
180.0000
 62
2
  0
ARC
  8
1
  6
CONTINUOUS
 10
25.4917
 20
2.5150
 30
0.0000
 40
0.6567
 50
169.8555
 51
180.0000
 62
2
  0
ARC
  8
1
  6
CONTINUOUS
 10
5.4805
 20
1.4834
 30
0.0000
 40
0.6454
 50
188.3307
 51
198.5938
 62
2
  0
ARC
  8
1
  6
CONTINUOUS
 10
9.4805
 20
1.4834
 30
0.0000
 40
0.6454
 50
188.3307
 51
198.5938
 62
2
  0
ARC
  8
1
  6
CONTINUOUS
 10
13.4805
 20
1.4834
 30
0.0000
 40
0.6454
 50
188.3307
 51
198.5938
 62
2
  0
ARC
  8
1
  6
CONTINUOUS
 10
17.4805
 20
1.4834
 30
0.0000
 40
0.6454
 50
188.3307
 51
198.5938
 62
2
  0
ARC
  8
1
  6
CONTINUOUS
 10
21.4805
 20
1.4834
 30
0.0000
 40
0.6454
 50
188.3307
 51
198.5938
 62
2
  0
ARC
  8
1
  6
CONTINUOUS
 10
25.4805
 20
1.4834
 30
0.0000
 40
0.6454
 50
188.3307
 51
198.5938
 62
2
  0
ARC
  8
1
  6
CONTINUOUS
 10
6.5150
 20
1.4931
 30
0.0000
 40
0.6581
 50
270.0000
 51
278.3094
 62
2
  0
ARC
  8
1
  6
CONTINUOUS
 10
10.5150
 20
1.4931
 30
0.0000
 40
0.6581
 50
270.0000
 51
278.3094
 62
2
  0
ARC
  8
1
  6
CONTINUOUS
 10
14.5150
 20
1.4931
 30
0.0000
 40
0.6581
 50
270.0000
 51
278.3094
 62
2
  0
ARC
  8
1
  6
CONTINUOUS
 10
18.5150
 20
1.4931
 30
0.0000
 40
0.6581
 50
270.0000
 51
278.3095
 62
2
  0
ARC
  8
1
  6
CONTINUOUS
 10
22.5150
 20
1.4931
 30
0.0000
 40
0.6581
 50
270.0000
 51
278.3095
 62
2
  0
ARC
  8
1
  6
CONTINUOUS
 10
26.5150
 20
1.4931
 30
0.0000
 40
0.6581
 50
270.0000
 51
278.3095
 62
2
  0
ARC
  8
1
  6
CONTINUOUS
 10
6.5117
 20
1.4850
 30
0.0000
 40
0.3933
 50
346.9362
 51
360.0000
 62
2
  0
ARC
  8
1
  6
CONTINUOUS
 10
10.5117
 20
1.4850
 30
0.0000
 40
0.3933
 50
346.9362
 51
360.0000
 62
2
  0
ARC
  8
1
  6
CONTINUOUS
 10
14.5117
 20
1.4850
 30
0.0000
 40
0.3933
 50
346.9362
 51
360.0000
 62
2
  0
ARC
  8
1
  6
CONTINUOUS
 10
18.5117
 20
1.4850
 30
0.0000
 40
0.3933
 50
346.9362
 51
360.0000
 62
2
  0
ARC
  8
1
  6
CONTINUOUS
 10
22.5117
 20
1.4850
 30
0.0000
 40
0.3933
 50
346.9362
 51
360.0000
 62
2
  0
ARC
  8
1
  6
CONTINUOUS
 10
26.5117
 20
1.4850
 30
0.0000
 40
0.3933
 50
346.9362
 51
360.0000
 62
2
  0
ARC
  8
1
  6
CONTINUOUS
 10
5.4820
 20
1.4840
 30
0.0000
 40
0.6471
 50
198.6038
 51
208.8238
 62
2
  0
ARC
  8
1
  6
CONTINUOUS
 10
9.4820
 20
1.4840
 30
0.0000
 40
0.6471
 50
198.6038
 51
208.8237
 62
2
  0
ARC
  8
1
  6
CONTINUOUS
 10
13.4820
 20
1.4840
 30
0.0000
 40
0.6471
 50
198.6038
 51
208.8237
 62
2
  0
ARC
  8
1
  6
CONTINUOUS
 10
17.4820
 20
1.4840
 30
0.0000
 40
0.6471
 50
198.6038
 51
208.8238
 62
2
  0
ARC
  8
1
  6
CONTINUOUS
 10
21.4820
 20
1.4840
 30
0.0000
 40
0.6471
 50
198.6038
 51
208.8238
 62
2
  0
ARC
  8
1
  6
CONTINUOUS
 10
25.4820
 20
1.4840
 30
0.0000
 40
0.6471
 50
198.6038
 51
208.8238
 62
2
  0
ARC
  8
1
  6
CONTINUOUS
 10
5.4862
 20
1.4865
 30
0.0000
 40
0.6519
 50
208.8356
 51
219.0499
 62
2
  0
ARC
  8
1
  6
CONTINUOUS
 10
9.4862
 20
1.4865
 30
0.0000
 40
0.6519
 50
208.8356
 51
219.0499
 62
2
  0
ARC
  8
1
  6
CONTINUOUS
 10
13.4862
 20
1.4865
 30
0.0000
 40
0.6519
 50
208.8356
 51
219.0499
 62
2
  0
ARC
  8
1
  6
CONTINUOUS
 10
17.4862
 20
1.4865
 30
0.0000
 40
0.6519
 50
208.8356
 51
219.0499
 62
2
  0
ARC
  8
1
  6
CONTINUOUS
 10
21.4862
 20
1.4865
 30
0.0000
 40
0.6519
 50
208.8356
 51
219.0499
 62
2
  0
ARC
  8
1
  6
CONTINUOUS
 10
25.4862
 20
1.4865
 30
0.0000
 40
0.6519
 50
208.8356
 51
219.0499
 62
2
  0
ARC
  8
1
  6
CONTINUOUS
 10
5.4874
 20
1.4874
 30
0.0000
 40
0.6534
 50
219.0472
 51
229.2026
 62
2
  0
ARC
  8
1
  6
CONTINUOUS
 10
9.4874
 20
1.4874
 30
0.0000
 40
0.6534
 50
219.0472
 51
229.2026
 62
2
  0
ARC
  8
1
  6
CONTINUOUS
 10
13.4874
 20
1.4874
 30
0.0000
 40
0.6534
 50
219.0472
 51
229.2026
 62
2
  0
ARC
  8
1
  6
CONTINUOUS
 10
17.4874
 20
1.4874
 30
0.0000
 40
0.6534
 50
219.0472
 51
229.2026
 62
2
  0
ARC
  8
1
  6
CONTINUOUS
 10
21.4874
 20
1.4874
 30
0.0000
 40
0.6534
 50
219.0472
 51
229.2026
 62
2
  0
ARC
  8
1
  6
CONTINUOUS
 10
25.4874
 20
1.4874
 30
0.0000
 40
0.6534
 50
219.0472
 51
229.2026
 62
2
  0
ARC
  8
1
  6
CONTINUOUS
 10
5.4857
 20
1.4851
 30
0.0000
 40
0.6506
 50
229.1827
 51
239.4074
 62
2
  0
ARC
  8
1
  6
CONTINUOUS
 10
9.4857
 20
1.4851
 30
0.0000
 40
0.6506
 50
229.1826
 51
239.4074
 62
2
  0
ARC
  8
1
  6
CONTINUOUS
 10
13.4857
 20
1.4851
 30
0.0000
 40
0.6506
 50
229.1826
 51
239.4074
 62
2
  0
ARC
  8
1
  6
CONTINUOUS
 10
17.4857
 20
1.4851
 30
0.0000
 40
0.6506
 50
229.1826
 51
239.4073
 62
2
  0
ARC
  8
1
  6
CONTINUOUS
 10
21.4857
 20
1.4851
 30
0.0000
 40
0.6506
 50
229.1826
 51
239.4073
 62
2
  0
ARC
  8
1
  6
CONTINUOUS
 10
25.4857
 20
1.4851
 30
0.0000
 40
0.6506
 50
229.1826
 51
239.4073
 62
2
  0
ARC
  8
1
  6
CONTINUOUS
 10
5.4839
 20
1.4816
 30
0.0000
 40
0.6466
 50
239.3920
 51
249.5946
 62
2
  0
ARC
  8
1
  6
CONTINUOUS
 10
9.4839
 20
1.4816
 30
0.0000
 40
0.6466
 50
239.3920
 51
249.5946
 62
2
  0
ARC
  8
1
  6
CONTINUOUS
 10
13.4839
 20
1.4816
 30
0.0000
 40
0.6466
 50
239.3920
 51
249.5946
 62
2
  0
ARC
  8
1
  6
CONTINUOUS
 10
17.4839
 20
1.4816
 30
0.0000
 40
0.6466
 50
239.3920
 51
249.5946
 62
2
  0
ARC
  8
1
  6
CONTINUOUS
 10
21.4839
 20
1.4816
 30
0.0000
 40
0.6466
 50
239.3920
 51
249.5946
 62
2
  0
ARC
  8
1
  6
CONTINUOUS
 10
25.4839
 20
1.4816
 30
0.0000
 40
0.6466
 50
239.3920
 51
249.5946
 62
2
  0
ARC
  8
1
  6
CONTINUOUS
 10
5.4875
 20
1.4880
 30
0.0000
 40
1.2389
 50
210.9579
 51
218.3490
 62
2
  0
ARC
  8
1
  6
CONTINUOUS
 10
9.4875
 20
1.4880
 30
0.0000
 40
1.2389
 50
210.9579
 51
218.3490
 62
2
  0
ARC
  8
1
  6
CONTINUOUS
 10
13.4875
 20
1.4880
 30
0.0000
 40
1.2389
 50
210.9579
 51
218.3490
 62
2
  0
ARC
  8
1
  6
CONTINUOUS
 10
17.4875
 20
1.4880
 30
0.0000
 40
1.2389
 50
210.9579
 51
218.3490
 62
2
  0
ARC
  8
1
  6
CONTINUOUS
 10
21.4875
 20
1.4880
 30
0.0000
 40
1.2389
 50
210.9579
 51
218.3490
 62
2
  0
ARC
  8
1
  6
CONTINUOUS
 10
25.4875
 20
1.4880
 30
0.0000
 40
1.2389
 50
210.9579
 51
218.3490
 62
2
  0
ARC
  8
1
  6
CONTINUOUS
 10
5.4835
 20
1.4808
 30
0.0000
 40
0.6457
 50
249.6006
 51
259.8159
 62
2
  0
ARC
  8
1
  6
CONTINUOUS
 10
9.4835
 20
1.4808
 30
0.0000
 40
0.6457
 50
249.6005
 51
259.8158
 62
2
  0
ARC
  8
1
  6
CONTINUOUS
 10
13.4835
 20
1.4808
 30
0.0000
 40
0.6457
 50
249.6005
 51
259.8158
 62
2
  0
ARC
  8
1
  6
CONTINUOUS
 10
17.4835
 20
1.4808
 30
0.0000
 40
0.6457
 50
249.6005
 51
259.8159
 62
2
  0
ARC
  8
1
  6
CONTINUOUS
 10
21.4835
 20
1.4808
 30
0.0000
 40
0.6457
 50
249.6005
 51
259.8159
 62
2
  0
ARC
  8
1
  6
CONTINUOUS
 10
25.4835
 20
1.4808
 30
0.0000
 40
0.6457
 50
249.6005
 51
259.8159
 62
2
  0
ARC
  8
1
  6
CONTINUOUS
 10
5.4850
 20
1.4920
 30
0.0000
 40
0.6570
 50
259.8573
 51
270.0004
 62
2
  0
ARC
  8
1
  6
CONTINUOUS
 10
9.4850
 20
1.4920
 30
0.0000
 40
0.6570
 50
259.8573
 51
270.0004
 62
2
  0
ARC
  8
1
  6
CONTINUOUS
 10
13.4850
 20
1.4920
 30
0.0000
 40
0.6570
 50
259.8573
 51
270.0004
 62
2
  0
ARC
  8
1
  6
CONTINUOUS
 10
17.4850
 20
1.4920
 30
0.0000
 40
0.6570
 50
259.8573
 51
270.0003
 62
2
  0
ARC
  8
1
  6
CONTINUOUS
 10
21.4850
 20
1.4920
 30
0.0000
 40
0.6570
 50
259.8573
 51
270.0003
 62
2
  0
ARC
  8
1
  6
CONTINUOUS
 10
25.4850
 20
1.4920
 30
0.0000
 40
0.6570
 50
259.8573
 51
270.0003
 62
2
  0
ARC
  8
1
  6
CONTINUOUS
 10
5.4822
 20
1.4847
 30
0.0000
 40
1.2326
 50
203.4739
 51
210.9503
 62
2
  0
ARC
  8
1
  6
CONTINUOUS
 10
9.4822
 20
1.4847
 30
0.0000
 40
1.2326
 50
203.4739
 51
210.9503
 62
2
  0
ARC
  8
1
  6
CONTINUOUS
 10
13.4822
 20
1.4847
 30
0.0000
 40
1.2326
 50
203.4739
 51
210.9503
 62
2
  0
ARC
  8
1
  6
CONTINUOUS
 10
17.4822
 20
1.4847
 30
0.0000
 40
1.2326
 50
203.4740
 51
210.9503
 62
2
  0
ARC
  8
1
  6
CONTINUOUS
 10
21.4822
 20
1.4847
 30
0.0000
 40
1.2326
 50
203.4740
 51
210.9503
 62
2
  0
ARC
  8
1
  6
CONTINUOUS
 10
25.4822
 20
1.4847
 30
0.0000
 40
1.2326
 50
203.4740
 51
210.9503
 62
2
  0
ARC
  8
1
  6
CONTINUOUS
 10
6.5154
 20
1.4853
 30
0.0000
 40
0.6499
 50
319.1772
 51
329.4127
 62
2
  0
ARC
  8
1
  6
CONTINUOUS
 10
10.5154
 20
1.4853
 30
0.0000
 40
0.6499
 50
319.1772
 51
329.4127
 62
2
  0
ARC
  8
1
  6
CONTINUOUS
 10
14.5154
 20
1.4853
 30
0.0000
 40
0.6499
 50
319.1772
 51
329.4127
 62
2
  0
ARC
  8
1
  6
CONTINUOUS
 10
18.5154
 20
1.4853
 30
0.0000
 40
0.6499
 50
319.1772
 51
329.4127
 62
2
  0
ARC
  8
1
  6
CONTINUOUS
 10
22.5154
 20
1.4853
 30
0.0000
 40
0.6499
 50
319.1772
 51
329.4127
 62
2
  0
ARC
  8
1
  6
CONTINUOUS
 10
26.5154
 20
1.4853
 30
0.0000
 40
0.6499
 50
319.1772
 51
329.4127
 62
2
  0
ARC
  8
1
  6
CONTINUOUS
 10
5.4894
 20
1.4893
 30
0.0000
 40
1.2412
 50
225.6968
 51
233.0551
 62
2
  0
ARC
  8
1
  6
CONTINUOUS
 10
9.4894
 20
1.4893
 30
0.0000
 40
1.2412
 50
225.6968
 51
233.0551
 62
2
  0
ARC
  8
1
  6
CONTINUOUS
 10
13.4894
 20
1.4893
 30
0.0000
 40
1.2412
 50
225.6968
 51
233.0551
 62
2
  0
ARC
  8
1
  6
CONTINUOUS
 10
17.4894
 20
1.4893
 30
0.0000
 40
1.2412
 50
225.6968
 51
233.0551
 62
2
  0
ARC
  8
1
  6
CONTINUOUS
 10
21.4894
 20
1.4893
 30
0.0000
 40
1.2412
 50
225.6968
 51
233.0551
 62
2
  0
ARC
  8
1
  6
CONTINUOUS
 10
25.4894
 20
1.4893
 30
0.0000
 40
1.2412
 50
225.6968
 51
233.0551
 62
2
  0
ARC
  8
1
  6
CONTINUOUS
 10
6.5160
 20
1.4821
 30
0.0000
 40
0.6471
 50
288.6038
 51
298.8235
 62
2
  0
ARC
  8
1
  6
CONTINUOUS
 10
10.5160
 20
1.4821
 30
0.0000
 40
0.6471
 50
288.6038
 51
298.8235
 62
2
  0
ARC
  8
1
  6
CONTINUOUS
 10
14.5160
 20
1.4821
 30
0.0000
 40
0.6471
 50
288.6038
 51
298.8235
 62
2
  0
ARC
  8
1
  6
CONTINUOUS
 10
18.5160
 20
1.4821
 30
0.0000
 40
0.6471
 50
288.6038
 51
298.8235
 62
2
  0
ARC
  8
1
  6
CONTINUOUS
 10
22.5160
 20
1.4821
 30
0.0000
 40
0.6471
 50
288.6038
 51
298.8235
 62
2
  0
ARC
  8
1
  6
CONTINUOUS
 10
26.5160
 20
1.4821
 30
0.0000
 40
0.6471
 50
288.6038
 51
298.8235
 62
2
  0
ARC
  8
1
  6
CONTINUOUS
 10
6.5134
 20
2.5134
 30
0.0000
 40
0.3923
 50
37.4742
 51
50.5991
 62
2
  0
ARC
  8
1
  6
CONTINUOUS
 10
10.5134
 20
2.5134
 30
0.0000
 40
0.3923
 50
37.4742
 51
50.5991
 62
2
  0
ARC
  8
1
  6
CONTINUOUS
 10
14.5134
 20
2.5134
 30
0.0000
 40
0.3923
 50
37.4742
 51
50.5991
 62
2
  0
ARC
  8
1
  6
CONTINUOUS
 10
18.5134
 20
2.5134
 30
0.0000
 40
0.3923
 50
37.4743
 51
50.5993
 62
2
  0
ARC
  8
1
  6
CONTINUOUS
 10
22.5134
 20
2.5134
 30
0.0000
 40
0.3923
 50
37.4743
 51
50.5993
 62
2
  0
ARC
  8
1
  6
CONTINUOUS
 10
26.5134
 20
2.5134
 30
0.0000
 40
0.3923
 50
37.4743
 51
50.5993
 62
2
  0
ARC
  8
1
  6
CONTINUOUS
 10
5.4850
 20
1.4883
 30
0.0000
 40
0.3933
 50
256.9362
 51
269.9999
 62
2
  0
ARC
  8
1
  6
CONTINUOUS
 10
9.4850
 20
1.4883
 30
0.0000
 40
0.3933
 50
256.9362
 51
269.9999
 62
2
  0
ARC
  8
1
  6
CONTINUOUS
 10
13.4850
 20
1.4883
 30
0.0000
 40
0.3933
 50
256.9362
 51
269.9999
 62
2
  0
ARC
  8
1
  6
CONTINUOUS
 10
17.4850
 20
1.4883
 30
0.0000
 40
0.3933
 50
256.9362
 51
270.0000
 62
2
  0
ARC
  8
1
  6
CONTINUOUS
 10
21.4850
 20
1.4883
 30
0.0000
 40
0.3933
 50
256.9362
 51
270.0000
 62
2
  0
ARC
  8
1
  6
CONTINUOUS
 10
25.4850
 20
1.4883
 30
0.0000
 40
0.3933
 50
256.9362
 51
270.0000
 62
2
  0
ARC
  8
1
  6
CONTINUOUS
 10
5.4830
 20
1.4789
 30
0.0000
 40
1.2290
 50
240.4606
 51
247.7923
 62
2
  0
ARC
  8
1
  6
CONTINUOUS
 10
9.4830
 20
1.4789
 30
0.0000
 40
1.2290
 50
240.4606
 51
247.7923
 62
2
  0
ARC
  8
1
  6
CONTINUOUS
 10
13.4830
 20
1.4789
 30
0.0000
 40
1.2290
 50
240.4606
 51
247.7923
 62
2
  0
ARC
  8
1
  6
CONTINUOUS
 10
17.4830
 20
1.4789
 30
0.0000
 40
1.2290
 50
240.4606
 51
247.7924
 62
2
  0
ARC
  8
1
  6
CONTINUOUS
 10
21.4830
 20
1.4789
 30
0.0000
 40
1.2290
 50
240.4606
 51
247.7924
 62
2
  0
ARC
  8
1
  6
CONTINUOUS
 10
25.4830
 20
1.4789
 30
0.0000
 40
1.2290
 50
240.4606
 51
247.7924
 62
2
  0
ARC
  8
1
  6
CONTINUOUS
 10
6.5140
 20
1.4860
 30
0.0000
 40
0.3914
 50
294.4003
 51
307.4557
 62
2
  0
ARC
  8
1
  6
CONTINUOUS
 10
10.5140
 20
1.4860
 30
0.0000
 40
0.3914
 50
294.4003
 51
307.4556
 62
2
  0
ARC
  8
1
  6
CONTINUOUS
 10
14.5140
 20
1.4860
 30
0.0000
 40
0.3914
 50
294.4003
 51
307.4556
 62
2
  0
ARC
  8
1
  6
CONTINUOUS
 10
18.5140
 20
1.4860
 30
0.0000
 40
0.3914
 50
294.4003
 51
307.4556
 62
2
  0
ARC
  8
1
  6
CONTINUOUS
 10
22.5140
 20
1.4860
 30
0.0000
 40
0.3914
 50
294.4003
 51
307.4556
 62
2
  0
ARC
  8
1
  6
CONTINUOUS
 10
26.5140
 20
1.4860
 30
0.0000
 40
0.3914
 50
294.4003
 51
307.4556
 62
2
  0
ARC
  8
1
  6
CONTINUOUS
 10
6.5183
 20
1.4839
 30
0.0000
 40
0.6467
 50
329.3926
 51
339.5940
 62
2
  0
ARC
  8
1
  6
CONTINUOUS
 10
10.5183
 20
1.4839
 30
0.0000
 40
0.6467
 50
329.3926
 51
339.5940
 62
2
  0
ARC
  8
1
  6
CONTINUOUS
 10
14.5183
 20
1.4839
 30
0.0000
 40
0.6467
 50
329.3926
 51
339.5940
 62
2
  0
ARC
  8
1
  6
CONTINUOUS
 10
18.5183
 20
1.4839
 30
0.0000
 40
0.6467
 50
329.3926
 51
339.5940
 62
2
  0
ARC
  8
1
  6
CONTINUOUS
 10
22.5183
 20
1.4839
 30
0.0000
 40
0.6467
 50
329.3926
 51
339.5940
 62
2
  0
ARC
  8
1
  6
CONTINUOUS
 10
26.5183
 20
1.4839
 30
0.0000
 40
0.6467
 50
329.3926
 51
339.5940
 62
2
  0
ARC
  8
1
  6
CONTINUOUS
 10
6.5134
 20
1.4864
 30
0.0000
 40
0.6521
 50
298.8370
 51
309.0485
 62
2
  0
ARC
  8
1
  6
CONTINUOUS
 10
10.5134
 20
1.4864
 30
0.0000
 40
0.6521
 50
298.8370
 51
309.0485
 62
2
  0
ARC
  8
1
  6
CONTINUOUS
 10
14.5134
 20
1.4864
 30
0.0000
 40
0.6521
 50
298.8370
 51
309.0485
 62
2
  0
ARC
  8
1
  6
CONTINUOUS
 10
18.5134
 20
1.4864
 30
0.0000
 40
0.6521
 50
298.8369
 51
309.0484
 62
2
  0
ARC
  8
1
  6
CONTINUOUS
 10
22.5134
 20
1.4864
 30
0.0000
 40
0.6521
 50
298.8369
 51
309.0484
 62
2
  0
ARC
  8
1
  6
CONTINUOUS
 10
26.5134
 20
1.4864
 30
0.0000
 40
0.6521
 50
298.8369
 51
309.0484
 62
2
  0
ARC
  8
1
  6
CONTINUOUS
 10
6.5193
 20
1.4835
 30
0.0000
 40
0.6456
 50
339.6005
 51
349.8161
 62
2
  0
ARC
  8
1
  6
CONTINUOUS
 10
10.5193
 20
1.4835
 30
0.0000
 40
0.6456
 50
339.6005
 51
349.8161
 62
2
  0
ARC
  8
1
  6
CONTINUOUS
 10
14.5193
 20
1.4835
 30
0.0000
 40
0.6456
 50
339.6005
 51
349.8161
 62
2
  0
ARC
  8
1
  6
CONTINUOUS
 10
18.5193
 20
1.4835
 30
0.0000
 40
0.6456
 50
339.6006
 51
349.8161
 62
2
  0
ARC
  8
1
  6
CONTINUOUS
 10
22.5193
 20
1.4835
 30
0.0000
 40
0.6456
 50
339.6006
 51
349.8161
 62
2
  0
ARC
  8
1
  6
CONTINUOUS
 10
26.5193
 20
1.4835
 30
0.0000
 40
0.6456
 50
339.6006
 51
349.8161
 62
2
  0
ARC
  8
1
  6
CONTINUOUS
 10
6.5132
 20
1.4867
 30
0.0000
 40
0.6525
 50
309.0405
 51
319.2099
 62
2
  0
ARC
  8
1
  6
CONTINUOUS
 10
10.5132
 20
1.4867
 30
0.0000
 40
0.6525
 50
309.0405
 51
319.2099
 62
2
  0
ARC
  8
1
  6
CONTINUOUS
 10
14.5132
 20
1.4867
 30
0.0000
 40
0.6525
 50
309.0405
 51
319.2099
 62
2
  0
ARC
  8
1
  6
CONTINUOUS
 10
18.5132
 20
1.4867
 30
0.0000
 40
0.6525
 50
309.0406
 51
319.2099
 62
2
  0
ARC
  8
1
  6
CONTINUOUS
 10
22.5132
 20
1.4867
 30
0.0000
 40
0.6525
 50
309.0406
 51
319.2099
 62
2
  0
ARC
  8
1
  6
CONTINUOUS
 10
26.5132
 20
1.4867
 30
0.0000
 40
0.6525
 50
309.0406
 51
319.2099
 62
2
  0
ARC
  8
1
  6
CONTINUOUS
 10
6.5146
 20
1.4836
 30
0.0000
 40
1.2342
 50
293.4784
 51
300.9454
 62
2
  0
ARC
  8
1
  6
CONTINUOUS
 10
10.5146
 20
1.4836
 30
0.0000
 40
1.2342
 50
293.4784
 51
300.9454
 62
2
  0
ARC
  8
1
  6
CONTINUOUS
 10
14.5146
 20
1.4836
 30
0.0000
 40
1.2342
 50
293.4784
 51
300.9454
 62
2
  0
ARC
  8
1
  6
CONTINUOUS
 10
18.5146
 20
1.4836
 30
0.0000
 40
1.2342
 50
293.4783
 51
300.9453
 62
2
  0
ARC
  8
1
  6
CONTINUOUS
 10
22.5146
 20
1.4836
 30
0.0000
 40
1.2342
 50
293.4783
 51
300.9453
 62
2
  0
ARC
  8
1
  6
CONTINUOUS
 10
26.5146
 20
1.4836
 30
0.0000
 40
1.2342
 50
293.4783
 51
300.9453
 62
2
  0
ARC
  8
1
  6
CONTINUOUS
 10
6.5080
 20
1.4850
 30
0.0000
 40
0.6570
 50
349.8574
 51
0.0000
 62
2
  0
ARC
  8
1
  6
CONTINUOUS
 10
10.5080
 20
1.4850
 30
0.0000
 40
0.6570
 50
349.8574
 51
0.0000
 62
2
  0
ARC
  8
1
  6
CONTINUOUS
 10
14.5080
 20
1.4850
 30
0.0000
 40
0.6570
 50
349.8574
 51
0.0000
 62
2
  0
ARC
  8
1
  6
CONTINUOUS
 10
18.5080
 20
1.4850
 30
0.0000
 40
0.6570
 50
349.8574
 51
0.0000
 62
2
  0
ARC
  8
1
  6
CONTINUOUS
 10
22.5080
 20
1.4850
 30
0.0000
 40
0.6570
 50
349.8574
 51
0.0000
 62
2
  0
ARC
  8
1
  6
CONTINUOUS
 10
26.5080
 20
1.4850
 30
0.0000
 40
0.6570
 50
349.8574
 51
0.0000
 62
2
  0
ARC
  8
1
  6
CONTINUOUS
 10
6.5182
 20
1.4757
 30
0.0000
 40
1.2254
 50
278.6995
 51
286.0526
 62
2
  0
ARC
  8
1
  6
CONTINUOUS
 10
10.5182
 20
1.4757
 30
0.0000
 40
1.2254
 50
278.6995
 51
286.0526
 62
2
  0
ARC
  8
1
  6
CONTINUOUS
 10
14.5182
 20
1.4757
 30
0.0000
 40
1.2254
 50
278.6995
 51
286.0526
 62
2
  0
ARC
  8
1
  6
CONTINUOUS
 10
18.5182
 20
1.4757
 30
0.0000
 40
1.2254
 50
278.6995
 51
286.0526
 62
2
  0
ARC
  8
1
  6
CONTINUOUS
 10
22.5182
 20
1.4757
 30
0.0000
 40
1.2254
 50
278.6995
 51
286.0526
 62
2
  0
ARC
  8
1
  6
CONTINUOUS
 10
26.5182
 20
1.4757
 30
0.0000
 40
1.2254
 50
278.6995
 51
286.0526
 62
2
  0
ARC
  8
1
  6
CONTINUOUS
 10
6.5111
 20
2.5150
 30
0.0000
 40
0.3939
 50
0.0000
 51
11.2389
 62
2
  0
ARC
  8
1
  6
CONTINUOUS
 10
10.5111
 20
2.5150
 30
0.0000
 40
0.3939
 50
0.0000
 51
11.2389
 62
2
  0
ARC
  8
1
  6
CONTINUOUS
 10
14.5111
 20
2.5150
 30
0.0000
 40
0.3939
 50
0.0000
 51
11.2389
 62
2
  0
ARC
  8
1
  6
CONTINUOUS
 10
18.5111
 20
2.5150
 30
0.0000
 40
0.3939
 50
0.0000
 51
11.2389
 62
2
  0
ARC
  8
1
  6
CONTINUOUS
 10
22.5111
 20
2.5150
 30
0.0000
 40
0.3939
 50
0.0000
 51
11.2389
 62
2
  0
ARC
  8
1
  6
CONTINUOUS
 10
26.5111
 20
2.5150
 30
0.0000
 40
0.3939
 50
0.0000
 51
11.2389
 62
2
  0
ARC
  8
1
  6
CONTINUOUS
 10
6.5171
 20
2.5158
 30
0.0000
 40
0.3879
 50
11.3002
 51
24.3532
 62
2
  0
ARC
  8
1
  6
CONTINUOUS
 10
10.5171
 20
2.5158
 30
0.0000
 40
0.3879
 50
11.3002
 51
24.3533
 62
2
  0
ARC
  8
1
  6
CONTINUOUS
 10
14.5171
 20
2.5158
 30
0.0000
 40
0.3879
 50
11.3002
 51
24.3533
 62
2
  0
ARC
  8
1
  6
CONTINUOUS
 10
18.5171
 20
2.5158
 30
0.0000
 40
0.3879
 50
11.3001
 51
24.3532
 62
2
  0
ARC
  8
1
  6
CONTINUOUS
 10
22.5171
 20
2.5158
 30
0.0000
 40
0.3879
 50
11.3001
 51
24.3532
 62
2
  0
ARC
  8
1
  6
CONTINUOUS
 10
26.5171
 20
2.5158
 30
0.0000
 40
0.3879
 50
11.3001
 51
24.3532
 62
2
  0
ARC
  8
1
  6
CONTINUOUS
 10
6.5145
 20
2.5143
 30
0.0000
 40
0.3908
 50
24.3902
 51
37.4660
 62
2
  0
ARC
  8
1
  6
CONTINUOUS
 10
10.5145
 20
2.5143
 30
0.0000
 40
0.3908
 50
24.3902
 51
37.4660
 62
2
  0
ARC
  8
1
  6
CONTINUOUS
 10
14.5145
 20
2.5143
 30
0.0000
 40
0.3908
 50
24.3902
 51
37.4660
 62
2
  0
ARC
  8
1
  6
CONTINUOUS
 10
18.5145
 20
2.5143
 30
0.0000
 40
0.3908
 50
24.3902
 51
37.4660
 62
2
  0
ARC
  8
1
  6
CONTINUOUS
 10
22.5145
 20
2.5143
 30
0.0000
 40
0.3908
 50
24.3902
 51
37.4660
 62
2
  0
ARC
  8
1
  6
CONTINUOUS
 10
26.5145
 20
2.5143
 30
0.0000
 40
0.3908
 50
24.3902
 51
37.4660
 62
2
  0
ARC
  8
1
  6
CONTINUOUS
 10
5.4848
 20
2.5147
 30
0.0000
 40
0.3900
 50
140.5828
 51
153.6655
 62
2
  0
ARC
  8
1
  6
CONTINUOUS
 10
9.4848
 20
2.5147
 30
0.0000
 40
0.3900
 50
140.5829
 51
153.6655
 62
2
  0
ARC
  8
1
  6
CONTINUOUS
 10
13.4848
 20
2.5147
 30
0.0000
 40
0.3900
 50
140.5829
 51
153.6655
 62
2
  0
ARC
  8
1
  6
CONTINUOUS
 10
17.4848
 20
2.5147
 30
0.0000
 40
0.3900
 50
140.5829
 51
153.6655
 62
2
  0
ARC
  8
1
  6
CONTINUOUS
 10
21.4848
 20
2.5147
 30
0.0000
 40
0.3900
 50
140.5829
 51
153.6655
 62
2
  0
ARC
  8
1
  6
CONTINUOUS
 10
25.4848
 20
2.5147
 30
0.0000
 40
0.3900
 50
140.5829
 51
153.6655
 62
2
  0
ARC
  8
1
  6
CONTINUOUS
 10
5.4850
 20
1.5013
 30
0.0000
 40
1.2513
 50
262.6082
 51
270.0005
 62
2
  0
ARC
  8
1
  6
CONTINUOUS
 10
9.4850
 20
1.5013
 30
0.0000
 40
1.2513
 50
262.6082
 51
270.0005
 62
2
  0
ARC
  8
1
  6
CONTINUOUS
 10
13.4850
 20
1.5013
 30
0.0000
 40
1.2513
 50
262.6082
 51
270.0005
 62
2
  0
ARC
  8
1
  6
CONTINUOUS
 10
17.4850
 20
1.5013
 30
0.0000
 40
1.2513
 50
262.6082
 51
270.0005
 62
2
  0
ARC
  8
1
  6
CONTINUOUS
 10
21.4850
 20
1.5013
 30
0.0000
 40
1.2513
 50
262.6082
 51
270.0005
 62
2
  0
ARC
  8
1
  6
CONTINUOUS
 10
25.4850
 20
1.5013
 30
0.0000
 40
1.2513
 50
262.6082
 51
270.0005
 62
2
  0
ARC
  8
1
  6
CONTINUOUS
 10
6.5160
 20
1.4888
 30
0.0000
 40
1.2388
 50
271.2772
 51
278.7106
 62
2
  0
ARC
  8
1
  6
CONTINUOUS
 10
10.5160
 20
1.4888
 30
0.0000
 40
1.2388
 50
271.2772
 51
278.7106
 62
2
  0
ARC
  8
1
  6
CONTINUOUS
 10
14.5160
 20
1.4888
 30
0.0000
 40
1.2388
 50
271.2772
 51
278.7106
 62
2
  0
ARC
  8
1
  6
CONTINUOUS
 10
18.5160
 20
1.4888
 30
0.0000
 40
1.2388
 50
271.2772
 51
278.7106
 62
2
  0
ARC
  8
1
  6
CONTINUOUS
 10
22.5160
 20
1.4888
 30
0.0000
 40
1.2388
 50
271.2772
 51
278.7106
 62
2
  0
ARC
  8
1
  6
CONTINUOUS
 10
26.5160
 20
1.4888
 30
0.0000
 40
1.2388
 50
271.2772
 51
278.7106
 62
2
  0
ARC
  8
1
  6
CONTINUOUS
 10
6.5160
 20
2.5179
 30
0.0000
 40
0.3871
 50
63.6616
 51
76.8758
 62
2
  0
ARC
  8
1
  6
CONTINUOUS
 10
10.5160
 20
2.5179
 30
0.0000
 40
0.3871
 50
63.6616
 51
76.8758
 62
2
  0
ARC
  8
1
  6
CONTINUOUS
 10
14.5160
 20
2.5179
 30
0.0000
 40
0.3871
 50
63.6616
 51
76.8758
 62
2
  0
ARC
  8
1
  6
CONTINUOUS
 10
18.5160
 20
2.5179
 30
0.0000
 40
0.3871
 50
63.6616
 51
76.8757
 62
2
  0
ARC
  8
1
  6
CONTINUOUS
 10
22.5160
 20
2.5179
 30
0.0000
 40
0.3871
 50
63.6616
 51
76.8757
 62
2
  0
ARC
  8
1
  6
CONTINUOUS
 10
26.5160
 20
2.5179
 30
0.0000
 40
0.3871
 50
63.6616
 51
76.8757
 62
2
  0
ARC
  8
1
  6
CONTINUOUS
 10
6.5150
 20
2.5119
 30
0.0000
 40
0.3931
 50
76.9328
 51
90.0033
 62
2
  0
ARC
  8
1
  6
CONTINUOUS
 10
10.5150
 20
2.5119
 30
0.0000
 40
0.3931
 50
76.9327
 51
90.0033
 62
2
  0
ARC
  8
1
  6
CONTINUOUS
 10
14.5150
 20
2.5119
 30
0.0000
 40
0.3931
 50
76.9327
 51
90.0033
 62
2
  0
ARC
  8
1
  6
CONTINUOUS
 10
18.5150
 20
2.5119
 30
0.0000
 40
0.3931
 50
76.9327
 51
90.0033
 62
2
  0
ARC
  8
1
  6
CONTINUOUS
 10
22.5150
 20
2.5119
 30
0.0000
 40
0.3931
 50
76.9327
 51
90.0033
 62
2
  0
ARC
  8
1
  6
CONTINUOUS
 10
26.5150
 20
2.5119
 30
0.0000
 40
0.3931
 50
76.9327
 51
90.0033
 62
2
  0
ARC
  8
1
  6
CONTINUOUS
 10
5.4850
 20
2.5114
 30
0.0000
 40
0.3936
 50
89.9968
 51
101.2428
 62
2
  0
ARC
  8
1
  6
CONTINUOUS
 10
9.4850
 20
2.5114
 30
0.0000
 40
0.3936
 50
89.9968
 51
101.2428
 62
2
  0
ARC
  8
1
  6
CONTINUOUS
 10
13.4850
 20
2.5114
 30
0.0000
 40
0.3936
 50
89.9968
 51
101.2428
 62
2
  0
ARC
  8
1
  6
CONTINUOUS
 10
17.4850
 20
2.5114
 30
0.0000
 40
0.3936
 50
89.9969
 51
101.2428
 62
2
  0
ARC
  8
1
  6
CONTINUOUS
 10
21.4850
 20
2.5114
 30
0.0000
 40
0.3936
 50
89.9969
 51
101.2428
 62
2
  0
ARC
  8
1
  6
CONTINUOUS
 10
25.4850
 20
2.5114
 30
0.0000
 40
0.3936
 50
89.9969
 51
101.2428
 62
2
  0
ARC
  8
1
  6
CONTINUOUS
 10
5.4853
 20
2.5152
 30
0.0000
 40
0.3900
 50
114.3768
 51
127.4795
 62
2
  0
ARC
  8
1
  6
CONTINUOUS
 10
9.4853
 20
2.5152
 30
0.0000
 40
0.3900
 50
114.3768
 51
127.4795
 62
2
  0
ARC
  8
1
  6
CONTINUOUS
 10
13.4853
 20
2.5152
 30
0.0000
 40
0.3900
 50
114.3768
 51
127.4795
 62
2
  0
ARC
  8
1
  6
CONTINUOUS
 10
17.4853
 20
2.5152
 30
0.0000
 40
0.3900
 50
114.3771
 51
127.4797
 62
2
  0
ARC
  8
1
  6
CONTINUOUS
 10
21.4853
 20
2.5152
 30
0.0000
 40
0.3900
 50
114.3771
 51
127.4797
 62
2
  0
ARC
  8
1
  6
CONTINUOUS
 10
25.4853
 20
2.5152
 30
0.0000
 40
0.3900
 50
114.3771
 51
127.4797
 62
2
  0
ARC
  8
1
  6
CONTINUOUS
 10
5.4839
 20
2.5181
 30
0.0000
 40
0.3868
 50
101.2824
 51
114.3710
 62
2
  0
ARC
  8
1
  6
CONTINUOUS
 10
9.4839
 20
2.5181
 30
0.0000
 40
0.3868
 50
101.2824
 51
114.3709
 62
2
  0
ARC
  8
1
  6
CONTINUOUS
 10
13.4839
 20
2.5181
 30
0.0000
 40
0.3868
 50
101.2824
 51
114.3709
 62
2
  0
ARC
  8
1
  6
CONTINUOUS
 10
17.4839
 20
2.5181
 30
0.0000
 40
0.3868
 50
101.2822
 51
114.3708
 62
2
  0
ARC
  8
1
  6
CONTINUOUS
 10
21.4839
 20
2.5181
 30
0.0000
 40
0.3868
 50
101.2822
 51
114.3708
 62
2
  0
ARC
  8
1
  6
CONTINUOUS
 10
25.4839
 20
2.5181
 30
0.0000
 40
0.3868
 50
101.2822
 51
114.3708
 62
2
  0
ARC
  8
1
  6
CONTINUOUS
 10
5.4821
 20
2.5160
 30
0.0000
 40
0.3870
 50
153.6601
 51
166.8774
 62
2
  0
ARC
  8
1
  6
CONTINUOUS
 10
9.4821
 20
2.5160
 30
0.0000
 40
0.3870
 50
153.6600
 51
166.8774
 62
2
  0
ARC
  8
1
  6
CONTINUOUS
 10
13.4821
 20
2.5160
 30
0.0000
 40
0.3870
 50
153.6600
 51
166.8774
 62
2
  0
ARC
  8
1
  6
CONTINUOUS
 10
17.4821
 20
2.5160
 30
0.0000
 40
0.3870
 50
153.6601
 51
166.8774
 62
2
  0
ARC
  8
1
  6
CONTINUOUS
 10
21.4821
 20
2.5160
 30
0.0000
 40
0.3870
 50
153.6601
 51
166.8774
 62
2
  0
ARC
  8
1
  6
CONTINUOUS
 10
25.4821
 20
2.5160
 30
0.0000
 40
0.3870
 50
153.6601
 51
166.8774
 62
2
  0
ARC
  8
1
  6
CONTINUOUS
 10
5.4866
 20
2.5134
 30
0.0000
 40
0.3923
 50
127.4737
 51
140.5992
 62
2
  0
ARC
  8
1
  6
CONTINUOUS
 10
9.4866
 20
2.5134
 30
0.0000
 40
0.3923
 50
127.4737
 51
140.5992
 62
2
  0
ARC
  8
1
  6
CONTINUOUS
 10
13.4866
 20
2.5134
 30
0.0000
 40
0.3923
 50
127.4737
 51
140.5992
 62
2
  0
ARC
  8
1
  6
CONTINUOUS
 10
17.4866
 20
2.5134
 30
0.0000
 40
0.3923
 50
127.4738
 51
140.5992
 62
2
  0
ARC
  8
1
  6
CONTINUOUS
 10
21.4866
 20
2.5134
 30
0.0000
 40
0.3923
 50
127.4738
 51
140.5992
 62
2
  0
ARC
  8
1
  6
CONTINUOUS
 10
25.4866
 20
2.5134
 30
0.0000
 40
0.3923
 50
127.4738
 51
140.5992
 62
2
  0
ARC
  8
1
  6
CONTINUOUS
 10
5.4886
 20
1.4850
 30
0.0000
 40
0.3936
 50
180.0000
 51
191.2427
 62
2
  0
ARC
  8
1
  6
CONTINUOUS
 10
9.4886
 20
1.4850
 30
0.0000
 40
0.3936
 50
180.0000
 51
191.2427
 62
2
  0
ARC
  8
1
  6
CONTINUOUS
 10
13.4886
 20
1.4850
 30
0.0000
 40
0.3936
 50
180.0000
 51
191.2427
 62
2
  0
ARC
  8
1
  6
CONTINUOUS
 10
17.4886
 20
1.4850
 30
0.0000
 40
0.3936
 50
180.0000
 51
191.2427
 62
2
  0
ARC
  8
1
  6
CONTINUOUS
 10
21.4886
 20
1.4850
 30
0.0000
 40
0.3936
 50
180.0000
 51
191.2427
 62
2
  0
ARC
  8
1
  6
CONTINUOUS
 10
25.4886
 20
1.4850
 30
0.0000
 40
0.3936
 50
180.0000
 51
191.2427
 62
2
  0
ARC
  8
1
  6
CONTINUOUS
 10
5.4881
 20
2.5150
 30
0.0000
 40
0.3931
 50
166.9328
 51
180.0000
 62
2
  0
ARC
  8
1
  6
CONTINUOUS
 10
9.4881
 20
2.5150
 30
0.0000
 40
0.3931
 50
166.9328
 51
180.0000
 62
2
  0
ARC
  8
1
  6
CONTINUOUS
 10
13.4881
 20
2.5150
 30
0.0000
 40
0.3931
 50
166.9328
 51
180.0000
 62
2
  0
ARC
  8
1
  6
CONTINUOUS
 10
17.4881
 20
2.5150
 30
0.0000
 40
0.3931
 50
166.9329
 51
180.0000
 62
2
  0
ARC
  8
1
  6
CONTINUOUS
 10
21.4881
 20
2.5150
 30
0.0000
 40
0.3931
 50
166.9329
 51
180.0000
 62
2
  0
ARC
  8
1
  6
CONTINUOUS
 10
25.4881
 20
2.5150
 30
0.0000
 40
0.3931
 50
166.9329
 51
180.0000
 62
2
  0
ARC
  8
1
  6
CONTINUOUS
 10
6.5095
 20
1.4906
 30
0.0000
 40
1.2429
 50
308.3517
 51
315.6980
 62
2
  0
ARC
  8
1
  6
CONTINUOUS
 10
10.5095
 20
1.4906
 30
0.0000
 40
1.2429
 50
308.3517
 51
315.6980
 62
2
  0
ARC
  8
1
  6
CONTINUOUS
 10
14.5095
 20
1.4906
 30
0.0000
 40
1.2429
 50
308.3517
 51
315.6980
 62
2
  0
ARC
  8
1
  6
CONTINUOUS
 10
18.5095
 20
1.4906
 30
0.0000
 40
1.2429
 50
308.3517
 51
315.6980
 62
2
  0
ARC
  8
1
  6
CONTINUOUS
 10
22.5095
 20
1.4906
 30
0.0000
 40
1.2429
 50
308.3517
 51
315.6980
 62
2
  0
ARC
  8
1
  6
CONTINUOUS
 10
26.5095
 20
1.4906
 30
0.0000
 40
1.2429
 50
308.3517
 51
315.6980
 62
2
  0
ARC
  8
1
  6
CONTINUOUS
 10
5.4823
 20
1.4841
 30
0.0000
 40
0.3873
 50
191.2902
 51
204.3631
 62
2
  0
ARC
  8
1
  6
CONTINUOUS
 10
9.4823
 20
1.4841
 30
0.0000
 40
0.3873
 50
191.2903
 51
204.3631
 62
2
  0
ARC
  8
1
  6
CONTINUOUS
 10
13.4823
 20
1.4841
 30
0.0000
 40
0.3873
 50
191.2903
 51
204.3631
 62
2
  0
ARC
  8
1
  6
CONTINUOUS
 10
17.4823
 20
1.4841
 30
0.0000
 40
0.3873
 50
191.2902
 51
204.3631
 62
2
  0
ARC
  8
1
  6
CONTINUOUS
 10
21.4823
 20
1.4841
 30
0.0000
 40
0.3873
 50
191.2902
 51
204.3631
 62
2
  0
ARC
  8
1
  6
CONTINUOUS
 10
25.4823
 20
1.4841
 30
0.0000
 40
0.3873
 50
191.2902
 51
204.3631
 62
2
  0
ARC
  8
1
  6
CONTINUOUS
 10
5.4850
 20
1.4844
 30
0.0000
 40
0.3896
 50
230.5755
 51
243.6732
 62
2
  0
ARC
  8
1
  6
CONTINUOUS
 10
9.4850
 20
1.4844
 30
0.0000
 40
0.3896
 50
230.5754
 51
243.6732
 62
2
  0
ARC
  8
1
  6
CONTINUOUS
 10
13.4850
 20
1.4844
 30
0.0000
 40
0.3896
 50
230.5754
 51
243.6732
 62
2
  0
ARC
  8
1
  6
CONTINUOUS
 10
17.4850
 20
1.4844
 30
0.0000
 40
0.3896
 50
230.5753
 51
243.6729
 62
2
  0
ARC
  8
1
  6
CONTINUOUS
 10
21.4850
 20
1.4844
 30
0.0000
 40
0.3896
 50
230.5753
 51
243.6729
 62
2
  0
ARC
  8
1
  6
CONTINUOUS
 10
25.4850
 20
1.4844
 30
0.0000
 40
0.3896
 50
230.5753
 51
243.6729
 62
2
  0
ARC
  8
1
  6
CONTINUOUS
 10
5.4853
 20
1.4856
 30
0.0000
 40
0.3906
 50
204.3869
 51
217.4692
 62
2
  0
ARC
  8
1
  6
CONTINUOUS
 10
9.4853
 20
1.4856
 30
0.0000
 40
0.3906
 50
204.3869
 51
217.4692
 62
2
  0
ARC
  8
1
  6
CONTINUOUS
 10
13.4853
 20
1.4856
 30
0.0000
 40
0.3906
 50
204.3869
 51
217.4692
 62
2
  0
ARC
  8
1
  6
CONTINUOUS
 10
17.4853
 20
1.4856
 30
0.0000
 40
0.3906
 50
204.3870
 51
217.4693
 62
2
  0
ARC
  8
1
  6
CONTINUOUS
 10
21.4853
 20
1.4856
 30
0.0000
 40
0.3906
 50
204.3870
 51
217.4693
 62
2
  0
ARC
  8
1
  6
CONTINUOUS
 10
25.4853
 20
1.4856
 30
0.0000
 40
0.3906
 50
204.3870
 51
217.4693
 62
2
  0
ARC
  8
1
  6
CONTINUOUS
 10
5.4866
 20
1.4866
 30
0.0000
 40
0.3923
 50
217.4742
 51
230.5991
 62
2
  0
ARC
  8
1
  6
CONTINUOUS
 10
9.4866
 20
1.4866
 30
0.0000
 40
0.3923
 50
217.4742
 51
230.5991
 62
2
  0
ARC
  8
1
  6
CONTINUOUS
 10
13.4866
 20
1.4866
 30
0.0000
 40
0.3923
 50
217.4742
 51
230.5991
 62
2
  0
ARC
  8
1
  6
CONTINUOUS
 10
17.4866
 20
1.4866
 30
0.0000
 40
0.3923
 50
217.4742
 51
230.5990
 62
2
  0
ARC
  8
1
  6
CONTINUOUS
 10
21.4866
 20
1.4866
 30
0.0000
 40
0.3923
 50
217.4742
 51
230.5990
 62
2
  0
ARC
  8
1
  6
CONTINUOUS
 10
25.4866
 20
1.4866
 30
0.0000
 40
0.3923
 50
217.4742
 51
230.5990
 62
2
  0
ARC
  8
1
  6
CONTINUOUS
 10
5.4829
 20
1.4809
 30
0.0000
 40
1.2308
 50
255.2374
 51
262.5830
 62
2
  0
ARC
  8
1
  6
CONTINUOUS
 10
9.4829
 20
1.4809
 30
0.0000
 40
1.2308
 50
255.2374
 51
262.5830
 62
2
  0
ARC
  8
1
  6
CONTINUOUS
 10
13.4829
 20
1.4809
 30
0.0000
 40
1.2308
 50
255.2374
 51
262.5830
 62
2
  0
ARC
  8
1
  6
CONTINUOUS
 10
17.4829
 20
1.4809
 30
0.0000
 40
1.2308
 50
255.2374
 51
262.5831
 62
2
  0
ARC
  8
1
  6
CONTINUOUS
 10
21.4829
 20
1.4809
 30
0.0000
 40
1.2308
 50
255.2374
 51
262.5831
 62
2
  0
ARC
  8
1
  6
CONTINUOUS
 10
25.4829
 20
1.4809
 30
0.0000
 40
1.2308
 50
255.2374
 51
262.5831
 62
2
  0
ARC
  8
1
  6
CONTINUOUS
 10
6.5150
 20
1.4889
 30
0.0000
 40
0.3939
 50
270.0004
 51
281.2389
 62
2
  0
ARC
  8
1
  6
CONTINUOUS
 10
10.5150
 20
1.4889
 30
0.0000
 40
0.3939
 50
270.0004
 51
281.2389
 62
2
  0
ARC
  8
1
  6
CONTINUOUS
 10
14.5150
 20
1.4889
 30
0.0000
 40
0.3939
 50
270.0004
 51
281.2389
 62
2
  0
ARC
  8
1
  6
CONTINUOUS
 10
18.5150
 20
1.4889
 30
0.0000
 40
0.3939
 50
270.0003
 51
281.2386
 62
2
  0
ARC
  8
1
  6
CONTINUOUS
 10
22.5150
 20
1.4889
 30
0.0000
 40
0.3939
 50
270.0003
 51
281.2386
 62
2
  0
ARC
  8
1
  6
CONTINUOUS
 10
26.5150
 20
1.4889
 30
0.0000
 40
0.3939
 50
270.0003
 51
281.2386
 62
2
  0
ARC
  8
1
  6
CONTINUOUS
 10
5.4841
 20
1.4824
 30
0.0000
 40
0.3874
 50
243.6663
 51
256.8711
 62
2
  0
ARC
  8
1
  6
CONTINUOUS
 10
9.4841
 20
1.4824
 30
0.0000
 40
0.3874
 50
243.6663
 51
256.8711
 62
2
  0
ARC
  8
1
  6
CONTINUOUS
 10
13.4841
 20
1.4824
 30
0.0000
 40
0.3874
 50
243.6663
 51
256.8711
 62
2
  0
ARC
  8
1
  6
CONTINUOUS
 10
17.4841
 20
1.4824
 30
0.0000
 40
0.3874
 50
243.6664
 51
256.8713
 62
2
  0
ARC
  8
1
  6
CONTINUOUS
 10
21.4841
 20
1.4824
 30
0.0000
 40
0.3874
 50
243.6664
 51
256.8713
 62
2
  0
ARC
  8
1
  6
CONTINUOUS
 10
25.4841
 20
1.4824
 30
0.0000
 40
0.3874
 50
243.6664
 51
256.8713
 62
2
  0
ARC
  8
1
  6
CONTINUOUS
 10
6.5134
 20
1.4866
 30
0.0000
 40
0.3923
 50
307.4747
 51
320.5990
 62
2
  0
ARC
  8
1
  6
CONTINUOUS
 10
10.5134
 20
1.4866
 30
0.0000
 40
0.3923
 50
307.4747
 51
320.5990
 62
2
  0
ARC
  8
1
  6
CONTINUOUS
 10
14.5134
 20
1.4866
 30
0.0000
 40
0.3923
 50
307.4747
 51
320.5990
 62
2
  0
ARC
  8
1
  6
CONTINUOUS
 10
18.5133
 20
1.4866
 30
0.0000
 40
0.3923
 50
307.4748
 51
320.5991
 62
2
  0
ARC
  8
1
  6
CONTINUOUS
 10
22.5133
 20
1.4866
 30
0.0000
 40
0.3923
 50
307.4748
 51
320.5991
 62
2
  0
ARC
  8
1
  6
CONTINUOUS
 10
26.5133
 20
1.4866
 30
0.0000
 40
0.3923
 50
307.4748
 51
320.5991
 62
2
  0
ARC
  8
1
  6
CONTINUOUS
 10
5.4813
 20
1.4744
 30
0.0000
 40
1.2241
 50
247.7877
 51
255.2331
 62
2
  0
ARC
  8
1
  6
CONTINUOUS
 10
9.4813
 20
1.4744
 30
0.0000
 40
1.2241
 50
247.7877
 51
255.2330
 62
2
  0
ARC
  8
1
  6
CONTINUOUS
 10
13.4813
 20
1.4744
 30
0.0000
 40
1.2241
 50
247.7877
 51
255.2330
 62
2
  0
ARC
  8
1
  6
CONTINUOUS
 10
17.4813
 20
1.4744
 30
0.0000
 40
1.2241
 50
247.7877
 51
255.2331
 62
2
  0
ARC
  8
1
  6
CONTINUOUS
 10
21.4813
 20
1.4744
 30
0.0000
 40
1.2241
 50
247.7877
 51
255.2331
 62
2
  0
ARC
  8
1
  6
CONTINUOUS
 10
25.4813
 20
1.4744
 30
0.0000
 40
1.2241
 50
247.7877
 51
255.2331
 62
2
  0
ARC
  8
1
  6
CONTINUOUS
 10
6.5149
 20
2.5154
 30
0.0000
 40
0.3898
 50
50.5792
 51
63.6694
 62
2
  0
ARC
  8
1
  6
CONTINUOUS
 10
10.5149
 20
2.5154
 30
0.0000
 40
0.3898
 50
50.5792
 51
63.6694
 62
2
  0
ARC
  8
1
  6
CONTINUOUS
 10
14.5149
 20
2.5154
 30
0.0000
 40
0.3898
 50
50.5792
 51
63.6694
 62
2
  0
ARC
  8
1
  6
CONTINUOUS
 10
18.5149
 20
2.5154
 30
0.0000
 40
0.3898
 50
50.5790
 51
63.6691
 62
2
  0
ARC
  8
1
  6
CONTINUOUS
 10
22.5149
 20
2.5154
 30
0.0000
 40
0.3898
 50
50.5790
 51
63.6691
 62
2
  0
ARC
  8
1
  6
CONTINUOUS
 10
26.5149
 20
2.5154
 30
0.0000
 40
0.3898
 50
50.5790
 51
63.6691
 62
2
  0
ARC
  8
1
  6
CONTINUOUS
 10
6.5119
 20
1.4876
 30
0.0000
 40
1.2390
 50
300.9584
 51
308.3486
 62
2
  0
ARC
  8
1
  6
CONTINUOUS
 10
10.5119
 20
1.4876
 30
0.0000
 40
1.2390
 50
300.9584
 51
308.3487
 62
2
  0
ARC
  8
1
  6
CONTINUOUS
 10
14.5119
 20
1.4876
 30
0.0000
 40
1.2390
 50
300.9584
 51
308.3487
 62
2
  0
ARC
  8
1
  6
CONTINUOUS
 10
18.5119
 20
1.4876
 30
0.0000
 40
1.2390
 50
300.9584
 51
308.3486
 62
2
  0
ARC
  8
1
  6
CONTINUOUS
 10
22.5119
 20
1.4876
 30
0.0000
 40
1.2390
 50
300.9584
 51
308.3486
 62
2
  0
ARC
  8
1
  6
CONTINUOUS
 10
26.5119
 20
1.4876
 30
0.0000
 40
1.2390
 50
300.9584
 51
308.3486
 62
2
  0
ARC
  8
1
  6
CONTINUOUS
 10
6.5158
 20
1.4849
 30
0.0000
 40
0.3893
 50
320.5717
 51
333.6769
 62
2
  0
ARC
  8
1
  6
CONTINUOUS
 10
10.5158
 20
1.4849
 30
0.0000
 40
0.3893
 50
320.5717
 51
333.6769
 62
2
  0
ARC
  8
1
  6
CONTINUOUS
 10
14.5158
 20
1.4849
 30
0.0000
 40
0.3893
 50
320.5717
 51
333.6769
 62
2
  0
ARC
  8
1
  6
CONTINUOUS
 10
18.5158
 20
1.4849
 30
0.0000
 40
0.3893
 50
320.5718
 51
333.6770
 62
2
  0
ARC
  8
1
  6
CONTINUOUS
 10
22.5158
 20
1.4849
 30
0.0000
 40
0.3893
 50
320.5718
 51
333.6770
 62
2
  0
ARC
  8
1
  6
CONTINUOUS
 10
26.5158
 20
1.4849
 30
0.0000
 40
0.3893
 50
320.5718
 51
333.6770
 62
2
  0
ARC
  8
1
  6
CONTINUOUS
 10
6.5156
 20
1.4833
 30
0.0000
 40
0.3883
 50
281.3080
 51
294.3453
 62
2
  0
ARC
  8
1
  6
CONTINUOUS
 10
10.5156
 20
1.4833
 30
0.0000
 40
0.3883
 50
281.3080
 51
294.3453
 62
2
  0
ARC
  8
1
  6
CONTINUOUS
 10
14.5156
 20
1.4833
 30
0.0000
 40
0.3883
 50
281.3080
 51
294.3453
 62
2
  0
ARC
  8
1
  6
CONTINUOUS
 10
18.5156
 20
1.4833
 30
0.0000
 40
0.3883
 50
281.3082
 51
294.3454
 62
2
  0
ARC
  8
1
  6
CONTINUOUS
 10
22.5156
 20
1.4833
 30
0.0000
 40
0.3883
 50
281.3082
 51
294.3454
 62
2
  0
ARC
  8
1
  6
CONTINUOUS
 10
26.5156
 20
1.4833
 30
0.0000
 40
0.3883
 50
281.3082
 51
294.3454
 62
2
  0
ARC
  8
1
  6
CONTINUOUS
 10
6.5165
 20
1.4807
 30
0.0000
 40
0.6457
 50
278.3331
 51
288.5915
 62
2
  0
ARC
  8
1
  6
CONTINUOUS
 10
10.5165
 20
1.4807
 30
0.0000
 40
0.6457
 50
278.3332
 51
288.5916
 62
2
  0
ARC
  8
1
  6
CONTINUOUS
 10
14.5165
 20
1.4807
 30
0.0000
 40
0.6457
 50
278.3332
 51
288.5916
 62
2
  0
ARC
  8
1
  6
CONTINUOUS
 10
18.5165
 20
1.4807
 30
0.0000
 40
0.6457
 50
278.3332
 51
288.5916
 62
2
  0
ARC
  8
1
  6
CONTINUOUS
 10
22.5165
 20
1.4807
 30
0.0000
 40
0.6457
 50
278.3332
 51
288.5916
 62
2
  0
ARC
  8
1
  6
CONTINUOUS
 10
26.5165
 20
1.4807
 30
0.0000
 40
0.6457
 50
278.3332
 51
288.5916
 62
2
  0
ARC
  8
1
  6
CONTINUOUS
 10
6.5107
 20
1.4894
 30
0.0000
 40
1.2412
 50
315.6967
 51
323.0551
 62
2
  0
ARC
  8
1
  6
CONTINUOUS
 10
10.5107
 20
1.4894
 30
0.0000
 40
1.2412
 50
315.6967
 51
323.0551
 62
2
  0
ARC
  8
1
  6
CONTINUOUS
 10
14.5107
 20
1.4894
 30
0.0000
 40
1.2412
 50
315.6967
 51
323.0551
 62
2
  0
ARC
  8
1
  6
CONTINUOUS
 10
18.5107
 20
1.4894
 30
0.0000
 40
1.2412
 50
315.6967
 51
323.0551
 62
2
  0
ARC
  8
1
  6
CONTINUOUS
 10
22.5107
 20
1.4894
 30
0.0000
 40
1.2412
 50
315.6967
 51
323.0551
 62
2
  0
ARC
  8
1
  6
CONTINUOUS
 10
26.5107
 20
1.4894
 30
0.0000
 40
1.2412
 50
315.6967
 51
323.0551
 62
2
  0
ARC
  8
1
  6
CONTINUOUS
 10
6.5210
 20
1.4830
 30
0.0000
 40
1.2290
 50
330.4607
 51
337.7922
 62
2
  0
ARC
  8
1
  6
CONTINUOUS
 10
10.5210
 20
1.4830
 30
0.0000
 40
1.2290
 50
330.4607
 51
337.7922
 62
2
  0
ARC
  8
1
  6
CONTINUOUS
 10
14.5210
 20
1.4830
 30
0.0000
 40
1.2290
 50
330.4607
 51
337.7922
 62
2
  0
ARC
  8
1
  6
CONTINUOUS
 10
18.5210
 20
1.4830
 30
0.0000
 40
1.2290
 50
330.4607
 51
337.7922
 62
2
  0
ARC
  8
1
  6
CONTINUOUS
 10
22.5210
 20
1.4830
 30
0.0000
 40
1.2290
 50
330.4607
 51
337.7922
 62
2
  0
ARC
  8
1
  6
CONTINUOUS
 10
26.5210
 20
1.4830
 30
0.0000
 40
1.2290
 50
330.4607
 51
337.7922
 62
2
  0
ARC
  8
1
  6
CONTINUOUS
 10
6.5182
 20
1.4759
 30
0.0000
 40
1.2257
 50
286.0486
 51
293.4673
 62
2
  0
ARC
  8
1
  6
CONTINUOUS
 10
10.5182
 20
1.4759
 30
0.0000
 40
1.2257
 50
286.0486
 51
293.4674
 62
2
  0
ARC
  8
1
  6
CONTINUOUS
 10
14.5182
 20
1.4759
 30
0.0000
 40
1.2257
 50
286.0486
 51
293.4674
 62
2
  0
ARC
  8
1
  6
CONTINUOUS
 10
18.5182
 20
1.4759
 30
0.0000
 40
1.2257
 50
286.0486
 51
293.4673
 62
2
  0
ARC
  8
1
  6
CONTINUOUS
 10
22.5182
 20
1.4759
 30
0.0000
 40
1.2257
 50
286.0486
 51
293.4673
 62
2
  0
ARC
  8
1
  6
CONTINUOUS
 10
26.5182
 20
1.4759
 30
0.0000
 40
1.2257
 50
286.0486
 51
293.4673
 62
2
  0
ARC
  8
1
  6
CONTINUOUS
 10
6.5162
 20
2.5185
 30
0.0000
 40
0.6465
 50
59.3911
 51
69.5957
 62
2
  0
ARC
  8
1
  6
CONTINUOUS
 10
10.5162
 20
2.5185
 30
0.0000
 40
0.6465
 50
59.3911
 51
69.5957
 62
2
  0
ARC
  8
1
  6
CONTINUOUS
 10
14.5162
 20
2.5185
 30
0.0000
 40
0.6465
 50
59.3911
 51
69.5957
 62
2
  0
ARC
  8
1
  6
CONTINUOUS
 10
18.5162
 20
2.5185
 30
0.0000
 40
0.6465
 50
59.3911
 51
69.5957
 62
2
  0
ARC
  8
1
  6
CONTINUOUS
 10
22.5162
 20
2.5185
 30
0.0000
 40
0.6465
 50
59.3911
 51
69.5957
 62
2
  0
ARC
  8
1
  6
CONTINUOUS
 10
26.5162
 20
2.5185
 30
0.0000
 40
0.6465
 50
59.3911
 51
69.5957
 62
2
  0
ARC
  8
1
  6
CONTINUOUS
 10
6.4986
 20
1.4850
 30
0.0000
 40
1.2514
 50
352.6083
 51
0.0000
 62
2
  0
ARC
  8
1
  6
CONTINUOUS
 10
10.4986
 20
1.4850
 30
0.0000
 40
1.2514
 50
352.6083
 51
0.0000
 62
2
  0
ARC
  8
1
  6
CONTINUOUS
 10
14.4986
 20
1.4850
 30
0.0000
 40
1.2514
 50
352.6083
 51
0.0000
 62
2
  0
ARC
  8
1
  6
CONTINUOUS
 10
18.4986
 20
1.4850
 30
0.0000
 40
1.2514
 50
352.6083
 51
0.0000
 62
2
  0
ARC
  8
1
  6
CONTINUOUS
 10
22.4986
 20
1.4850
 30
0.0000
 40
1.2514
 50
352.6083
 51
0.0000
 62
2
  0
ARC
  8
1
  6
CONTINUOUS
 10
26.4986
 20
1.4850
 30
0.0000
 40
1.2514
 50
352.6083
 51
0.0000
 62
2
  0
ARC
  8
1
  6
CONTINUOUS
 10
6.5180
 20
2.5160
 30
0.0000
 40
0.6471
 50
18.6038
 51
28.8236
 62
2
  0
ARC
  8
1
  6
CONTINUOUS
 10
10.5180
 20
2.5160
 30
0.0000
 40
0.6471
 50
18.6038
 51
28.8236
 62
2
  0
ARC
  8
1
  6
CONTINUOUS
 10
14.5180
 20
2.5160
 30
0.0000
 40
0.6471
 50
18.6038
 51
28.8236
 62
2
  0
ARC
  8
1
  6
CONTINUOUS
 10
18.5180
 20
2.5160
 30
0.0000
 40
0.6471
 50
18.6038
 51
28.8236
 62
2
  0
ARC
  8
1
  6
CONTINUOUS
 10
22.5180
 20
2.5160
 30
0.0000
 40
0.6471
 50
18.6038
 51
28.8236
 62
2
  0
ARC
  8
1
  6
CONTINUOUS
 10
26.5180
 20
2.5160
 30
0.0000
 40
0.6471
 50
18.6038
 51
28.8236
 62
2
  0
ARC
  8
1
  6
CONTINUOUS
 10
6.5137
 20
2.5135
 30
0.0000
 40
0.6520
 50
28.8358
 51
39.0497
 62
2
  0
ARC
  8
1
  6
CONTINUOUS
 10
10.5137
 20
2.5135
 30
0.0000
 40
0.6520
 50
28.8358
 51
39.0496
 62
2
  0
ARC
  8
1
  6
CONTINUOUS
 10
14.5137
 20
2.5135
 30
0.0000
 40
0.6520
 50
28.8358
 51
39.0496
 62
2
  0
ARC
  8
1
  6
CONTINUOUS
 10
18.5137
 20
2.5135
 30
0.0000
 40
0.6520
 50
28.8358
 51
39.0496
 62
2
  0
ARC
  8
1
  6
CONTINUOUS
 10
22.5137
 20
2.5135
 30
0.0000
 40
0.6520
 50
28.8358
 51
39.0496
 62
2
  0
ARC
  8
1
  6
CONTINUOUS
 10
26.5137
 20
2.5135
 30
0.0000
 40
0.6520
 50
28.8358
 51
39.0496
 62
2
  0
ARC
  8
1
  6
CONTINUOUS
 10
6.5260
 20
1.4811
 30
0.0000
 40
1.2237
 50
337.7866
 51
345.2345
 62
2
  0
ARC
  8
1
  6
CONTINUOUS
 10
10.5260
 20
1.4811
 30
0.0000
 40
1.2237
 50
337.7866
 51
345.2345
 62
2
  0
ARC
  8
1
  6
CONTINUOUS
 10
14.5260
 20
1.4811
 30
0.0000
 40
1.2237
 50
337.7866
 51
345.2345
 62
2
  0
ARC
  8
1
  6
CONTINUOUS
 10
18.5260
 20
1.4811
 30
0.0000
 40
1.2237
 50
337.7866
 51
345.2345
 62
2
  0
ARC
  8
1
  6
CONTINUOUS
 10
22.5260
 20
1.4811
 30
0.0000
 40
1.2237
 50
337.7866
 51
345.2345
 62
2
  0
ARC
  8
1
  6
CONTINUOUS
 10
26.5260
 20
1.4811
 30
0.0000
 40
1.2237
 50
337.7866
 51
345.2345
 62
2
  0
ARC
  8
1
  6
CONTINUOUS
 10
5.4809
 20
2.5165
 30
0.0000
 40
0.6458
 50
159.6013
 51
169.8150
 62
2
  0
ARC
  8
1
  6
CONTINUOUS
 10
9.4809
 20
2.5165
 30
0.0000
 40
0.6458
 50
159.6013
 51
169.8150
 62
2
  0
ARC
  8
1
  6
CONTINUOUS
 10
13.4809
 20
2.5165
 30
0.0000
 40
0.6458
 50
159.6013
 51
169.8150
 62
2
  0
ARC
  8
1
  6
CONTINUOUS
 10
17.4809
 20
2.5165
 30
0.0000
 40
0.6458
 50
159.6013
 51
169.8149
 62
2
  0
ARC
  8
1
  6
CONTINUOUS
 10
21.4809
 20
2.5165
 30
0.0000
 40
0.6458
 50
159.6013
 51
169.8149
 62
2
  0
ARC
  8
1
  6
CONTINUOUS
 10
25.4809
 20
2.5165
 30
0.0000
 40
0.6458
 50
159.6013
 51
169.8149
 62
2
  0
ARC
  8
1
  6
CONTINUOUS
 10
5.4904
 20
1.4904
 30
0.0000
 40
1.2426
 50
218.3513
 51
225.6990
 62
2
  0
ARC
  8
1
  6
CONTINUOUS
 10
9.4904
 20
1.4904
 30
0.0000
 40
1.2426
 50
218.3513
 51
225.6990
 62
2
  0
ARC
  8
1
  6
CONTINUOUS
 10
13.4904
 20
1.4904
 30
0.0000
 40
1.2426
 50
218.3513
 51
225.6990
 62
2
  0
ARC
  8
1
  6
CONTINUOUS
 10
17.4904
 20
1.4904
 30
0.0000
 40
1.2426
 50
218.3513
 51
225.6990
 62
2
  0
ARC
  8
1
  6
CONTINUOUS
 10
21.4904
 20
1.4904
 30
0.0000
 40
1.2426
 50
218.3513
 51
225.6990
 62
2
  0
ARC
  8
1
  6
CONTINUOUS
 10
25.4904
 20
1.4904
 30
0.0000
 40
1.2426
 50
218.3513
 51
225.6990
 62
2
  0
ARC
  8
1
  6
CONTINUOUS
 10
5.4850
 20
2.5072
 30
0.0000
 40
0.6578
 50
89.9978
 51
98.3118
 62
2
  0
ARC
  8
1
  6
CONTINUOUS
 10
9.4850
 20
2.5072
 30
0.0000
 40
0.6578
 50
89.9978
 51
98.3118
 62
2
  0
ARC
  8
1
  6
CONTINUOUS
 10
13.4850
 20
2.5072
 30
0.0000
 40
0.6578
 50
89.9978
 51
98.3118
 62
2
  0
ARC
  8
1
  6
CONTINUOUS
 10
17.4850
 20
2.5072
 30
0.0000
 40
0.6578
 50
89.9978
 51
98.3117
 62
2
  0
ARC
  8
1
  6
CONTINUOUS
 10
21.4850
 20
2.5072
 30
0.0000
 40
0.6578
 50
89.9978
 51
98.3117
 62
2
  0
ARC
  8
1
  6
CONTINUOUS
 10
25.4850
 20
2.5072
 30
0.0000
 40
0.6578
 50
89.9978
 51
98.3117
 62
2
  0
ARC
  8
1
  6
CONTINUOUS
 10
6.5140
 20
2.5145
 30
0.0000
 40
0.6510
 50
49.1862
 51
59.4038
 62
2
  0
ARC
  8
1
  6
CONTINUOUS
 10
10.5140
 20
2.5145
 30
0.0000
 40
0.6510
 50
49.1862
 51
59.4038
 62
2
  0
ARC
  8
1
  6
CONTINUOUS
 10
14.5140
 20
2.5145
 30
0.0000
 40
0.6510
 50
49.1862
 51
59.4038
 62
2
  0
ARC
  8
1
  6
CONTINUOUS
 10
18.5140
 20
2.5145
 30
0.0000
 40
0.6510
 50
49.1862
 51
59.4038
 62
2
  0
ARC
  8
1
  6
CONTINUOUS
 10
22.5140
 20
2.5145
 30
0.0000
 40
0.6510
 50
49.1862
 51
59.4038
 62
2
  0
ARC
  8
1
  6
CONTINUOUS
 10
26.5140
 20
2.5145
 30
0.0000
 40
0.6510
 50
49.1862
 51
59.4038
 62
2
  0
ARC
  8
1
  6
CONTINUOUS
 10
6.5165
 20
2.5192
 30
0.0000
 40
0.6457
 50
69.6012
 51
79.8151
 62
2
  0
ARC
  8
1
  6
CONTINUOUS
 10
10.5165
 20
2.5192
 30
0.0000
 40
0.6458
 50
69.6011
 51
79.8151
 62
2
  0
ARC
  8
1
  6
CONTINUOUS
 10
14.5165
 20
2.5192
 30
0.0000
 40
0.6458
 50
69.6011
 51
79.8151
 62
2
  0
ARC
  8
1
  6
CONTINUOUS
 10
18.5165
 20
2.5192
 30
0.0000
 40
0.6458
 50
69.6011
 51
79.8151
 62
2
  0
ARC
  8
1
  6
CONTINUOUS
 10
22.5165
 20
2.5192
 30
0.0000
 40
0.6458
 50
69.6011
 51
79.8151
 62
2
  0
ARC
  8
1
  6
CONTINUOUS
 10
26.5165
 20
2.5192
 30
0.0000
 40
0.6458
 50
69.6011
 51
79.8151
 62
2
  0
ARC
  8
1
  6
CONTINUOUS
 10
6.5150
 20
2.5083
 30
0.0000
 40
0.6567
 50
79.8555
 51
90.0024
 62
2
  0
ARC
  8
1
  6
CONTINUOUS
 10
10.5150
 20
2.5083
 30
0.0000
 40
0.6567
 50
79.8555
 51
90.0024
 62
2
  0
ARC
  8
1
  6
CONTINUOUS
 10
14.5150
 20
2.5083
 30
0.0000
 40
0.6567
 50
79.8555
 51
90.0024
 62
2
  0
ARC
  8
1
  6
CONTINUOUS
 10
18.5150
 20
2.5083
 30
0.0000
 40
0.6567
 50
79.8556
 51
90.0025
 62
2
  0
ARC
  8
1
  6
CONTINUOUS
 10
22.5150
 20
2.5083
 30
0.0000
 40
0.6567
 50
79.8556
 51
90.0025
 62
2
  0
ARC
  8
1
  6
CONTINUOUS
 10
26.5150
 20
2.5083
 30
0.0000
 40
0.6567
 50
79.8556
 51
90.0025
 62
2
  0
ARC
  8
1
  6
CONTINUOUS
 10
6.5125
 20
2.5125
 30
0.0000
 40
0.6535
 50
39.0483
 51
49.2015
 62
2
  0
ARC
  8
1
  6
CONTINUOUS
 10
10.5125
 20
2.5125
 30
0.0000
 40
0.6535
 50
39.0483
 51
49.2015
 62
2
  0
ARC
  8
1
  6
CONTINUOUS
 10
14.5125
 20
2.5125
 30
0.0000
 40
0.6535
 50
39.0483
 51
49.2015
 62
2
  0
ARC
  8
1
  6
CONTINUOUS
 10
18.5125
 20
2.5125
 30
0.0000
 40
0.6535
 50
39.0483
 51
49.2015
 62
2
  0
ARC
  8
1
  6
CONTINUOUS
 10
22.5125
 20
2.5125
 30
0.0000
 40
0.6535
 50
39.0483
 51
49.2015
 62
2
  0
ARC
  8
1
  6
CONTINUOUS
 10
26.5125
 20
2.5125
 30
0.0000
 40
0.6535
 50
39.0483
 51
49.2015
 62
2
  0
ARC
  8
1
  6
CONTINUOUS
 10
6.5154
 20
1.4861
 30
0.0000
 40
1.2354
 50
323.0484
 51
330.4669
 62
2
  0
ARC
  8
1
  6
CONTINUOUS
 10
10.5154
 20
1.4861
 30
0.0000
 40
1.2354
 50
323.0484
 51
330.4669
 62
2
  0
ARC
  8
1
  6
CONTINUOUS
 10
14.5154
 20
1.4861
 30
0.0000
 40
1.2354
 50
323.0484
 51
330.4669
 62
2
  0
ARC
  8
1
  6
CONTINUOUS
 10
18.5154
 20
1.4861
 30
0.0000
 40
1.2354
 50
323.0483
 51
330.4669
 62
2
  0
ARC
  8
1
  6
CONTINUOUS
 10
22.5154
 20
1.4861
 30
0.0000
 40
1.2354
 50
323.0483
 51
330.4669
 62
2
  0
ARC
  8
1
  6
CONTINUOUS
 10
26.5154
 20
1.4861
 30
0.0000
 40
1.2354
 50
323.0483
 51
330.4669
 62
2
  0
ARC
  8
1
  6
CONTINUOUS
 10
5.4834
 20
2.5196
 30
0.0000
 40
0.6453
 50
98.3299
 51
108.5945
 62
2
  0
ARC
  8
1
  6
CONTINUOUS
 10
9.4834
 20
2.5196
 30
0.0000
 40
0.6453
 50
98.3299
 51
108.5945
 62
2
  0
ARC
  8
1
  6
CONTINUOUS
 10
13.4834
 20
2.5196
 30
0.0000
 40
0.6453
 50
98.3299
 51
108.5945
 62
2
  0
ARC
  8
1
  6
CONTINUOUS
 10
17.4834
 20
2.5196
 30
0.0000
 40
0.6453
 50
98.3299
 51
108.5945
 62
2
  0
ARC
  8
1
  6
CONTINUOUS
 10
21.4834
 20
2.5196
 30
0.0000
 40
0.6453
 50
98.3299
 51
108.5945
 62
2
  0
ARC
  8
1
  6
CONTINUOUS
 10
25.4834
 20
2.5196
 30
0.0000
 40
0.6453
 50
98.3299
 51
108.5945
 62
2
  0
ARC
  8
1
  6
CONTINUOUS
 10
5.4881
 20
2.5119
 30
0.0000
 40
0.6544
 50
129.0551
 51
139.1942
 62
2
  0
ARC
  8
1
  6
CONTINUOUS
 10
9.4881
 20
2.5119
 30
0.0000
 40
0.6544
 50
129.0550
 51
139.1942
 62
2
  0
ARC
  8
1
  6
CONTINUOUS
 10
13.4881
 20
2.5119
 30
0.0000
 40
0.6544
 50
129.0550
 51
139.1942
 62
2
  0
ARC
  8
1
  6
CONTINUOUS
 10
17.4881
 20
2.5119
 30
0.0000
 40
0.6544
 50
129.0551
 51
139.1942
 62
2
  0
ARC
  8
1
  6
CONTINUOUS
 10
21.4881
 20
2.5119
 30
0.0000
 40
0.6544
 50
129.0551
 51
139.1942
 62
2
  0
ARC
  8
1
  6
CONTINUOUS
 10
25.4881
 20
2.5119
 30
0.0000
 40
0.6544
 50
129.0551
 51
139.1942
 62
2
  0
ARC
  8
1
  6
CONTINUOUS
 10
5.4764
 20
1.4819
 30
0.0000
 40
1.2262
 50
196.0506
 51
203.4661
 62
2
  0
ARC
  8
1
  6
CONTINUOUS
 10
9.4764
 20
1.4819
 30
0.0000
 40
1.2262
 50
196.0506
 51
203.4661
 62
2
  0
ARC
  8
1
  6
CONTINUOUS
 10
13.4764
 20
1.4819
 30
0.0000
 40
1.2262
 50
196.0506
 51
203.4661
 62
2
  0
ARC
  8
1
  6
CONTINUOUS
 10
17.4764
 20
1.4819
 30
0.0000
 40
1.2262
 50
196.0506
 51
203.4661
 62
2
  0
ARC
  8
1
  6
CONTINUOUS
 10
21.4764
 20
1.4819
 30
0.0000
 40
1.2262
 50
196.0506
 51
203.4661
 62
2
  0
ARC
  8
1
  6
CONTINUOUS
 10
25.4764
 20
1.4819
 30
0.0000
 40
1.2262
 50
196.0506
 51
203.4661
 62
2
  0
ARC
  8
1
  6
CONTINUOUS
 10
6.5175
 20
1.4841
 30
0.0000
 40
0.3874
 50
333.6676
 51
346.8695
 62
2
  0
ARC
  8
1
  6
CONTINUOUS
 10
10.5175
 20
1.4841
 30
0.0000
 40
0.3874
 50
333.6676
 51
346.8695
 62
2
  0
ARC
  8
1
  6
CONTINUOUS
 10
14.5175
 20
1.4841
 30
0.0000
 40
0.3874
 50
333.6676
 51
346.8695
 62
2
  0
ARC
  8
1
  6
CONTINUOUS
 10
18.5175
 20
1.4841
 30
0.0000
 40
0.3874
 50
333.6676
 51
346.8695
 62
2
  0
ARC
  8
1
  6
CONTINUOUS
 10
22.5175
 20
1.4841
 30
0.0000
 40
0.3874
 50
333.6676
 51
346.8695
 62
2
  0
ARC
  8
1
  6
CONTINUOUS
 10
26.5175
 20
1.4841
 30
0.0000
 40
0.3874
 50
333.6676
 51
346.8695
 62
2
  0
ARC
  8
1
  6
CONTINUOUS
 10
6.5191
 20
1.4829
 30
0.0000
 40
1.2308
 50
345.2374
 51
352.5831
 62
2
  0
ARC
  8
1
  6
CONTINUOUS
 10
10.5191
 20
1.4829
 30
0.0000
 40
1.2308
 50
345.2374
 51
352.5831
 62
2
  0
ARC
  8
1
  6
CONTINUOUS
 10
14.5191
 20
1.4829
 30
0.0000
 40
1.2308
 50
345.2374
 51
352.5831
 62
2
  0
ARC
  8
1
  6
CONTINUOUS
 10
18.5191
 20
1.4829
 30
0.0000
 40
1.2308
 50
345.2374
 51
352.5831
 62
2
  0
ARC
  8
1
  6
CONTINUOUS
 10
22.5191
 20
1.4829
 30
0.0000
 40
1.2308
 50
345.2374
 51
352.5831
 62
2
  0
ARC
  8
1
  6
CONTINUOUS
 10
26.5191
 20
1.4829
 30
0.0000
 40
1.2308
 50
345.2374
 51
352.5831
 62
2
  0
ARC
  8
1
  6
CONTINUOUS
 10
5.4814
 20
2.5162
 30
0.0000
 40
0.6464
 50
149.3905
 51
159.5963
 62
2
  0
ARC
  8
1
  6
CONTINUOUS
 10
9.4814
 20
2.5162
 30
0.0000
 40
0.6464
 50
149.3905
 51
159.5963
 62
2
  0
ARC
  8
1
  6
CONTINUOUS
 10
13.4814
 20
2.5162
 30
0.0000
 40
0.6464
 50
149.3905
 51
159.5963
 62
2
  0
ARC
  8
1
  6
CONTINUOUS
 10
17.4814
 20
2.5162
 30
0.0000
 40
0.6464
 50
149.3905
 51
159.5963
 62
2
  0
ARC
  8
1
  6
CONTINUOUS
 10
21.4814
 20
2.5162
 30
0.0000
 40
0.6464
 50
149.3905
 51
159.5963
 62
2
  0
ARC
  8
1
  6
CONTINUOUS
 10
25.4814
 20
2.5162
 30
0.0000
 40
0.6464
 50
149.3905
 51
159.5963
 62
2
  0
ARC
  8
1
  6
CONTINUOUS
 10
6.5069
 20
2.5150
 30
0.0000
 40
0.6581
 50
360.0000
 51
8.3094
 62
2
  0
ARC
  8
1
  6
CONTINUOUS
 10
10.5069
 20
2.5150
 30
0.0000
 40
0.6581
 50
360.0000
 51
8.3094
 62
2
  0
ARC
  8
1
  6
CONTINUOUS
 10
14.5069
 20
2.5150
 30
0.0000
 40
0.6581
 50
360.0000
 51
8.3094
 62
2
  0
ARC
  8
1
  6
CONTINUOUS
 10
18.5069
 20
2.5150
 30
0.0000
 40
0.6581
 50
360.0000
 51
8.3094
 62
2
  0
ARC
  8
1
  6
CONTINUOUS
 10
22.5069
 20
2.5150
 30
0.0000
 40
0.6581
 50
360.0000
 51
8.3094
 62
2
  0
ARC
  8
1
  6
CONTINUOUS
 10
26.5069
 20
2.5150
 30
0.0000
 40
0.6581
 50
360.0000
 51
8.3094
 62
2
  0
ARC
  8
1
  6
CONTINUOUS
 10
5.4864
 20
2.5139
 30
0.0000
 40
0.6518
 50
118.8344
 51
129.0511
 62
2
  0
ARC
  8
1
  6
CONTINUOUS
 10
9.4864
 20
2.5139
 30
0.0000
 40
0.6518
 50
118.8344
 51
129.0511
 62
2
  0
ARC
  8
1
  6
CONTINUOUS
 10
13.4864
 20
2.5139
 30
0.0000
 40
0.6518
 50
118.8344
 51
129.0511
 62
2
  0
ARC
  8
1
  6
CONTINUOUS
 10
17.4864
 20
2.5139
 30
0.0000
 40
0.6518
 50
118.8344
 51
129.0510
 62
2
  0
ARC
  8
1
  6
CONTINUOUS
 10
21.4864
 20
2.5139
 30
0.0000
 40
0.6518
 50
118.8344
 51
129.0510
 62
2
  0
ARC
  8
1
  6
CONTINUOUS
 10
25.4864
 20
2.5139
 30
0.0000
 40
0.6518
 50
118.8344
 51
129.0510
 62
2
  0
ARC
  8
1
  6
CONTINUOUS
 10
5.4840
 20
2.5180
 30
0.0000
 40
0.6470
 50
108.6038
 51
118.8240
 62
2
  0
ARC
  8
1
  6
CONTINUOUS
 10
9.4840
 20
2.5180
 30
0.0000
 40
0.6470
 50
108.6038
 51
118.8240
 62
2
  0
ARC
  8
1
  6
CONTINUOUS
 10
13.4840
 20
2.5180
 30
0.0000
 40
0.6470
 50
108.6038
 51
118.8240
 62
2
  0
ARC
  8
1
  6
CONTINUOUS
 10
17.4840
 20
2.5180
 30
0.0000
 40
0.6470
 50
108.6038
 51
118.8240
 62
2
  0
ARC
  8
1
  6
CONTINUOUS
 10
21.4840
 20
2.5180
 30
0.0000
 40
0.6470
 50
108.6038
 51
118.8240
 62
2
  0
ARC
  8
1
  6
CONTINUOUS
 10
25.4840
 20
2.5180
 30
0.0000
 40
0.6470
 50
108.6038
 51
118.8240
 62
2
  0
ARC
  8
1
  6
CONTINUOUS
 10
6.5193
 20
2.5166
 30
0.0000
 40
0.6456
 50
8.3323
 51
18.5922
 62
2
  0
ARC
  8
1
  6
CONTINUOUS
 10
10.5193
 20
2.5166
 30
0.0000
 40
0.6456
 50
8.3323
 51
18.5922
 62
2
  0
ARC
  8
1
  6
CONTINUOUS
 10
14.5193
 20
2.5166
 30
0.0000
 40
0.6456
 50
8.3323
 51
18.5922
 62
2
  0
ARC
  8
1
  6
CONTINUOUS
 10
18.5193
 20
2.5166
 30
0.0000
 40
0.6456
 50
8.3323
 51
18.5922
 62
2
  0
ARC
  8
1
  6
CONTINUOUS
 10
22.5193
 20
2.5166
 30
0.0000
 40
0.6456
 50
8.3323
 51
18.5922
 62
2
  0
ARC
  8
1
  6
CONTINUOUS
 10
26.5193
 20
2.5166
 30
0.0000
 40
0.6456
 50
8.3323
 51
18.5922
 62
2
  0
ARC
  8
1
  6
CONTINUOUS
 10
5.4768
 20
1.4820
 30
0.0000
 40
1.2267
 50
188.7030
 51
196.0489
 62
2
  0
ARC
  8
1
  6
CONTINUOUS
 10
9.4768
 20
1.4820
 30
0.0000
 40
1.2267
 50
188.7030
 51
196.0489
 62
2
  0
ARC
  8
1
  6
CONTINUOUS
 10
13.4768
 20
1.4820
 30
0.0000
 40
1.2267
 50
188.7030
 51
196.0489
 62
2
  0
ARC
  8
1
  6
CONTINUOUS
 10
17.4768
 20
1.4820
 30
0.0000
 40
1.2267
 50
188.7030
 51
196.0489
 62
2
  0
ARC
  8
1
  6
CONTINUOUS
 10
21.4768
 20
1.4820
 30
0.0000
 40
1.2267
 50
188.7030
 51
196.0489
 62
2
  0
ARC
  8
1
  6
CONTINUOUS
 10
25.4768
 20
1.4820
 30
0.0000
 40
1.2267
 50
188.7030
 51
196.0489
 62
2
  0
ARC
  8
1
  6
CONTINUOUS
 10
5.4892
 20
1.4841
 30
0.0000
 40
1.2392
 50
181.2782
 51
188.7096
 62
2
  0
ARC
  8
1
  6
CONTINUOUS
 10
9.4892
 20
1.4841
 30
0.0000
 40
1.2392
 50
181.2782
 51
188.7096
 62
2
  0
ARC
  8
1
  6
CONTINUOUS
 10
13.4892
 20
1.4841
 30
0.0000
 40
1.2392
 50
181.2782
 51
188.7096
 62
2
  0
ARC
  8
1
  6
CONTINUOUS
 10
17.4892
 20
1.4841
 30
0.0000
 40
1.2392
 50
181.2782
 51
188.7096
 62
2
  0
ARC
  8
1
  6
CONTINUOUS
 10
21.4892
 20
1.4841
 30
0.0000
 40
1.2392
 50
181.2782
 51
188.7096
 62
2
  0
ARC
  8
1
  6
CONTINUOUS
 10
25.4892
 20
1.4841
 30
0.0000
 40
1.2392
 50
181.2782
 51
188.7096
 62
2
  0
ENDSEC
  0
EOF
