  0
SECTION
  2
HEADER
  9
$ACADVER
  1
AC1003
  9
$EXTMIN
 10
0.923997
 20
1.219310
  9
$EXTMAX
 10
27.083998
 20
2.774323
  0
ENDSEC
  0
TABLE
  2
LAYER
 70
	256
  0
LAYER
  2
1
 70
	0
  6
CONTINUOUS
 62
1
  0
ENDTAB
  0
SECTION
  2
ENTITIES
  0
LINE
  8
1
  6
CONTINUOUS
 10
3.0840
 11
0.9240
 20
1.2193
 21
1.2193
 30
0.0000
 31
0.0000
 62
2
  0
LINE
  8
1
  6
CONTINUOUS
 10
0.9240
 11
0.9240
 20
1.2193
 21
1.9968
 30
0.0000
 31
0.0000
 62
2
  0
LINE
  8
1
  6
CONTINUOUS
 10
0.9240
 11
3.0840
 20
2.7743
 21
2.7743
 30
0.0000
 31
0.0000
 62
2
  0
LINE
  8
1
  6
CONTINUOUS
 10
3.0840
 11
3.0840
 20
2.7743
 21
1.2193
 30
0.0000
 31
0.0000
 62
2
  0
LINE
  8
1
  6
CONTINUOUS
 10
0.9240
 11
0.9240
 20
1.9968
 21
2.7743
 30
0.0000
 31
0.0000
 62
2
  0
LINE
  8
1
  6
CONTINUOUS
 10
7.0840
 11
7.0840
 20
2.7743
 21
1.2193
 30
0.0000
 31
0.0000
 62
2
  0
LINE
  8
1
  6
CONTINUOUS
 10
11.0840
 11
11.0840
 20
2.7743
 21
1.2193
 30
0.0000
 31
0.0000
 62
2
  0
LINE
  8
1
  6
CONTINUOUS
 10
15.0840
 11
15.0840
 20
2.7743
 21
1.2193
 30
0.0000
 31
0.0000
 62
2
  0
LINE
  8
1
  6
CONTINUOUS
 10
19.0840
 11
19.0840
 20
2.7743
 21
1.2193
 30
0.0000
 31
0.0000
 62
2
  0
LINE
  8
1
  6
CONTINUOUS
 10
23.0840
 11
23.0840
 20
2.7743
 21
1.2193
 30
0.0000
 31
0.0000
 62
2
  0
LINE
  8
1
  6
CONTINUOUS
 10
27.0840
 11
27.0840
 20
2.7743
 21
1.2193
 30
0.0000
 31
0.0000
 62
2
  0
LINE
  8
1
  6
CONTINUOUS
 10
4.9240
 11
4.9240
 20
1.9968
 21
2.7743
 30
0.0000
 31
0.0000
 62
2
  0
LINE
  8
1
  6
CONTINUOUS
 10
8.9240
 11
8.9240
 20
1.9968
 21
2.7743
 30
0.0000
 31
0.0000
 62
2
  0
LINE
  8
1
  6
CONTINUOUS
 10
12.9240
 11
12.9240
 20
1.9968
 21
2.7743
 30
0.0000
 31
0.0000
 62
2
  0
LINE
  8
1
  6
CONTINUOUS
 10
16.9240
 11
16.9240
 20
1.9968
 21
2.7743
 30
0.0000
 31
0.0000
 62
2
  0
LINE
  8
1
  6
CONTINUOUS
 10
20.9240
 11
20.9240
 20
1.9968
 21
2.7743
 30
0.0000
 31
0.0000
 62
2
  0
LINE
  8
1
  6
CONTINUOUS
 10
24.9240
 11
24.9240
 20
1.9968
 21
2.7743
 30
0.0000
 31
0.0000
 62
2
  0
LINE
  8
1
  6
CONTINUOUS
 10
4.9240
 11
7.0840
 20
2.7743
 21
2.7743
 30
0.0000
 31
0.0000
 62
2
  0
LINE
  8
1
  6
CONTINUOUS
 10
8.9240
 11
11.0840
 20
2.7743
 21
2.7743
 30
0.0000
 31
0.0000
 62
2
  0
LINE
  8
1
  6
CONTINUOUS
 10
12.9240
 11
15.0840
 20
2.7743
 21
2.7743
 30
0.0000
 31
0.0000
 62
2
  0
LINE
  8
1
  6
CONTINUOUS
 10
16.9240
 11
19.0840
 20
2.7743
 21
2.7743
 30
0.0000
 31
0.0000
 62
2
  0
LINE
  8
1
  6
CONTINUOUS
 10
20.9240
 11
23.0840
 20
2.7743
 21
2.7743
 30
0.0000
 31
0.0000
 62
2
  0
LINE
  8
1
  6
CONTINUOUS
 10
24.9240
 11
27.0840
 20
2.7743
 21
2.7743
 30
0.0000
 31
0.0000
 62
2
  0
LINE
  8
1
  6
CONTINUOUS
 10
7.0840
 11
4.9240
 20
1.2193
 21
1.2193
 30
0.0000
 31
0.0000
 62
2
  0
LINE
  8
1
  6
CONTINUOUS
 10
11.0840
 11
8.9240
 20
1.2193
 21
1.2193
 30
0.0000
 31
0.0000
 62
2
  0
LINE
  8
1
  6
CONTINUOUS
 10
15.0840
 11
12.9240
 20
1.2193
 21
1.2193
 30
0.0000
 31
0.0000
 62
2
  0
LINE
  8
1
  6
CONTINUOUS
 10
19.0840
 11
16.9240
 20
1.2193
 21
1.2193
 30
0.0000
 31
0.0000
 62
2
  0
LINE
  8
1
  6
CONTINUOUS
 10
23.0840
 11
20.9240
 20
1.2193
 21
1.2193
 30
0.0000
 31
0.0000
 62
2
  0
LINE
  8
1
  6
CONTINUOUS
 10
27.0840
 11
24.9240
 20
1.2193
 21
1.2193
 30
0.0000
 31
0.0000
 62
2
  0
LINE
  8
1
  6
CONTINUOUS
 10
4.9240
 11
4.9240
 20
1.2193
 21
1.9968
 30
0.0000
 31
0.0000
 62
2
  0
LINE
  8
1
  6
CONTINUOUS
 10
8.9240
 11
8.9240
 20
1.2193
 21
1.9968
 30
0.0000
 31
0.0000
 62
2
  0
LINE
  8
1
  6
CONTINUOUS
 10
12.9240
 11
12.9240
 20
1.2193
 21
1.9968
 30
0.0000
 31
0.0000
 62
2
  0
LINE
  8
1
  6
CONTINUOUS
 10
16.9240
 11
16.9240
 20
1.2193
 21
1.9968
 30
0.0000
 31
0.0000
 62
2
  0
LINE
  8
1
  6
CONTINUOUS
 10
20.9240
 11
20.9240
 20
1.2193
 21
1.9968
 30
0.0000
 31
0.0000
 62
2
  0
LINE
  8
1
  6
CONTINUOUS
 10
24.9240
 11
24.9240
 20
1.2193
 21
1.9968
 30
0.0000
 31
0.0000
 62
2
  0
LINE
  8
1
  6
CONTINUOUS
 10
0.9540
 11
4.9540
 20
2.0268
 21
1.9668
 30
0.0000
 31
0.0000
 62
3
  0
LINE
  8
1
  6
CONTINUOUS
 10
4.9540
 11
8.9540
 20
2.0268
 21
1.9668
 30
0.0000
 31
0.0000
 62
3
  0
LINE
  8
1
  6
CONTINUOUS
 10
8.9540
 11
12.9540
 20
2.0268
 21
1.9668
 30
0.0000
 31
0.0000
 62
3
  0
LINE
  8
1
  6
CONTINUOUS
 10
12.9540
 11
16.9540
 20
2.0268
 21
1.9668
 30
0.0000
 31
0.0000
 62
3
  0
LINE
  8
1
  6
CONTINUOUS
 10
16.9540
 11
20.9540
 20
2.0268
 21
1.9668
 30
0.0000
 31
0.0000
 62
3
  0
LINE
  8
1
  6
CONTINUOUS
 10
20.9540
 11
24.9540
 20
2.0268
 21
1.9668
 30
0.0000
 31
0.0000
 62
3
  0
ARC
  8
1
  6
CONTINUOUS
 10
0.9540
 20
1.9968
 30
0.0000
 40
0.0300
 50
180.0000
 51
270.0000
 62
2
  0
ARC
  8
1
  6
CONTINUOUS
 10
0.9540
 20
1.9968
 30
0.0000
 40
0.0300
 50
90.0000
 51
180.0000
 62
2
  0
ARC
  8
1
  6
CONTINUOUS
 10
4.9540
 20
1.9968
 30
0.0000
 40
0.0300
 50
180.0000
 51
270.0000
 62
2
  0
ARC
  8
1
  6
CONTINUOUS
 10
8.9540
 20
1.9968
 30
0.0000
 40
0.0300
 50
180.0000
 51
270.0000
 62
2
  0
ARC
  8
1
  6
CONTINUOUS
 10
12.9540
 20
1.9968
 30
0.0000
 40
0.0300
 50
180.0000
 51
270.0000
 62
2
  0
ARC
  8
1
  6
CONTINUOUS
 10
16.9540
 20
1.9968
 30
0.0000
 40
0.0300
 50
180.0000
 51
270.0000
 62
2
  0
ARC
  8
1
  6
CONTINUOUS
 10
20.9540
 20
1.9968
 30
0.0000
 40
0.0300
 50
180.0000
 51
270.0000
 62
2
  0
ARC
  8
1
  6
CONTINUOUS
 10
24.9540
 20
1.9968
 30
0.0000
 40
0.0300
 50
180.0000
 51
270.0000
 62
2
  0
ARC
  8
1
  6
CONTINUOUS
 10
4.9540
 20
1.9968
 30
0.0000
 40
0.0300
 50
90.0000
 51
180.0000
 62
2
  0
ARC
  8
1
  6
CONTINUOUS
 10
8.9540
 20
1.9968
 30
0.0000
 40
0.0300
 50
90.0000
 51
180.0000
 62
2
  0
ARC
  8
1
  6
CONTINUOUS
 10
12.9540
 20
1.9968
 30
0.0000
 40
0.0300
 50
90.0000
 51
180.0000
 62
2
  0
ARC
  8
1
  6
CONTINUOUS
 10
16.9540
 20
1.9968
 30
0.0000
 40
0.0300
 50
90.0000
 51
180.0000
 62
2
  0
ARC
  8
1
  6
CONTINUOUS
 10
20.9540
 20
1.9968
 30
0.0000
 40
0.0300
 50
90.0000
 51
180.0000
 62
2
  0
ARC
  8
1
  6
CONTINUOUS
 10
24.9540
 20
1.9968
 30
0.0000
 40
0.0300
 50
90.0000
 51
135.0006
 62
2
  0
ARC
  8
1
  6
CONTINUOUS
 10
24.9540
 20
1.9968
 30
0.0000
 40
0.0300
 50
135.0003
 51
180.0000
 62
2
  0
ENDSEC
  0
EOF
