%FSLAX33Y33*%
%MOMM*%
%AMRR-H1100000-W1800000-R550000-RO0.000*
21,1,0.7,1.1,0.,0.,360*
1,1,1.1,-0.35,0.*
1,1,1.1,0.35,0.*
1,1,1.1,0.35,-0.*
1,1,1.1,-0.35,0.*%
%AMRR-H1100000-W2200000-R550000-RO0.000*
21,1,1.1,1.1,0.,0.,360*
1,1,1.1,-0.55,0.*
1,1,1.1,0.55,0.*
1,1,1.1,0.55,-0.*
1,1,1.1,-0.55,0.*%
%AMRect-W670710-H870710-RO0.500*
21,1,0.67071,0.87071,0.,0.,270*%
%AMRect-W670710-H870710-RO1.500*
21,1,0.67071,0.87071,0.,0.,90*%
%AMRect-W670710-H870710-RO1.000*
21,1,0.67071,0.87071,0.,0.,180*%
%AMRect-W1980000-H530000-RO1.000*
21,1,1.98,0.53,0.,0.,180*%
%AMRR-H530000-W1980000-R265000-RO1.000*
21,1,1.45,0.53,0.,0.,180*
1,1,0.53,0.725,-0.*
1,1,0.53,-0.725,-0.*
1,1,0.53,-0.725,0.*
1,1,0.53,0.725,0.*%
%AMRect-W1488281-H525831-RO1.500*
21,1,1.488281,0.525831,0.,0.,90*%
%AMRR-H525831-W1488281-R262915-RO1.500*
21,1,0.962451,0.525831,0.,0.,90*
21,1,1.488281,0.000001,0.,0.,90*
1,1,0.52583,-0.0000005,-0.4812255*
1,1,0.52583,-0.0000005,0.4812255*
1,1,0.52583,0.0000005,0.4812255*
1,1,0.52583,0.0000005,-0.4812255*%
%AMRR-H1488281-W525831-R262915-RO1.500*
21,1,0.000001,1.488281,0.,0.,90*
21,1,0.525831,0.962451,0.,0.,90*
1,1,0.52583,-0.4812255,-0.0000005*
1,1,0.52583,-0.4812255,0.0000005*
1,1,0.52583,0.4812255,0.0000005*
1,1,0.52583,0.4812255,-0.0000005*%
%AMRect-W2200000-H3000000-RO0.500*
21,1,2.2,3.,0.,0.,270*%
%AMRect-W1750000-H1750000-RO1.000*
21,1,1.75,1.75,0.,0.,180*%
%AMRect-W1450000-H1450000-RO1.500*
21,1,1.45,1.45,0.,0.,90*%
%ADD10C,0.5588*%
%ADD11R,0.67071X0.87071*%
%ADD12R,0.45X1.5*%
%ADD13RR-H1100000-W1800000-R550000-RO0.000*%
%ADD14RR-H1100000-W2200000-R550000-RO0.000*%
%ADD15Rect-W670710-H870710-RO0.500*%
%ADD16Rect-W670710-H870710-RO1.500*%
%ADD17R,1.75X1.75*%
%ADD18C,1.75*%
%ADD19Rect-W670710-H870710-RO1.000*%
%ADD20Rect-W1980000-H530000-RO1.000*%
%ADD21RR-H530000-W1980000-R265000-RO1.000*%
%ADD22Rect-W1488281-H525831-RO1.500*%
%ADD23RR-H525831-W1488281-R262915-RO1.500*%
%ADD24RR-H1488281-W525831-R262915-RO1.500*%
%ADD25C,1.949999*%
%ADD26Rect-W2200000-H3000000-RO0.500*%
%ADD27C,1.75*%
%ADD28Rect-W1750000-H1750000-RO1.000*%
%ADD29R,1.2X1.*%
%ADD30C,1.45*%
%ADD31Rect-W1450000-H1450000-RO1.500*%
D10*
%LNtop solder mask_traces*%
G01*
X6520Y14940D03*
X32250Y34950D03*
X37325Y45105D03*
X11095Y4725D03*
X26565Y40075D03*
X17475Y33590D03*
X22668Y13355D03*
X27165Y42455D03*
X21450Y2350D03*
X13360Y23750D03*
X44750Y21390D03*
X34975Y44505D03*
X34800Y17085D03*
X44844Y12078D03*
X21440Y13355D03*
X5237Y20540D03*
X18650Y5581D03*
X35535Y37250D03*
X38075Y35975D03*
X6520Y17340D03*
X32075Y38950D03*
X19427Y5581D03*
X12300Y33000D03*
X17822Y5600D03*
X6520Y16540D03*
X13650Y41000D03*
X30575Y4800D03*
X29800Y39450D03*
X12560Y23750D03*
X28885Y11100D03*
X33550Y38350D03*
X16023Y24050D03*
X14192Y23750D03*
X20000Y34240D03*
X29810Y33025D03*
X32165Y43850D03*
X41300Y16100D03*
X29695Y43205D03*
X11995Y4725D03*
X24191Y5644D03*
X24191Y8300D03*
X10195Y4725D03*
X6520Y15740D03*
X17045Y5581D03*
X26505Y32380D03*
%LNtop solder mask component b91ffdef01e00872*%
D11*
X42175Y14169D03*
X43875Y14169D03*
%LNtop solder mask component 9fdb64bbcfd9a77c*%
D12*
X12595Y3475D03*
X13245Y3475D03*
X15195Y3475D03*
X13895Y3475D03*
X14545Y3475D03*
D13*
X11095Y3725D03*
D14*
X13895Y1575D03*
D13*
X16695Y3725D03*
%LNtop solder mask component 84cf0bd8b20b0987*%
D15*
X6520Y22312D03*
X6520Y20612D03*
%LNtop solder mask component ec25ffb4a5f22221*%
D11*
X21450Y4300D03*
X23150Y4300D03*
%LNtop solder mask component ddd6a926bc8c1dc3*%
D16*
X12585Y6500D03*
X12585Y8200D03*
%LNtop solder mask component bca8d065b4743895*%
D17*
X3500Y3610D03*
D18*
X3500Y6150D03*
X3500Y8690D03*
X3500Y11230D03*
X3500Y13770D03*
X3500Y16310D03*
X3500Y18850D03*
X3500Y21390D03*
%LNtop solder mask component fce28939f63c5dc8*%
D19*
X10088Y24075D03*
X8388Y24075D03*
%LNtop solder mask component 8c92817f578251b9*%
D16*
X14580Y6500D03*
X14580Y8200D03*
%LNtop solder mask component d2a4fe636fd95985*%
D11*
X21450Y5644D03*
X23150Y5644D03*
%LNtop solder mask component abbcac8aa2df2ad2*%
D17*
X46460Y29770D03*
D18*
X46460Y32310D03*
X46460Y34850D03*
X46460Y37390D03*
X46460Y39930D03*
X46460Y42470D03*
X46460Y45010D03*
X46460Y47550D03*
%LNtop solder mask component 51ec350bf9d700a2*%
D11*
X24170Y15233D03*
X25870Y15233D03*
%LNtop solder mask component 1511dc9a44b694e0*%
X21450Y6976D03*
X23150Y6976D03*
%LNtop solder mask component 12e2b8e352b79090*%
D19*
X25870Y19435D03*
X24170Y19435D03*
%LNtop solder mask component 3ba8622ba2662513*%
D11*
X42175Y18754D03*
X43875Y18754D03*
%LNtop solder mask component e813251b1ef1d0c8*%
D20*
X39745Y14545D03*
D21*
X39745Y15815D03*
X39745Y17085D03*
X39745Y18355D03*
X39745Y19625D03*
X39745Y20895D03*
X39745Y22165D03*
X39745Y23435D03*
X30375Y23435D03*
X30375Y22165D03*
X30375Y20895D03*
X30375Y19625D03*
X30375Y18355D03*
X30375Y17085D03*
X30375Y15815D03*
X30375Y14545D03*
%LNtop solder mask component 2d768b8b602cab3a*%
D16*
X15932Y6500D03*
X15932Y8200D03*
%LNtop solder mask component 48381ae9b0a13e44*%
D19*
X25891Y13355D03*
X24191Y13355D03*
%LNtop solder mask component 23b1068e5906a491*%
X19132Y24050D03*
X17432Y24050D03*
%LNtop solder mask component 7822d83bbbda28c0*%
D22*
X10160Y10899D03*
D23*
X10960Y10899D03*
X11760Y10899D03*
X12560Y10899D03*
X13360Y10899D03*
X14160Y10899D03*
X14960Y10899D03*
X15760Y10899D03*
X16560Y10899D03*
X17360Y10899D03*
X18160Y10899D03*
X18160Y22181D03*
X17360Y22181D03*
X16560Y22181D03*
X15760Y22181D03*
X14960Y22181D03*
X14160Y22181D03*
X13360Y22181D03*
X12560Y22181D03*
X11760Y22181D03*
X10960Y22181D03*
X10160Y22181D03*
D24*
X19801Y12540D03*
X19801Y13340D03*
X19801Y14140D03*
X19801Y14940D03*
X19801Y15740D03*
X19801Y16540D03*
X19801Y17340D03*
X19801Y18140D03*
X19801Y18940D03*
X19801Y19740D03*
X19801Y20540D03*
X8519Y20540D03*
X8519Y19740D03*
X8519Y18940D03*
X8519Y18140D03*
X8519Y17340D03*
X8519Y16540D03*
X8519Y15740D03*
X8519Y14940D03*
X8519Y14140D03*
X8519Y13340D03*
X8519Y12540D03*
%LNtop solder mask component 7a9cd340cbf98a30*%
D25*
X28885Y9190D03*
X28885Y6690D03*
X28885Y4190D03*
X43385Y9190D03*
X43385Y4190D03*
D26*
X36385Y11340D03*
X36385Y2040D03*
%LNtop solder mask component 3c27278c148a2f04*%
D19*
X43875Y16650D03*
X42175Y16650D03*
%LNtop solder mask component c71e0ad25ac2378d*%
D27*
X3460Y44910D03*
X3460Y42370D03*
X3460Y39830D03*
X3460Y37290D03*
X3460Y34750D03*
X3460Y32210D03*
X3460Y29670D03*
D28*
X3460Y47450D03*
%LNtop solder mask component 5766e69468e6c804*%
D11*
X42175Y20024D03*
X43875Y20024D03*
%LNtop solder mask component 0f1de3bf73c6ccd1*%
X21450Y8300D03*
X23150Y8300D03*
%LNtop solder mask component b727e9ed986f8142*%
D29*
X24170Y16700D03*
X25870Y16700D03*
X25870Y18000D03*
X24170Y18000D03*
%LNtop solder mask component b3b1496daab2cd3d*%
D11*
X42175Y15380D03*
X43875Y15380D03*
%LNtop solder mask component 12bee7e14ac3c08e*%
D27*
X46500Y18850D03*
X46500Y16310D03*
X46500Y13770D03*
X46500Y11230D03*
X46500Y8690D03*
X46500Y6150D03*
X46500Y3610D03*
D28*
X46500Y21390D03*
%LNtop solder mask component ee30c7fa9c17aba8*%
D16*
X9897Y6500D03*
X9897Y8200D03*
%LNtop solder mask component 4bf68f377a3ec8f9*%
X11259Y6500D03*
X11259Y8200D03*
%LNtop solder mask component a433c07c415dc932*%
D30*
X32995Y30970D03*
X38075Y30970D03*
X40615Y46270D03*
X35535Y46270D03*
X30455Y46270D03*
X30455Y30970D03*
X35535Y30970D03*
X40615Y30970D03*
X38075Y46270D03*
X32995Y46270D03*
X27915Y46270D03*
D31*
X27915Y30970D03*
%LNtop solder mask component ec5ddc3e9c6c7b47*%
D30*
X14295Y30970D03*
X19375Y30970D03*
X21915Y46270D03*
X16835Y46270D03*
X11755Y46270D03*
X11755Y30970D03*
X16835Y30970D03*
X21915Y30970D03*
X19375Y46270D03*
X14295Y46270D03*
X9215Y46270D03*
D31*
X9215Y30970D03*
M02*