%FSLAX33Y33*%
%MOMM*%
%ADD10C,0.2032*%
%ADD11C,0.15*%
%ADD12C,0.5*%
%ADD13C,0.5*%
D10*
%LNbottom silkscreen_traces*%
%LNbottom silkscreen component 54125db77599e596*%
G01*
X21242Y16802D02*
X21242Y16802D01*
X21182Y16806*
X21127Y16814*
X21077Y16824*
X21032Y16838*
X20991Y16854*
X20953Y16873*
X20920Y16895*
X20890Y16921*
X20863Y16952*
X20838Y16988*
X20815Y17028*
X20797Y17072*
X20784Y17118*
X20776Y17166*
X20773Y17215*
X20777Y17275*
X20790Y17332*
X20812Y17384*
X20843Y17432*
X20881Y17474*
X20927Y17510*
X20981Y17539*
X21042Y17561*
X21043Y17562*
X20995Y17589*
X20954Y17620*
X20920Y17654*
X20892Y17693*
X20870Y17734*
X20855Y17776*
X20845Y17820*
X20842Y17865*
X20846Y17914*
X20856Y17962*
X20874Y18008*
X20898Y18054*
X20929Y18096*
X20965Y18133*
X21007Y18163*
X21053Y18188*
X21107Y18207*
X21169Y18220*
X21238Y18228*
X21316Y18231*
X21853Y18231*
X21853Y16801*
X21308Y16801*
X21242Y16802*
X21664Y17630D02*
X21664Y17630D01*
X21354Y17630*
X21296Y17631*
X21246Y17634*
X21206Y17639*
X21174Y17647*
X21140Y17659*
X21110Y17675*
X21085Y17695*
X21065Y17718*
X21049Y17744*
X21037Y17774*
X21031Y17807*
X21028Y17843*
X21030Y17878*
X21037Y17910*
X21048Y17940*
X21063Y17968*
X21081Y17993*
X21104Y18014*
X21130Y18031*
X21160Y18043*
X21198Y18051*
X21246Y18058*
X21306Y18061*
X21378Y18063*
X21664Y18063*
X21664Y17630*
X21664Y16969D02*
X21664Y16969D01*
X21308Y16969*
X21265Y16969*
X21229Y16971*
X21201Y16973*
X21179Y16976*
X21147Y16983*
X21119Y16991*
X21093Y17002*
X21069Y17015*
X21048Y17030*
X21029Y17048*
X21012Y17070*
X20997Y17094*
X20985Y17122*
X20976Y17151*
X20971Y17182*
X20969Y17215*
X20971Y17254*
X20979Y17290*
X20992Y17323*
X21010Y17354*
X21032Y17382*
X21059Y17404*
X21089Y17423*
X21124Y17437*
X21164Y17448*
X21212Y17455*
X21269Y17460*
X21333Y17461*
X21664Y17461*
X21664Y16969*
X19958Y18063D02*
X19958Y18063D01*
X19958Y18063*
X19485Y18063*
X19485Y18231*
X20619Y18231*
X20619Y18063*
X20147Y18063*
X20147Y18063*
X20147Y16801*
X19958Y16801*
X19958Y18063*
X18700Y18237D02*
X18700Y18237D01*
X18812Y18237*
X18839Y18190*
X18839Y18190*
X18874Y18143*
X18874Y18143*
X18917Y18095*
X18917Y18095*
X18968Y18046*
X18968Y18046*
X19026Y17998*
X19026Y17998*
X19088Y17954*
X19088Y17954*
X19155Y17914*
X19155Y17914*
X19226Y17878*
X19226Y17709*
X19184Y17726*
X19140Y17747*
X19092Y17771*
X19042Y17799*
X18993Y17830*
X18949Y17860*
X18910Y17890*
X18875Y17921*
X18875Y17920*
X18875Y16801*
X18700Y16801*
X18700Y18237*
%LNbottom silkscreen component bca8d065b4743895*%
D11*
X5020Y2295D02*
X5020Y22705D01*
X1980Y22705*
X1980Y2295*
X5020Y2295*
D10*
X2721Y0970D02*
X2721Y0970D01*
X2693Y0975*
X2666Y0983*
X2642Y0994*
X2620Y1008*
X2601Y1026*
X2585Y1046*
X2573Y1069*
X2563Y1096*
X2557Y1128*
X2553Y1166*
X2551Y1208*
X2551Y1695*
X2645Y1695*
X2645Y1203*
X2645Y1203*
X2646Y1174*
X2646Y1174*
X2647Y1149*
X2647Y1149*
X2650Y1129*
X2650Y1129*
X2655Y1113*
X2655Y1113*
X2661Y1100*
X2661Y1099*
X2669Y1088*
X2669Y1088*
X2679Y1077*
X2679Y1077*
X2691Y1068*
X2691Y1068*
X2704Y1061*
X2704Y1061*
X2719Y1056*
X2719Y1056*
X2735Y1053*
X2735Y1053*
X2752Y1052*
X2752Y1052*
X2775Y1054*
X2775Y1054*
X2796Y1059*
X2796Y1059*
X2813Y1069*
X2813Y1069*
X2828Y1082*
X2828Y1082*
X2841Y1101*
X2841Y1101*
X2850Y1126*
X2850Y1126*
X2856Y1157*
X2856Y1157*
X2859Y1194*
X2944Y1183*
X2942Y1133*
X2933Y1090*
X2918Y1053*
X2896Y1022*
X2868Y0999*
X2835Y0982*
X2796Y0972*
X2752Y0968*
X2721Y0970*
X1970Y1064D02*
X1970Y1064D01*
X2321Y1064*
X2321Y1064*
X2313Y1077*
X2313Y1077*
X2305Y1089*
X2305Y1089*
X2295Y1101*
X2295Y1101*
X2284Y1112*
X2284Y1112*
X2269Y1127*
X2269Y1127*
X2247Y1147*
X2247Y1147*
X2218Y1172*
X2218Y1172*
X2182Y1203*
X2138Y1240*
X2101Y1274*
X2071Y1303*
X2047Y1328*
X2028Y1351*
X2012Y1373*
X1999Y1395*
X1989Y1416*
X1981Y1437*
X1976Y1458*
X1972Y1479*
X1971Y1500*
X1975Y1540*
X1986Y1577*
X2005Y1611*
X2031Y1641*
X2064Y1666*
X2102Y1684*
X2145Y1695*
X2194Y1698*
X2242Y1695*
X2285Y1685*
X2323Y1669*
X2356Y1645*
X2383Y1616*
X2404Y1581*
X2418Y1539*
X2426Y1492*
X2336Y1483*
X2334Y1514*
X2334Y1514*
X2326Y1543*
X2326Y1543*
X2314Y1567*
X2314Y1567*
X2298Y1588*
X2298Y1588*
X2277Y1605*
X2277Y1605*
X2253Y1617*
X2253Y1617*
X2226Y1624*
X2226Y1624*
X2196Y1627*
X2196Y1627*
X2167Y1624*
X2167Y1624*
X2141Y1618*
X2141Y1617*
X2118Y1606*
X2118Y1606*
X2098Y1590*
X2098Y1590*
X2082Y1571*
X2082Y1571*
X2070Y1550*
X2070Y1550*
X2063Y1527*
X2063Y1527*
X2060Y1502*
X2060Y1502*
X2063Y1477*
X2063Y1477*
X2071Y1450*
X2071Y1450*
X2084Y1424*
X2084Y1424*
X2102Y1396*
X2102Y1396*
X2127Y1365*
X2127Y1365*
X2162Y1330*
X2162Y1330*
X2206Y1290*
X2206Y1290*
X2259Y1244*
X2259Y1244*
X2295Y1214*
X2326Y1186*
X2352Y1160*
X2374Y1136*
X2393Y1112*
X2409Y1089*
X2422Y1065*
X2432Y1041*
X2437Y1026*
X2440Y1011*
X2442Y0996*
X2442Y0981*
X1970Y0981*
X1970Y1064*
D12*
X1480Y3610D03*
%LNbottom silkscreen component abbcac8aa2df2ad2*%
D11*
X47980Y28455D02*
X47980Y48865D01*
X44940Y48865*
X44940Y28455*
X47980Y28455*
D10*
X45681Y27120D02*
X45681Y27120D01*
X45653Y27125*
X45626Y27133*
X45602Y27144*
X45580Y27158*
X45561Y27176*
X45545Y27196*
X45533Y27219*
X45523Y27246*
X45517Y27278*
X45513Y27316*
X45511Y27358*
X45511Y27845*
X45605Y27845*
X45605Y27353*
X45605Y27353*
X45606Y27324*
X45606Y27324*
X45607Y27299*
X45607Y27299*
X45610Y27279*
X45610Y27279*
X45615Y27263*
X45615Y27263*
X45621Y27250*
X45621Y27249*
X45629Y27238*
X45629Y27238*
X45639Y27227*
X45639Y27227*
X45651Y27218*
X45651Y27218*
X45664Y27211*
X45664Y27211*
X45679Y27206*
X45679Y27206*
X45695Y27203*
X45695Y27203*
X45712Y27202*
X45712Y27202*
X45735Y27204*
X45735Y27204*
X45756Y27209*
X45756Y27209*
X45773Y27219*
X45773Y27219*
X45788Y27232*
X45788Y27232*
X45801Y27251*
X45801Y27251*
X45810Y27276*
X45810Y27276*
X45816Y27307*
X45816Y27307*
X45819Y27344*
X45904Y27333*
X45902Y27283*
X45893Y27240*
X45878Y27203*
X45856Y27172*
X45828Y27149*
X45795Y27132*
X45756Y27122*
X45712Y27118*
X45681Y27120*
X45022Y27302D02*
X45022Y27302D01*
X45022Y27302*
X44926Y27302*
X44926Y27381*
X45022Y27381*
X45022Y27382*
X45022Y27845*
X45093Y27845*
X45420Y27382*
X45420Y27302*
X45110Y27302*
X45109Y27302*
X45109Y27131*
X45022Y27131*
X45022Y27302*
X45110Y27703D02*
X45110Y27703D01*
X45333Y27382*
X45110Y27382*
X45110Y27703*
D12*
X44440Y29770D03*
%LNbottom silkscreen component c71e0ad25ac2378d*%
D11*
X1940Y48765D02*
X1940Y28355D01*
X4980Y28355*
X4980Y48765*
X1940Y48765*
D10*
X4781Y49080D02*
X4781Y49080D01*
X4753Y49085*
X4726Y49093*
X4702Y49104*
X4680Y49118*
X4661Y49136*
X4645Y49156*
X4633Y49179*
X4623Y49206*
X4617Y49238*
X4613Y49276*
X4611Y49318*
X4611Y49805*
X4705Y49805*
X4705Y49313*
X4705Y49313*
X4706Y49284*
X4706Y49284*
X4707Y49259*
X4707Y49259*
X4710Y49239*
X4710Y49239*
X4715Y49223*
X4715Y49223*
X4721Y49210*
X4721Y49209*
X4729Y49198*
X4729Y49198*
X4739Y49187*
X4739Y49187*
X4751Y49178*
X4751Y49178*
X4764Y49171*
X4764Y49171*
X4779Y49166*
X4779Y49166*
X4795Y49163*
X4795Y49163*
X4812Y49162*
X4812Y49162*
X4835Y49164*
X4835Y49164*
X4856Y49169*
X4856Y49169*
X4873Y49179*
X4873Y49179*
X4888Y49192*
X4888Y49192*
X4901Y49211*
X4901Y49211*
X4910Y49236*
X4910Y49236*
X4916Y49267*
X4916Y49267*
X4919Y49304*
X5004Y49293*
X5002Y49243*
X4993Y49200*
X4978Y49163*
X4956Y49132*
X4928Y49109*
X4895Y49092*
X4856Y49082*
X4812Y49078*
X4781Y49080*
X4205Y49084D02*
X4205Y49084D01*
X4155Y49100*
X4111Y49127*
X4074Y49165*
X4049Y49202*
X4032Y49242*
X4021Y49286*
X4017Y49333*
X4021Y49381*
X4034Y49425*
X4054Y49465*
X4082Y49499*
X4116Y49528*
X4153Y49548*
X4195Y49560*
X4240Y49564*
X4275Y49561*
X4309Y49553*
X4342Y49539*
X4375Y49519*
X4375Y49519*
X4337Y49712*
X4336Y49713*
X4051Y49713*
X4051Y49796*
X4406Y49796*
X4475Y49429*
X4394Y49418*
X4383Y49433*
X4383Y49433*
X4371Y49446*
X4371Y49446*
X4356Y49458*
X4356Y49458*
X4340Y49468*
X4340Y49468*
X4322Y49477*
X4322Y49477*
X4304Y49483*
X4304Y49483*
X4284Y49486*
X4284Y49486*
X4263Y49487*
X4263Y49487*
X4230Y49485*
X4230Y49485*
X4201Y49477*
X4201Y49477*
X4175Y49463*
X4175Y49463*
X4152Y49444*
X4152Y49444*
X4134Y49420*
X4134Y49420*
X4120Y49392*
X4120Y49392*
X4112Y49361*
X4112Y49361*
X4110Y49325*
X4110Y49325*
X4112Y49287*
X4112Y49287*
X4121Y49253*
X4121Y49253*
X4134Y49224*
X4135Y49224*
X4154Y49198*
X4154Y49198*
X4177Y49177*
X4177Y49177*
X4203Y49162*
X4203Y49162*
X4231Y49153*
X4231Y49153*
X4262Y49150*
X4262Y49150*
X4287Y49152*
X4287Y49152*
X4311Y49158*
X4311Y49158*
X4332Y49169*
X4332Y49169*
X4352Y49184*
X4352Y49184*
X4369Y49203*
X4369Y49203*
X4383Y49226*
X4383Y49226*
X4393Y49254*
X4393Y49254*
X4400Y49285*
X4491Y49277*
X4483Y49235*
X4469Y49196*
X4448Y49162*
X4421Y49133*
X4388Y49109*
X4350Y49092*
X4308Y49082*
X4262Y49078*
X4205Y49084*
D13*
X5480Y47450D03*
%LNbottom silkscreen component 12bee7e14ac3c08e*%
D11*
X44980Y22705D02*
X44980Y2295D01*
X48020Y2295*
X48020Y22705*
X44980Y22705*
D10*
X47821Y23020D02*
X47821Y23020D01*
X47793Y23025*
X47766Y23033*
X47742Y23044*
X47720Y23058*
X47701Y23076*
X47685Y23096*
X47673Y23119*
X47663Y23146*
X47657Y23178*
X47653Y23216*
X47651Y23258*
X47651Y23745*
X47745Y23745*
X47745Y23253*
X47745Y23253*
X47746Y23224*
X47746Y23224*
X47747Y23199*
X47747Y23199*
X47750Y23179*
X47750Y23179*
X47755Y23163*
X47755Y23163*
X47761Y23150*
X47761Y23149*
X47769Y23138*
X47769Y23138*
X47779Y23127*
X47779Y23127*
X47791Y23118*
X47791Y23118*
X47804Y23111*
X47804Y23111*
X47819Y23106*
X47819Y23106*
X47835Y23103*
X47835Y23103*
X47852Y23102*
X47852Y23102*
X47875Y23104*
X47875Y23104*
X47896Y23109*
X47896Y23109*
X47913Y23119*
X47913Y23119*
X47928Y23132*
X47928Y23132*
X47941Y23151*
X47941Y23151*
X47950Y23176*
X47950Y23176*
X47956Y23207*
X47956Y23207*
X47959Y23244*
X48044Y23233*
X48042Y23183*
X48033Y23140*
X48018Y23103*
X47996Y23072*
X47968Y23049*
X47935Y23032*
X47896Y23022*
X47852Y23018*
X47821Y23020*
X47254Y23022D02*
X47254Y23022D01*
X47208Y23034*
X47167Y23054*
X47131Y23083*
X47101Y23117*
X47080Y23155*
X47067Y23196*
X47063Y23241*
X47065Y23275*
X47072Y23305*
X47083Y23332*
X47098Y23357*
X47117Y23378*
X47140Y23395*
X47166Y23408*
X47197Y23417*
X47197Y23418*
X47173Y23430*
X47154Y23444*
X47137Y23461*
X47123Y23479*
X47112Y23498*
X47104Y23519*
X47100Y23540*
X47098Y23563*
X47100Y23587*
X47104Y23610*
X47113Y23633*
X47124Y23655*
X47139Y23675*
X47156Y23694*
X47176Y23709*
X47199Y23723*
X47224Y23734*
X47251Y23742*
X47278Y23747*
X47307Y23748*
X47348Y23745*
X47385Y23736*
X47418Y23721*
X47449Y23700*
X47475Y23673*
X47495Y23641*
X47511Y23605*
X47522Y23564*
X47435Y23548*
X47428Y23578*
X47428Y23578*
X47419Y23604*
X47419Y23604*
X47406Y23626*
X47406Y23626*
X47391Y23645*
X47391Y23645*
X47373Y23659*
X47373Y23659*
X47352Y23669*
X47352Y23669*
X47330Y23675*
X47330Y23675*
X47305Y23677*
X47305Y23677*
X47280Y23675*
X47280Y23675*
X47258Y23669*
X47258Y23669*
X47238Y23659*
X47238Y23659*
X47220Y23645*
X47220Y23645*
X47206Y23628*
X47206Y23628*
X47196Y23609*
X47196Y23609*
X47189Y23588*
X47189Y23588*
X47187Y23565*
X47187Y23565*
X47190Y23536*
X47190Y23536*
X47199Y23511*
X47199Y23511*
X47213Y23491*
X47213Y23491*
X47232Y23474*
X47232Y23474*
X47256Y23461*
X47256Y23461*
X47280Y23452*
X47280Y23452*
X47306Y23446*
X47306Y23446*
X47334Y23445*
X47334Y23445*
X47337Y23445*
X47337Y23445*
X47340Y23445*
X47340Y23445*
X47344Y23445*
X47344Y23445*
X47348Y23445*
X47357Y23370*
X47340Y23374*
X47340Y23374*
X47324Y23377*
X47324Y23377*
X47309Y23379*
X47309Y23379*
X47296Y23379*
X47296Y23379*
X47266Y23377*
X47266Y23377*
X47240Y23369*
X47240Y23369*
X47216Y23357*
X47216Y23357*
X47195Y23340*
X47195Y23340*
X47177Y23319*
X47177Y23319*
X47165Y23295*
X47165Y23295*
X47158Y23269*
X47158Y23268*
X47155Y23239*
X47155Y23239*
X47158Y23209*
X47158Y23209*
X47166Y23181*
X47166Y23181*
X47179Y23156*
X47179Y23155*
X47198Y23133*
X47198Y23133*
X47221Y23114*
X47221Y23114*
X47246Y23100*
X47246Y23100*
X47273Y23092*
X47273Y23092*
X47303Y23090*
X47303Y23090*
X47328Y23092*
X47328Y23092*
X47351Y23098*
X47352Y23098*
X47373Y23108*
X47373Y23108*
X47392Y23123*
X47392Y23123*
X47409Y23142*
X47409Y23142*
X47423Y23166*
X47423Y23166*
X47435Y23196*
X47435Y23196*
X47444Y23230*
X47530Y23219*
X47523Y23176*
X47508Y23138*
X47487Y23104*
X47460Y23074*
X47427Y23049*
X47390Y23032*
X47349Y23021*
X47304Y23018*
X47254Y23022*
D13*
X48520Y21390D03*
%LNtext*%
D10*
X42600Y22147D02*
X42600Y22147D01*
X42564Y22153*
X42530Y22163*
X42499Y22178*
X42471Y22196*
X42447Y22218*
X42427Y22244*
X42412Y22273*
X42400Y22308*
X42391Y22348*
X42386Y22396*
X42384Y22450*
X42384Y23069*
X42503Y23069*
X42503Y22443*
X42503Y22443*
X42504Y22406*
X42504Y22406*
X42506Y22375*
X42506Y22375*
X42510Y22349*
X42510Y22349*
X42516Y22329*
X42516Y22329*
X42523Y22312*
X42523Y22312*
X42533Y22297*
X42533Y22297*
X42546Y22284*
X42546Y22283*
X42561Y22272*
X42561Y22272*
X42579Y22263*
X42579Y22263*
X42597Y22256*
X42597Y22256*
X42618Y22253*
X42618Y22253*
X42640Y22251*
X42640Y22251*
X42669Y22254*
X42669Y22254*
X42695Y22261*
X42695Y22261*
X42717Y22273*
X42717Y22273*
X42736Y22290*
X42736Y22290*
X42752Y22313*
X42752Y22313*
X42763Y22345*
X42763Y22345*
X42771Y22385*
X42771Y22385*
X42775Y22432*
X42883Y22418*
X42880Y22354*
X42869Y22299*
X42850Y22252*
X42822Y22214*
X42787Y22184*
X42745Y22162*
X42695Y22149*
X42639Y22145*
X42600Y22147*
X41892Y22148D02*
X41892Y22148D01*
X41851Y22156*
X41812Y22168*
X41775Y22186*
X41741Y22208*
X41711Y22234*
X41686Y22264*
X41664Y22299*
X41648Y22339*
X41636Y22385*
X41629Y22438*
X41626Y22499*
X41632Y22573*
X41648Y22638*
X41675Y22695*
X41712Y22744*
X41758Y22783*
X41811Y22811*
X41869Y22827*
X41934Y22833*
X41993Y22828*
X42047Y22815*
X42096Y22792*
X42141Y22760*
X42185Y22710*
X42217Y22648*
X42236Y22575*
X42242Y22489*
X42237Y22411*
X42221Y22342*
X42194Y22283*
X42157Y22234*
X42111Y22195*
X42059Y22168*
X42000Y22151*
X41934Y22146*
X41892Y22148*
X42128Y22489D02*
X42128Y22489D01*
X42125Y22430*
X42114Y22379*
X42097Y22335*
X42073Y22300*
X42044Y22272*
X42011Y22253*
X41974Y22241*
X41934Y22237*
X41894Y22241*
X41858Y22253*
X41825Y22272*
X41796Y22300*
X41772Y22336*
X41754Y22380*
X41744Y22432*
X41740Y22493*
X41744Y22550*
X41754Y22600*
X41772Y22643*
X41796Y22678*
X41825Y22706*
X41858Y22725*
X41894Y22737*
X41934Y22741*
X41974Y22737*
X42011Y22725*
X42044Y22706*
X42073Y22678*
X42097Y22643*
X42114Y22600*
X42125Y22549*
X42128Y22489*
X41164Y22149D02*
X41164Y22149D01*
X41114Y22160*
X41070Y22177*
X41030Y22201*
X40996Y22232*
X40968Y22268*
X40946Y22310*
X40929Y22357*
X41044Y22372*
X41057Y22339*
X41057Y22339*
X41074Y22311*
X41074Y22311*
X41092Y22287*
X41092Y22287*
X41113Y22269*
X41113Y22269*
X41136Y22255*
X41136Y22255*
X41161Y22244*
X41161Y22244*
X41188Y22238*
X41188Y22238*
X41218Y22236*
X41218Y22236*
X41257Y22240*
X41257Y22240*
X41294Y22251*
X41294Y22251*
X41326Y22269*
X41326Y22269*
X41356Y22294*
X41356Y22294*
X41380Y22326*
X41380Y22326*
X41399Y22365*
X41399Y22365*
X41411Y22410*
X41411Y22410*
X41417Y22461*
X41417Y22461*
X40926Y22461*
X40926Y22470*
X40926Y22478*
X40926Y22485*
X40926Y22491*
X40931Y22567*
X40946Y22635*
X40973Y22694*
X41009Y22743*
X41054Y22782*
X41105Y22810*
X41162Y22827*
X41225Y22833*
X41289Y22827*
X41348Y22810*
X41400Y22781*
X41446Y22741*
X41484Y22691*
X41510Y22631*
X41526Y22562*
X41532Y22484*
X41526Y22408*
X41510Y22341*
X41484Y22283*
X41447Y22234*
X41401Y22196*
X41348Y22168*
X41287Y22151*
X41218Y22146*
X41164Y22149*
X41411Y22553D02*
X41411Y22553D01*
X41043Y22553*
X41048Y22591*
X41057Y22625*
X41069Y22654*
X41085Y22677*
X41114Y22705*
X41146Y22726*
X41183Y22738*
X41223Y22742*
X41260Y22738*
X41294Y22729*
X41325Y22713*
X41353Y22690*
X41376Y22662*
X41393Y22630*
X41405Y22593*
X41411Y22553*
X40696Y21895D02*
X40696Y21895D01*
X40672Y21900*
X40650Y21908*
X40630Y21919*
X40612Y21934*
X40594Y21952*
X40577Y21974*
X40562Y22000*
X40550Y22024*
X40535Y22057*
X40519Y22099*
X40499Y22149*
X40249Y22818*
X40360Y22818*
X40500Y22435*
X40513Y22398*
X40525Y22360*
X40536Y22323*
X40546Y22284*
X40547Y22284*
X40558Y22324*
X40570Y22363*
X40582Y22400*
X40595Y22437*
X40732Y22818*
X40851Y22818*
X40601Y22159*
X40601Y22159*
X40605Y22150*
X40607Y22143*
X40610Y22136*
X40611Y22131*
X40611Y22131*
X40622Y22101*
X40622Y22101*
X40632Y22077*
X40632Y22077*
X40639Y22060*
X40639Y22060*
X40646Y22048*
X40646Y22048*
X40653Y22038*
X40653Y22038*
X40662Y22028*
X40662Y22028*
X40672Y22020*
X40672Y22020*
X40682Y22013*
X40682Y22013*
X40694Y22008*
X40694Y22008*
X40708Y22004*
X40709Y22004*
X40724Y22002*
X40724Y22002*
X40742Y22001*
X40742Y22001*
X40756Y22001*
X40756Y22001*
X40772Y22003*
X40772Y22003*
X40788Y22006*
X40788Y22006*
X40805Y22011*
X40793Y21907*
X40774Y21901*
X40756Y21897*
X40738Y21894*
X40722Y21893*
X40696Y21895*
X39070Y23069D02*
X39070Y23069D01*
X39189Y23069*
X39189Y22696*
X39190Y22695*
X39663Y22695*
X39663Y22696*
X39663Y23069*
X39782Y23069*
X39782Y22161*
X39663Y22161*
X39663Y22589*
X39663Y22589*
X39190Y22589*
X39189Y22589*
X39189Y22161*
X39070Y22161*
X39070Y23069*
X38664Y22147D02*
X38664Y22147D01*
X38633Y22151*
X38603Y22158*
X38573Y22167*
X38544Y22180*
X38515Y22197*
X38485Y22217*
X38454Y22242*
X38453Y22242*
X38450Y22219*
X38445Y22198*
X38439Y22178*
X38431Y22161*
X38316Y22161*
X38325Y22179*
X38325Y22179*
X38333Y22198*
X38333Y22199*
X38339Y22219*
X38339Y22219*
X38344Y22239*
X38344Y22239*
X38347Y22267*
X38347Y22267*
X38349Y22309*
X38349Y22309*
X38350Y22365*
X38350Y22365*
X38351Y22436*
X38351Y22436*
X38351Y22585*
X38351Y22619*
X38352Y22648*
X38354Y22671*
X38356Y22688*
X38362Y22710*
X38370Y22729*
X38380Y22747*
X38391Y22763*
X38405Y22778*
X38423Y22791*
X38444Y22803*
X38468Y22813*
X38497Y22822*
X38529Y22828*
X38565Y22832*
X38605Y22833*
X38646Y22831*
X38685Y22827*
X38721Y22820*
X38754Y22810*
X38785Y22797*
X38811Y22782*
X38834Y22764*
X38853Y22744*
X38869Y22720*
X38882Y22694*
X38893Y22664*
X38902Y22631*
X38793Y22616*
X38783Y22648*
X38783Y22648*
X38771Y22675*
X38771Y22676*
X38755Y22697*
X38755Y22697*
X38738Y22714*
X38738Y22714*
X38716Y22726*
X38716Y22726*
X38690Y22735*
X38690Y22735*
X38658Y22740*
X38658Y22740*
X38621Y22742*
X38621Y22742*
X38582Y22739*
X38582Y22739*
X38547Y22732*
X38547Y22732*
X38518Y22720*
X38518Y22720*
X38494Y22704*
X38494Y22704*
X38480Y22687*
X38480Y22687*
X38470Y22665*
X38470Y22665*
X38464Y22639*
X38464Y22639*
X38462Y22607*
X38462Y22607*
X38462Y22603*
X38462Y22603*
X38462Y22597*
X38462Y22597*
X38462Y22588*
X38462Y22588*
X38463Y22578*
X38463Y22578*
X38499Y22567*
X38499Y22567*
X38545Y22557*
X38545Y22557*
X38599Y22547*
X38599Y22547*
X38662Y22539*
X38662Y22539*
X38693Y22535*
X38720Y22531*
X38743Y22527*
X38761Y22522*
X38783Y22515*
X38804Y22507*
X38823Y22497*
X38841Y22486*
X38858Y22473*
X38874Y22458*
X38887Y22441*
X38899Y22422*
X38909Y22401*
X38915Y22380*
X38920Y22357*
X38921Y22334*
X38917Y22294*
X38906Y22259*
X38888Y22227*
X38863Y22199*
X38831Y22175*
X38792Y22159*
X38747Y22149*
X38696Y22146*
X38664Y22147*
X38463Y22491D02*
X38463Y22491D01*
X38497Y22479*
X38539Y22468*
X38588Y22458*
X38645Y22448*
X38677Y22443*
X38704Y22438*
X38726Y22432*
X38743Y22426*
X38756Y22419*
X38768Y22411*
X38778Y22401*
X38787Y22390*
X38794Y22377*
X38798Y22365*
X38801Y22351*
X38802Y22337*
X38800Y22315*
X38794Y22296*
X38783Y22278*
X38769Y22262*
X38750Y22249*
X38727Y22240*
X38700Y22234*
X38670Y22233*
X38638Y22234*
X38609Y22240*
X38581Y22248*
X38555Y22261*
X38531Y22276*
X38511Y22294*
X38495Y22315*
X38481Y22338*
X38473Y22359*
X38468Y22385*
X38464Y22415*
X38463Y22450*
X38463Y22491*
X37890Y21896D02*
X37890Y21896D01*
X37846Y21903*
X37806Y21914*
X37770Y21930*
X37739Y21951*
X37712Y21974*
X37689Y22001*
X37671Y22032*
X37658Y22069*
X37648Y22118*
X37642Y22178*
X37640Y22249*
X37640Y22818*
X37742Y22818*
X37742Y22739*
X37743Y22739*
X37783Y22780*
X37829Y22809*
X37879Y22827*
X37935Y22833*
X37977Y22830*
X38016Y22822*
X38053Y22809*
X38087Y22790*
X38117Y22766*
X38144Y22737*
X38167Y22704*
X38185Y22667*
X38200Y22626*
X38211Y22584*
X38217Y22539*
X38220Y22493*
X38215Y22427*
X38201Y22366*
X38178Y22310*
X38145Y22258*
X38104Y22216*
X38056Y22185*
X37999Y22167*
X37935Y22161*
X37883Y22166*
X37835Y22182*
X37792Y22209*
X37753Y22247*
X37753Y22247*
X37753Y22196*
X37753Y22196*
X37754Y22156*
X37754Y22156*
X37757Y22125*
X37757Y22125*
X37761Y22103*
X37761Y22103*
X37770Y22076*
X37770Y22076*
X37782Y22053*
X37782Y22053*
X37798Y22033*
X37798Y22033*
X37818Y22016*
X37818Y22016*
X37841Y22002*
X37841Y22002*
X37869Y21992*
X37869Y21992*
X37901Y21987*
X37901Y21987*
X37938Y21985*
X37938Y21985*
X37972Y21987*
X37972Y21987*
X38002Y21992*
X38002Y21992*
X38029Y22002*
X38029Y22002*
X38052Y22016*
X38052Y22016*
X38066Y22029*
X38066Y22029*
X38077Y22046*
X38077Y22046*
X38085Y22066*
X38085Y22066*
X38090Y22089*
X38197Y22105*
X38194Y22056*
X38181Y22012*
X38159Y21976*
X38127Y21946*
X38088Y21923*
X38044Y21906*
X37993Y21897*
X37937Y21893*
X37890Y21896*
X38105Y22501D02*
X38105Y22501D01*
X38102Y22441*
X38092Y22389*
X38076Y22346*
X38054Y22312*
X38026Y22286*
X37996Y22267*
X37962Y22256*
X37925Y22252*
X37888Y22256*
X37854Y22267*
X37823Y22286*
X37796Y22312*
X37773Y22345*
X37757Y22388*
X37747Y22438*
X37744Y22497*
X37747Y22554*
X37757Y22603*
X37774Y22645*
X37797Y22680*
X37826Y22707*
X37857Y22726*
X37890Y22737*
X37927Y22741*
X37963Y22737*
X37996Y22726*
X38026Y22707*
X38053Y22681*
X38076Y22647*
X38092Y22605*
X38102Y22557*
X38105Y22501*
X37140Y22149D02*
X37140Y22149D01*
X37090Y22160*
X37046Y22177*
X37006Y22201*
X36972Y22232*
X36944Y22268*
X36922Y22310*
X36905Y22357*
X37020Y22372*
X37033Y22339*
X37033Y22339*
X37050Y22311*
X37050Y22311*
X37068Y22287*
X37068Y22287*
X37089Y22269*
X37089Y22269*
X37112Y22255*
X37112Y22255*
X37137Y22244*
X37137Y22244*
X37164Y22238*
X37164Y22238*
X37194Y22236*
X37194Y22236*
X37233Y22240*
X37233Y22240*
X37270Y22251*
X37270Y22251*
X37302Y22269*
X37302Y22269*
X37332Y22294*
X37332Y22294*
X37356Y22326*
X37356Y22326*
X37375Y22365*
X37375Y22365*
X37387Y22410*
X37387Y22410*
X37393Y22461*
X37393Y22461*
X36902Y22461*
X36902Y22470*
X36902Y22478*
X36902Y22485*
X36902Y22491*
X36907Y22567*
X36922Y22635*
X36949Y22694*
X36985Y22743*
X37030Y22782*
X37081Y22810*
X37138Y22827*
X37201Y22833*
X37265Y22827*
X37324Y22810*
X37376Y22781*
X37422Y22741*
X37460Y22691*
X37486Y22631*
X37502Y22562*
X37508Y22484*
X37502Y22408*
X37486Y22341*
X37460Y22283*
X37423Y22234*
X37377Y22196*
X37324Y22168*
X37263Y22151*
X37194Y22146*
X37140Y22149*
X37387Y22553D02*
X37387Y22553D01*
X37019Y22553*
X37024Y22591*
X37033Y22625*
X37045Y22654*
X37061Y22677*
X37090Y22705*
X37122Y22726*
X37159Y22738*
X37199Y22742*
X37236Y22738*
X37270Y22729*
X37301Y22713*
X37329Y22690*
X37352Y22662*
X37369Y22630*
X37381Y22593*
X37387Y22553*
X36465Y22152D02*
X36465Y22152D01*
X36415Y22170*
X36373Y22201*
X36337Y22244*
X36337Y22243*
X36337Y22161*
X36234Y22161*
X36234Y23069*
X36344Y23069*
X36344Y22743*
X36345Y22742*
X36361Y22762*
X36379Y22779*
X36399Y22794*
X36421Y22808*
X36445Y22819*
X36470Y22827*
X36498Y22831*
X36526Y22833*
X36566Y22830*
X36604Y22822*
X36639Y22809*
X36673Y22790*
X36704Y22767*
X36731Y22738*
X36753Y22705*
X36772Y22667*
X36786Y22626*
X36796Y22583*
X36802Y22537*
X36804Y22489*
X36802Y22440*
X36795Y22393*
X36784Y22350*
X36768Y22310*
X36748Y22273*
X36725Y22241*
X36697Y22213*
X36666Y22189*
X36632Y22170*
X36597Y22156*
X36560Y22148*
X36522Y22146*
X36465Y22152*
X36690Y22489D02*
X36690Y22489D01*
X36687Y22429*
X36677Y22378*
X36660Y22335*
X36637Y22300*
X36609Y22272*
X36579Y22253*
X36546Y22241*
X36511Y22237*
X36476Y22241*
X36443Y22252*
X36414Y22271*
X36387Y22297*
X36364Y22331*
X36348Y22372*
X36339Y22422*
X36335Y22479*
X36339Y22542*
X36348Y22597*
X36365Y22642*
X36388Y22678*
X36415Y22705*
X36446Y22725*
X36479Y22737*
X36516Y22741*
X36552Y22737*
X36584Y22726*
X36614Y22707*
X36640Y22680*
X36662Y22646*
X36678Y22602*
X36687Y22550*
X36690Y22489*
X35749Y22148D02*
X35749Y22148D01*
X35708Y22156*
X35669Y22168*
X35632Y22186*
X35598Y22208*
X35568Y22234*
X35543Y22264*
X35521Y22299*
X35505Y22339*
X35493Y22385*
X35486Y22438*
X35483Y22499*
X35489Y22573*
X35505Y22638*
X35532Y22695*
X35569Y22744*
X35615Y22783*
X35668Y22811*
X35726Y22827*
X35791Y22833*
X35850Y22828*
X35904Y22815*
X35953Y22792*
X35998Y22760*
X36042Y22710*
X36074Y22648*
X36093Y22575*
X36099Y22489*
X36094Y22411*
X36078Y22342*
X36051Y22283*
X36014Y22234*
X35968Y22195*
X35916Y22168*
X35857Y22151*
X35791Y22146*
X35749Y22148*
X35985Y22489D02*
X35985Y22489D01*
X35982Y22430*
X35971Y22379*
X35954Y22335*
X35930Y22300*
X35901Y22272*
X35868Y22253*
X35831Y22241*
X35791Y22237*
X35751Y22241*
X35715Y22253*
X35682Y22272*
X35653Y22300*
X35629Y22336*
X35611Y22380*
X35601Y22432*
X35598Y22493*
X35601Y22550*
X35611Y22600*
X35629Y22643*
X35653Y22678*
X35682Y22706*
X35715Y22725*
X35751Y22737*
X35791Y22741*
X35831Y22737*
X35868Y22725*
X35901Y22706*
X35930Y22678*
X35954Y22643*
X35971Y22600*
X35982Y22549*
X35985Y22489*
X35242Y22505D02*
X35242Y22505D01*
X35242Y22505*
X35241Y22539*
X35241Y22539*
X35237Y22573*
X35237Y22573*
X35232Y22605*
X35232Y22605*
X35223Y22635*
X35223Y22635*
X35216Y22654*
X35216Y22654*
X35207Y22670*
X35207Y22670*
X35195Y22684*
X35195Y22684*
X35182Y22696*
X35182Y22697*
X35167Y22706*
X35167Y22706*
X35151Y22713*
X35151Y22713*
X35134Y22717*
X35134Y22717*
X35116Y22719*
X35116Y22719*
X35095Y22717*
X35095Y22717*
X35075Y22713*
X35075Y22713*
X35054Y22705*
X35054Y22705*
X35034Y22695*
X34996Y22797*
X35025Y22813*
X35053Y22824*
X35082Y22831*
X35110Y22833*
X35129Y22832*
X35147Y22827*
X35165Y22820*
X35181Y22811*
X35198Y22797*
X35215Y22777*
X35233Y22751*
X35252Y22718*
X35253Y22718*
X35253Y22818*
X35353Y22818*
X35353Y22161*
X35242Y22161*
X35242Y22505*
X34818Y22520D02*
X34818Y22520D01*
X34818Y22520*
X34815Y22578*
X34815Y22578*
X34805Y22626*
X34805Y22626*
X34789Y22664*
X34789Y22664*
X34766Y22692*
X34766Y22692*
X34739Y22712*
X34739Y22712*
X34709Y22726*
X34709Y22726*
X34677Y22734*
X34677Y22734*
X34643Y22737*
X34643Y22737*
X34621Y22736*
X34621Y22736*
X34601Y22732*
X34601Y22732*
X34582Y22726*
X34582Y22726*
X34564Y22717*
X34564Y22717*
X34549Y22706*
X34549Y22706*
X34536Y22693*
X34536Y22693*
X34526Y22679*
X34526Y22679*
X34518Y22663*
X34518Y22663*
X34512Y22644*
X34512Y22644*
X34508Y22620*
X34508Y22620*
X34506Y22593*
X34506Y22593*
X34505Y22561*
X34505Y22561*
X34505Y22161*
X34394Y22161*
X34394Y22565*
X34395Y22601*
X34396Y22631*
X34398Y22655*
X34401Y22673*
X34406Y22696*
X34414Y22718*
X34424Y22738*
X34435Y22756*
X34449Y22772*
X34466Y22787*
X34486Y22800*
X34510Y22812*
X34535Y22821*
X34562Y22828*
X34590Y22832*
X34619Y22833*
X34683Y22826*
X34740Y22806*
X34788Y22772*
X34828Y22724*
X34829Y22725*
X34829Y22818*
X34929Y22818*
X34929Y22161*
X34818Y22161*
X34818Y22520*
X33315Y22267D02*
X33315Y22267D01*
X33760Y22267*
X33761Y22267*
X33751Y22283*
X33751Y22283*
X33739Y22298*
X33739Y22298*
X33727Y22313*
X33727Y22313*
X33713Y22328*
X33713Y22328*
X33695Y22347*
X33695Y22347*
X33667Y22372*
X33667Y22372*
X33630Y22404*
X33630Y22404*
X33584Y22443*
X33528Y22491*
X33481Y22533*
X33442Y22571*
X33412Y22602*
X33388Y22631*
X33368Y22659*
X33351Y22687*
X33338Y22713*
X33329Y22740*
X33322Y22766*
X33317Y22793*
X33316Y22820*
X33321Y22872*
X33335Y22919*
X33359Y22962*
X33392Y23000*
X33434Y23032*
X33482Y23054*
X33537Y23068*
X33599Y23072*
X33660Y23068*
X33715Y23056*
X33763Y23035*
X33805Y23005*
X33839Y22968*
X33866Y22923*
X33884Y22870*
X33893Y22810*
X33780Y22799*
X33777Y22839*
X33777Y22839*
X33767Y22875*
X33767Y22875*
X33752Y22906*
X33752Y22906*
X33731Y22932*
X33731Y22932*
X33704Y22954*
X33704Y22954*
X33674Y22969*
X33674Y22969*
X33640Y22978*
X33640Y22978*
X33601Y22981*
X33601Y22981*
X33565Y22978*
X33565Y22978*
X33532Y22970*
X33532Y22969*
X33503Y22955*
X33503Y22955*
X33477Y22935*
X33477Y22935*
X33457Y22911*
X33456Y22911*
X33442Y22884*
X33442Y22884*
X33433Y22855*
X33433Y22855*
X33430Y22823*
X33430Y22823*
X33433Y22791*
X33433Y22791*
X33443Y22758*
X33443Y22758*
X33459Y22723*
X33459Y22723*
X33482Y22688*
X33482Y22688*
X33514Y22650*
X33514Y22650*
X33558Y22605*
X33558Y22605*
X33614Y22553*
X33614Y22553*
X33682Y22496*
X33682Y22496*
X33727Y22458*
X33767Y22422*
X33800Y22389*
X33828Y22358*
X33852Y22328*
X33872Y22298*
X33888Y22268*
X33902Y22237*
X33908Y22219*
X33912Y22199*
X33914Y22180*
X33915Y22161*
X33315Y22161*
X33315Y22267*
X32850Y22148D02*
X32850Y22148D01*
X32807Y22158*
X32768Y22175*
X32733Y22199*
X32703Y22228*
X32676Y22263*
X32654Y22304*
X32635Y22350*
X32621Y22403*
X32610Y22464*
X32604Y22532*
X32602Y22608*
X32604Y22672*
X32607Y22730*
X32614Y22780*
X32623Y22823*
X32634Y22861*
X32647Y22897*
X32662Y22929*
X32679Y22958*
X32698Y22984*
X32720Y23007*
X32744Y23027*
X32770Y23043*
X32799Y23056*
X32830Y23065*
X32863Y23070*
X32898Y23072*
X32946Y23069*
X32989Y23059*
X33028Y23042*
X33062Y23019*
X33093Y22990*
X33120Y22955*
X33142Y22914*
X33161Y22868*
X33175Y22815*
X33186Y22754*
X33192Y22685*
X33194Y22608*
X33188Y22489*
X33172Y22388*
X33144Y22305*
X33104Y22239*
X33063Y22198*
X33015Y22169*
X32960Y22151*
X32898Y22145*
X32850Y22148*
X33080Y22608D02*
X33080Y22608D01*
X33077Y22506*
X33067Y22422*
X33050Y22357*
X33027Y22310*
X33000Y22278*
X32969Y22255*
X32935Y22241*
X32898Y22236*
X32861Y22241*
X32827Y22255*
X32797Y22278*
X32769Y22311*
X32746Y22357*
X32730Y22422*
X32720Y22506*
X32716Y22608*
X32720Y22711*
X32730Y22795*
X32746Y22860*
X32769Y22907*
X32797Y22939*
X32828Y22962*
X32862Y22976*
X32899Y22980*
X32936Y22976*
X32969Y22964*
X32997Y22944*
X33022Y22915*
X33047Y22865*
X33065Y22797*
X33076Y22711*
X33080Y22608*
X32068Y23072D02*
X32068Y23072D01*
X32139Y23072*
X32156Y23043*
X32156Y23043*
X32179Y23013*
X32179Y23013*
X32206Y22982*
X32206Y22982*
X32239Y22951*
X32239Y22951*
X32275Y22921*
X32275Y22921*
X32315Y22893*
X32315Y22893*
X32357Y22867*
X32357Y22867*
X32402Y22844*
X32402Y22737*
X32376Y22748*
X32347Y22761*
X32317Y22777*
X32285Y22795*
X32254Y22814*
X32226Y22833*
X32201Y22852*
X32180Y22872*
X32179Y22872*
X32179Y22161*
X32068Y22161*
X32068Y23072*
X31431Y22147D02*
X31431Y22147D01*
X31394Y22155*
X31358Y22167*
X31325Y22184*
X31295Y22206*
X31268Y22232*
X31244Y22262*
X31224Y22296*
X31208Y22334*
X31196Y22373*
X31189Y22413*
X31187Y22455*
X31192Y22517*
X31207Y22573*
X31231Y22623*
X31265Y22667*
X31307Y22703*
X31352Y22729*
X31401Y22744*
X31455Y22749*
X31487Y22747*
X31517Y22742*
X31548Y22733*
X31577Y22720*
X31605Y22703*
X31631Y22682*
X31654Y22657*
X31676Y22628*
X31676Y22628*
X31674Y22693*
X31674Y22693*
X31668Y22750*
X31668Y22750*
X31658Y22798*
X31658Y22798*
X31645Y22839*
X31645Y22839*
X31628Y22874*
X31628Y22874*
X31609Y22904*
X31609Y22904*
X31586Y22930*
X31586Y22930*
X31561Y22952*
X31561Y22952*
X31540Y22965*
X31540Y22965*
X31518Y22974*
X31518Y22974*
X31493Y22980*
X31493Y22980*
X31468Y22982*
X31467Y22982*
X31436Y22979*
X31436Y22979*
X31406Y22970*
X31406Y22970*
X31380Y22955*
X31380Y22955*
X31356Y22934*
X31356Y22934*
X31343Y22916*
X31343Y22916*
X31331Y22895*
X31331Y22895*
X31321Y22869*
X31321Y22869*
X31313Y22838*
X31203Y22847*
X31213Y22896*
X31231Y22941*
X31254Y22979*
X31285Y23012*
X31322Y23039*
X31363Y23057*
X31410Y23069*
X31461Y23072*
X31529Y23066*
X31590Y23046*
X31643Y23014*
X31689Y22968*
X31732Y22900*
X31762Y22813*
X31780Y22708*
X31786Y22585*
X31781Y22476*
X31764Y22383*
X31737Y22307*
X31698Y22247*
X31651Y22203*
X31598Y22171*
X31538Y22151*
X31471Y22145*
X31431Y22147*
X31659Y22455D02*
X31659Y22455D01*
X31657Y22426*
X31652Y22398*
X31645Y22371*
X31634Y22344*
X31621Y22319*
X31605Y22298*
X31586Y22279*
X31566Y22264*
X31543Y22252*
X31520Y22243*
X31497Y22238*
X31473Y22236*
X31439Y22240*
X31407Y22251*
X31378Y22268*
X31352Y22293*
X31329Y22324*
X31313Y22361*
X31304Y22402*
X31301Y22448*
X31304Y22493*
X31313Y22533*
X31329Y22567*
X31351Y22597*
X31378Y22621*
X31408Y22638*
X31441Y22648*
X31477Y22651*
X31514Y22648*
X31547Y22638*
X31578Y22621*
X31606Y22597*
X31629Y22568*
X31645Y22534*
X31655Y22496*
X31659Y22455*
X42960Y48307D02*
X42960Y48307D01*
X42924Y48313*
X42890Y48323*
X42859Y48338*
X42831Y48356*
X42807Y48378*
X42787Y48404*
X42772Y48433*
X42760Y48468*
X42751Y48508*
X42746Y48556*
X42744Y48610*
X42744Y49229*
X42863Y49229*
X42863Y48603*
X42863Y48603*
X42864Y48566*
X42864Y48566*
X42866Y48535*
X42866Y48535*
X42870Y48509*
X42870Y48509*
X42876Y48489*
X42876Y48489*
X42883Y48472*
X42883Y48472*
X42893Y48457*
X42893Y48457*
X42906Y48444*
X42906Y48443*
X42921Y48432*
X42921Y48432*
X42939Y48423*
X42939Y48423*
X42957Y48416*
X42957Y48416*
X42978Y48413*
X42978Y48413*
X43000Y48411*
X43000Y48411*
X43029Y48414*
X43029Y48414*
X43055Y48421*
X43055Y48421*
X43077Y48433*
X43077Y48433*
X43096Y48450*
X43096Y48450*
X43112Y48473*
X43112Y48473*
X43123Y48505*
X43123Y48505*
X43131Y48545*
X43131Y48545*
X43135Y48592*
X43243Y48578*
X43240Y48514*
X43229Y48459*
X43210Y48412*
X43182Y48374*
X43147Y48344*
X43105Y48322*
X43055Y48309*
X42999Y48305*
X42960Y48307*
X42252Y48308D02*
X42252Y48308D01*
X42211Y48316*
X42172Y48328*
X42135Y48346*
X42101Y48368*
X42071Y48394*
X42046Y48424*
X42024Y48459*
X42008Y48499*
X41996Y48545*
X41989Y48598*
X41986Y48659*
X41992Y48733*
X42008Y48798*
X42035Y48855*
X42072Y48904*
X42118Y48943*
X42171Y48971*
X42229Y48987*
X42294Y48993*
X42353Y48988*
X42407Y48975*
X42456Y48952*
X42501Y48920*
X42545Y48870*
X42577Y48808*
X42596Y48735*
X42602Y48649*
X42597Y48571*
X42581Y48502*
X42554Y48443*
X42517Y48394*
X42471Y48355*
X42419Y48328*
X42360Y48311*
X42294Y48306*
X42252Y48308*
X42488Y48649D02*
X42488Y48649D01*
X42485Y48590*
X42474Y48539*
X42457Y48495*
X42433Y48460*
X42404Y48432*
X42371Y48413*
X42334Y48401*
X42294Y48397*
X42254Y48401*
X42218Y48413*
X42185Y48432*
X42156Y48460*
X42132Y48496*
X42114Y48540*
X42104Y48592*
X42100Y48653*
X42104Y48710*
X42114Y48760*
X42132Y48803*
X42156Y48838*
X42185Y48866*
X42218Y48885*
X42254Y48897*
X42294Y48901*
X42334Y48897*
X42371Y48885*
X42404Y48866*
X42433Y48838*
X42457Y48803*
X42474Y48760*
X42485Y48709*
X42488Y48649*
X41524Y48309D02*
X41524Y48309D01*
X41474Y48320*
X41430Y48337*
X41390Y48361*
X41356Y48392*
X41328Y48428*
X41306Y48470*
X41289Y48517*
X41404Y48532*
X41417Y48499*
X41417Y48499*
X41434Y48471*
X41434Y48471*
X41452Y48447*
X41452Y48447*
X41473Y48429*
X41473Y48429*
X41496Y48415*
X41496Y48415*
X41521Y48404*
X41521Y48404*
X41548Y48398*
X41548Y48398*
X41578Y48396*
X41578Y48396*
X41617Y48400*
X41617Y48400*
X41654Y48411*
X41654Y48411*
X41686Y48429*
X41686Y48429*
X41716Y48454*
X41716Y48454*
X41740Y48486*
X41740Y48486*
X41759Y48525*
X41759Y48525*
X41771Y48570*
X41771Y48570*
X41777Y48621*
X41777Y48621*
X41286Y48621*
X41286Y48630*
X41286Y48638*
X41286Y48645*
X41286Y48651*
X41291Y48727*
X41306Y48795*
X41333Y48854*
X41369Y48903*
X41414Y48942*
X41465Y48970*
X41522Y48987*
X41585Y48993*
X41649Y48987*
X41708Y48970*
X41760Y48941*
X41806Y48901*
X41844Y48851*
X41870Y48791*
X41886Y48722*
X41892Y48644*
X41886Y48568*
X41870Y48501*
X41844Y48443*
X41807Y48394*
X41761Y48356*
X41708Y48328*
X41647Y48311*
X41578Y48306*
X41524Y48309*
X41771Y48713D02*
X41771Y48713D01*
X41403Y48713*
X41408Y48751*
X41417Y48785*
X41429Y48814*
X41445Y48837*
X41474Y48865*
X41506Y48886*
X41543Y48898*
X41583Y48902*
X41620Y48898*
X41654Y48889*
X41685Y48873*
X41713Y48850*
X41736Y48822*
X41753Y48790*
X41765Y48753*
X41771Y48713*
X41056Y48055D02*
X41056Y48055D01*
X41032Y48060*
X41010Y48068*
X40990Y48079*
X40972Y48094*
X40954Y48112*
X40937Y48134*
X40922Y48160*
X40910Y48184*
X40895Y48217*
X40879Y48259*
X40859Y48309*
X40609Y48978*
X40720Y48978*
X40860Y48595*
X40873Y48558*
X40885Y48520*
X40896Y48483*
X40906Y48444*
X40907Y48444*
X40918Y48484*
X40930Y48523*
X40942Y48560*
X40955Y48597*
X41092Y48978*
X41211Y48978*
X40961Y48319*
X40961Y48319*
X40965Y48310*
X40967Y48303*
X40970Y48296*
X40971Y48291*
X40971Y48291*
X40982Y48261*
X40982Y48261*
X40992Y48237*
X40992Y48237*
X40999Y48220*
X40999Y48220*
X41006Y48208*
X41006Y48208*
X41013Y48198*
X41013Y48198*
X41022Y48188*
X41022Y48188*
X41032Y48180*
X41032Y48180*
X41042Y48173*
X41042Y48173*
X41054Y48168*
X41054Y48168*
X41068Y48164*
X41069Y48164*
X41084Y48162*
X41084Y48162*
X41102Y48161*
X41102Y48161*
X41116Y48161*
X41116Y48161*
X41132Y48163*
X41132Y48163*
X41148Y48166*
X41148Y48166*
X41165Y48171*
X41153Y48067*
X41134Y48061*
X41116Y48057*
X41098Y48054*
X41082Y48053*
X41056Y48055*
X39430Y49229D02*
X39430Y49229D01*
X39549Y49229*
X39549Y48856*
X39550Y48855*
X40023Y48855*
X40023Y48856*
X40023Y49229*
X40142Y49229*
X40142Y48321*
X40023Y48321*
X40023Y48749*
X40023Y48749*
X39550Y48749*
X39549Y48749*
X39549Y48321*
X39430Y48321*
X39430Y49229*
X39024Y48307D02*
X39024Y48307D01*
X38993Y48311*
X38963Y48318*
X38933Y48327*
X38904Y48340*
X38875Y48357*
X38845Y48377*
X38814Y48402*
X38813Y48402*
X38810Y48379*
X38805Y48358*
X38799Y48338*
X38791Y48321*
X38676Y48321*
X38685Y48339*
X38685Y48339*
X38693Y48358*
X38693Y48359*
X38699Y48379*
X38699Y48379*
X38704Y48399*
X38704Y48399*
X38707Y48427*
X38707Y48427*
X38709Y48469*
X38709Y48469*
X38710Y48525*
X38710Y48525*
X38711Y48596*
X38711Y48596*
X38711Y48745*
X38711Y48779*
X38712Y48808*
X38714Y48831*
X38716Y48848*
X38722Y48870*
X38730Y48889*
X38740Y48907*
X38751Y48923*
X38765Y48938*
X38783Y48951*
X38804Y48963*
X38828Y48973*
X38857Y48982*
X38889Y48988*
X38925Y48992*
X38965Y48993*
X39006Y48991*
X39045Y48987*
X39081Y48980*
X39114Y48970*
X39145Y48957*
X39171Y48942*
X39194Y48924*
X39213Y48904*
X39229Y48880*
X39242Y48854*
X39253Y48824*
X39262Y48791*
X39153Y48776*
X39143Y48808*
X39143Y48808*
X39131Y48835*
X39131Y48836*
X39115Y48857*
X39115Y48857*
X39098Y48874*
X39098Y48874*
X39076Y48886*
X39076Y48886*
X39050Y48895*
X39050Y48895*
X39018Y48900*
X39018Y48900*
X38981Y48902*
X38981Y48902*
X38942Y48899*
X38942Y48899*
X38907Y48892*
X38907Y48892*
X38878Y48880*
X38878Y48880*
X38854Y48864*
X38854Y48864*
X38840Y48847*
X38840Y48847*
X38830Y48825*
X38830Y48825*
X38824Y48799*
X38824Y48799*
X38822Y48767*
X38822Y48767*
X38822Y48763*
X38822Y48763*
X38822Y48757*
X38822Y48757*
X38822Y48748*
X38822Y48748*
X38823Y48738*
X38823Y48738*
X38859Y48727*
X38859Y48727*
X38905Y48717*
X38905Y48717*
X38959Y48707*
X38959Y48707*
X39022Y48699*
X39022Y48699*
X39053Y48695*
X39080Y48691*
X39103Y48687*
X39121Y48682*
X39143Y48675*
X39164Y48667*
X39183Y48657*
X39201Y48646*
X39218Y48633*
X39234Y48618*
X39247Y48601*
X39259Y48582*
X39269Y48561*
X39275Y48540*
X39280Y48517*
X39281Y48494*
X39277Y48454*
X39266Y48419*
X39248Y48387*
X39223Y48359*
X39191Y48335*
X39152Y48319*
X39107Y48309*
X39056Y48306*
X39024Y48307*
X38823Y48651D02*
X38823Y48651D01*
X38857Y48639*
X38899Y48628*
X38948Y48618*
X39005Y48608*
X39037Y48603*
X39064Y48598*
X39086Y48592*
X39103Y48586*
X39116Y48579*
X39128Y48571*
X39138Y48561*
X39147Y48550*
X39154Y48537*
X39158Y48525*
X39161Y48511*
X39162Y48497*
X39160Y48475*
X39154Y48456*
X39143Y48438*
X39129Y48422*
X39110Y48409*
X39087Y48400*
X39060Y48394*
X39030Y48393*
X38998Y48394*
X38969Y48400*
X38941Y48408*
X38915Y48421*
X38891Y48436*
X38871Y48454*
X38855Y48475*
X38841Y48498*
X38833Y48519*
X38828Y48545*
X38824Y48575*
X38823Y48610*
X38823Y48651*
X38250Y48056D02*
X38250Y48056D01*
X38206Y48063*
X38166Y48074*
X38130Y48090*
X38099Y48111*
X38072Y48134*
X38049Y48161*
X38031Y48192*
X38018Y48229*
X38008Y48278*
X38002Y48338*
X38000Y48409*
X38000Y48978*
X38102Y48978*
X38102Y48899*
X38103Y48899*
X38143Y48940*
X38189Y48969*
X38239Y48987*
X38295Y48993*
X38337Y48990*
X38376Y48982*
X38413Y48969*
X38447Y48950*
X38477Y48926*
X38504Y48897*
X38527Y48864*
X38545Y48827*
X38560Y48786*
X38571Y48744*
X38577Y48699*
X38580Y48653*
X38575Y48587*
X38561Y48526*
X38538Y48470*
X38505Y48418*
X38464Y48376*
X38416Y48345*
X38359Y48327*
X38295Y48321*
X38243Y48326*
X38195Y48342*
X38152Y48369*
X38113Y48407*
X38113Y48407*
X38113Y48356*
X38113Y48356*
X38114Y48316*
X38114Y48316*
X38117Y48285*
X38117Y48285*
X38121Y48263*
X38121Y48263*
X38130Y48236*
X38130Y48236*
X38142Y48213*
X38142Y48213*
X38158Y48193*
X38158Y48193*
X38178Y48176*
X38178Y48176*
X38201Y48162*
X38201Y48162*
X38229Y48152*
X38229Y48152*
X38261Y48147*
X38261Y48147*
X38298Y48145*
X38298Y48145*
X38332Y48147*
X38332Y48147*
X38362Y48152*
X38362Y48152*
X38389Y48162*
X38389Y48162*
X38412Y48176*
X38412Y48176*
X38426Y48189*
X38426Y48189*
X38437Y48206*
X38437Y48206*
X38445Y48226*
X38445Y48226*
X38450Y48249*
X38557Y48265*
X38554Y48216*
X38541Y48172*
X38519Y48136*
X38487Y48106*
X38448Y48083*
X38404Y48066*
X38353Y48057*
X38297Y48053*
X38250Y48056*
X38465Y48661D02*
X38465Y48661D01*
X38462Y48601*
X38452Y48549*
X38436Y48506*
X38414Y48472*
X38386Y48446*
X38356Y48427*
X38322Y48416*
X38285Y48412*
X38248Y48416*
X38214Y48427*
X38183Y48446*
X38156Y48472*
X38133Y48505*
X38117Y48548*
X38107Y48598*
X38104Y48657*
X38107Y48714*
X38117Y48763*
X38134Y48805*
X38157Y48840*
X38186Y48867*
X38217Y48886*
X38250Y48897*
X38287Y48901*
X38323Y48897*
X38356Y48886*
X38386Y48867*
X38413Y48841*
X38436Y48807*
X38452Y48765*
X38462Y48717*
X38465Y48661*
X37500Y48309D02*
X37500Y48309D01*
X37450Y48320*
X37406Y48337*
X37366Y48361*
X37332Y48392*
X37304Y48428*
X37282Y48470*
X37265Y48517*
X37380Y48532*
X37393Y48499*
X37393Y48499*
X37410Y48471*
X37410Y48471*
X37428Y48447*
X37428Y48447*
X37449Y48429*
X37449Y48429*
X37472Y48415*
X37472Y48415*
X37497Y48404*
X37497Y48404*
X37524Y48398*
X37524Y48398*
X37554Y48396*
X37554Y48396*
X37593Y48400*
X37593Y48400*
X37630Y48411*
X37630Y48411*
X37662Y48429*
X37662Y48429*
X37692Y48454*
X37692Y48454*
X37716Y48486*
X37716Y48486*
X37735Y48525*
X37735Y48525*
X37747Y48570*
X37747Y48570*
X37753Y48621*
X37753Y48621*
X37262Y48621*
X37262Y48630*
X37262Y48638*
X37262Y48645*
X37262Y48651*
X37267Y48727*
X37282Y48795*
X37309Y48854*
X37345Y48903*
X37390Y48942*
X37441Y48970*
X37498Y48987*
X37561Y48993*
X37625Y48987*
X37684Y48970*
X37736Y48941*
X37782Y48901*
X37820Y48851*
X37846Y48791*
X37862Y48722*
X37868Y48644*
X37862Y48568*
X37846Y48501*
X37820Y48443*
X37783Y48394*
X37737Y48356*
X37684Y48328*
X37623Y48311*
X37554Y48306*
X37500Y48309*
X37747Y48713D02*
X37747Y48713D01*
X37379Y48713*
X37384Y48751*
X37393Y48785*
X37405Y48814*
X37421Y48837*
X37450Y48865*
X37482Y48886*
X37519Y48898*
X37559Y48902*
X37596Y48898*
X37630Y48889*
X37661Y48873*
X37689Y48850*
X37712Y48822*
X37729Y48790*
X37741Y48753*
X37747Y48713*
X36825Y48312D02*
X36825Y48312D01*
X36775Y48330*
X36733Y48361*
X36697Y48404*
X36697Y48403*
X36697Y48321*
X36594Y48321*
X36594Y49229*
X36704Y49229*
X36704Y48903*
X36705Y48902*
X36721Y48922*
X36739Y48939*
X36759Y48954*
X36781Y48968*
X36805Y48979*
X36830Y48987*
X36858Y48991*
X36886Y48993*
X36926Y48990*
X36964Y48982*
X36999Y48969*
X37033Y48950*
X37064Y48927*
X37091Y48898*
X37113Y48865*
X37132Y48827*
X37146Y48786*
X37156Y48743*
X37162Y48697*
X37164Y48649*
X37162Y48600*
X37155Y48553*
X37144Y48510*
X37128Y48470*
X37108Y48433*
X37085Y48401*
X37057Y48373*
X37026Y48349*
X36992Y48330*
X36957Y48316*
X36920Y48308*
X36882Y48306*
X36825Y48312*
X37050Y48649D02*
X37050Y48649D01*
X37047Y48589*
X37037Y48538*
X37020Y48495*
X36997Y48460*
X36969Y48432*
X36939Y48413*
X36906Y48401*
X36871Y48397*
X36836Y48401*
X36803Y48412*
X36774Y48431*
X36747Y48457*
X36724Y48491*
X36708Y48532*
X36699Y48582*
X36695Y48639*
X36699Y48702*
X36708Y48757*
X36725Y48802*
X36748Y48838*
X36775Y48865*
X36806Y48885*
X36839Y48897*
X36876Y48901*
X36912Y48897*
X36944Y48886*
X36974Y48867*
X37000Y48840*
X37022Y48806*
X37038Y48762*
X37047Y48710*
X37050Y48649*
X36109Y48308D02*
X36109Y48308D01*
X36068Y48316*
X36029Y48328*
X35992Y48346*
X35958Y48368*
X35928Y48394*
X35903Y48424*
X35881Y48459*
X35865Y48499*
X35853Y48545*
X35846Y48598*
X35843Y48659*
X35849Y48733*
X35865Y48798*
X35892Y48855*
X35929Y48904*
X35975Y48943*
X36028Y48971*
X36086Y48987*
X36151Y48993*
X36210Y48988*
X36264Y48975*
X36313Y48952*
X36358Y48920*
X36402Y48870*
X36434Y48808*
X36453Y48735*
X36459Y48649*
X36454Y48571*
X36438Y48502*
X36411Y48443*
X36374Y48394*
X36328Y48355*
X36276Y48328*
X36217Y48311*
X36151Y48306*
X36109Y48308*
X36345Y48649D02*
X36345Y48649D01*
X36342Y48590*
X36331Y48539*
X36314Y48495*
X36290Y48460*
X36261Y48432*
X36228Y48413*
X36191Y48401*
X36151Y48397*
X36111Y48401*
X36075Y48413*
X36042Y48432*
X36013Y48460*
X35989Y48496*
X35971Y48540*
X35961Y48592*
X35958Y48653*
X35961Y48710*
X35971Y48760*
X35989Y48803*
X36013Y48838*
X36042Y48866*
X36075Y48885*
X36111Y48897*
X36151Y48901*
X36191Y48897*
X36228Y48885*
X36261Y48866*
X36290Y48838*
X36314Y48803*
X36331Y48760*
X36342Y48709*
X36345Y48649*
X35602Y48665D02*
X35602Y48665D01*
X35602Y48665*
X35601Y48699*
X35601Y48699*
X35597Y48733*
X35597Y48733*
X35592Y48765*
X35592Y48765*
X35583Y48795*
X35583Y48795*
X35576Y48814*
X35576Y48814*
X35567Y48830*
X35567Y48830*
X35555Y48844*
X35555Y48844*
X35542Y48856*
X35542Y48857*
X35527Y48866*
X35527Y48866*
X35511Y48873*
X35511Y48873*
X35494Y48877*
X35494Y48877*
X35476Y48879*
X35476Y48879*
X35455Y48877*
X35455Y48877*
X35435Y48873*
X35435Y48873*
X35414Y48865*
X35414Y48865*
X35394Y48855*
X35356Y48957*
X35385Y48973*
X35413Y48984*
X35442Y48991*
X35470Y48993*
X35489Y48992*
X35507Y48987*
X35525Y48980*
X35541Y48971*
X35558Y48957*
X35575Y48937*
X35593Y48911*
X35612Y48878*
X35613Y48878*
X35613Y48978*
X35713Y48978*
X35713Y48321*
X35602Y48321*
X35602Y48665*
X35178Y48680D02*
X35178Y48680D01*
X35178Y48680*
X35175Y48738*
X35175Y48738*
X35165Y48786*
X35165Y48786*
X35149Y48824*
X35149Y48824*
X35126Y48852*
X35126Y48852*
X35099Y48872*
X35099Y48872*
X35069Y48886*
X35069Y48886*
X35037Y48894*
X35037Y48894*
X35003Y48897*
X35003Y48897*
X34981Y48896*
X34981Y48896*
X34961Y48892*
X34961Y48892*
X34942Y48886*
X34942Y48886*
X34924Y48877*
X34924Y48877*
X34909Y48866*
X34909Y48866*
X34896Y48853*
X34896Y48853*
X34886Y48839*
X34886Y48839*
X34878Y48823*
X34878Y48823*
X34872Y48804*
X34872Y48804*
X34868Y48780*
X34868Y48780*
X34866Y48753*
X34866Y48753*
X34865Y48721*
X34865Y48721*
X34865Y48321*
X34754Y48321*
X34754Y48725*
X34755Y48761*
X34756Y48791*
X34758Y48815*
X34761Y48833*
X34766Y48856*
X34774Y48878*
X34784Y48898*
X34795Y48916*
X34809Y48932*
X34826Y48947*
X34846Y48960*
X34870Y48972*
X34895Y48981*
X34922Y48988*
X34950Y48992*
X34979Y48993*
X35043Y48986*
X35100Y48966*
X35148Y48932*
X35188Y48884*
X35189Y48885*
X35189Y48978*
X35289Y48978*
X35289Y48321*
X35178Y48321*
X35178Y48680*
X33675Y48427D02*
X33675Y48427D01*
X34120Y48427*
X34121Y48427*
X34111Y48443*
X34111Y48443*
X34099Y48458*
X34099Y48458*
X34087Y48473*
X34087Y48473*
X34073Y48488*
X34073Y48488*
X34055Y48507*
X34055Y48507*
X34027Y48532*
X34027Y48532*
X33990Y48564*
X33990Y48564*
X33944Y48603*
X33888Y48651*
X33841Y48693*
X33802Y48731*
X33772Y48762*
X33748Y48791*
X33728Y48819*
X33711Y48847*
X33698Y48873*
X33689Y48900*
X33682Y48926*
X33677Y48953*
X33676Y48980*
X33681Y49032*
X33695Y49079*
X33719Y49122*
X33752Y49160*
X33794Y49192*
X33842Y49214*
X33897Y49228*
X33959Y49232*
X34020Y49228*
X34075Y49216*
X34123Y49195*
X34165Y49165*
X34199Y49128*
X34226Y49083*
X34244Y49030*
X34253Y48970*
X34140Y48959*
X34137Y48999*
X34137Y48999*
X34127Y49035*
X34127Y49035*
X34112Y49066*
X34112Y49066*
X34091Y49092*
X34091Y49092*
X34064Y49114*
X34064Y49114*
X34034Y49129*
X34034Y49129*
X34000Y49138*
X34000Y49138*
X33961Y49141*
X33961Y49141*
X33925Y49138*
X33925Y49138*
X33892Y49130*
X33892Y49129*
X33863Y49115*
X33863Y49115*
X33837Y49095*
X33837Y49095*
X33817Y49071*
X33816Y49071*
X33802Y49044*
X33802Y49044*
X33793Y49015*
X33793Y49015*
X33790Y48983*
X33790Y48983*
X33793Y48951*
X33793Y48951*
X33803Y48918*
X33803Y48918*
X33819Y48883*
X33819Y48883*
X33842Y48848*
X33842Y48848*
X33874Y48810*
X33874Y48810*
X33918Y48765*
X33918Y48765*
X33974Y48713*
X33974Y48713*
X34042Y48656*
X34042Y48656*
X34087Y48618*
X34127Y48582*
X34160Y48549*
X34188Y48518*
X34212Y48488*
X34232Y48458*
X34248Y48428*
X34262Y48397*
X34268Y48379*
X34272Y48359*
X34274Y48340*
X34275Y48321*
X33675Y48321*
X33675Y48427*
X33210Y48308D02*
X33210Y48308D01*
X33167Y48318*
X33128Y48335*
X33093Y48359*
X33063Y48388*
X33036Y48423*
X33014Y48464*
X32995Y48510*
X32981Y48563*
X32970Y48624*
X32964Y48692*
X32962Y48768*
X32964Y48832*
X32967Y48890*
X32974Y48940*
X32983Y48983*
X32994Y49021*
X33007Y49057*
X33022Y49089*
X33039Y49118*
X33058Y49144*
X33080Y49167*
X33104Y49187*
X33130Y49203*
X33159Y49216*
X33190Y49225*
X33223Y49230*
X33258Y49232*
X33306Y49229*
X33349Y49219*
X33388Y49202*
X33422Y49179*
X33453Y49150*
X33480Y49115*
X33502Y49074*
X33521Y49028*
X33535Y48975*
X33546Y48914*
X33552Y48845*
X33554Y48768*
X33548Y48649*
X33532Y48548*
X33504Y48465*
X33464Y48399*
X33423Y48358*
X33375Y48329*
X33320Y48311*
X33258Y48305*
X33210Y48308*
X33440Y48768D02*
X33440Y48768D01*
X33437Y48666*
X33427Y48582*
X33410Y48517*
X33387Y48470*
X33360Y48438*
X33329Y48415*
X33295Y48401*
X33258Y48396*
X33221Y48401*
X33187Y48415*
X33157Y48438*
X33129Y48471*
X33106Y48517*
X33090Y48582*
X33080Y48666*
X33076Y48768*
X33080Y48871*
X33090Y48955*
X33106Y49020*
X33129Y49067*
X33157Y49099*
X33188Y49122*
X33222Y49136*
X33259Y49140*
X33296Y49136*
X33329Y49124*
X33357Y49104*
X33382Y49075*
X33407Y49025*
X33425Y48957*
X33436Y48871*
X33440Y48768*
X32428Y49232D02*
X32428Y49232D01*
X32499Y49232*
X32516Y49203*
X32516Y49203*
X32539Y49173*
X32539Y49173*
X32566Y49142*
X32566Y49142*
X32599Y49111*
X32599Y49111*
X32635Y49081*
X32635Y49081*
X32675Y49053*
X32675Y49053*
X32717Y49027*
X32717Y49027*
X32762Y49004*
X32762Y48897*
X32736Y48908*
X32707Y48921*
X32677Y48937*
X32645Y48955*
X32614Y48974*
X32586Y48993*
X32561Y49012*
X32540Y49032*
X32539Y49032*
X32539Y48321*
X32428Y48321*
X32428Y49232*
X31791Y48307D02*
X31791Y48307D01*
X31754Y48315*
X31718Y48327*
X31685Y48344*
X31655Y48366*
X31628Y48392*
X31604Y48422*
X31584Y48456*
X31568Y48494*
X31556Y48533*
X31549Y48573*
X31547Y48615*
X31552Y48677*
X31567Y48733*
X31591Y48783*
X31625Y48827*
X31667Y48863*
X31712Y48889*
X31761Y48904*
X31815Y48909*
X31847Y48907*
X31877Y48902*
X31908Y48893*
X31937Y48880*
X31965Y48863*
X31991Y48842*
X32014Y48817*
X32036Y48788*
X32036Y48788*
X32034Y48853*
X32034Y48853*
X32028Y48910*
X32028Y48910*
X32018Y48958*
X32018Y48958*
X32005Y48999*
X32005Y48999*
X31988Y49034*
X31988Y49034*
X31969Y49064*
X31969Y49064*
X31946Y49090*
X31946Y49090*
X31921Y49112*
X31921Y49112*
X31900Y49125*
X31900Y49125*
X31878Y49134*
X31878Y49134*
X31853Y49140*
X31853Y49140*
X31828Y49142*
X31827Y49142*
X31796Y49139*
X31796Y49139*
X31766Y49130*
X31766Y49130*
X31740Y49115*
X31740Y49115*
X31716Y49094*
X31716Y49094*
X31703Y49076*
X31703Y49076*
X31691Y49055*
X31691Y49055*
X31681Y49029*
X31681Y49029*
X31673Y48998*
X31563Y49007*
X31573Y49056*
X31591Y49101*
X31614Y49139*
X31645Y49172*
X31682Y49199*
X31723Y49217*
X31770Y49229*
X31821Y49232*
X31889Y49226*
X31950Y49206*
X32003Y49174*
X32049Y49128*
X32092Y49060*
X32122Y48973*
X32140Y48868*
X32146Y48745*
X32141Y48636*
X32124Y48543*
X32097Y48467*
X32058Y48407*
X32011Y48363*
X31958Y48331*
X31898Y48311*
X31831Y48305*
X31791Y48307*
X32019Y48615D02*
X32019Y48615D01*
X32017Y48586*
X32012Y48558*
X32005Y48531*
X31994Y48504*
X31981Y48479*
X31965Y48458*
X31946Y48439*
X31926Y48424*
X31903Y48412*
X31880Y48403*
X31857Y48398*
X31833Y48396*
X31799Y48400*
X31767Y48411*
X31738Y48428*
X31712Y48453*
X31689Y48484*
X31673Y48521*
X31664Y48562*
X31661Y48608*
X31664Y48653*
X31673Y48693*
X31689Y48727*
X31711Y48757*
X31738Y48781*
X31768Y48798*
X31801Y48808*
X31837Y48811*
X31874Y48808*
X31907Y48798*
X31938Y48781*
X31966Y48757*
X31989Y48728*
X32005Y48694*
X32015Y48656*
X32019Y48615*
M02*