%FSLAX33Y33*%
%MOMM*%
%AMRR-H500000-W1200000-R250000-RO0.000*
21,1,0.7,0.5,0.,0.,360*
1,1,0.5,-0.35,0.*
1,1,0.5,0.35,0.*
1,1,0.5,0.35,-0.*
1,1,0.5,-0.35,0.*%
%AMRR-H500000-W1600000-R250000-RO0.000*
21,1,1.1,0.5,0.,0.,360*
1,1,0.5,-0.55,0.*
1,1,0.5,0.55,0.*
1,1,0.5,0.55,-0.*
1,1,0.5,-0.55,0.*%
%AMRR-H2600000-W1800000-R900000-RO0.500*
21,1,1.8,0.8,0.,0.,270*
1,1,1.8,0.4,0.*
1,1,1.8,0.4,-0.*
1,1,1.8,-0.4,-0.*
1,1,1.8,-0.4,0.*%
%ADD10C,0.3302*%
%ADD11C,0.3048*%
%ADD12RR-H500000-W1200000-R250000-RO0.000*%
%ADD13RR-H500000-W1600000-R250000-RO0.000*%
%ADD14C,1.15*%
%ADD15C,1.349999*%
%ADD16RR-H2600000-W1800000-R900000-RO0.500*%
%ADD17C,1.15*%
%ADD18C,0.95*%
D10*
%LNhole_traces*%
G01*
X6520Y14940D03*
D11*
X32250Y34950D03*
D10*
X37325Y45105D03*
D11*
X11095Y4725D03*
X26565Y40075D03*
X17475Y33590D03*
D10*
X22668Y13355D03*
X27165Y42455D03*
D11*
X21450Y2350D03*
D10*
X13360Y23750D03*
D11*
X44750Y21390D03*
D10*
X34975Y44505D03*
X34800Y17085D03*
D11*
X44844Y12078D03*
D10*
X21440Y13355D03*
D11*
X5237Y20540D03*
D10*
X18650Y5581D03*
D11*
X35535Y37250D03*
X38075Y35975D03*
D10*
X6520Y17340D03*
D11*
X32075Y38950D03*
D10*
X19427Y5581D03*
D11*
X12300Y33000D03*
D10*
X17822Y5600D03*
X6520Y16540D03*
D11*
X13650Y41000D03*
X30575Y4800D03*
X29800Y39450D03*
D10*
X12560Y23750D03*
D11*
X28885Y11100D03*
X33550Y38350D03*
X16023Y24050D03*
D10*
X14192Y23750D03*
X20000Y34240D03*
D11*
X29810Y33025D03*
X32165Y43850D03*
X41300Y16100D03*
D10*
X29695Y43205D03*
D11*
X11995Y4725D03*
X24191Y5644D03*
X24191Y8300D03*
X10195Y4725D03*
D10*
X6520Y15740D03*
X17045Y5581D03*
X26505Y32380D03*
%LNhole component 9fdb64bbcfd9a77c*%
D12*
X11095Y3725D03*
D13*
X13895Y1575D03*
D12*
X16695Y3725D03*
%LNhole component bca8d065b4743895*%
D14*
X3500Y3610D03*
X3500Y6150D03*
X3500Y8690D03*
X3500Y11230D03*
X3500Y13770D03*
X3500Y16310D03*
X3500Y18850D03*
X3500Y21390D03*
%LNhole component abbcac8aa2df2ad2*%
X46460Y29770D03*
X46460Y32310D03*
X46460Y34850D03*
X46460Y37390D03*
X46460Y39930D03*
X46460Y42470D03*
X46460Y45010D03*
X46460Y47550D03*
%LNhole component 7a9cd340cbf98a30*%
D15*
X28885Y9190D03*
X28885Y6690D03*
X28885Y4190D03*
X43385Y9190D03*
X43385Y4190D03*
D16*
X36385Y11340D03*
X36385Y2040D03*
%LNhole component c71e0ad25ac2378d*%
D17*
X3460Y47450D03*
X3460Y44910D03*
X3460Y42370D03*
X3460Y39830D03*
X3460Y37290D03*
X3460Y34750D03*
X3460Y32210D03*
X3460Y29670D03*
%LNhole component 12bee7e14ac3c08e*%
X46500Y21390D03*
X46500Y18850D03*
X46500Y16310D03*
X46500Y13770D03*
X46500Y11230D03*
X46500Y8690D03*
X46500Y6150D03*
X46500Y3610D03*
%LNhole component a433c07c415dc932*%
D18*
X27915Y30970D03*
X32995Y30970D03*
X38075Y30970D03*
X40615Y46270D03*
X35535Y46270D03*
X30455Y46270D03*
X30455Y30970D03*
X35535Y30970D03*
X40615Y30970D03*
X38075Y46270D03*
X32995Y46270D03*
X27915Y46270D03*
%LNhole component ec5ddc3e9c6c7b47*%
X9215Y30970D03*
X14295Y30970D03*
X19375Y30970D03*
X21915Y46270D03*
X16835Y46270D03*
X11755Y46270D03*
X11755Y30970D03*
X16835Y30970D03*
X21915Y30970D03*
X19375Y46270D03*
X14295Y46270D03*
X9215Y46270D03*
M02*