<?xml version="1.0" encoding="utf-8" ?>
<svg baseProfile="tiny" height="190.849601634" version="1.2" width="186.951963934" xmlns="http://www.w3.org/2000/svg" xmlns:ev="http://www.w3.org/2001/xml-events" xmlns:xlink="http://www.w3.org/1999/xlink"><defs /><g id="paths" stroke="blue"><path d="M 4.893306967,93.475981967 L 182.058656967,93.475981967 L 182.058656967,4.893306967 L 4.893306967,4.893306967 L 4.893306967,93.475981967 Z" fill-opacity="0" stroke-linejoin="round" stroke-width="1.0" /><path d="M 4.893306967,185.956294667 L 182.058656967,185.956294667 L 182.058656967,97.373619667 L 4.893306967,97.373619667 L 4.893306967,185.956294667 Z" fill-opacity="0" stroke-linejoin="round" stroke-width="1.0" /></g><g fill="red" id="holes"><circle cx="27.9957" cy="133.0193" r="0.585" stroke-width="0.0" /><circle cx="119.165" cy="62.1177" r="0.54" stroke-width="0.0" /><circle cx="137.1472" cy="26.1354" r="0.585" stroke-width="0.0" /><circle cx="44.2063" cy="169.2142" r="0.54" stroke-width="0.0" /><circle cx="99.0213" cy="43.9583" r="0.54" stroke-width="0.0" /><circle cx="66.8126" cy="66.9366" r="0.54" stroke-width="0.0" /><circle cx="85.214" cy="138.6342" r="0.585" stroke-width="0.0" /><circle cx="101.1472" cy="35.5252" r="0.585" stroke-width="0.0" /><circle cx="80.8972" cy="177.6295" r="0.54" stroke-width="0.0" /><circle cx="52.2319" cy="101.8028" r="0.585" stroke-width="0.0" /><circle cx="163.4563" cy="110.165" r="0.54" stroke-width="0.0" /><circle cx="128.8205" cy="28.2614" r="0.585" stroke-width="0.0" /><circle cx="128.2004" cy="125.4189" r="0.585" stroke-width="0.0" /><circle cx="163.7904" cy="143.1594" r="0.54" stroke-width="0.0" /><circle cx="80.8618" cy="138.6342" r="0.585" stroke-width="0.0" /><circle cx="23.4499" cy="113.1768" r="0.54" stroke-width="0.0" /><circle cx="70.976" cy="166.1809" r="0.585" stroke-width="0.0" /><circle cx="130.8047" cy="53.9681" r="0.54" stroke-width="0.0" /><circle cx="139.8047" cy="58.4858" r="0.54" stroke-width="0.0" /><circle cx="27.9957" cy="124.5154" r="0.585" stroke-width="0.0" /><circle cx="118.5449" cy="47.9445" r="0.54" stroke-width="0.0" /><circle cx="73.7294" cy="166.1809" r="0.585" stroke-width="0.0" /><circle cx="48.476" cy="69.0272" r="0.54" stroke-width="0.0" /><circle cx="68.0424" cy="166.1138" r="0.585" stroke-width="0.0" /><circle cx="27.9957" cy="127.35" r="0.585" stroke-width="0.0" /><circle cx="53.2594" cy="40.6807" r="0.54" stroke-width="0.0" /><circle cx="113.2299" cy="168.9484" r="0.54" stroke-width="0.0" /><circle cx="110.4839" cy="46.1728" r="0.54" stroke-width="0.0" /><circle cx="49.3972" cy="101.8028" r="0.585" stroke-width="0.0" /><circle cx="107.2417" cy="146.6256" r="0.54" stroke-width="0.0" /><circle cx="123.7712" cy="50.0705" r="0.54" stroke-width="0.0" /><circle cx="61.6674" cy="100.7398" r="0.54" stroke-width="0.0" /><circle cx="55.1789" cy="101.8028" r="0.585" stroke-width="0.0" /><circle cx="75.7594" cy="64.6335" r="0.585" stroke-width="0.0" /><circle cx="110.5193" cy="68.9386" r="0.54" stroke-width="0.0" /><circle cx="118.8638" cy="30.5823" r="0.54" stroke-width="0.0" /><circle cx="151.2319" cy="128.9091" r="0.54" stroke-width="0.0" /><circle cx="110.1118" cy="32.8677" r="0.585" stroke-width="0.0" /><circle cx="47.3953" cy="169.2142" r="0.54" stroke-width="0.0" /><circle cx="90.6084" cy="165.9581" r="0.54" stroke-width="0.0" /><circle cx="90.6084" cy="156.5468" r="0.54" stroke-width="0.0" /><circle cx="41.0173" cy="169.2142" r="0.54" stroke-width="0.0" /><circle cx="27.9957" cy="130.1846" r="0.585" stroke-width="0.0" /><circle cx="65.289" cy="166.1809" r="0.585" stroke-width="0.0" /><circle cx="98.8087" cy="71.224" r="0.585" stroke-width="0.0" /><rect height="1" rx="0.8858" ry="0.8858" width="1" x="41.439" y="14.0846" /><rect height="1" rx="0.8858" ry="0.8858" width="1" x="52.0689" y="6.4665" /><rect height="1" rx="0.8858" ry="0.8858" width="1" x="61.2815" y="14.0846" /><circle cx="17.2949" cy="173.165" r="2.0374" stroke-width="0.0" /><circle cx="17.2949" cy="164.165" r="2.0374" stroke-width="0.0" /><circle cx="17.2949" cy="155.165" r="2.0374" stroke-width="0.0" /><circle cx="17.2949" cy="146.165" r="2.0374" stroke-width="0.0" /><circle cx="17.2949" cy="137.165" r="2.0374" stroke-width="0.0" /><circle cx="17.2949" cy="128.165" r="2.0374" stroke-width="0.0" /><circle cx="17.2949" cy="119.165" r="2.0374" stroke-width="0.0" /><circle cx="17.2949" cy="110.165" r="2.0374" stroke-width="0.0" /><circle cx="169.5154" cy="80.472" r="2.0374" stroke-width="0.0" /><circle cx="169.5154" cy="71.472" r="2.0374" stroke-width="0.0" /><circle cx="169.5154" cy="62.472" r="2.0374" stroke-width="0.0" /><circle cx="169.5154" cy="53.472" r="2.0374" stroke-width="0.0" /><circle cx="169.5154" cy="44.472" r="2.0374" stroke-width="0.0" /><circle cx="169.5154" cy="35.472" r="2.0374" stroke-width="0.0" /><circle cx="169.5154" cy="26.472" r="2.0374" stroke-width="0.0" /><circle cx="169.5154" cy="17.472" r="2.0374" stroke-width="0.0" /><circle cx="107.2417" cy="153.3933" r="2.3917" stroke-width="0.0" /><circle cx="107.2417" cy="162.2516" r="2.3917" stroke-width="0.0" /><circle cx="107.2417" cy="171.1098" r="2.3917" stroke-width="0.0" /><circle cx="158.6197" cy="153.3933" r="2.3917" stroke-width="0.0" /><circle cx="158.6197" cy="171.1098" r="2.3917" stroke-width="0.0" /><rect height="1" rx="3.189" ry="3.189" width="1" x="132.1122" y="44.7874" /><rect height="1" rx="3.189" ry="3.189" width="1" x="132.1122" y="11.8346" /><circle cx="17.1531" cy="17.8264" r="2.0374" stroke-width="0.0" /><circle cx="17.1531" cy="26.8264" r="2.0374" stroke-width="0.0" /><circle cx="17.1531" cy="35.8264" r="2.0374" stroke-width="0.0" /><circle cx="17.1531" cy="44.8264" r="2.0374" stroke-width="0.0" /><circle cx="17.1531" cy="53.8264" r="2.0374" stroke-width="0.0" /><circle cx="17.1531" cy="62.8264" r="2.0374" stroke-width="0.0" /><circle cx="17.1531" cy="71.8264" r="2.0374" stroke-width="0.0" /><circle cx="17.1531" cy="80.8264" r="2.0374" stroke-width="0.0" /><circle cx="169.6571" cy="110.165" r="2.0374" stroke-width="0.0" /><circle cx="169.6571" cy="119.165" r="2.0374" stroke-width="0.0" /><circle cx="169.6571" cy="128.165" r="2.0374" stroke-width="0.0" /><circle cx="169.6571" cy="137.165" r="2.0374" stroke-width="0.0" /><circle cx="169.6571" cy="146.165" r="2.0374" stroke-width="0.0" /><circle cx="169.6571" cy="155.165" r="2.0374" stroke-width="0.0" /><circle cx="169.6571" cy="164.165" r="2.0374" stroke-width="0.0" /><circle cx="169.6571" cy="173.165" r="2.0374" stroke-width="0.0" /><circle cx="103.8047" cy="76.2201" r="1.6831" stroke-width="0.0" /><circle cx="121.8047" cy="76.2201" r="1.6831" stroke-width="0.0" /><circle cx="139.8047" cy="76.2201" r="1.6831" stroke-width="0.0" /><circle cx="148.8047" cy="22.0075" r="1.6831" stroke-width="0.0" /><circle cx="130.8047" cy="22.0075" r="1.6831" stroke-width="0.0" /><circle cx="112.8047" cy="22.0075" r="1.6831" stroke-width="0.0" /><circle cx="112.8047" cy="76.2201" r="1.6831" stroke-width="0.0" /><circle cx="130.8047" cy="76.2201" r="1.6831" stroke-width="0.0" /><circle cx="148.8047" cy="76.2201" r="1.6831" stroke-width="0.0" /><circle cx="139.8047" cy="22.0075" r="1.6831" stroke-width="0.0" /><circle cx="121.8047" cy="22.0075" r="1.6831" stroke-width="0.0" /><circle cx="103.8047" cy="22.0075" r="1.6831" stroke-width="0.0" /><circle cx="37.5449" cy="76.2201" r="1.6831" stroke-width="0.0" /><circle cx="55.5449" cy="76.2201" r="1.6831" stroke-width="0.0" /><circle cx="73.5449" cy="76.2201" r="1.6831" stroke-width="0.0" /><circle cx="82.5449" cy="22.0075" r="1.6831" stroke-width="0.0" /><circle cx="64.5449" cy="22.0075" r="1.6831" stroke-width="0.0" /><circle cx="46.5449" cy="22.0075" r="1.6831" stroke-width="0.0" /><circle cx="46.5449" cy="76.2201" r="1.6831" stroke-width="0.0" /><circle cx="64.5449" cy="76.2201" r="1.6831" stroke-width="0.0" /><circle cx="82.5449" cy="76.2201" r="1.6831" stroke-width="0.0" /><circle cx="73.5449" cy="22.0075" r="1.6831" stroke-width="0.0" /><circle cx="55.5449" cy="22.0075" r="1.6831" stroke-width="0.0" /><circle cx="37.5449" cy="22.0075" r="1.6831" stroke-width="0.0" /></g><g id="rulers" stroke="black" /></svg>