<?xml version="1.0" encoding="utf-8" ?>
<svg baseProfile="tiny" height="190.849601634" version="1.2" width="186.951963934" xmlns="http://www.w3.org/2000/svg" xmlns:ev="http://www.w3.org/2001/xml-events" xmlns:xlink="http://www.w3.org/1999/xlink"><defs /><g id="paths" stroke="blue"><path d="M 4.893306967,93.475981967 L 182.058656967,93.475981967 L 182.058656967,4.893306967 L 4.893306967,4.893306967 L 4.893306967,93.475981967 Z" fill-opacity="0" stroke-linejoin="round" stroke-width="1.0" /><path d="M 4.893306967,185.956294667 L 182.058656967,185.956294667 L 182.058656967,97.373619667 L 4.893306967,97.373619667 L 4.893306967,185.956294667 Z" fill-opacity="0" stroke-linejoin="round" stroke-width="1.0" /></g><g fill="red" id="holes"><circle cx="27.9957" cy="133.0193" r="0.585" stroke-width="0.0" /><circle cx="117.8646" cy="62.0823" r="0.54" stroke-width="0.0" /><circle cx="135.7299" cy="26.1354" r="0.585" stroke-width="0.0" /><circle cx="70.4445" cy="171.1973" r="0.54" stroke-width="0.0" /><circle cx="99.0213" cy="43.9583" r="0.54" stroke-width="0.0" /><circle cx="99.9571" cy="171.6059" r="0.54" stroke-width="0.0" /><circle cx="99.7299" cy="35.5252" r="0.585" stroke-width="0.0" /><circle cx="52.2319" cy="101.8028" r="0.585" stroke-width="0.0" /><circle cx="163.4563" cy="110.165" r="0.54" stroke-width="0.0" /><circle cx="67.1595" cy="175.2774" r="0.54" stroke-width="0.0" /><circle cx="127.4031" cy="28.2614" r="0.585" stroke-width="0.0" /><circle cx="128.2004" cy="125.4189" r="0.585" stroke-width="0.0" /><circle cx="163.7904" cy="143.1594" r="0.54" stroke-width="0.0" /><circle cx="23.4499" cy="113.1768" r="0.54" stroke-width="0.0" /><circle cx="27.9957" cy="127.35" r="0.585" stroke-width="0.0" /><circle cx="151.2319" cy="128.9091" r="0.54" stroke-width="0.0" /><circle cx="67.1595" cy="166.1809" r="0.585" stroke-width="0.0" /><circle cx="129.3874" cy="53.9681" r="0.54" stroke-width="0.0" /><circle cx="27.9957" cy="124.5154" r="0.585" stroke-width="0.0" /><circle cx="85.8579" cy="162.7122" r="0.54" stroke-width="0.0" /><circle cx="117.1275" cy="47.9445" r="0.54" stroke-width="0.0" /><circle cx="30.4051" cy="179.3522" r="0.54" stroke-width="0.0" /><circle cx="68.6126" cy="66.9366" r="0.54" stroke-width="0.0" /><circle cx="61.6674" cy="100.7398" r="0.54" stroke-width="0.0" /><circle cx="25.7073" cy="153.6846" r="0.54" stroke-width="0.0" /><circle cx="50.152" cy="69.1157" r="0.54" stroke-width="0.0" /><circle cx="64.3249" cy="166.1809" r="0.585" stroke-width="0.0" /><circle cx="138.3874" cy="58.4858" r="0.54" stroke-width="0.0" /><circle cx="53.2594" cy="40.6807" r="0.54" stroke-width="0.0" /><circle cx="38.5505" cy="179.3522" r="0.54" stroke-width="0.0" /><circle cx="80.8618" cy="133.9509" r="0.585" stroke-width="0.0" /><circle cx="109.2189" cy="46.6972" r="0.54" stroke-width="0.0" /><circle cx="49.3972" cy="101.8028" r="0.585" stroke-width="0.0" /><circle cx="109.0134" cy="145.5626" r="0.54" stroke-width="0.0" /><circle cx="122.3539" cy="50.0705" r="0.54" stroke-width="0.0" /><circle cx="35.8972" cy="179.3522" r="0.54" stroke-width="0.0" /><circle cx="55.1789" cy="101.8028" r="0.585" stroke-width="0.0" /><circle cx="77.5594" cy="64.6335" r="0.585" stroke-width="0.0" /><circle cx="109.2189" cy="68.9031" r="0.54" stroke-width="0.0" /><circle cx="117.4465" cy="30.5823" r="0.54" stroke-width="0.0" /><circle cx="79.6571" cy="176.2122" r="0.54" stroke-width="0.0" /><circle cx="108.6945" cy="32.8677" r="0.585" stroke-width="0.0" /><circle cx="85.214" cy="133.9509" r="0.585" stroke-width="0.0" /><circle cx="99.9571" cy="161.1886" r="0.54" stroke-width="0.0" /><circle cx="33.0626" cy="179.3522" r="0.54" stroke-width="0.0" /><circle cx="61.5685" cy="166.1809" r="0.585" stroke-width="0.0" /><circle cx="99.9571" cy="154.4209" r="0.54" stroke-width="0.0" /><circle cx="27.9957" cy="130.1846" r="0.585" stroke-width="0.0" /><circle cx="69.9441" cy="166.1809" r="0.585" stroke-width="0.0" /><circle cx="98.8087" cy="71.224" r="0.585" stroke-width="0.0" /><circle cx="17.2949" cy="173.165" r="2.0374" stroke-width="0.0" /><circle cx="17.2949" cy="164.165" r="2.0374" stroke-width="0.0" /><circle cx="17.2949" cy="155.165" r="2.0374" stroke-width="0.0" /><circle cx="17.2949" cy="146.165" r="2.0374" stroke-width="0.0" /><circle cx="17.2949" cy="137.165" r="2.0374" stroke-width="0.0" /><circle cx="17.2949" cy="128.165" r="2.0374" stroke-width="0.0" /><circle cx="17.2949" cy="119.165" r="2.0374" stroke-width="0.0" /><circle cx="17.2949" cy="110.165" r="2.0374" stroke-width="0.0" /><circle cx="83.2571" cy="176.2122" r="1.7557" stroke-width="0.0" /><circle cx="76.0571" cy="176.2122" r="1.7557" stroke-width="0.0" /><circle cx="79.6571" cy="158.2122" r="1.7557" stroke-width="0.0" /><circle cx="169.5154" cy="80.472" r="2.0374" stroke-width="0.0" /><circle cx="169.5154" cy="71.472" r="2.0374" stroke-width="0.0" /><circle cx="169.5154" cy="62.472" r="2.0374" stroke-width="0.0" /><circle cx="169.5154" cy="53.472" r="2.0374" stroke-width="0.0" /><circle cx="169.5154" cy="44.472" r="2.0374" stroke-width="0.0" /><circle cx="169.5154" cy="35.472" r="2.0374" stroke-width="0.0" /><circle cx="169.5154" cy="26.472" r="2.0374" stroke-width="0.0" /><circle cx="169.5154" cy="17.472" r="2.0374" stroke-width="0.0" /><circle cx="37.9701" cy="171.7341" r="1.7717" stroke-width="0.0" /><circle cx="47.8913" cy="179.3522" r="2.4803" stroke-width="0.0" /><circle cx="57.8126" cy="171.7341" r="1.7717" stroke-width="0.0" /><circle cx="107.2417" cy="152.3303" r="2.3917" stroke-width="0.0" /><circle cx="107.2417" cy="161.1886" r="2.3917" stroke-width="0.0" /><circle cx="107.2417" cy="170.0468" r="2.3917" stroke-width="0.0" /><circle cx="158.6197" cy="152.3303" r="2.3917" stroke-width="0.0" /><circle cx="158.6197" cy="170.0468" r="2.3917" stroke-width="0.0" /><circle cx="133.8165" cy="144.7122" r="4.6063" stroke-width="0.0" /><circle cx="133.8165" cy="177.665" r="4.6063" stroke-width="0.0" /><circle cx="17.1531" cy="17.8264" r="2.0374" stroke-width="0.0" /><circle cx="17.1531" cy="26.8264" r="2.0374" stroke-width="0.0" /><circle cx="17.1531" cy="35.8264" r="2.0374" stroke-width="0.0" /><circle cx="17.1531" cy="44.8264" r="2.0374" stroke-width="0.0" /><circle cx="17.1531" cy="53.8264" r="2.0374" stroke-width="0.0" /><circle cx="17.1531" cy="62.8264" r="2.0374" stroke-width="0.0" /><circle cx="17.1531" cy="71.8264" r="2.0374" stroke-width="0.0" /><circle cx="17.1531" cy="80.8264" r="2.0374" stroke-width="0.0" /><circle cx="39.352" cy="76.2201" r="1.6831" stroke-width="0.0" /><circle cx="57.352" cy="76.2201" r="1.6831" stroke-width="0.0" /><circle cx="75.352" cy="76.2201" r="1.6831" stroke-width="0.0" /><circle cx="84.352" cy="22.0075" r="1.6831" stroke-width="0.0" /><circle cx="66.352" cy="22.0075" r="1.6831" stroke-width="0.0" /><circle cx="48.352" cy="22.0075" r="1.6831" stroke-width="0.0" /><circle cx="48.352" cy="76.2201" r="1.6831" stroke-width="0.0" /><circle cx="66.352" cy="76.2201" r="1.6831" stroke-width="0.0" /><circle cx="84.352" cy="76.2201" r="1.6831" stroke-width="0.0" /><circle cx="75.352" cy="22.0075" r="1.6831" stroke-width="0.0" /><circle cx="57.352" cy="22.0075" r="1.6831" stroke-width="0.0" /><circle cx="39.352" cy="22.0075" r="1.6831" stroke-width="0.0" /><circle cx="169.6571" cy="110.165" r="2.0374" stroke-width="0.0" /><circle cx="169.6571" cy="119.165" r="2.0374" stroke-width="0.0" /><circle cx="169.6571" cy="128.165" r="2.0374" stroke-width="0.0" /><circle cx="169.6571" cy="137.165" r="2.0374" stroke-width="0.0" /><circle cx="169.6571" cy="146.165" r="2.0374" stroke-width="0.0" /><circle cx="169.6571" cy="155.165" r="2.0374" stroke-width="0.0" /><circle cx="169.6571" cy="164.165" r="2.0374" stroke-width="0.0" /><circle cx="169.6571" cy="173.165" r="2.0374" stroke-width="0.0" /><circle cx="102.352" cy="76.2201" r="1.6831" stroke-width="0.0" /><circle cx="120.352" cy="76.2201" r="1.6831" stroke-width="0.0" /><circle cx="138.352" cy="76.2201" r="1.6831" stroke-width="0.0" /><circle cx="147.352" cy="22.0075" r="1.6831" stroke-width="0.0" /><circle cx="129.352" cy="22.0075" r="1.6831" stroke-width="0.0" /><circle cx="111.352" cy="22.0075" r="1.6831" stroke-width="0.0" /><circle cx="111.352" cy="76.2201" r="1.6831" stroke-width="0.0" /><circle cx="129.352" cy="76.2201" r="1.6831" stroke-width="0.0" /><circle cx="147.352" cy="76.2201" r="1.6831" stroke-width="0.0" /><circle cx="138.352" cy="22.0075" r="1.6831" stroke-width="0.0" /><circle cx="120.352" cy="22.0075" r="1.6831" stroke-width="0.0" /><circle cx="102.352" cy="22.0075" r="1.6831" stroke-width="0.0" /></g><g id="rulers" stroke="black" /></svg>